<svg width="360" height="160" viewBox="0 0 360 160" fill="none" xmlns="http://www.w3.org/2000/svg">
<path d="M0 5C0 2.23858 2.23858 0 5 0H355C357.761 0 360 2.23858 360 5V40H0V5Z" fill="#836B7F"/>
<path d="M19.632 30.14C19.5947 28.1987 19.5573 26.752 19.52 25.8H15.096L13.5 30H9.44C11.4933 25.0347 14.0413 19.248 17.084 12.64H22.6C23.0667 19.2853 23.412 25.0253 23.636 29.86L19.632 30.14ZM19.044 16.056C18.7827 16.7093 18.3347 17.792 17.7 19.304C17.084 20.816 16.6173 21.9827 16.3 22.804H19.464C19.3893 19.836 19.324 17.5867 19.268 16.056H19.044ZM39.8425 29.02C36.2212 30.6627 34.0185 30.8027 33.2345 29.44C32.4505 28.0587 33.1225 24.9413 35.2505 20.088C34.2239 20.3307 33.3465 20.4707 32.6185 20.508C31.6292 22.1507 30.0052 24.064 27.7465 26.248L26.4025 24.82C28.0452 22.9907 29.2119 21.4973 29.9025 20.34C28.6705 20.0227 28.0545 19.4067 28.0545 18.492C28.0545 17.6147 28.4745 16.784 29.3145 16C30.1732 15.216 31.1159 14.824 32.1425 14.824C32.6839 14.824 33.1132 14.992 33.4305 15.328C33.7665 15.664 33.9345 16.1307 33.9345 16.728C33.9345 16.952 33.9252 17.12 33.9065 17.232C35.6985 16.8773 37.2199 16.364 38.4705 15.692L40.3465 16.504C38.1625 21.6747 37.0332 24.8667 36.9585 26.08C36.9025 26.864 37.2012 27.2747 37.8545 27.312C38.1905 27.3307 38.7879 27.2467 39.6465 27.06L39.8425 29.02ZM42.3851 24.512C42.3851 22.0293 43.1224 19.892 44.5971 18.1C46.0904 16.2893 47.9571 15.384 50.1971 15.384C51.9144 15.384 53.2677 15.916 54.2571 16.98C55.2651 18.0253 55.7691 19.4533 55.7691 21.264C55.7691 23.7467 55.0224 25.8933 53.5291 27.704C52.0544 29.496 50.1971 30.392 47.9571 30.392C46.2397 30.392 44.8771 29.8693 43.8691 28.824C42.8797 27.76 42.3851 26.3227 42.3851 24.512ZM51.8211 21.74C51.8211 20.732 51.6251 19.9573 51.2331 19.416C50.8597 18.856 50.3464 18.576 49.6931 18.576C48.7224 18.576 47.9197 19.136 47.2851 20.256C46.6504 21.3573 46.3331 22.6173 46.3331 24.036C46.3331 25.044 46.5197 25.828 46.8931 26.388C47.2851 26.9293 47.8077 27.2 48.4611 27.2C49.4317 27.2 50.2344 26.6493 50.8691 25.548C51.5037 24.428 51.8211 23.1587 51.8211 21.74ZM71.5836 29.44C69.9036 30.056 68.6996 30.3173 67.9716 30.224C67.2623 30.1493 66.9076 29.692 66.9076 28.852C66.9076 28.292 67.1783 26.752 67.7196 24.232C68.2796 21.712 68.5596 20.2653 68.5596 19.892C68.5596 19.4813 68.3916 19.276 68.0556 19.276C67.7009 19.276 67.3183 19.4253 66.9076 19.724L64.9196 30H62.3156L64.0796 20.872C64.1543 20.48 64.2009 20.1813 64.2196 19.976C64.2383 19.7707 64.2103 19.6027 64.1356 19.472C64.0609 19.3413 63.9209 19.276 63.7156 19.276C63.3049 19.276 62.8849 19.4533 62.4556 19.808L60.4956 30H56.8836C58.1343 23.504 59.0023 18.8187 59.4876 15.944L62.9316 15.748L62.7916 17.148C63.8369 16.028 64.8169 15.468 65.7316 15.468C66.7396 15.468 67.2343 16.14 67.2156 17.484C68.5036 16.14 69.7263 15.468 70.8836 15.468C71.9849 15.468 72.5356 16.112 72.5356 17.4C72.5356 18.2773 72.1996 20.0507 71.5276 22.72C70.8743 25.3707 70.5476 26.864 70.5476 27.2C70.5476 27.4613 70.7996 27.564 71.3036 27.508L71.5836 29.44ZM77.4581 25.044C77.4581 26.1453 77.8501 26.696 78.6341 26.696C79.4181 26.696 80.3795 26.2013 81.5181 25.212C81.6488 24.5587 82.0408 22.552 82.6941 19.192C81.8541 18.8933 81.1448 18.744 80.5661 18.744C79.7635 18.744 79.0448 19.4347 78.4101 20.816C77.7755 22.1787 77.4581 23.588 77.4581 25.044ZM87.2301 28.712C85.7368 29.608 84.5421 30.1307 83.6461 30.28C82.7501 30.4293 82.1341 30.28 81.7981 29.832C81.4621 29.3653 81.3128 28.6187 81.3501 27.592C79.4648 29.44 77.8315 30.364 76.4501 30.364C75.5915 30.364 74.8915 29.9907 74.3501 29.244C73.8088 28.4973 73.5381 27.4147 73.5381 25.996C73.5381 24.2227 73.8835 22.552 74.5741 20.984C75.2648 19.3973 76.3101 18.0907 77.7101 17.064C79.1288 16.0187 80.7528 15.496 82.5821 15.496C84.0568 15.496 85.5408 15.72 87.0341 16.168L85.1301 26.024C85.0181 26.584 85.0461 26.9013 85.2141 26.976C85.3821 27.0507 85.9515 26.9947 86.9221 26.808L87.2301 28.712Z" fill="#EEEEEE"/>
<rect width="360" height="40" transform="translate(0 80)" fill="#C3C4A2" fill-opacity="0.15"/>
<g opacity="0.7">
<path d="M15.952 107.752C17.104 107.752 18.216 107.328 19.288 106.48C19.256 105.456 19.24 104.528 19.24 103.696C15.432 103.296 13.528 103.992 13.528 105.784C13.528 106.408 13.744 106.896 14.176 107.248C14.624 107.584 15.216 107.752 15.952 107.752ZM19.552 109.072C19.552 109.04 19.528 108.832 19.48 108.448C19.432 108.064 19.4 107.768 19.384 107.56C18.136 108.712 16.744 109.288 15.208 109.288C14.12 109.288 13.248 109.016 12.592 108.472C11.936 107.928 11.608 107.184 11.608 106.24C11.608 104.96 12.256 103.952 13.552 103.216C14.848 102.464 16.736 102.16 19.216 102.304C19.136 100.96 18.624 100.048 17.68 99.568C16.752 99.088 14.96 98.8 12.304 98.704L12.52 97.024C14.824 97.088 16.584 97.32 17.8 97.72C19.016 98.12 19.872 98.744 20.368 99.592C20.88 100.424 21.136 101.616 21.136 103.168C21.136 104.784 21.2 106.712 21.328 108.952L19.552 109.072ZM33.6353 109H24.8033V107.512H27.9233C27.8593 102.776 27.8113 99.872 27.7793 98.8L24.8033 98.632L24.9473 97.24H29.5073C29.5713 97.912 29.6193 98.584 29.6513 99.256C30.9633 97.896 32.7553 97.08 35.0273 96.808L35.1233 98.872C32.8513 99.048 31.0513 99.568 29.7233 100.432C29.7233 100.864 29.7313 101.896 29.7473 103.528C29.7793 105.144 29.8033 106.472 29.8193 107.512H33.8033L33.6353 109ZM42.7266 109.336C41.2386 109.336 40.0306 108.8 39.1026 107.728C38.1746 106.656 37.7106 105.192 37.7106 103.336C37.7106 101.464 38.2466 99.928 39.3186 98.728C40.4066 97.528 41.7266 96.928 43.2786 96.928C44.7666 96.928 45.9666 97.464 46.8786 98.536C47.8066 99.592 48.2706 101.048 48.2706 102.904C48.2706 104.808 47.7346 106.36 46.6626 107.56C45.5906 108.744 44.2786 109.336 42.7266 109.336ZM43.0386 107.728C44.0306 107.728 44.8226 107.344 45.4146 106.576C46.0226 105.792 46.3266 104.688 46.3266 103.264C46.3266 101.76 46.0146 100.592 45.3906 99.76C44.7826 98.928 43.9666 98.512 42.9426 98.512C41.9666 98.512 41.1746 98.904 40.5666 99.688C39.9746 100.472 39.6786 101.568 39.6786 102.976C39.6786 104.48 39.9826 105.648 40.5906 106.48C41.1986 107.312 42.0146 107.728 43.0386 107.728ZM54.4339 98.632C53.8579 98.632 53.2739 98.928 52.6819 99.52C52.7459 102.368 52.7779 105.528 52.7779 109H50.9539C50.9539 103.912 50.9059 100.016 50.8099 97.312L52.5139 97.192L52.6099 98.296C53.4099 97.416 54.2579 96.976 55.1539 96.976C56.0499 96.976 56.6499 97.392 56.9539 98.224C57.7539 97.392 58.6099 96.976 59.5219 96.976C60.8979 96.976 61.5859 97.856 61.5859 99.616V109H59.7379V100.312C59.7379 99.704 59.6499 99.272 59.4739 99.016C59.3139 98.76 59.0259 98.632 58.6099 98.632C58.0819 98.632 57.5619 98.864 57.0499 99.328V99.544V109H55.5379V100.288C55.5379 99.696 55.4499 99.272 55.2739 99.016C55.1139 98.76 54.8339 98.632 54.4339 98.632ZM68.7333 107.752C69.8853 107.752 70.9973 107.328 72.0693 106.48C72.0373 105.456 72.0213 104.528 72.0213 103.696C68.2133 103.296 66.3092 103.992 66.3092 105.784C66.3092 106.408 66.5253 106.896 66.9573 107.248C67.4053 107.584 67.9973 107.752 68.7333 107.752ZM72.3333 109.072C72.3333 109.04 72.3093 108.832 72.2613 108.448C72.2133 108.064 72.1813 107.768 72.1653 107.56C70.9173 108.712 69.5253 109.288 67.9893 109.288C66.9013 109.288 66.0293 109.016 65.3733 108.472C64.7173 107.928 64.3893 107.184 64.3893 106.24C64.3893 104.96 65.0373 103.952 66.3333 103.216C67.6293 102.464 69.5173 102.16 71.9973 102.304C71.9173 100.96 71.4053 100.048 70.4613 99.568C69.5333 99.088 67.7413 98.8 65.0853 98.704L65.3013 97.024C67.6053 97.088 69.3653 97.32 70.5813 97.72C71.7973 98.12 72.6533 98.744 73.1493 99.592C73.6613 100.424 73.9173 101.616 73.9173 103.168C73.9173 104.784 73.9813 106.712 74.1093 108.952L72.3333 109.072Z" fill="black"/>
</g>
<line y1="119.5" x2="360" y2="119.5" stroke="#3D1A1A" stroke-opacity="0.2"/>
<line x1="0.5" y1="80" x2="0.499998" y2="119" stroke="#3D1A1A" stroke-opacity="0.2"/>
<line x1="359.5" y1="80" x2="359.5" y2="119" stroke="#3D1A1A" stroke-opacity="0.2"/>
<rect width="360" height="40" transform="translate(0 120)" fill="#C3C4A2" fill-opacity="0.15"/>
<g opacity="0.7">
<path d="M11.92 143.312C11.92 142.464 12.072 141.688 12.376 140.984C12.696 140.28 13.184 139.632 13.84 139.04C14.512 138.448 15.448 137.984 16.648 137.648C17.864 137.296 19.296 137.104 20.944 137.072L21.088 138.92C19.616 138.92 18.384 139.016 17.392 139.208C16.416 139.384 15.672 139.664 15.16 140.048C14.664 140.432 14.32 140.864 14.128 141.344C13.936 141.808 13.84 142.376 13.84 143.048C13.84 144.68 14.384 145.856 15.472 146.576C16.56 147.296 18.488 147.592 21.256 147.464L21.04 149.096C19.312 149.208 17.84 149.152 16.624 148.928C15.408 148.688 14.464 148.288 13.792 147.728C13.12 147.168 12.64 146.536 12.352 145.832C12.064 145.112 11.92 144.272 11.92 143.312ZM29.1473 147.752C30.2993 147.752 31.4113 147.328 32.4833 146.48C32.4513 145.456 32.4353 144.528 32.4353 143.696C28.6273 143.296 26.7233 143.992 26.7233 145.784C26.7233 146.408 26.9393 146.896 27.3713 147.248C27.8193 147.584 28.4113 147.752 29.1473 147.752ZM32.7473 149.072C32.7473 149.04 32.7233 148.832 32.6753 148.448C32.6273 148.064 32.5953 147.768 32.5793 147.56C31.3313 148.712 29.9393 149.288 28.4033 149.288C27.3153 149.288 26.4433 149.016 25.7873 148.472C25.1313 147.928 24.8033 147.184 24.8033 146.24C24.8033 144.96 25.4513 143.952 26.7473 143.216C28.0433 142.464 29.9313 142.16 32.4113 142.304C32.3313 140.96 31.8193 140.048 30.8753 139.568C29.9473 139.088 28.1553 138.8 25.4993 138.704L25.7153 137.024C28.0193 137.088 29.7793 137.32 30.9953 137.72C32.2113 138.12 33.0673 138.744 33.5633 139.592C34.0753 140.424 34.3313 141.616 34.3313 143.168C34.3313 144.784 34.3953 146.712 34.5233 148.952L32.7473 149.072ZM47.4306 149.192C44.9186 149.224 43.1586 148.944 42.1506 148.352C41.1426 147.744 40.6386 146.704 40.6386 145.232V138.752H38.2146L38.4066 137.24H40.6386V133.976L42.5826 133.808V137.24H47.3826V138.752H42.5826V144.92C42.5826 145.928 42.9266 146.616 43.6146 146.984C44.3186 147.336 45.6626 147.528 47.6466 147.56L47.4306 149.192ZM60.5299 149.264C58.7219 149.264 57.2019 149.136 55.9699 148.88C54.7379 148.608 53.7699 148.208 53.0659 147.68C52.3779 147.152 51.8899 146.536 51.6019 145.832C51.3139 145.128 51.1699 144.28 51.1699 143.288C51.1699 141.512 51.7059 140.016 52.7779 138.8C53.8659 137.568 55.1779 136.952 56.7139 136.952C58.2979 136.952 59.4819 137.544 60.2659 138.728C61.0659 139.896 61.3539 141.464 61.1299 143.432L53.0899 143.624C53.1859 145.032 53.7779 146.032 54.8659 146.624C55.9699 147.216 57.9219 147.544 60.7219 147.608L60.5299 149.264ZM56.3779 138.56C55.4019 138.56 54.6259 138.896 54.0499 139.568C53.4739 140.224 53.1539 141.176 53.0899 142.424C54.2579 142.376 56.3299 142.312 59.3059 142.232C59.2899 141.08 59.0339 140.184 58.5379 139.544C58.0579 138.888 57.3379 138.56 56.3779 138.56ZM65.8053 153.152L65.6133 151.376C66.7813 151.28 67.7173 151.168 68.4213 151.04C69.1253 150.928 69.7253 150.776 70.2213 150.584C70.7333 150.408 71.1013 150.144 71.3253 149.792C71.5653 149.456 71.7253 149.08 71.8053 148.664C71.9013 148.232 71.9573 147.656 71.9733 146.936C70.9813 147.704 69.8613 148.088 68.6133 148.088C67.3173 148.088 66.2533 147.64 65.4213 146.744C64.5893 145.848 64.1733 144.64 64.1733 143.12C64.1733 141.28 64.7813 139.8 65.9973 138.68C67.2133 137.544 68.6933 136.976 70.4373 136.976C71.5253 136.976 72.6693 137.16 73.8693 137.528C73.8853 138.152 73.8933 141.064 73.8933 146.264C73.8933 147.336 73.7733 148.256 73.5333 149.024C73.2933 149.792 72.8773 150.48 72.2853 151.088C71.6933 151.696 70.8613 152.168 69.7893 152.504C68.7173 152.856 67.3893 153.072 65.8053 153.152ZM69.3333 146.528C70.2293 146.528 71.1093 146.256 71.9733 145.712C71.9733 145.408 71.9733 144.768 71.9733 143.792C71.9733 142.816 71.9733 141.912 71.9733 141.08C71.9733 140.232 71.9733 139.536 71.9733 138.992C71.1253 138.752 70.3813 138.632 69.7413 138.632C68.6693 138.632 67.7893 138.992 67.1013 139.712C66.4293 140.416 66.0933 141.4 66.0933 142.664C66.0933 143.912 66.3893 144.872 66.9813 145.544C67.5893 146.2 68.3733 146.528 69.3333 146.528ZM82.3126 149.336C80.8246 149.336 79.6166 148.8 78.6886 147.728C77.7606 146.656 77.2966 145.192 77.2966 143.336C77.2966 141.464 77.8326 139.928 78.9046 138.728C79.9926 137.528 81.3126 136.928 82.8646 136.928C84.3526 136.928 85.5526 137.464 86.4646 138.536C87.3926 139.592 87.8566 141.048 87.8566 142.904C87.8566 144.808 87.3206 146.36 86.2486 147.56C85.1766 148.744 83.8646 149.336 82.3126 149.336ZM82.6246 147.728C83.6166 147.728 84.4086 147.344 85.0006 146.576C85.6086 145.792 85.9126 144.688 85.9126 143.264C85.9126 141.76 85.6006 140.592 84.9766 139.76C84.3686 138.928 83.5526 138.512 82.5286 138.512C81.5526 138.512 80.7606 138.904 80.1526 139.688C79.5606 140.472 79.2646 141.568 79.2646 142.976C79.2646 144.48 79.5686 145.648 80.1766 146.48C80.7846 147.312 81.6006 147.728 82.6246 147.728ZM99.6119 149H90.7799V147.512H93.8999C93.8359 142.776 93.7879 139.872 93.7559 138.8L90.7799 138.632L90.9239 137.24H95.4839C95.5479 137.912 95.5959 138.584 95.6279 139.256C96.9399 137.896 98.7319 137.08 101.004 136.808L101.1 138.872C98.8279 139.048 97.0279 139.568 95.6999 140.432C95.6999 140.864 95.7079 141.896 95.7239 143.528C95.7559 145.144 95.7799 146.472 95.7959 147.512H99.7799L99.6119 149ZM106.951 134.744C107.639 134.264 108.439 133.608 109.351 132.776C110.263 131.928 111.007 131.16 111.583 130.472L113.143 131.984C112.487 132.576 111.607 133.224 110.503 133.928C109.399 134.616 108.399 135.176 107.503 135.608L106.951 134.744ZM114.703 149H104.071V147.512H108.487V138.8L104.095 138.608L104.239 137.24H110.431V147.512H114.847L114.703 149ZM121.515 147.752C122.667 147.752 123.779 147.328 124.851 146.48C124.819 145.456 124.803 144.528 124.803 143.696C120.995 143.296 119.09 143.992 119.09 145.784C119.09 146.408 119.307 146.896 119.739 147.248C120.187 147.584 120.779 147.752 121.515 147.752ZM125.115 149.072C125.115 149.04 125.091 148.832 125.043 148.448C124.995 148.064 124.963 147.768 124.947 147.56C123.699 148.712 122.307 149.288 120.771 149.288C119.683 149.288 118.811 149.016 118.155 148.472C117.499 147.928 117.171 147.184 117.171 146.24C117.171 144.96 117.819 143.952 119.115 143.216C120.411 142.464 122.299 142.16 124.779 142.304C124.699 140.96 124.187 140.048 123.243 139.568C122.315 139.088 120.523 138.8 117.867 138.704L118.083 137.024C120.387 137.088 122.147 137.32 123.363 137.72C124.579 138.12 125.435 138.744 125.931 139.592C126.443 140.424 126.699 141.616 126.699 143.168C126.699 144.784 126.763 146.712 126.891 148.952L125.115 149.072Z" fill="black"/>
</g>
<line y1="159.5" x2="360" y2="159.5" stroke="#3D1A1A" stroke-opacity="0.2"/>
<line x1="0.5" y1="120" x2="0.499998" y2="159" stroke="#3D1A1A" stroke-opacity="0.2"/>
<line x1="359.5" y1="120" x2="359.5" y2="159" stroke="#3D1A1A" stroke-opacity="0.2"/>
<rect width="360" height="40" transform="translate(0 40)" fill="#C3C4A2" fill-opacity="0.15"/>
<g opacity="0.7">
<path d="M11.92 63.312C11.92 62.464 12.072 61.688 12.376 60.984C12.696 60.28 13.184 59.632 13.84 59.04C14.512 58.448 15.448 57.984 16.648 57.648C17.864 57.296 19.296 57.104 20.944 57.072L21.088 58.92C19.616 58.92 18.384 59.016 17.392 59.208C16.416 59.384 15.672 59.664 15.16 60.048C14.664 60.432 14.32 60.864 14.128 61.344C13.936 61.808 13.84 62.376 13.84 63.048C13.84 64.68 14.384 65.856 15.472 66.576C16.56 67.296 18.488 67.592 21.256 67.464L21.04 69.096C19.312 69.208 17.84 69.152 16.624 68.928C15.408 68.688 14.464 68.288 13.792 67.728C13.12 67.168 12.64 66.536 12.352 65.832C12.064 65.112 11.92 64.272 11.92 63.312ZM29.5313 69.336C28.0433 69.336 26.8353 68.8 25.9073 67.728C24.9793 66.656 24.5153 65.192 24.5153 63.336C24.5153 61.464 25.0513 59.928 26.1233 58.728C27.2113 57.528 28.5313 56.928 30.0833 56.928C31.5713 56.928 32.7713 57.464 33.6833 58.536C34.6113 59.592 35.0753 61.048 35.0753 62.904C35.0753 64.808 34.5393 66.36 33.4673 67.56C32.3953 68.744 31.0833 69.336 29.5313 69.336ZM29.8433 67.728C30.8353 67.728 31.6273 67.344 32.2193 66.576C32.8273 65.792 33.1313 64.688 33.1313 63.264C33.1313 61.76 32.8193 60.592 32.1953 59.76C31.5873 58.928 30.7713 58.512 29.7473 58.512C28.7713 58.512 27.9793 58.904 27.3713 59.688C26.7793 60.472 26.4833 61.568 26.4833 62.976C26.4833 64.48 26.7873 65.648 27.3953 66.48C28.0033 67.312 28.8193 67.728 29.8433 67.728ZM42.8946 67.68C43.8066 67.68 44.6786 67.344 45.5106 66.672C45.4626 64.624 45.4386 62.056 45.4386 58.968C44.7346 58.744 44.0866 58.632 43.4946 58.632C42.3746 58.632 41.4546 59.04 40.7346 59.856C40.0146 60.656 39.6546 61.776 39.6546 63.216C39.6546 64.672 39.9506 65.784 40.5426 66.552C41.1346 67.304 41.9186 67.68 42.8946 67.68ZM45.7266 69.048L45.6066 67.824C44.5666 68.8 43.4146 69.288 42.1506 69.288C40.8546 69.288 39.7906 68.792 38.9586 67.8C38.1426 66.792 37.7346 65.432 37.7346 63.72C37.7346 61.656 38.3746 60.016 39.6546 58.8C40.9346 57.584 42.5106 56.976 44.3826 56.976C44.7506 56.976 45.1026 57 45.4386 57.048V52.224L47.3826 52.056V57.288C47.3826 62.584 47.4386 66.472 47.5506 68.952L45.7266 69.048ZM57.4819 69H54.6259L54.7699 66.216H57.6259L57.4819 69ZM81.9286 67.752C83.0806 67.752 84.1926 67.328 85.2646 66.48C85.2326 65.456 85.2166 64.528 85.2166 63.696C81.4086 63.296 79.5046 63.992 79.5046 65.784C79.5046 66.408 79.7206 66.896 80.1526 67.248C80.6006 67.584 81.1926 67.752 81.9286 67.752ZM85.5286 69.072C85.5286 69.04 85.5046 68.832 85.4566 68.448C85.4086 68.064 85.3766 67.768 85.3606 67.56C84.1126 68.712 82.7206 69.288 81.1846 69.288C80.0966 69.288 79.2246 69.016 78.5686 68.472C77.9126 67.928 77.5846 67.184 77.5846 66.24C77.5846 64.96 78.2326 63.952 79.5286 63.216C80.8246 62.464 82.7126 62.16 85.1926 62.304C85.1126 60.96 84.6006 60.048 83.6566 59.568C82.7286 59.088 80.9366 58.8 78.2806 58.704L78.4966 57.024C80.8006 57.088 82.5606 57.32 83.7766 57.72C84.9926 58.12 85.8486 58.744 86.3446 59.592C86.8566 60.424 87.1126 61.616 87.1126 63.168C87.1126 64.784 87.1766 66.712 87.3046 68.952L85.5286 69.072ZM99.6119 69H90.7799V67.512H93.8999C93.8359 62.776 93.7879 59.872 93.7559 58.8L90.7799 58.632L90.9239 57.24H95.4839C95.5479 57.912 95.5959 58.584 95.6279 59.256C96.9399 57.896 98.7319 57.08 101.004 56.808L101.1 58.872C98.8279 59.048 97.0279 59.568 95.6999 60.432C95.6999 60.864 95.7079 61.896 95.7239 63.528C95.7559 65.144 95.7799 66.472 95.7959 67.512H99.7799L99.6119 69ZM108.703 69.336C107.215 69.336 106.007 68.8 105.079 67.728C104.151 66.656 103.687 65.192 103.687 63.336C103.687 61.464 104.223 59.928 105.295 58.728C106.383 57.528 107.703 56.928 109.255 56.928C110.743 56.928 111.943 57.464 112.855 58.536C113.783 59.592 114.247 61.048 114.247 62.904C114.247 64.808 113.711 66.36 112.639 67.56C111.567 68.744 110.255 69.336 108.703 69.336ZM109.015 67.728C110.007 67.728 110.799 67.344 111.391 66.576C111.999 65.792 112.303 64.688 112.303 63.264C112.303 61.76 111.991 60.592 111.367 59.76C110.759 58.928 109.943 58.512 108.919 58.512C107.943 58.512 107.151 58.904 106.543 59.688C105.951 60.472 105.655 61.568 105.655 62.976C105.655 64.48 105.959 65.648 106.567 66.48C107.175 67.312 107.991 67.728 109.015 67.728ZM120.411 58.632C119.835 58.632 119.251 58.928 118.659 59.52C118.723 62.368 118.755 65.528 118.755 69H116.931C116.931 63.912 116.883 60.016 116.787 57.312L118.491 57.192L118.587 58.296C119.387 57.416 120.235 56.976 121.131 56.976C122.027 56.976 122.627 57.392 122.931 58.224C123.731 57.392 124.587 56.976 125.499 56.976C126.875 56.976 127.562 57.856 127.562 59.616V69H125.715V60.312C125.715 59.704 125.627 59.272 125.451 59.016C125.291 58.76 125.003 58.632 124.587 58.632C124.059 58.632 123.539 58.864 123.027 59.328V59.544V69H121.515V60.288C121.515 59.696 121.427 59.272 121.251 59.016C121.091 58.76 120.811 58.632 120.411 58.632ZM134.71 67.752C135.862 67.752 136.974 67.328 138.046 66.48C138.014 65.456 137.998 64.528 137.998 63.696C134.19 63.296 132.286 63.992 132.286 65.784C132.286 66.408 132.502 66.896 132.934 67.248C133.382 67.584 133.974 67.752 134.71 67.752ZM138.31 69.072C138.31 69.04 138.286 68.832 138.238 68.448C138.19 68.064 138.158 67.768 138.142 67.56C136.894 68.712 135.502 69.288 133.966 69.288C132.878 69.288 132.006 69.016 131.35 68.472C130.694 67.928 130.366 67.184 130.366 66.24C130.366 64.96 131.014 63.952 132.31 63.216C133.606 62.464 135.494 62.16 137.974 62.304C137.894 60.96 137.382 60.048 136.438 59.568C135.51 59.088 133.718 58.8 131.062 58.704L131.278 57.024C133.582 57.088 135.342 57.32 136.558 57.72C137.774 58.12 138.63 58.744 139.126 59.592C139.638 60.424 139.894 61.616 139.894 63.168C139.894 64.784 139.958 66.712 140.086 68.952L138.31 69.072Z" fill="black"/>
<rect x="326" y="47" width="24" height="25" rx="12" fill="#C8B7BE"/>
<path d="M332.8 63V56.02H335.45C336.13 56.02 336.65 56.2133 337.01 56.6C337.37 56.9867 337.55 57.5133 337.55 58.18C337.55 58.8467 337.37 59.3733 337.01 59.76C336.65 60.1467 336.13 60.34 335.45 60.34H334.11V63H332.8ZM334.11 59.27H335.18C335.533 59.27 335.787 59.2 335.94 59.06C336.093 58.9133 336.17 58.6833 336.17 58.37V57.99C336.17 57.6767 336.093 57.45 335.94 57.31C335.787 57.1633 335.533 57.09 335.18 57.09H334.11V59.27ZM340.766 59.94L340.036 60.9V63H338.726V56.02H340.036V59.16H340.096L340.906 58L342.376 56.02H343.856L341.666 58.96L343.956 63H342.476L340.766 59.94Z" fill="black"/>
</g>
<line y1="79.5" x2="360" y2="79.5" stroke="#3D1A1A" stroke-opacity="0.2"/>
<line x1="0.5" y1="40" x2="0.499998" y2="79" stroke="#3D1A1A" stroke-opacity="0.2"/>
<line x1="359.5" y1="40" x2="359.5" y2="79" stroke="#3D1A1A" stroke-opacity="0.2"/>
<rect x="315" y="40" width="39" height="40" rx="19.5" fill="#D6CACD"/>
<path d="M323.1 67.5V53.54H328.4C329.76 53.54 330.8 53.9267 331.52 54.7C332.24 55.4733 332.6 56.5267 332.6 57.86C332.6 59.1933 332.24 60.2467 331.52 61.02C330.8 61.7933 329.76 62.18 328.4 62.18H325.72V67.5H323.1ZM325.72 60.04H327.86C328.567 60.04 329.073 59.9 329.38 59.62C329.687 59.3267 329.84 58.8667 329.84 58.24V57.48C329.84 56.8533 329.687 56.4 329.38 56.12C329.073 55.8267 328.567 55.68 327.86 55.68H325.72V60.04ZM339.032 61.38L337.572 63.3V67.5H334.952V53.54H337.572V59.82H337.692L339.312 57.5L342.252 53.54H345.212L340.832 59.42L345.412 67.5H342.452L339.032 61.38Z" fill="black"/>
</svg>
