<svg width="360" height="120" viewBox="0 0 360 120" fill="none" xmlns="http://www.w3.org/2000/svg">
<path d="M0 5C0 2.23858 2.23858 0 5 0H355C357.761 0 360 2.23858 360 5V40H0V5Z" fill="#836B7F"/>
<path d="M23.972 24.484C23.972 25.38 23.7293 26.2107 23.244 26.976C22.7773 27.7227 22.012 28.3947 20.948 28.992C19.9027 29.5707 18.54 29.944 16.86 30.112C15.1987 30.28 13.164 30.2333 10.756 29.972L14.088 12.78C16.664 12.3507 18.7453 12.276 20.332 12.556C21.9373 12.836 23.0947 13.312 23.804 13.984C24.532 14.6373 24.896 15.468 24.896 16.476C24.896 17.3907 24.5973 18.24 24 19.024C23.4027 19.808 22.5533 20.4613 21.452 20.984C22.2547 21.2827 22.8707 21.74 23.3 22.356C23.748 22.9533 23.972 23.6627 23.972 24.484ZM20.976 17.372C20.976 16.7373 20.6773 16.2613 20.08 15.944C19.4827 15.6267 18.6333 15.524 17.532 15.636L16.636 20.368C18.0733 20.2 19.156 19.8453 19.884 19.304C20.612 18.7627 20.976 18.1187 20.976 17.372ZM20.08 24.624C20.08 23.8587 19.7627 23.2893 19.128 22.916C18.4933 22.5427 17.5227 22.4307 16.216 22.58L15.376 26.92C16.8507 27.144 17.9987 27.032 18.82 26.584C19.66 26.136 20.08 25.4827 20.08 24.624ZM30.4345 25.044C30.4345 26.1453 30.8265 26.696 31.6105 26.696C32.3945 26.696 33.3559 26.2013 34.4945 25.212C34.6252 24.5587 35.0172 22.552 35.6705 19.192C34.8305 18.8933 34.1212 18.744 33.5425 18.744C32.7399 18.744 32.0212 19.4347 31.3865 20.816C30.7519 22.1787 30.4345 23.588 30.4345 25.044ZM40.2065 28.712C38.7132 29.608 37.5185 30.1307 36.6225 30.28C35.7265 30.4293 35.1105 30.28 34.7745 29.832C34.4385 29.3653 34.2892 28.6187 34.3265 27.592C32.4412 29.44 30.8079 30.364 29.4265 30.364C28.5679 30.364 27.8679 29.9907 27.3265 29.244C26.7852 28.4973 26.5145 27.4147 26.5145 25.996C26.5145 24.2227 26.8599 22.552 27.5505 20.984C28.2412 19.3973 29.2865 18.0907 30.6865 17.064C32.1052 16.0187 33.7292 15.496 35.5585 15.496C37.0332 15.496 38.5172 15.72 40.0105 16.168L38.1065 26.024C37.9945 26.584 38.0225 26.9013 38.1905 26.976C38.3585 27.0507 38.9279 26.9947 39.8985 26.808L40.2065 28.712ZM54.9291 25.548C54.9291 26.22 54.7517 26.8267 54.3971 27.368C54.0611 27.9093 53.5104 28.4133 52.7451 28.88C51.9797 29.3467 50.8877 29.7013 49.4691 29.944C48.0691 30.1867 46.3891 30.2987 44.4291 30.28L44.5131 26.78C46.9584 26.9107 48.6571 26.9013 49.6091 26.752C50.5797 26.584 51.0651 26.248 51.0651 25.744C51.0651 25.5573 51.0184 25.352 50.9251 25.128C50.8317 24.904 50.6731 24.6613 50.4491 24.4C50.2437 24.1387 50.0477 23.9053 49.8611 23.7C49.6744 23.4947 49.4131 23.224 49.0771 22.888C48.7597 22.5333 48.5077 22.2533 48.3211 22.048C47.1824 22.7947 45.6984 23.616 43.8691 24.512L43.0571 22.776C44.8304 21.6933 46.1371 20.8253 46.9771 20.172C46.6597 19.5373 46.5011 18.9493 46.5011 18.408C46.5011 17.3627 46.9304 16.532 47.7891 15.916C48.6477 15.2813 49.6371 14.964 50.7571 14.964C52.0451 14.964 52.8011 15.3933 53.0251 16.252C53.2491 17.1107 52.7077 18.24 51.4011 19.64C51.5317 19.808 51.9704 20.34 52.7171 21.236C53.4824 22.1133 54.0424 22.8787 54.3971 23.532C54.7517 24.1853 54.9291 24.8573 54.9291 25.548ZM70.7716 28.32C68.7556 29.328 66.9263 29.9533 65.2836 30.196C63.6409 30.4573 62.3156 30.364 61.3076 29.916C60.2996 29.468 59.5249 28.8147 58.9836 27.956C58.4609 27.0787 58.1996 26.052 58.1996 24.876C58.1996 23.364 58.5916 21.88 59.3756 20.424C60.1596 18.968 61.2516 17.764 62.6516 16.812C64.0516 15.86 65.5449 15.384 67.1316 15.384C68.4569 15.384 69.5023 15.72 70.2676 16.392C71.0516 17.0453 71.4436 17.9507 71.4436 19.108C71.4436 20.7507 70.6316 22.0573 69.0076 23.028C67.4023 23.9987 65.0503 24.596 61.9516 24.82C62.0076 25.66 62.2876 26.248 62.7916 26.584C63.3143 26.9013 64.1449 27.0413 65.2836 27.004C66.4409 26.9667 68.1489 26.7427 70.4076 26.332L70.7716 28.32ZM66.0396 18.52C65.1249 18.52 64.3129 18.9307 63.6036 19.752C62.8943 20.5547 62.4089 21.5533 62.1476 22.748C65.8996 22.4867 67.7756 21.572 67.7756 20.004C67.7756 19.556 67.6169 19.2013 67.2996 18.94C66.9823 18.66 66.5623 18.52 66.0396 18.52Z" fill="#EEEEEE"/>
<rect width="360" height="40" transform="translate(0 80)" fill="#C3C4A2" fill-opacity="0.15"/>
<g opacity="0.7">
<path d="M16.12 107.608C17.224 107.608 18.136 107.208 18.856 106.408C19.576 105.608 19.936 104.496 19.936 103.072C19.936 101.648 19.64 100.544 19.048 99.76C18.456 98.976 17.68 98.584 16.72 98.584C15.792 98.584 14.896 98.912 14.032 99.568C14.096 102.08 14.136 104.64 14.152 107.248C14.84 107.488 15.496 107.608 16.12 107.608ZM14.152 112.96L12.208 113.128V109.048C12.208 103.224 12.16 99.312 12.064 97.312L13.84 97.192L13.96 98.416C15.032 97.456 16.208 96.976 17.488 96.976C18.752 96.976 19.792 97.488 20.608 98.512C21.44 99.536 21.856 100.896 21.856 102.592C21.856 104.64 21.232 106.272 19.984 107.488C18.752 108.688 17.232 109.288 15.424 109.288C14.96 109.288 14.536 109.256 14.152 109.192V112.96ZM33.6353 109H24.8033V107.512H27.9233C27.8593 102.776 27.8113 99.872 27.7793 98.8L24.8033 98.632L24.9473 97.24H29.5073C29.5713 97.912 29.6193 98.584 29.6513 99.256C30.9633 97.896 32.7553 97.08 35.0273 96.808L35.1233 98.872C32.8513 99.048 31.0513 99.568 29.7233 100.432C29.7233 100.864 29.7313 101.896 29.7473 103.528C29.7793 105.144 29.8033 106.472 29.8193 107.512H33.8033L33.6353 109ZM42.7266 109.336C41.2386 109.336 40.0306 108.8 39.1026 107.728C38.1746 106.656 37.7106 105.192 37.7106 103.336C37.7106 101.464 38.2466 99.928 39.3186 98.728C40.4066 97.528 41.7266 96.928 43.2786 96.928C44.7666 96.928 45.9666 97.464 46.8786 98.536C47.8066 99.592 48.2706 101.048 48.2706 102.904C48.2706 104.808 47.7346 106.36 46.6626 107.56C45.5906 108.744 44.2786 109.336 42.7266 109.336ZM43.0386 107.728C44.0306 107.728 44.8226 107.344 45.4146 106.576C46.0226 105.792 46.3266 104.688 46.3266 103.264C46.3266 101.76 46.0146 100.592 45.3906 99.76C44.7826 98.928 43.9666 98.512 42.9426 98.512C41.9666 98.512 41.1746 98.904 40.5666 99.688C39.9746 100.472 39.6786 101.568 39.6786 102.976C39.6786 104.48 39.9826 105.648 40.5906 106.48C41.1986 107.312 42.0146 107.728 43.0386 107.728ZM55.7059 107.608C56.8099 107.608 57.7219 107.208 58.4419 106.408C59.1619 105.608 59.5219 104.496 59.5219 103.072C59.5219 101.648 59.2259 100.544 58.6339 99.76C58.0419 98.976 57.2659 98.584 56.3059 98.584C55.3779 98.584 54.4819 98.912 53.6179 99.568C53.6819 102.08 53.7219 104.64 53.7379 107.248C54.4259 107.488 55.0819 107.608 55.7059 107.608ZM53.7379 112.96L51.7939 113.128V109.048C51.7939 103.224 51.7459 99.312 51.6499 97.312L53.4259 97.192L53.5459 98.416C54.6179 97.456 55.7939 96.976 57.0739 96.976C58.3379 96.976 59.3779 97.488 60.1939 98.512C61.0259 99.536 61.4419 100.896 61.4419 102.592C61.4419 104.64 60.8179 106.272 59.5699 107.488C58.3379 108.688 56.8179 109.288 55.0099 109.288C54.5459 109.288 54.1219 109.256 53.7379 109.192V112.96ZM69.1172 109.336C67.6293 109.336 66.4213 108.8 65.4933 107.728C64.5653 106.656 64.1013 105.192 64.1013 103.336C64.1013 101.464 64.6373 99.928 65.7093 98.728C66.7973 97.528 68.1173 96.928 69.6693 96.928C71.1573 96.928 72.3573 97.464 73.2693 98.536C74.1973 99.592 74.6613 101.048 74.6613 102.904C74.6613 104.808 74.1253 106.36 73.0533 107.56C71.9813 108.744 70.6693 109.336 69.1172 109.336ZM69.4293 107.728C70.4213 107.728 71.2133 107.344 71.8053 106.576C72.4133 105.792 72.7173 104.688 72.7173 103.264C72.7173 101.76 72.4053 100.592 71.7813 99.76C71.1733 98.928 70.3573 98.512 69.3333 98.512C68.3573 98.512 67.5653 98.904 66.9573 99.688C66.3653 100.472 66.0693 101.568 66.0693 102.976C66.0693 104.48 66.3733 105.648 66.9813 106.48C67.5893 107.312 68.4053 107.728 69.4293 107.728ZM86.4166 109H77.5846V107.512H80.7046C80.6406 102.776 80.5926 99.872 80.5606 98.8L77.5846 98.632L77.7286 97.24H82.2886C82.3526 97.912 82.4006 98.584 82.4326 99.256C83.7446 97.896 85.5366 97.08 87.8086 96.808L87.9046 98.872C85.6326 99.048 83.8326 99.568 82.5046 100.432C82.5046 100.864 82.5126 101.896 82.5286 103.528C82.5606 105.144 82.5846 106.472 82.6006 107.512H86.5846L86.4166 109ZM91.0919 103.312C91.0919 102.464 91.2439 101.688 91.5479 100.984C91.8679 100.28 92.3559 99.632 93.0119 99.04C93.6839 98.448 94.6199 97.984 95.8199 97.648C97.0359 97.296 98.4679 97.104 100.116 97.072L100.26 98.92C98.7879 98.92 97.5559 99.016 96.5639 99.208C95.5879 99.384 94.8439 99.664 94.3319 100.048C93.8359 100.432 93.4919 100.864 93.2999 101.344C93.1079 101.808 93.0119 102.376 93.0119 103.048C93.0119 104.68 93.5559 105.856 94.6439 106.576C95.7319 107.296 97.6599 107.592 100.428 107.464L100.212 109.096C98.4839 109.208 97.0119 109.152 95.7959 108.928C94.5799 108.688 93.6359 108.288 92.9639 107.728C92.2919 107.168 91.8119 106.536 91.5239 105.832C91.2359 105.112 91.0919 104.272 91.0919 103.312ZM110.335 95.344H108.343L108.487 92.08H110.551L110.335 95.344ZM114.703 109H104.071V107.512H108.487V98.8L104.095 98.608L104.239 97.24H110.431V107.512H114.847L114.703 109ZM119.643 94.624C120.331 94.144 121.123 93.488 122.019 92.656C122.931 91.808 123.683 91.04 124.275 90.352L125.835 91.864C125.179 92.456 124.299 93.104 123.195 93.808C122.091 94.496 121.091 95.056 120.195 95.488L119.643 94.624ZM121.898 109.336C120.411 109.336 119.203 108.8 118.275 107.728C117.347 106.656 116.883 105.192 116.883 103.336C116.883 101.464 117.419 99.928 118.491 98.728C119.579 97.528 120.899 96.928 122.451 96.928C123.939 96.928 125.139 97.464 126.051 98.536C126.979 99.592 127.443 101.048 127.443 102.904C127.443 104.808 126.907 106.36 125.835 107.56C124.763 108.744 123.451 109.336 121.898 109.336ZM122.211 107.728C123.203 107.728 123.995 107.344 124.587 106.576C125.195 105.792 125.499 104.688 125.499 103.264C125.499 101.76 125.187 100.592 124.563 99.76C123.955 98.928 123.139 98.512 122.115 98.512C121.139 98.512 120.347 98.904 119.739 99.688C119.147 100.472 118.851 101.568 118.851 102.976C118.851 104.48 119.155 105.648 119.763 106.48C120.371 107.312 121.187 107.728 122.211 107.728ZM135.742 98.632C134.734 98.632 133.726 98.976 132.718 99.664C132.782 102.512 132.814 105.624 132.814 109H130.87C130.87 103.736 130.814 99.84 130.702 97.312L132.502 97.192L132.622 98.536C133.87 97.496 135.182 96.976 136.558 96.976C138.894 96.976 140.062 98.328 140.062 101.032V109H138.118V101.68C138.118 100.592 137.918 99.816 137.518 99.352C137.118 98.872 136.526 98.632 135.742 98.632Z" fill="black"/>
</g>
<line y1="119.5" x2="360" y2="119.5" stroke="#3D1A1A" stroke-opacity="0.2"/>
<line x1="0.5" y1="80" x2="0.499998" y2="119" stroke="#3D1A1A" stroke-opacity="0.2"/>
<line x1="359.5" y1="80" x2="359.5" y2="119" stroke="#3D1A1A" stroke-opacity="0.2"/>
<rect width="360" height="40" transform="translate(0 40)" fill="#C3C4A2" fill-opacity="0.15"/>
<g opacity="0.7">
<path d="M11.92 63.312C11.92 62.464 12.072 61.688 12.376 60.984C12.696 60.28 13.184 59.632 13.84 59.04C14.512 58.448 15.448 57.984 16.648 57.648C17.864 57.296 19.296 57.104 20.944 57.072L21.088 58.92C19.616 58.92 18.384 59.016 17.392 59.208C16.416 59.384 15.672 59.664 15.16 60.048C14.664 60.432 14.32 60.864 14.128 61.344C13.936 61.808 13.84 62.376 13.84 63.048C13.84 64.68 14.384 65.856 15.472 66.576C16.56 67.296 18.488 67.592 21.256 67.464L21.04 69.096C19.312 69.208 17.84 69.152 16.624 68.928C15.408 68.688 14.464 68.288 13.792 67.728C13.12 67.168 12.64 66.536 12.352 65.832C12.064 65.112 11.92 64.272 11.92 63.312ZM29.5313 69.336C28.0433 69.336 26.8353 68.8 25.9073 67.728C24.9793 66.656 24.5153 65.192 24.5153 63.336C24.5153 61.464 25.0513 59.928 26.1233 58.728C27.2113 57.528 28.5313 56.928 30.0833 56.928C31.5713 56.928 32.7713 57.464 33.6833 58.536C34.6113 59.592 35.0753 61.048 35.0753 62.904C35.0753 64.808 34.5393 66.36 33.4673 67.56C32.3953 68.744 31.0833 69.336 29.5313 69.336ZM29.8433 67.728C30.8353 67.728 31.6273 67.344 32.2193 66.576C32.8273 65.792 33.1313 64.688 33.1313 63.264C33.1313 61.76 32.8193 60.592 32.1953 59.76C31.5873 58.928 30.7713 58.512 29.7473 58.512C28.7713 58.512 27.9793 58.904 27.3713 59.688C26.7793 60.472 26.4833 61.568 26.4833 62.976C26.4833 64.48 26.7873 65.648 27.3953 66.48C28.0033 67.312 28.8193 67.728 29.8433 67.728ZM42.8946 67.68C43.8066 67.68 44.6786 67.344 45.5106 66.672C45.4626 64.624 45.4386 62.056 45.4386 58.968C44.7346 58.744 44.0866 58.632 43.4946 58.632C42.3746 58.632 41.4546 59.04 40.7346 59.856C40.0146 60.656 39.6546 61.776 39.6546 63.216C39.6546 64.672 39.9506 65.784 40.5426 66.552C41.1346 67.304 41.9186 67.68 42.8946 67.68ZM45.7266 69.048L45.6066 67.824C44.5666 68.8 43.4146 69.288 42.1506 69.288C40.8546 69.288 39.7906 68.792 38.9586 67.8C38.1426 66.792 37.7346 65.432 37.7346 63.72C37.7346 61.656 38.3746 60.016 39.6546 58.8C40.9346 57.584 42.5106 56.976 44.3826 56.976C44.7506 56.976 45.1026 57 45.4386 57.048V52.224L47.3826 52.056V57.288C47.3826 62.584 47.4386 66.472 47.5506 68.952L45.7266 69.048ZM57.4819 69H54.6259L54.7699 66.216H57.6259L57.4819 69ZM81.5926 69.288C80.4086 69.288 79.2566 69.088 78.1366 68.688V52.224L80.0806 52.056V58.296C81.1366 57.416 82.2646 56.976 83.4646 56.976C84.7446 56.976 85.7926 57.488 86.6086 58.512C87.4246 59.536 87.8326 60.896 87.8326 62.592C87.8326 64.592 87.2166 66.208 85.9846 67.44C84.7686 68.672 83.3046 69.288 81.5926 69.288ZM82.2646 67.608C83.3526 67.608 84.2326 67.216 84.9046 66.432C85.5766 65.648 85.9126 64.528 85.9126 63.072C85.9126 61.648 85.6166 60.544 85.0246 59.76C84.4326 58.976 83.6566 58.584 82.6966 58.584C81.7846 58.584 80.9126 58.896 80.0806 59.52V67.2C80.8486 67.472 81.5766 67.608 82.2646 67.608ZM95.1239 67.752C96.2759 67.752 97.3879 67.328 98.4599 66.48C98.4279 65.456 98.4119 64.528 98.4119 63.696C94.6039 63.296 92.6999 63.992 92.6999 65.784C92.6999 66.408 92.9159 66.896 93.3479 67.248C93.7959 67.584 94.3879 67.752 95.1239 67.752ZM98.7239 69.072C98.7239 69.04 98.6999 68.832 98.6519 68.448C98.6039 68.064 98.5719 67.768 98.5559 67.56C97.3079 68.712 95.9159 69.288 94.3799 69.288C93.2919 69.288 92.4199 69.016 91.7639 68.472C91.1079 67.928 90.7799 67.184 90.7799 66.24C90.7799 64.96 91.4279 63.952 92.7239 63.216C94.0199 62.464 95.9079 62.16 98.3879 62.304C98.3079 60.96 97.7959 60.048 96.8519 59.568C95.9239 59.088 94.1319 58.8 91.4759 58.704L91.6919 57.024C93.9959 57.088 95.7559 57.32 96.9719 57.72C98.1879 58.12 99.0439 58.744 99.5399 59.592C100.052 60.424 100.308 61.616 100.308 63.168C100.308 64.784 100.372 66.712 100.5 68.952L98.7239 69.072ZM112.855 57.144L112.927 58.872C108.847 58.504 106.807 58.952 106.807 60.216C106.807 60.568 107.031 60.904 107.479 61.224C107.943 61.544 108.495 61.848 109.135 62.136C109.791 62.408 110.439 62.704 111.079 63.024C111.735 63.328 112.287 63.712 112.735 64.176C113.199 64.624 113.431 65.128 113.431 65.688C113.431 66.792 112.743 67.68 111.367 68.352C109.991 69.008 107.783 69.256 104.743 69.096L104.815 67.368C109.215 67.72 111.415 67.216 111.415 65.856C111.415 65.472 111.191 65.12 110.743 64.8C110.295 64.464 109.743 64.168 109.087 63.912C108.447 63.64 107.799 63.36 107.143 63.072C106.503 62.768 105.959 62.4 105.511 61.968C105.063 61.52 104.839 61.024 104.839 60.48C104.839 59.408 105.479 58.536 106.759 57.864C108.055 57.176 110.087 56.936 112.855 57.144ZM126.507 69.264C124.699 69.264 123.179 69.136 121.947 68.88C120.715 68.608 119.747 68.208 119.043 67.68C118.355 67.152 117.867 66.536 117.579 65.832C117.291 65.128 117.146 64.28 117.146 63.288C117.146 61.512 117.683 60.016 118.755 58.8C119.843 57.568 121.155 56.952 122.691 56.952C124.275 56.952 125.459 57.544 126.243 58.728C127.043 59.896 127.331 61.464 127.107 63.432L119.067 63.624C119.163 65.032 119.755 66.032 120.843 66.624C121.947 67.216 123.899 67.544 126.699 67.608L126.507 69.264ZM122.355 58.56C121.379 58.56 120.603 58.896 120.027 59.568C119.451 60.224 119.131 61.176 119.067 62.424C120.235 62.376 122.307 62.312 125.283 62.232C125.267 61.08 125.011 60.184 124.515 59.544C124.035 58.888 123.315 58.56 122.355 58.56Z" fill="black"/>
<rect x="326" y="47" width="24" height="25" rx="12" fill="#C8B7BE"/>
<path d="M332.8 63V56.02H335.45C336.13 56.02 336.65 56.2133 337.01 56.6C337.37 56.9867 337.55 57.5133 337.55 58.18C337.55 58.8467 337.37 59.3733 337.01 59.76C336.65 60.1467 336.13 60.34 335.45 60.34H334.11V63H332.8ZM334.11 59.27H335.18C335.533 59.27 335.787 59.2 335.94 59.06C336.093 58.9133 336.17 58.6833 336.17 58.37V57.99C336.17 57.6767 336.093 57.45 335.94 57.31C335.787 57.1633 335.533 57.09 335.18 57.09H334.11V59.27ZM340.766 59.94L340.036 60.9V63H338.726V56.02H340.036V59.16H340.096L340.906 58L342.376 56.02H343.856L341.666 58.96L343.956 63H342.476L340.766 59.94Z" fill="black"/>
</g>
<line y1="79.5" x2="360" y2="79.5" stroke="#3D1A1A" stroke-opacity="0.2"/>
<line x1="0.5" y1="40" x2="0.499998" y2="79" stroke="#3D1A1A" stroke-opacity="0.2"/>
<line x1="359.5" y1="40" x2="359.5" y2="79" stroke="#3D1A1A" stroke-opacity="0.2"/>
<rect x="315" y="40" width="39" height="40" rx="19.5" fill="#D6CACD"/>
<path d="M323.1 67.5V53.54H328.4C329.76 53.54 330.8 53.9267 331.52 54.7C332.24 55.4733 332.6 56.5267 332.6 57.86C332.6 59.1933 332.24 60.2467 331.52 61.02C330.8 61.7933 329.76 62.18 328.4 62.18H325.72V67.5H323.1ZM325.72 60.04H327.86C328.567 60.04 329.073 59.9 329.38 59.62C329.687 59.3267 329.84 58.8667 329.84 58.24V57.48C329.84 56.8533 329.687 56.4 329.38 56.12C329.073 55.8267 328.567 55.68 327.86 55.68H325.72V60.04ZM339.032 61.38L337.572 63.3V67.5H334.952V53.54H337.572V59.82H337.692L339.312 57.5L342.252 53.54H345.212L340.832 59.42L345.412 67.5H342.452L339.032 61.38Z" fill="black"/>
</svg>
