<svg width="360" height="200" viewBox="0 0 360 200" fill="none" xmlns="http://www.w3.org/2000/svg">
<rect width="360" height="40" transform="translate(0 40)" fill="#C3C4A2" fill-opacity="0.15"/>
<g opacity="0.7">
<path d="M11.92 63.312C11.92 62.464 12.072 61.688 12.376 60.984C12.696 60.28 13.184 59.632 13.84 59.04C14.512 58.448 15.448 57.984 16.648 57.648C17.864 57.296 19.296 57.104 20.944 57.072L21.088 58.92C19.616 58.92 18.384 59.016 17.392 59.208C16.416 59.384 15.672 59.664 15.16 60.048C14.664 60.432 14.32 60.864 14.128 61.344C13.936 61.808 13.84 62.376 13.84 63.048C13.84 64.68 14.384 65.856 15.472 66.576C16.56 67.296 18.488 67.592 21.256 67.464L21.04 69.096C19.312 69.208 17.84 69.152 16.624 68.928C15.408 68.688 14.464 68.288 13.792 67.728C13.12 67.168 12.64 66.536 12.352 65.832C12.064 65.112 11.92 64.272 11.92 63.312ZM29.5313 69.336C28.0433 69.336 26.8353 68.8 25.9073 67.728C24.9793 66.656 24.5153 65.192 24.5153 63.336C24.5153 61.464 25.0513 59.928 26.1233 58.728C27.2113 57.528 28.5313 56.928 30.0833 56.928C31.5713 56.928 32.7713 57.464 33.6833 58.536C34.6113 59.592 35.0753 61.048 35.0753 62.904C35.0753 64.808 34.5393 66.36 33.4673 67.56C32.3953 68.744 31.0833 69.336 29.5313 69.336ZM29.8433 67.728C30.8353 67.728 31.6273 67.344 32.2193 66.576C32.8273 65.792 33.1313 64.688 33.1313 63.264C33.1313 61.76 32.8193 60.592 32.1953 59.76C31.5873 58.928 30.7713 58.512 29.7473 58.512C28.7713 58.512 27.9793 58.904 27.3713 59.688C26.7793 60.472 26.4833 61.568 26.4833 62.976C26.4833 64.48 26.7873 65.648 27.3953 66.48C28.0033 67.312 28.8193 67.728 29.8433 67.728ZM47.7186 69H38.2626V67.512H42.0786V53.808L38.4546 53.64L38.6226 52.248H44.0466V67.512H47.8866L47.7186 69ZM55.9219 69.336C54.4339 69.336 53.2259 68.8 52.2979 67.728C51.3699 66.656 50.9059 65.192 50.9059 63.336C50.9059 61.464 51.4419 59.928 52.5139 58.728C53.6019 57.528 54.9219 56.928 56.4739 56.928C57.9619 56.928 59.1619 57.464 60.0739 58.536C61.0019 59.592 61.4659 61.048 61.4659 62.904C61.4659 64.808 60.9299 66.36 59.8579 67.56C58.7859 68.744 57.4739 69.336 55.9219 69.336ZM56.2339 67.728C57.2259 67.728 58.0179 67.344 58.6099 66.576C59.2179 65.792 59.5219 64.688 59.5219 63.264C59.5219 61.76 59.2099 60.592 58.5859 59.76C57.9779 58.928 57.1619 58.512 56.1379 58.512C55.1619 58.512 54.3699 58.904 53.7619 59.688C53.1699 60.472 52.8739 61.568 52.8739 62.976C52.8739 64.48 53.1779 65.648 53.7859 66.48C54.3939 67.312 55.2099 67.728 56.2339 67.728ZM73.2213 69H64.3893V67.512H67.5093C67.4453 62.776 67.3973 59.872 67.3653 58.8L64.3893 58.632L64.5333 57.24H69.0933C69.1573 57.912 69.2053 58.584 69.2373 59.256C70.5493 57.896 72.3413 57.08 74.6133 56.808L74.7093 58.872C72.4373 59.048 70.6373 59.568 69.3093 60.432C69.3093 60.864 69.3173 61.896 69.3333 63.528C69.3653 65.144 69.3893 66.472 69.4053 67.512H73.3893L73.2213 69Z" fill="black"/>
<rect x="326" y="47" width="24" height="25" rx="12" fill="#C8B7BE"/>
<path d="M332.8 63V56.02H335.45C336.13 56.02 336.65 56.2133 337.01 56.6C337.37 56.9867 337.55 57.5133 337.55 58.18C337.55 58.8467 337.37 59.3733 337.01 59.76C336.65 60.1467 336.13 60.34 335.45 60.34H334.11V63H332.8ZM334.11 59.27H335.18C335.533 59.27 335.787 59.2 335.94 59.06C336.093 58.9133 336.17 58.6833 336.17 58.37V57.99C336.17 57.6767 336.093 57.45 335.94 57.31C335.787 57.1633 335.533 57.09 335.18 57.09H334.11V59.27ZM340.766 59.94L340.036 60.9V63H338.726V56.02H340.036V59.16H340.096L340.906 58L342.376 56.02H343.856L341.666 58.96L343.956 63H342.476L340.766 59.94Z" fill="black"/>
</g>
<line y1="79.5" x2="360" y2="79.5" stroke="#3D1A1A" stroke-opacity="0.2"/>
<line x1="0.5" y1="40" x2="0.499998" y2="79" stroke="#3D1A1A" stroke-opacity="0.2"/>
<line x1="359.5" y1="40" x2="359.5" y2="79" stroke="#3D1A1A" stroke-opacity="0.2"/>
<rect x="315" y="40" width="39" height="40" rx="19.5" fill="#D6CACD"/>
<path d="M323.1 67.5V53.54H328.4C329.76 53.54 330.8 53.9267 331.52 54.7C332.24 55.4733 332.6 56.5267 332.6 57.86C332.6 59.1933 332.24 60.2467 331.52 61.02C330.8 61.7933 329.76 62.18 328.4 62.18H325.72V67.5H323.1ZM325.72 60.04H327.86C328.567 60.04 329.073 59.9 329.38 59.62C329.687 59.3267 329.84 58.8667 329.84 58.24V57.48C329.84 56.8533 329.687 56.4 329.38 56.12C329.073 55.8267 328.567 55.68 327.86 55.68H325.72V60.04ZM339.032 61.38L337.572 63.3V67.5H334.952V53.54H337.572V59.82H337.692L339.312 57.5L342.252 53.54H345.212L340.832 59.42L345.412 67.5H342.452L339.032 61.38Z" fill="black"/>
<path d="M0 5C0 2.23858 2.23858 0 5 0H355C357.761 0 360 2.23858 360 5V40H0V5Z" fill="#836B7F"/>
<path d="M20.472 12.276C22.1707 12.276 23.3653 12.8453 24.056 13.984C24.7467 15.104 25.036 16.8773 24.924 19.304L21.144 19.36C21.1813 18.016 21.0973 17.092 20.892 16.588C20.6867 16.084 20.2667 15.832 19.632 15.832C18.8293 15.832 18.092 16.2147 17.42 16.98C16.7667 17.7267 16.272 18.6507 15.936 19.752C15.6 20.8347 15.432 21.9173 15.432 23C15.432 24.848 16.0387 26.0053 17.252 26.472C18.484 26.9387 20.5187 26.7427 23.356 25.884L22.936 29.412C19.1653 30.6067 16.3 30.6813 14.34 29.636C12.38 28.5907 11.4 26.5747 11.4 23.588C11.4 20.5827 12.296 17.9507 14.088 15.692C15.88 13.4147 18.008 12.276 20.472 12.276ZM26.7105 24.512C26.7105 22.0293 27.4479 19.892 28.9225 18.1C30.4159 16.2893 32.2825 15.384 34.5225 15.384C36.2399 15.384 37.5932 15.916 38.5825 16.98C39.5905 18.0253 40.0945 19.4533 40.0945 21.264C40.0945 23.7467 39.3479 25.8933 37.8545 27.704C36.3799 29.496 34.5225 30.392 32.2825 30.392C30.5652 30.392 29.2025 29.8693 28.1945 28.824C27.2052 27.76 26.7105 26.3227 26.7105 24.512ZM36.1465 21.74C36.1465 20.732 35.9505 19.9573 35.5585 19.416C35.1852 18.856 34.6719 18.576 34.0185 18.576C33.0479 18.576 32.2452 19.136 31.6105 20.256C30.9759 21.3573 30.6585 22.6173 30.6585 24.036C30.6585 25.044 30.8452 25.828 31.2185 26.388C31.6105 26.9293 32.1332 27.2 32.7865 27.2C33.7572 27.2 34.5599 26.6493 35.1945 25.548C35.8292 24.428 36.1465 23.1587 36.1465 21.74ZM55.0131 28.264C52.3251 29.776 50.0851 30.4387 48.2931 30.252C46.5197 30.0653 45.3344 29.0573 44.7371 27.228L43.3371 28.04L42.4411 26.528L44.3451 25.324C44.3077 24.8013 44.2891 24.4 44.2891 24.12C44.2891 21.6373 44.7371 19.3133 45.6331 17.148C46.5477 14.964 47.7051 13.256 49.1051 12.024C50.5237 10.792 51.9704 10.176 53.4451 10.176C54.4157 10.176 55.1717 10.4747 55.7131 11.072C56.2731 11.6507 56.5531 12.4813 56.5531 13.564C56.5531 15.3373 55.8437 17.2227 54.4251 19.22C53.0251 21.2173 51.0184 23.2053 48.4051 25.184C48.6664 26.3227 49.2824 26.976 50.2531 27.144C51.2424 27.312 52.6611 27.06 54.5091 26.388L55.0131 28.264ZM52.0171 13.984C51.1397 13.984 50.3091 14.8147 49.5251 16.476C48.7411 18.1187 48.3117 20.2187 48.2371 22.776C49.7864 21.3387 50.9624 19.9573 51.7651 18.632C52.5864 17.3067 52.9971 16.1867 52.9971 15.272C52.9971 14.4133 52.6704 13.984 52.0171 13.984ZM58.0596 24.512C58.0596 22.0293 58.7969 19.892 60.2716 18.1C61.7649 16.2893 63.6316 15.384 65.8716 15.384C67.5889 15.384 68.9423 15.916 69.9316 16.98C70.9396 18.0253 71.4436 19.4533 71.4436 21.264C71.4436 23.7467 70.6969 25.8933 69.2036 27.704C67.7289 29.496 65.8716 30.392 63.6316 30.392C61.9143 30.392 60.5516 29.8693 59.5436 28.824C58.5543 27.76 58.0596 26.3227 58.0596 24.512ZM67.4956 21.74C67.4956 20.732 67.2996 19.9573 66.9076 19.416C66.5343 18.856 66.0209 18.576 65.3676 18.576C64.3969 18.576 63.5943 19.136 62.9596 20.256C62.3249 21.3573 62.0076 22.6173 62.0076 24.036C62.0076 25.044 62.1943 25.828 62.5676 26.388C62.9596 26.9293 63.4823 27.2 64.1356 27.2C65.1063 27.2 65.9089 26.6493 66.5436 25.548C67.1783 24.428 67.4956 23.1587 67.4956 21.74ZM86.8661 29.02C83.2448 30.6627 81.0421 30.8027 80.2581 29.44C79.4741 28.0587 80.1461 24.9413 82.2741 20.088C81.2475 20.3307 80.3701 20.4707 79.6421 20.508C78.6528 22.1507 77.0288 24.064 74.7701 26.248L73.4261 24.82C75.0688 22.9907 76.2355 21.4973 76.9261 20.34C75.6941 20.0227 75.0781 19.4067 75.0781 18.492C75.0781 17.6147 75.4981 16.784 76.3381 16C77.1968 15.216 78.1395 14.824 79.1661 14.824C79.7075 14.824 80.1368 14.992 80.4541 15.328C80.7901 15.664 80.9581 16.1307 80.9581 16.728C80.9581 16.952 80.9488 17.12 80.9301 17.232C82.7221 16.8773 84.2435 16.364 85.4941 15.692L87.3701 16.504C85.1861 21.6747 84.0568 24.8667 83.9821 26.08C83.9261 26.864 84.2248 27.2747 84.8781 27.312C85.2141 27.3307 85.8115 27.2467 86.6701 27.06L86.8661 29.02ZM102.121 28.32C100.105 29.328 98.2753 29.9533 96.6327 30.196C94.99 30.4573 93.6647 30.364 92.6567 29.916C91.6487 29.468 90.874 28.8147 90.3327 27.956C89.81 27.0787 89.5487 26.052 89.5487 24.876C89.5487 23.364 89.9407 21.88 90.7247 20.424C91.5087 18.968 92.6007 17.764 94.0007 16.812C95.4007 15.86 96.894 15.384 98.4807 15.384C99.806 15.384 100.851 15.72 101.617 16.392C102.401 17.0453 102.793 17.9507 102.793 19.108C102.793 20.7507 101.981 22.0573 100.357 23.028C98.7513 23.9987 96.3993 24.596 93.3007 24.82C93.3567 25.66 93.6367 26.248 94.1407 26.584C94.6633 26.9013 95.494 27.0413 96.6327 27.004C97.79 26.9667 99.498 26.7427 101.757 26.332L102.121 28.32ZM97.3887 18.52C96.474 18.52 95.662 18.9307 94.9527 19.752C94.2433 20.5547 93.758 21.5533 93.4967 22.748C97.2487 22.4867 99.1247 21.572 99.1247 20.004C99.1247 19.556 98.966 19.2013 98.6487 18.94C98.3313 18.66 97.9113 18.52 97.3887 18.52ZM117.627 25.548C117.627 26.22 117.45 26.8267 117.095 27.368C116.759 27.9093 116.209 28.4133 115.443 28.88C114.678 29.3467 113.586 29.7013 112.167 29.944C110.767 30.1867 109.087 30.2987 107.127 30.28L107.211 26.78C109.657 26.9107 111.355 26.9013 112.307 26.752C113.278 26.584 113.763 26.248 113.763 25.744C113.763 25.5573 113.717 25.352 113.623 25.128C113.53 24.904 113.371 24.6613 113.147 24.4C112.942 24.1387 112.746 23.9053 112.559 23.7C112.373 23.4947 112.111 23.224 111.775 22.888C111.458 22.5333 111.206 22.2533 111.019 22.048C109.881 22.7947 108.397 23.616 106.567 24.512L105.755 22.776C107.529 21.6933 108.835 20.8253 109.675 20.172C109.358 19.5373 109.199 18.9493 109.199 18.408C109.199 17.3627 109.629 16.532 110.487 15.916C111.346 15.2813 112.335 14.964 113.455 14.964C114.743 14.964 115.499 15.3933 115.723 16.252C115.947 17.1107 115.406 18.24 114.099 19.64C114.23 19.808 114.669 20.34 115.415 21.236C116.181 22.1133 116.741 22.8787 117.095 23.532C117.45 24.1853 117.627 24.8573 117.627 25.548Z" fill="#EEEEEE"/>
<rect width="360" height="40" transform="translate(0 80)" fill="#C3C4A2" fill-opacity="0.15"/>
<g opacity="0.7">
<path d="M11.92 103.312C11.92 102.464 12.072 101.688 12.376 100.984C12.696 100.28 13.184 99.632 13.84 99.04C14.512 98.448 15.448 97.984 16.648 97.648C17.864 97.296 19.296 97.104 20.944 97.072L21.088 98.92C19.616 98.92 18.384 99.016 17.392 99.208C16.416 99.384 15.672 99.664 15.16 100.048C14.664 100.432 14.32 100.864 14.128 101.344C13.936 101.808 13.84 102.376 13.84 103.048C13.84 104.68 14.384 105.856 15.472 106.576C16.56 107.296 18.488 107.592 21.256 107.464L21.04 109.096C19.312 109.208 17.84 109.152 16.624 108.928C15.408 108.688 14.464 108.288 13.792 107.728C13.12 107.168 12.64 106.536 12.352 105.832C12.064 105.112 11.92 104.272 11.92 103.312ZM29.5313 109.336C28.0433 109.336 26.8353 108.8 25.9073 107.728C24.9793 106.656 24.5153 105.192 24.5153 103.336C24.5153 101.464 25.0513 99.928 26.1233 98.728C27.2113 97.528 28.5313 96.928 30.0833 96.928C31.5713 96.928 32.7713 97.464 33.6833 98.536C34.6113 99.592 35.0753 101.048 35.0753 102.904C35.0753 104.808 34.5393 106.36 33.4673 107.56C32.3953 108.744 31.0833 109.336 29.5313 109.336ZM29.8433 107.728C30.8353 107.728 31.6273 107.344 32.2193 106.576C32.8273 105.792 33.1313 104.688 33.1313 103.264C33.1313 101.76 32.8193 100.592 32.1953 99.76C31.5873 98.928 30.7713 98.512 29.7473 98.512C28.7713 98.512 27.9793 98.904 27.3713 99.688C26.7793 100.472 26.4833 101.568 26.4833 102.976C26.4833 104.48 26.7873 105.648 27.3953 106.48C28.0033 107.312 28.8193 107.728 29.8433 107.728ZM42.8946 107.68C43.8066 107.68 44.6786 107.344 45.5106 106.672C45.4626 104.624 45.4386 102.056 45.4386 98.968C44.7346 98.744 44.0866 98.632 43.4946 98.632C42.3746 98.632 41.4546 99.04 40.7346 99.856C40.0146 100.656 39.6546 101.776 39.6546 103.216C39.6546 104.672 39.9506 105.784 40.5426 106.552C41.1346 107.304 41.9186 107.68 42.8946 107.68ZM45.7266 109.048L45.6066 107.824C44.5666 108.8 43.4146 109.288 42.1506 109.288C40.8546 109.288 39.7906 108.792 38.9586 107.8C38.1426 106.792 37.7346 105.432 37.7346 103.72C37.7346 101.656 38.3746 100.016 39.6546 98.8C40.9346 97.584 42.5106 96.976 44.3826 96.976C44.7506 96.976 45.1026 97 45.4386 97.048V92.224L47.3826 92.056V97.288C47.3826 102.584 47.4386 106.472 47.5506 108.952L45.7266 109.048ZM57.4819 109H54.6259L54.7699 106.216H57.6259L57.4819 109ZM87.3046 109H77.8486V107.512H81.6646V93.808L78.0406 93.64L78.2086 92.248H83.6326V107.512H87.4726L87.3046 109ZM93.7559 94.744C94.4439 94.264 95.2439 93.608 96.1559 92.776C97.0679 91.928 97.8119 91.16 98.3879 90.472L99.9479 91.984C99.2919 92.576 98.4119 93.224 97.3079 93.928C96.2039 94.616 95.2039 95.176 94.3079 95.608L93.7559 94.744ZM101.508 109H90.8759V107.512H95.2919V98.8L90.8999 98.608L91.0439 97.24H97.2359V107.512H101.652L101.508 109ZM111.463 113.104V107.944C110.439 108.856 109.327 109.312 108.127 109.312C106.831 109.312 105.767 108.808 104.935 107.8C104.119 106.792 103.711 105.432 103.711 103.72C103.711 101.672 104.343 100.04 105.607 98.824C106.887 97.592 108.407 96.976 110.167 96.976C111.287 96.976 112.367 97.176 113.407 97.576V112.936L111.463 113.104ZM108.847 107.68C109.727 107.68 110.599 107.344 111.463 106.672V99.016C110.759 98.76 110.087 98.632 109.447 98.632C108.327 98.632 107.407 99.04 106.687 99.856C105.983 100.656 105.631 101.784 105.631 103.24C105.631 104.68 105.919 105.784 106.495 106.552C107.087 107.304 107.871 107.68 108.847 107.68ZM125.019 109.048L124.899 107.704C123.619 108.76 122.315 109.288 120.987 109.288C118.683 109.288 117.531 107.928 117.531 105.208V97.312L119.475 97.168V104.56C119.475 105.664 119.667 106.456 120.051 106.936C120.451 107.4 121.035 107.632 121.803 107.632C122.811 107.632 123.811 107.272 124.803 106.552C124.739 103.736 124.707 100.632 124.707 97.24H126.651C126.651 102.504 126.707 106.4 126.819 108.928L125.019 109.048ZM136.726 95.344H134.734L134.878 92.08H136.942L136.726 95.344ZM141.094 109H130.462V107.512H134.878V98.8L130.486 98.608L130.63 97.24H136.822V107.512H141.238L141.094 109ZM148.457 107.68C149.369 107.68 150.241 107.344 151.073 106.672C151.025 104.624 151.001 102.056 151.001 98.968C150.297 98.744 149.649 98.632 149.057 98.632C147.937 98.632 147.017 99.04 146.297 99.856C145.577 100.656 145.217 101.776 145.217 103.216C145.217 104.672 145.513 105.784 146.105 106.552C146.697 107.304 147.481 107.68 148.457 107.68ZM151.289 109.048L151.169 107.824C150.129 108.8 148.977 109.288 147.713 109.288C146.417 109.288 145.353 108.792 144.521 107.8C143.705 106.792 143.297 105.432 143.297 103.72C143.297 101.656 143.937 100.016 145.217 98.8C146.497 97.584 148.073 96.976 149.945 96.976C150.313 96.976 150.665 97 151.001 97.048V92.224L152.945 92.056V97.288C152.945 102.584 153.001 106.472 153.113 108.952L151.289 109.048ZM161.484 109.336C159.996 109.336 158.788 108.8 157.86 107.728C156.932 106.656 156.468 105.192 156.468 103.336C156.468 101.464 157.004 99.928 158.076 98.728C159.164 97.528 160.484 96.928 162.036 96.928C163.524 96.928 164.724 97.464 165.636 98.536C166.564 99.592 167.028 101.048 167.028 102.904C167.028 104.808 166.492 106.36 165.42 107.56C164.348 108.744 163.036 109.336 161.484 109.336ZM161.796 107.728C162.788 107.728 163.58 107.344 164.172 106.576C164.78 105.792 165.084 104.688 165.084 103.264C165.084 101.76 164.772 100.592 164.148 99.76C163.54 98.928 162.724 98.512 161.7 98.512C160.724 98.512 159.932 98.904 159.324 99.688C158.732 100.472 158.436 101.568 158.436 102.976C158.436 104.48 158.74 105.648 159.348 106.48C159.956 107.312 160.772 107.728 161.796 107.728Z" fill="black"/>
<rect x="326" y="87" width="24" height="25" rx="12" fill="#C8B7BE"/>
<path d="M332.8 103V96.02H335.45C336.13 96.02 336.65 96.2133 337.01 96.6C337.37 96.9867 337.55 97.5133 337.55 98.18C337.55 98.8467 337.37 99.3733 337.01 99.76C336.65 100.147 336.13 100.34 335.45 100.34H334.11V103H332.8ZM334.11 99.27H335.18C335.533 99.27 335.787 99.2 335.94 99.06C336.093 98.9133 336.17 98.6833 336.17 98.37V97.99C336.17 97.6767 336.093 97.45 335.94 97.31C335.787 97.1633 335.533 97.09 335.18 97.09H334.11V99.27ZM340.766 99.94L340.036 100.9V103H338.726V96.02H340.036V99.16H340.096L340.906 98L342.376 96.02H343.856L341.666 98.96L343.956 103H342.476L340.766 99.94Z" fill="black"/>
</g>
<line y1="119.5" x2="360" y2="119.5" stroke="#3D1A1A" stroke-opacity="0.2"/>
<line x1="0.5" y1="80" x2="0.499998" y2="119" stroke="#3D1A1A" stroke-opacity="0.2"/>
<line x1="359.5" y1="80" x2="359.5" y2="119" stroke="#3D1A1A" stroke-opacity="0.2"/>
<rect x="315" y="80" width="39" height="40" rx="19.5" fill="#D6CACD"/>
<path d="M323.1 107.5V93.54H328.4C329.76 93.54 330.8 93.9267 331.52 94.7C332.24 95.4733 332.6 96.5267 332.6 97.86C332.6 99.1933 332.24 100.247 331.52 101.02C330.8 101.793 329.76 102.18 328.4 102.18H325.72V107.5H323.1ZM325.72 100.04H327.86C328.567 100.04 329.073 99.9 329.38 99.62C329.687 99.3267 329.84 98.8667 329.84 98.24V97.48C329.84 96.8533 329.687 96.4 329.38 96.12C329.073 95.8267 328.567 95.68 327.86 95.68H325.72V100.04ZM339.032 101.38L337.572 103.3V107.5H334.952V93.54H337.572V99.82H337.692L339.312 97.5L342.252 93.54H345.212L340.832 99.42L345.412 107.5H342.452L339.032 101.38Z" fill="black"/>
<rect width="360" height="40" transform="translate(0 120)" fill="#C3C4A2" fill-opacity="0.15"/>
<g opacity="0.7">
<path d="M16.744 147.176C17.912 144.2 19.08 140.888 20.248 137.24H22.216C21.032 140.84 19.568 144.792 17.824 149.096H15.376C13.808 145.192 12.368 141.264 11.056 137.312L13 137.192C14.184 140.824 15.368 144.152 16.552 147.176H16.744ZM29.5313 149.336C28.0433 149.336 26.8353 148.8 25.9073 147.728C24.9793 146.656 24.5153 145.192 24.5153 143.336C24.5153 141.464 25.0513 139.928 26.1233 138.728C27.2113 137.528 28.5313 136.928 30.0833 136.928C31.5713 136.928 32.7713 137.464 33.6833 138.536C34.6113 139.592 35.0753 141.048 35.0753 142.904C35.0753 144.808 34.5393 146.36 33.4673 147.56C32.3953 148.744 31.0833 149.336 29.5313 149.336ZM29.8433 147.728C30.8353 147.728 31.6273 147.344 32.2193 146.576C32.8273 145.792 33.1313 144.688 33.1313 143.264C33.1313 141.76 32.8193 140.592 32.1953 139.76C31.5873 138.928 30.7713 138.512 29.7473 138.512C28.7713 138.512 27.9793 138.904 27.3713 139.688C26.7793 140.472 26.4833 141.568 26.4833 142.976C26.4833 144.48 26.7873 145.648 27.3953 146.48C28.0033 147.312 28.8193 147.728 29.8433 147.728ZM47.7186 149H38.2626V147.512H42.0786V133.808L38.4546 133.64L38.6226 132.248H44.0466V147.512H47.8866L47.7186 149ZM59.0419 149.048L58.9219 147.704C57.6419 148.76 56.3379 149.288 55.0099 149.288C52.7059 149.288 51.5539 147.928 51.5539 145.208V137.312L53.4979 137.168V144.56C53.4979 145.664 53.6899 146.456 54.0739 146.936C54.4739 147.4 55.0579 147.632 55.8259 147.632C56.8339 147.632 57.8339 147.272 58.8259 146.552C58.7619 143.736 58.7299 140.632 58.7299 137.24H60.6739C60.6739 142.504 60.7299 146.4 60.8419 148.928L59.0419 149.048ZM67.6293 138.632C67.0533 138.632 66.4693 138.928 65.8773 139.52C65.9413 142.368 65.9733 145.528 65.9733 149H64.1493C64.1493 143.912 64.1013 140.016 64.0053 137.312L65.7093 137.192L65.8053 138.296C66.6053 137.416 67.4533 136.976 68.3493 136.976C69.2453 136.976 69.8453 137.392 70.1493 138.224C70.9493 137.392 71.8053 136.976 72.7173 136.976C74.0933 136.976 74.7812 137.856 74.7812 139.616V149H72.9333V140.312C72.9333 139.704 72.8453 139.272 72.6693 139.016C72.5093 138.76 72.2213 138.632 71.8053 138.632C71.2773 138.632 70.7573 138.864 70.2453 139.328V139.544V149H68.7333V140.288C68.7333 139.696 68.6453 139.272 68.4693 139.016C68.3093 138.76 68.0293 138.632 67.6293 138.632ZM86.9206 149.264C85.1126 149.264 83.5926 149.136 82.3606 148.88C81.1286 148.608 80.1606 148.208 79.4566 147.68C78.7686 147.152 78.2806 146.536 77.9926 145.832C77.7046 145.128 77.5606 144.28 77.5606 143.288C77.5606 141.512 78.0966 140.016 79.1686 138.8C80.2566 137.568 81.5686 136.952 83.1046 136.952C84.6886 136.952 85.8726 137.544 86.6566 138.728C87.4566 139.896 87.7446 141.464 87.5206 143.432L79.4806 143.624C79.5766 145.032 80.1686 146.032 81.2566 146.624C82.3606 147.216 84.3126 147.544 87.1126 147.608L86.9206 149.264ZM82.7686 138.56C81.7926 138.56 81.0166 138.896 80.4406 139.568C79.8646 140.224 79.5446 141.176 79.4806 142.424C80.6486 142.376 82.7206 142.312 85.6966 142.232C85.6806 141.08 85.4246 140.184 84.9286 139.544C84.4486 138.888 83.7286 138.56 82.7686 138.56ZM96.1559 138.632C95.1479 138.632 94.1399 138.976 93.1319 139.664C93.1959 142.512 93.2279 145.624 93.2279 149H91.2839C91.2839 143.736 91.2279 139.84 91.1159 137.312L92.9159 137.192L93.0359 138.536C94.2839 137.496 95.5959 136.976 96.9719 136.976C99.3079 136.976 100.476 138.328 100.476 141.032V149H98.5319V141.68C98.5319 140.592 98.3319 139.816 97.9319 139.352C97.5319 138.872 96.9399 138.632 96.1559 138.632Z" fill="black"/>
<rect x="326" y="127" width="24" height="25" rx="12" fill="#C8B7BE"/>
<path d="M332.8 143V136.02H335.45C336.13 136.02 336.65 136.213 337.01 136.6C337.37 136.987 337.55 137.513 337.55 138.18C337.55 138.847 337.37 139.373 337.01 139.76C336.65 140.147 336.13 140.34 335.45 140.34H334.11V143H332.8ZM334.11 139.27H335.18C335.533 139.27 335.787 139.2 335.94 139.06C336.093 138.913 336.17 138.683 336.17 138.37V137.99C336.17 137.677 336.093 137.45 335.94 137.31C335.787 137.163 335.533 137.09 335.18 137.09H334.11V139.27ZM340.766 139.94L340.036 140.9V143H338.726V136.02H340.036V139.16H340.096L340.906 138L342.376 136.02H343.856L341.666 138.96L343.956 143H342.476L340.766 139.94Z" fill="black"/>
</g>
<line y1="159.5" x2="360" y2="159.5" stroke="#3D1A1A" stroke-opacity="0.2"/>
<line x1="0.5" y1="120" x2="0.499998" y2="159" stroke="#3D1A1A" stroke-opacity="0.2"/>
<line x1="359.5" y1="120" x2="359.5" y2="159" stroke="#3D1A1A" stroke-opacity="0.2"/>
<rect x="315" y="120" width="39" height="40" rx="19.5" fill="#D6CACD"/>
<path d="M323.1 147.5V133.54H328.4C329.76 133.54 330.8 133.927 331.52 134.7C332.24 135.473 332.6 136.527 332.6 137.86C332.6 139.193 332.24 140.247 331.52 141.02C330.8 141.793 329.76 142.18 328.4 142.18H325.72V147.5H323.1ZM325.72 140.04H327.86C328.567 140.04 329.073 139.9 329.38 139.62C329.687 139.327 329.84 138.867 329.84 138.24V137.48C329.84 136.853 329.687 136.4 329.38 136.12C329.073 135.827 328.567 135.68 327.86 135.68H325.72V140.04ZM339.032 141.38L337.572 143.3V147.5H334.952V133.54H337.572V139.82H337.692L339.312 137.5L342.252 133.54H345.212L340.832 139.42L345.412 147.5H342.452L339.032 141.38Z" fill="black"/>
<rect width="360" height="40" transform="translate(0 160)" fill="#C3C4A2" fill-opacity="0.15"/>
<g opacity="0.7">
<path d="M21.04 189.192C18.528 189.224 16.768 188.944 15.76 188.352C14.752 187.744 14.248 186.704 14.248 185.232V178.752H11.824L12.016 177.24H14.248V173.976L16.192 173.808V177.24H20.992V178.752H16.192V184.92C16.192 185.928 16.536 186.616 17.224 186.984C17.928 187.336 19.272 187.528 21.256 187.56L21.04 189.192ZM31.1633 175.344H29.1713L29.3153 172.08H31.3793L31.1633 175.344ZM35.5313 189H24.8993V187.512H29.3153V178.8L24.9233 178.608L25.0673 177.24H31.2593V187.512H35.6753L35.5313 189ZM42.5106 187.608C43.6146 187.608 44.5266 187.208 45.2466 186.408C45.9666 185.608 46.3266 184.496 46.3266 183.072C46.3266 181.648 46.0306 180.544 45.4386 179.76C44.8466 178.976 44.0706 178.584 43.1106 178.584C42.1826 178.584 41.2866 178.912 40.4226 179.568C40.4866 182.08 40.5266 184.64 40.5426 187.248C41.2306 187.488 41.8866 187.608 42.5106 187.608ZM40.5426 192.96L38.5986 193.128V189.048C38.5986 183.224 38.5506 179.312 38.4546 177.312L40.2306 177.192L40.3506 178.416C41.4226 177.456 42.5986 176.976 43.8786 176.976C45.1426 176.976 46.1826 177.488 46.9986 178.512C47.8306 179.536 48.2466 180.896 48.2466 182.592C48.2466 184.64 47.6226 186.272 46.3746 187.488C45.1426 188.688 43.6226 189.288 41.8146 189.288C41.3506 189.288 40.9266 189.256 40.5426 189.192V192.96ZM55.9219 189.336C54.4339 189.336 53.2259 188.8 52.2979 187.728C51.3699 186.656 50.9059 185.192 50.9059 183.336C50.9059 181.464 51.4419 179.928 52.5139 178.728C53.6019 177.528 54.9219 176.928 56.4739 176.928C57.9619 176.928 59.1619 177.464 60.0739 178.536C61.0019 179.592 61.4659 181.048 61.4659 182.904C61.4659 184.808 60.9299 186.36 59.8579 187.56C58.7859 188.744 57.4739 189.336 55.9219 189.336ZM56.2339 187.728C57.2259 187.728 58.0179 187.344 58.6099 186.576C59.2179 185.792 59.5219 184.688 59.5219 183.264C59.5219 181.76 59.2099 180.592 58.5859 179.76C57.9779 178.928 57.1619 178.512 56.1379 178.512C55.1619 178.512 54.3699 178.904 53.7619 179.688C53.1699 180.472 52.8739 181.568 52.8739 182.976C52.8739 184.48 53.1779 185.648 53.7859 186.48C54.3939 187.312 55.2099 187.728 56.2339 187.728ZM82.4806 187.68C83.3926 187.68 84.2646 187.344 85.0966 186.672C85.0486 184.624 85.0246 182.056 85.0246 178.968C84.3206 178.744 83.6726 178.632 83.0806 178.632C81.9606 178.632 81.0406 179.04 80.3206 179.856C79.6006 180.656 79.2406 181.776 79.2406 183.216C79.2406 184.672 79.5366 185.784 80.1286 186.552C80.7206 187.304 81.5046 187.68 82.4806 187.68ZM85.3126 189.048L85.1926 187.824C84.1526 188.8 83.0006 189.288 81.7366 189.288C80.4406 189.288 79.3766 188.792 78.5446 187.8C77.7286 186.792 77.3206 185.432 77.3206 183.72C77.3206 181.656 77.9606 180.016 79.2406 178.8C80.5206 177.584 82.0966 176.976 83.9686 176.976C84.3366 176.976 84.6886 177 85.0246 177.048V172.224L86.9686 172.056V177.288C86.9686 182.584 87.0246 186.472 87.1366 188.952L85.3126 189.048ZM100.116 189.264C98.3079 189.264 96.7879 189.136 95.5559 188.88C94.3239 188.608 93.3559 188.208 92.6519 187.68C91.9639 187.152 91.4759 186.536 91.1879 185.832C90.8999 185.128 90.7559 184.28 90.7559 183.288C90.7559 181.512 91.2919 180.016 92.3639 178.8C93.4519 177.568 94.7639 176.952 96.2999 176.952C97.8839 176.952 99.0679 177.544 99.8519 178.728C100.652 179.896 100.94 181.464 100.716 183.432L92.6759 183.624C92.7719 185.032 93.3639 186.032 94.4519 186.624C95.5559 187.216 97.5079 187.544 100.308 187.608L100.116 189.264ZM95.9639 178.56C94.9879 178.56 94.2119 178.896 93.6359 179.568C93.0599 180.224 92.7399 181.176 92.6759 182.424C93.8439 182.376 95.9159 182.312 98.8919 182.232C98.8759 181.08 98.6199 180.184 98.1239 179.544C97.6439 178.888 96.9239 178.56 95.9639 178.56ZM126.003 189H117.171V187.512H120.291C120.227 182.776 120.179 179.872 120.147 178.8L117.171 178.632L117.315 177.24H121.875C121.939 177.912 121.987 178.584 122.019 179.256C123.331 177.896 125.123 177.08 127.395 176.808L127.491 178.872C125.219 179.048 123.419 179.568 122.091 180.432C122.091 180.864 122.099 181.896 122.115 183.528C122.147 185.144 122.171 186.472 122.187 187.512H126.171L126.003 189ZM139.702 189.264C137.894 189.264 136.374 189.136 135.142 188.88C133.91 188.608 132.942 188.208 132.238 187.68C131.55 187.152 131.062 186.536 130.774 185.832C130.486 185.128 130.342 184.28 130.342 183.288C130.342 181.512 130.878 180.016 131.95 178.8C133.038 177.568 134.35 176.952 135.886 176.952C137.47 176.952 138.654 177.544 139.438 178.728C140.238 179.896 140.526 181.464 140.302 183.432L132.262 183.624C132.358 185.032 132.95 186.032 134.038 186.624C135.142 187.216 137.094 187.544 139.894 187.608L139.702 189.264ZM135.55 178.56C134.574 178.56 133.798 178.896 133.222 179.568C132.646 180.224 132.326 181.176 132.262 182.424C133.43 182.376 135.502 182.312 138.478 182.232C138.462 181.08 138.206 180.184 137.71 179.544C137.23 178.888 136.51 178.56 135.55 178.56ZM143.873 183.312C143.873 182.464 144.025 181.688 144.329 180.984C144.649 180.28 145.137 179.632 145.793 179.04C146.465 178.448 147.401 177.984 148.601 177.648C149.817 177.296 151.249 177.104 152.897 177.072L153.041 178.92C151.569 178.92 150.337 179.016 149.345 179.208C148.369 179.384 147.625 179.664 147.113 180.048C146.617 180.432 146.273 180.864 146.081 181.344C145.889 181.808 145.793 182.376 145.793 183.048C145.793 184.68 146.337 185.856 147.425 186.576C148.513 187.296 150.441 187.592 153.209 187.464L152.993 189.096C151.265 189.208 149.793 189.152 148.577 188.928C147.361 188.688 146.417 188.288 145.745 187.728C145.073 187.168 144.593 186.536 144.305 185.832C144.017 185.112 143.873 184.272 143.873 183.312ZM163.116 175.344H161.124L161.268 172.08H163.332L163.116 175.344ZM167.484 189H156.852V187.512H161.268V178.8L156.876 178.608L157.02 177.24H163.212V187.512H167.628L167.484 189ZM174.464 187.608C175.568 187.608 176.48 187.208 177.2 186.408C177.92 185.608 178.28 184.496 178.28 183.072C178.28 181.648 177.984 180.544 177.392 179.76C176.8 178.976 176.024 178.584 175.064 178.584C174.136 178.584 173.24 178.912 172.376 179.568C172.44 182.08 172.48 184.64 172.496 187.248C173.184 187.488 173.84 187.608 174.464 187.608ZM172.496 192.96L170.552 193.128V189.048C170.552 183.224 170.504 179.312 170.408 177.312L172.184 177.192L172.304 178.416C173.376 177.456 174.552 176.976 175.832 176.976C177.096 176.976 178.136 177.488 178.952 178.512C179.784 179.536 180.2 180.896 180.2 182.592C180.2 184.64 179.576 186.272 178.328 187.488C177.096 188.688 175.576 189.288 173.768 189.288C173.304 189.288 172.88 189.256 172.496 189.192V192.96ZM189.507 175.344H187.515L187.659 172.08H189.723L189.507 175.344ZM193.875 189H183.243V187.512H187.659V178.8L183.267 178.608L183.411 177.24H189.603V187.512H194.019L193.875 189ZM205.678 189.264C203.87 189.264 202.35 189.136 201.118 188.88C199.886 188.608 198.918 188.208 198.214 187.68C197.526 187.152 197.038 186.536 196.75 185.832C196.462 185.128 196.318 184.28 196.318 183.288C196.318 181.512 196.854 180.016 197.926 178.8C199.014 177.568 200.326 176.952 201.862 176.952C203.446 176.952 204.63 177.544 205.414 178.728C206.214 179.896 206.502 181.464 206.278 183.432L198.238 183.624C198.334 185.032 198.926 186.032 200.014 186.624C201.118 187.216 203.07 187.544 205.87 187.608L205.678 189.264ZM201.526 178.56C200.55 178.56 199.774 178.896 199.198 179.568C198.622 180.224 198.302 181.176 198.238 182.424C199.406 182.376 201.478 182.312 204.454 182.232C204.438 181.08 204.182 180.184 203.686 179.544C203.206 178.888 202.486 178.56 201.526 178.56ZM214.914 178.632C213.906 178.632 212.898 178.976 211.89 179.664C211.954 182.512 211.986 185.624 211.986 189H210.042C210.042 183.736 209.986 179.84 209.874 177.312L211.674 177.192L211.794 178.536C213.042 177.496 214.354 176.976 215.73 176.976C218.066 176.976 219.234 178.328 219.234 181.032V189H217.29V181.68C217.29 180.592 217.09 179.816 216.69 179.352C216.29 178.872 215.698 178.632 214.914 178.632ZM232.165 189.192C229.653 189.224 227.893 188.944 226.885 188.352C225.877 187.744 225.373 186.704 225.373 185.232V178.752H222.949L223.141 177.24H225.373V173.976L227.317 173.808V177.24H232.117V178.752H227.317V184.92C227.317 185.928 227.661 186.616 228.349 186.984C229.053 187.336 230.397 187.528 232.381 187.56L232.165 189.192ZM245.264 189.264C243.456 189.264 241.936 189.136 240.704 188.88C239.472 188.608 238.504 188.208 237.8 187.68C237.112 187.152 236.624 186.536 236.336 185.832C236.048 185.128 235.904 184.28 235.904 183.288C235.904 181.512 236.44 180.016 237.512 178.8C238.6 177.568 239.912 176.952 241.448 176.952C243.032 176.952 244.216 177.544 245 178.728C245.8 179.896 246.088 181.464 245.864 183.432L237.824 183.624C237.92 185.032 238.512 186.032 239.6 186.624C240.704 187.216 242.656 187.544 245.456 187.608L245.264 189.264ZM241.112 178.56C240.136 178.56 239.36 178.896 238.784 179.568C238.208 180.224 237.888 181.176 237.824 182.424C238.992 182.376 241.064 182.312 244.04 182.232C244.024 181.08 243.768 180.184 243.272 179.544C242.792 178.888 242.072 178.56 241.112 178.56Z" fill="black"/>
<rect x="326" y="167" width="24" height="25" rx="12" fill="#C8B7BE"/>
<path d="M332.8 183V176.02H335.45C336.13 176.02 336.65 176.213 337.01 176.6C337.37 176.987 337.55 177.513 337.55 178.18C337.55 178.847 337.37 179.373 337.01 179.76C336.65 180.147 336.13 180.34 335.45 180.34H334.11V183H332.8ZM334.11 179.27H335.18C335.533 179.27 335.787 179.2 335.94 179.06C336.093 178.913 336.17 178.683 336.17 178.37V177.99C336.17 177.677 336.093 177.45 335.94 177.31C335.787 177.163 335.533 177.09 335.18 177.09H334.11V179.27ZM340.766 179.94L340.036 180.9V183H338.726V176.02H340.036V179.16H340.096L340.906 178L342.376 176.02H343.856L341.666 178.96L343.956 183H342.476L340.766 179.94Z" fill="black"/>
</g>
<line y1="199.5" x2="360" y2="199.5" stroke="#3D1A1A" stroke-opacity="0.2"/>
<line x1="0.5" y1="160" x2="0.499998" y2="199" stroke="#3D1A1A" stroke-opacity="0.2"/>
<line x1="359.5" y1="160" x2="359.5" y2="199" stroke="#3D1A1A" stroke-opacity="0.2"/>
<rect x="315" y="160" width="39" height="40" rx="19.5" fill="#D6CACD"/>
<path d="M323.1 187.5V173.54H328.4C329.76 173.54 330.8 173.927 331.52 174.7C332.24 175.473 332.6 176.527 332.6 177.86C332.6 179.193 332.24 180.247 331.52 181.02C330.8 181.793 329.76 182.18 328.4 182.18H325.72V187.5H323.1ZM325.72 180.04H327.86C328.567 180.04 329.073 179.9 329.38 179.62C329.687 179.327 329.84 178.867 329.84 178.24V177.48C329.84 176.853 329.687 176.4 329.38 176.12C329.073 175.827 328.567 175.68 327.86 175.68H325.72V180.04ZM339.032 181.38L337.572 183.3V187.5H334.952V173.54H337.572V179.82H337.692L339.312 177.5L342.252 173.54H345.212L340.832 179.42L345.412 187.5H342.452L339.032 181.38Z" fill="black"/>
<rect x="272" y="81" width="39" height="40" rx="19.5" fill="#C3C4A2"/>
<path d="M280.16 108.5V94.54H289.28V96.7H282.78V100.34H288.64V102.5H282.78V108.5H280.16ZM296.032 102.38L294.572 104.3V108.5H291.952V94.54H294.572V100.82H294.692L296.312 98.5L299.252 94.54H302.212L297.832 100.42L302.412 108.5H299.452L296.032 102.38Z" fill="black"/>
<rect x="272" y="41" width="39" height="40" rx="19.5" fill="#C3C4A2"/>
<path d="M280.16 68.5V54.54H289.28V56.7H282.78V60.34H288.64V62.5H282.78V68.5H280.16ZM296.032 62.38L294.572 64.3V68.5H291.952V54.54H294.572V60.82H294.692L296.312 58.5L299.252 54.54H302.212L297.832 60.42L302.412 68.5H299.452L296.032 62.38Z" fill="black"/>
<rect x="272" y="160" width="39" height="40" rx="19.5" fill="#C3C4A2"/>
<path d="M280.16 187.5V173.54H289.28V175.7H282.78V179.34H288.64V181.5H282.78V187.5H280.16ZM296.032 181.38L294.572 183.3V187.5H291.952V173.54H294.572V179.82H294.692L296.312 177.5L299.252 173.54H302.212L297.832 179.42L302.412 187.5H299.452L296.032 181.38Z" fill="black"/>
<rect x="272" y="120" width="39" height="40" rx="19.5" fill="#C3C4A2"/>
<path d="M280.16 147.5V133.54H289.28V135.7H282.78V139.34H288.64V141.5H282.78V147.5H280.16ZM296.032 141.38L294.572 143.3V147.5H291.952V133.54H294.572V139.82H294.692L296.312 137.5L299.252 133.54H302.212L297.832 139.42L302.412 147.5H299.452L296.032 141.38Z" fill="black"/>
</svg>
