<?xml version="1.0" encoding="utf-8"?>
<!-- Generator: Adobe Illustrator 25.4.1, SVG Export Plug-In . SVG Version: 6.00 Build 0)  -->
<svg version="1.1" id="Layer_1" xmlns="http://www.w3.org/2000/svg" xmlns:xlink="http://www.w3.org/1999/xlink" x="0px" y="0px"
	 viewBox="0 0 360 160" style="enable-background:new 0 0 360 160;" xml:space="preserve">
<style type="text/css">
	.st0{fill:#836B7F;}
	.st1{fill:#EEEEEE;}
	.st2{fill:#C3C4A2;fill-opacity:0.15;}
	.st3{opacity:0.7;}
	.st4{fill:none;stroke:#3D1A1A;stroke-opacity:0.2;}
	.st5{fill:#D6CACD;}
	.st6{fill:#C3C4A2;}
</style>
<path class="st0" d="M0,5c0-2.8,2.2-5,5-5h350c2.8,0,5,2.2,5,5v35H0V5z"/>
<path class="st1" d="M22.8,26.6L21.9,30H11l3.4-17.4h11L24.7,16h-7L17,19.9h5.9l-0.6,2.9h-5.9l-0.8,3.9H22.8z M40.3,28.7
	c-1,0.6-1.9,1-2.7,1.3c-0.8,0.3-1.4,0.4-1.9,0.3c-0.5-0.1-0.9-0.3-1.1-0.6c-0.3-0.3-0.4-0.8-0.4-1.4c0-0.7,0.3-2.1,0.8-4.1
	c0.5-2,0.8-3.3,0.8-3.9c0-0.8-0.3-1.2-1-1.2c-0.7,0-1.6,0.5-2.7,1.6L30.1,30h-3.8c1.3-7,2.2-11.7,2.5-14.1l3.8-0.2L32.3,18
	c1.7-1.7,3.3-2.6,5-2.6c1.7,0,2.6,1,2.6,2.9c0,1-0.3,2.6-0.8,4.7c-0.5,2.1-0.8,3.3-0.8,3.6c0,0.3,0.1,0.4,0.3,0.4
	c0.2,0,0.7-0.1,1.5-0.3L40.3,28.7z M48.7,26c0.2-0.5,1.8-3.9,4.8-10.2h4c-2.3,4.6-4.8,9.4-7.5,14.3h-4.6c-1-5.8-1.6-10.5-1.9-14.2
	l3.9-0.3c0.3,3.3,0.7,6.7,1.1,10.3H48.7z M61.8,25c0,1.1,0.4,1.7,1.2,1.7s1.7-0.5,2.9-1.5c0.1-0.7,0.5-2.7,1.2-6
	c-0.8-0.3-1.5-0.4-2.1-0.4c-0.8,0-1.5,0.7-2.2,2.1C62.1,22.2,61.8,23.6,61.8,25z M71.6,28.7c-1.5,0.9-2.7,1.4-3.6,1.6
	c-0.9,0.1-1.5,0-1.8-0.4c-0.3-0.5-0.5-1.2-0.4-2.2c-1.9,1.8-3.5,2.8-4.9,2.8c-0.9,0-1.6-0.4-2.1-1.1c-0.5-0.7-0.8-1.8-0.8-3.2
	c0-1.8,0.3-3.4,1-5c0.7-1.6,1.7-2.9,3.1-3.9c1.4-1,3-1.6,4.9-1.6c1.5,0,3,0.2,4.5,0.7L69.5,26c-0.1,0.6-0.1,0.9,0.1,1
	c0.2,0.1,0.7,0,1.7-0.2L71.6,28.7z M86.3,25.5c0,0.7-0.2,1.3-0.5,1.8c-0.3,0.5-0.9,1-1.7,1.5c-0.8,0.5-1.9,0.8-3.3,1.1
	c-1.4,0.2-3.1,0.4-5,0.3l0.1-3.5c2.4,0.1,4.1,0.1,5.1,0c1-0.2,1.5-0.5,1.5-1c0-0.2,0-0.4-0.1-0.6c-0.1-0.2-0.3-0.5-0.5-0.7
	c-0.2-0.3-0.4-0.5-0.6-0.7c-0.2-0.2-0.4-0.5-0.8-0.8c-0.3-0.4-0.6-0.6-0.8-0.8c-1.1,0.7-2.6,1.6-4.5,2.5l-0.8-1.7
	c1.8-1.1,3.1-2,3.9-2.6c-0.3-0.6-0.5-1.2-0.5-1.8c0-1,0.4-1.9,1.3-2.5c0.9-0.6,1.8-1,3-1c1.3,0,2,0.4,2.3,1.3c0.2,0.9-0.3,2-1.6,3.4
	c0.1,0.2,0.6,0.7,1.3,1.6c0.8,0.9,1.3,1.6,1.7,2.3C86.1,24.2,86.3,24.9,86.3,25.5z M93.1,25c0,1.1,0.4,1.7,1.2,1.7
	c0.8,0,1.7-0.5,2.9-1.5c0.1-0.7,0.5-2.7,1.2-6c-0.8-0.3-1.5-0.4-2.1-0.4c-0.8,0-1.5,0.7-2.2,2.1C93.4,22.2,93.1,23.6,93.1,25z
	 M102.9,28.7c-1.5,0.9-2.7,1.4-3.6,1.6c-0.9,0.1-1.5,0-1.8-0.4c-0.3-0.5-0.5-1.2-0.4-2.2c-1.9,1.8-3.5,2.8-4.9,2.8
	c-0.9,0-1.6-0.4-2.1-1.1c-0.5-0.7-0.8-1.8-0.8-3.2c0-1.8,0.3-3.4,1-5c0.7-1.6,1.7-2.9,3.1-3.9c1.4-1,3-1.6,4.9-1.6
	c1.5,0,3,0.2,4.5,0.7l-1.9,9.9c-0.1,0.6-0.1,0.9,0.1,1s0.7,0,1.7-0.2L102.9,28.7z M110.1,26.7c0.7,0,1.7-0.5,2.8-1.5l1.2-6.1
	c-0.8-0.3-1.5-0.4-2.1-0.4c-0.8,0-1.5,0.7-2.2,2c-0.7,1.3-1,2.6-1,3.9C108.8,26,109.2,26.7,110.1,26.7z M118.8,28.7
	c-1.6,0.9-2.8,1.4-3.8,1.5c-0.9,0.2-1.6,0-1.9-0.4c-0.3-0.4-0.5-1.1-0.4-2.1c-1.9,1.8-3.4,2.7-4.7,2.7c-0.9,0-1.6-0.4-2.2-1.2
	c-0.6-0.8-0.8-2-0.8-3.5c0-1.7,0.3-3.3,1-4.9c0.7-1.5,1.7-2.8,3.1-3.8c1.4-1,3-1.5,4.8-1.5c0.2,0,0.5,0,1,0.1l1-5l3.8-0.3l-3.1,15.9
	c-0.1,0.5,0,0.8,0.1,0.9c0.2,0.1,0.8,0,1.8-0.3L118.8,28.7z M120.8,24.5c0-2.5,0.7-4.6,2.2-6.4c1.5-1.8,3.4-2.7,5.6-2.7
	c1.7,0,3.1,0.5,4.1,1.6c1,1,1.5,2.5,1.5,4.3c0,2.5-0.7,4.6-2.2,6.4c-1.5,1.8-3.3,2.7-5.6,2.7c-1.7,0-3.1-0.5-4.1-1.6
	C121.3,27.8,120.8,26.3,120.8,24.5z M130.2,21.7c0-1-0.2-1.8-0.6-2.3c-0.4-0.6-0.9-0.8-1.5-0.8c-1,0-1.8,0.6-2.4,1.7
	c-0.6,1.1-1,2.4-1,3.8c0,1,0.2,1.8,0.6,2.4c0.4,0.5,0.9,0.8,1.6,0.8c1,0,1.8-0.6,2.4-1.7C129.9,24.4,130.2,23.2,130.2,21.7z"/>
<rect y="40" class="st2" width="360" height="40"/>
<g class="st3">
	<path d="M11.9,63.3c0-0.8,0.2-1.6,0.5-2.3c0.3-0.7,0.8-1.4,1.5-1.9c0.7-0.6,1.6-1.1,2.8-1.4c1.2-0.4,2.6-0.5,4.3-0.6l0.1,1.8
		c-1.5,0-2.7,0.1-3.7,0.3c-1,0.2-1.7,0.5-2.2,0.8c-0.5,0.4-0.8,0.8-1,1.3c-0.2,0.5-0.3,1-0.3,1.7c0,1.6,0.5,2.8,1.6,3.5
		c1.1,0.7,3,1,5.8,0.9L21,69.1c-1.7,0.1-3.2,0.1-4.4-0.2c-1.2-0.2-2.2-0.6-2.8-1.2c-0.7-0.6-1.2-1.2-1.4-1.9
		C12.1,65.1,11.9,64.3,11.9,63.3z M29.5,69.3c-1.5,0-2.7-0.5-3.6-1.6c-0.9-1.1-1.4-2.5-1.4-4.4c0-1.9,0.5-3.4,1.6-4.6
		c1.1-1.2,2.4-1.8,4-1.8c1.5,0,2.7,0.5,3.6,1.6c0.9,1.1,1.4,2.5,1.4,4.4c0,1.9-0.5,3.5-1.6,4.7C32.4,68.7,31.1,69.3,29.5,69.3z
		 M29.8,67.7c1,0,1.8-0.4,2.4-1.2c0.6-0.8,0.9-1.9,0.9-3.3c0-1.5-0.3-2.7-0.9-3.5c-0.6-0.8-1.4-1.2-2.4-1.2c-1,0-1.8,0.4-2.4,1.2
		c-0.6,0.8-0.9,1.9-0.9,3.3c0,1.5,0.3,2.7,0.9,3.5C28,67.3,28.8,67.7,29.8,67.7z M42.9,67.7c0.9,0,1.8-0.3,2.6-1
		c0-2-0.1-4.6-0.1-7.7c-0.7-0.2-1.4-0.3-1.9-0.3c-1.1,0-2,0.4-2.8,1.2c-0.7,0.8-1.1,1.9-1.1,3.4c0,1.5,0.3,2.6,0.9,3.3
		C41.1,67.3,41.9,67.7,42.9,67.7z M45.7,69l-0.1-1.2c-1,1-2.2,1.5-3.5,1.5c-1.3,0-2.4-0.5-3.2-1.5c-0.8-1-1.2-2.4-1.2-4.1
		c0-2.1,0.6-3.7,1.9-4.9c1.3-1.2,2.9-1.8,4.7-1.8c0.4,0,0.7,0,1.1,0.1v-4.8l1.9-0.2v5.2c0,5.3,0.1,9.2,0.2,11.7L45.7,69z M57.5,69
		h-2.9l0.1-2.8h2.9L57.5,69z M87.3,69h-9.5v-1.5h3.8V53.8L78,53.6l0.2-1.4h5.4v15.3h3.8L87.3,69z M93.8,54.7c0.7-0.5,1.5-1.1,2.4-2
		c0.9-0.8,1.7-1.6,2.2-2.3l1.6,1.5c-0.7,0.6-1.5,1.2-2.6,1.9c-1.1,0.7-2.1,1.2-3,1.7L93.8,54.7z M101.5,69H90.9v-1.5h4.4v-8.7
		l-4.4-0.2l0.1-1.4h6.2v10.3h4.4L101.5,69z M111.5,73.1v-5.2c-1,0.9-2.1,1.4-3.3,1.4c-1.3,0-2.4-0.5-3.2-1.5c-0.8-1-1.2-2.4-1.2-4.1
		c0-2,0.6-3.7,1.9-4.9c1.3-1.2,2.8-1.8,4.6-1.8c1.1,0,2.2,0.2,3.2,0.6v15.4L111.5,73.1z M108.8,67.7c0.9,0,1.8-0.3,2.6-1V59
		c-0.7-0.3-1.4-0.4-2-0.4c-1.1,0-2,0.4-2.8,1.2c-0.7,0.8-1.1,1.9-1.1,3.4c0,1.4,0.3,2.5,0.9,3.3C107.1,67.3,107.9,67.7,108.8,67.7z
		 M125,69l-0.1-1.3c-1.3,1.1-2.6,1.6-3.9,1.6c-2.3,0-3.5-1.4-3.5-4.1v-7.9l1.9-0.1v7.4c0,1.1,0.2,1.9,0.6,2.4c0.4,0.5,1,0.7,1.8,0.7
		c1,0,2-0.4,3-1.1c-0.1-2.8-0.1-5.9-0.1-9.3h1.9c0,5.3,0.1,9.2,0.2,11.7L125,69z M136.7,55.3h-2l0.1-3.3h2.1L136.7,55.3z M141.1,69
		h-10.6v-1.5h4.4v-8.7l-4.4-0.2l0.1-1.4h6.2v10.3h4.4L141.1,69z M148.5,67.7c0.9,0,1.8-0.3,2.6-1c0-2-0.1-4.6-0.1-7.7
		c-0.7-0.2-1.4-0.3-1.9-0.3c-1.1,0-2,0.4-2.8,1.2c-0.7,0.8-1.1,1.9-1.1,3.4c0,1.5,0.3,2.6,0.9,3.3C146.7,67.3,147.5,67.7,148.5,67.7
		z M151.3,69l-0.1-1.2c-1,1-2.2,1.5-3.5,1.5c-1.3,0-2.4-0.5-3.2-1.5c-0.8-1-1.2-2.4-1.2-4.1c0-2.1,0.6-3.7,1.9-4.9s2.9-1.8,4.7-1.8
		c0.4,0,0.7,0,1.1,0.1v-4.8l1.9-0.2v5.2c0,5.3,0.1,9.2,0.2,11.7L151.3,69z M161.5,69.3c-1.5,0-2.7-0.5-3.6-1.6
		c-0.9-1.1-1.4-2.5-1.4-4.4c0-1.9,0.5-3.4,1.6-4.6c1.1-1.2,2.4-1.8,4-1.8c1.5,0,2.7,0.5,3.6,1.6c0.9,1.1,1.4,2.5,1.4,4.4
		c0,1.9-0.5,3.5-1.6,4.7C164.3,68.7,163,69.3,161.5,69.3z M161.8,67.7c1,0,1.8-0.4,2.4-1.2c0.6-0.8,0.9-1.9,0.9-3.3
		c0-1.5-0.3-2.7-0.9-3.5c-0.6-0.8-1.4-1.2-2.4-1.2c-1,0-1.8,0.4-2.4,1.2c-0.6,0.8-0.9,1.9-0.9,3.3c0,1.5,0.3,2.7,0.9,3.5
		C160,67.3,160.8,67.7,161.8,67.7z"/>
</g>
<line class="st4" x1="0" y1="79.5" x2="360" y2="79.5"/>
<line class="st4" x1="0.5" y1="40" x2="0.5" y2="79"/>
<line class="st4" x1="359.5" y1="40" x2="359.5" y2="79"/>
<path class="st5" d="M334.5,40L334.5,40c10.8,0,19.5,8.7,19.5,19.5v1c0,10.8-8.7,19.5-19.5,19.5l0,0c-10.8,0-19.5-8.7-19.5-19.5v-1
	C315,48.7,323.7,40,334.5,40z"/>
<path d="M323.1,67.5v-14h5.3c1.4,0,2.4,0.4,3.1,1.2s1.1,1.8,1.1,3.2c0,1.3-0.4,2.4-1.1,3.2s-1.8,1.2-3.1,1.2h-2.7v5.3H323.1z
	 M325.7,60h2.1c0.7,0,1.2-0.1,1.5-0.4c0.3-0.3,0.5-0.8,0.5-1.4v-0.8c0-0.6-0.2-1.1-0.5-1.4c-0.3-0.3-0.8-0.4-1.5-0.4h-2.1V60z
	 M339,61.4l-1.5,1.9v4.2H335v-14h2.6v6.3h0.1l1.6-2.3l2.9-4h3l-4.4,5.9l4.6,8.1h-3L339,61.4z"/>
<rect y="80" class="st2" width="360" height="40"/>
<g class="st3">
	<path d="M16.7,107.2c1.2-3,2.3-6.3,3.5-9.9h2c-1.2,3.6-2.6,7.6-4.4,11.9h-2.4c-1.6-3.9-3-7.8-4.3-11.8l1.9-0.1
		c1.2,3.6,2.4,7,3.6,10H16.7z M29.5,109.3c-1.5,0-2.7-0.5-3.6-1.6c-0.9-1.1-1.4-2.5-1.4-4.4c0-1.9,0.5-3.4,1.6-4.6
		c1.1-1.2,2.4-1.8,4-1.8c1.5,0,2.7,0.5,3.6,1.6c0.9,1.1,1.4,2.5,1.4,4.4c0,1.9-0.5,3.5-1.6,4.7C32.4,108.7,31.1,109.3,29.5,109.3z
		 M29.8,107.7c1,0,1.8-0.4,2.4-1.2c0.6-0.8,0.9-1.9,0.9-3.3c0-1.5-0.3-2.7-0.9-3.5c-0.6-0.8-1.4-1.2-2.4-1.2c-1,0-1.8,0.4-2.4,1.2
		c-0.6,0.8-0.9,1.9-0.9,3.3c0,1.5,0.3,2.7,0.9,3.5C28,107.3,28.8,107.7,29.8,107.7z M47.7,109h-9.5v-1.5h3.8V93.8l-3.6-0.2l0.2-1.4
		H44v15.3h3.8L47.7,109z M59,109l-0.1-1.3c-1.3,1.1-2.6,1.6-3.9,1.6c-2.3,0-3.5-1.4-3.5-4.1v-7.9l1.9-0.1v7.4c0,1.1,0.2,1.9,0.6,2.4
		c0.4,0.5,1,0.7,1.8,0.7c1,0,2-0.4,3-1.1c-0.1-2.8-0.1-5.9-0.1-9.3h1.9c0,5.3,0.1,9.2,0.2,11.7L59,109z M67.6,98.6
		c-0.6,0-1.2,0.3-1.8,0.9c0.1,2.8,0.1,6,0.1,9.5h-1.8c0-5.1,0-9-0.1-11.7l1.7-0.1l0.1,1.1c0.8-0.9,1.6-1.3,2.5-1.3
		c0.9,0,1.5,0.4,1.8,1.2c0.8-0.8,1.7-1.2,2.6-1.2c1.4,0,2.1,0.9,2.1,2.6v9.4h-1.8v-8.7c0-0.6-0.1-1-0.3-1.3
		c-0.2-0.3-0.4-0.4-0.9-0.4c-0.5,0-1,0.2-1.6,0.7v0.2v9.5h-1.5v-8.7c0-0.6-0.1-1-0.3-1.3C68.3,98.8,68,98.6,67.6,98.6z M86.9,109.3
		c-1.8,0-3.3-0.1-4.6-0.4c-1.2-0.3-2.2-0.7-2.9-1.2c-0.7-0.5-1.2-1.1-1.5-1.8s-0.4-1.6-0.4-2.5c0-1.8,0.5-3.3,1.6-4.5
		c1.1-1.2,2.4-1.8,3.9-1.8c1.6,0,2.8,0.6,3.6,1.8c0.8,1.2,1.1,2.7,0.9,4.7l-8,0.2c0.1,1.4,0.7,2.4,1.8,3c1.1,0.6,3.1,0.9,5.9,1
		L86.9,109.3z M82.8,98.6c-1,0-1.8,0.3-2.3,1c-0.6,0.7-0.9,1.6-1,2.9c1.2,0,3.2-0.1,6.2-0.2c0-1.2-0.3-2-0.8-2.7
		C84.4,98.9,83.7,98.6,82.8,98.6z M96.2,98.6c-1,0-2,0.3-3,1c0.1,2.8,0.1,6,0.1,9.3h-1.9c0-5.3-0.1-9.2-0.2-11.7l1.8-0.1l0.1,1.3
		c1.2-1,2.6-1.6,3.9-1.6c2.3,0,3.5,1.4,3.5,4.1v8h-1.9v-7.3c0-1.1-0.2-1.9-0.6-2.3C97.5,98.9,96.9,98.6,96.2,98.6z"/>
</g>
<line class="st4" x1="0" y1="119.5" x2="360" y2="119.5"/>
<line class="st4" x1="0.5" y1="80" x2="0.5" y2="119"/>
<line class="st4" x1="359.5" y1="80" x2="359.5" y2="119"/>
<path class="st5" d="M334.5,80L334.5,80c10.8,0,19.5,8.7,19.5,19.5v1c0,10.8-8.7,19.5-19.5,19.5l0,0c-10.8,0-19.5-8.7-19.5-19.5v-1
	C315,88.7,323.7,80,334.5,80z"/>
<path d="M323.1,107.5v-14h5.3c1.4,0,2.4,0.4,3.1,1.2s1.1,1.8,1.1,3.2s-0.4,2.4-1.1,3.2c-0.7,0.8-1.8,1.2-3.1,1.2h-2.7v5.3H323.1z
	 M325.7,100h2.1c0.7,0,1.2-0.1,1.5-0.4c0.3-0.3,0.5-0.8,0.5-1.4v-0.8c0-0.6-0.2-1.1-0.5-1.4c-0.3-0.3-0.8-0.4-1.5-0.4h-2.1V100z
	 M339,101.4l-1.5,1.9v4.2H335v-14h2.6v6.3h0.1l1.6-2.3l2.9-4h3l-4.4,5.9l4.6,8.1h-3L339,101.4z"/>
<rect y="120" class="st2" width="360" height="40"/>
<g class="st3">
	<path d="M21,149.2c-2.5,0-4.3-0.2-5.3-0.8c-1-0.6-1.5-1.6-1.5-3.1v-6.5h-2.4l0.2-1.5h2.2V134l1.9-0.2v3.4H21v1.5h-4.8v6.2
		c0,1,0.3,1.7,1,2.1c0.7,0.4,2,0.5,4,0.6L21,149.2z M31.2,135.3h-2l0.1-3.3h2.1L31.2,135.3z M35.5,149H24.9v-1.5h4.4v-8.7l-4.4-0.2
		l0.1-1.4h6.2v10.3h4.4L35.5,149z M42.5,147.6c1.1,0,2-0.4,2.7-1.2c0.7-0.8,1.1-1.9,1.1-3.3c0-1.4-0.3-2.5-0.9-3.3
		c-0.6-0.8-1.4-1.2-2.3-1.2c-0.9,0-1.8,0.3-2.7,1c0.1,2.5,0.1,5.1,0.1,7.7C41.2,147.5,41.9,147.6,42.5,147.6z M40.5,153l-1.9,0.2
		V149c0-5.8,0-9.7-0.1-11.7l1.8-0.1l0.1,1.2c1.1-1,2.2-1.4,3.5-1.4c1.3,0,2.3,0.5,3.1,1.5c0.8,1,1.2,2.4,1.2,4.1
		c0,2-0.6,3.7-1.9,4.9c-1.2,1.2-2.8,1.8-4.6,1.8c-0.5,0-0.9,0-1.3-0.1V153z M55.9,149.3c-1.5,0-2.7-0.5-3.6-1.6
		c-0.9-1.1-1.4-2.5-1.4-4.4c0-1.9,0.5-3.4,1.6-4.6c1.1-1.2,2.4-1.8,4-1.8c1.5,0,2.7,0.5,3.6,1.6c0.9,1.1,1.4,2.5,1.4,4.4
		c0,1.9-0.5,3.5-1.6,4.7C58.8,148.7,57.5,149.3,55.9,149.3z M56.2,147.7c1,0,1.8-0.4,2.4-1.2c0.6-0.8,0.9-1.9,0.9-3.3
		c0-1.5-0.3-2.7-0.9-3.5c-0.6-0.8-1.4-1.2-2.4-1.2c-1,0-1.8,0.4-2.4,1.2c-0.6,0.8-0.9,1.9-0.9,3.3c0,1.5,0.3,2.7,0.9,3.5
		S55.2,147.7,56.2,147.7z M82.5,147.7c0.9,0,1.8-0.3,2.6-1c0-2-0.1-4.6-0.1-7.7c-0.7-0.2-1.4-0.3-1.9-0.3c-1.1,0-2,0.4-2.8,1.2
		c-0.7,0.8-1.1,1.9-1.1,3.4c0,1.5,0.3,2.6,0.9,3.3C80.7,147.3,81.5,147.7,82.5,147.7z M85.3,149l-0.1-1.2c-1,1-2.2,1.5-3.5,1.5
		c-1.3,0-2.4-0.5-3.2-1.5c-0.8-1-1.2-2.4-1.2-4.1c0-2.1,0.6-3.7,1.9-4.9s2.9-1.8,4.7-1.8c0.4,0,0.7,0,1.1,0.1v-4.8l1.9-0.2v5.2
		c0,5.3,0.1,9.2,0.2,11.7L85.3,149z M100.1,149.3c-1.8,0-3.3-0.1-4.6-0.4c-1.2-0.3-2.2-0.7-2.9-1.2c-0.7-0.5-1.2-1.1-1.5-1.8
		c-0.3-0.7-0.4-1.6-0.4-2.5c0-1.8,0.5-3.3,1.6-4.5c1.1-1.2,2.4-1.8,3.9-1.8c1.6,0,2.8,0.6,3.6,1.8c0.8,1.2,1.1,2.7,0.9,4.7l-8,0.2
		c0.1,1.4,0.7,2.4,1.8,3c1.1,0.6,3.1,0.9,5.9,1L100.1,149.3z M96,138.6c-1,0-1.8,0.3-2.3,1c-0.6,0.7-0.9,1.6-1,2.9
		c1.2,0,3.2-0.1,6.2-0.2c0-1.2-0.3-2-0.8-2.7C97.6,138.9,96.9,138.6,96,138.6z M126,149h-8.8v-1.5h3.1c-0.1-4.7-0.1-7.6-0.1-8.7
		l-3-0.2l0.1-1.4h4.6c0.1,0.7,0.1,1.3,0.1,2c1.3-1.4,3.1-2.2,5.4-2.4l0.1,2.1c-2.3,0.2-4.1,0.7-5.4,1.6c0,0.4,0,1.5,0,3.1
		c0,1.6,0.1,2.9,0.1,4h4L126,149z M139.7,149.3c-1.8,0-3.3-0.1-4.6-0.4c-1.2-0.3-2.2-0.7-2.9-1.2c-0.7-0.5-1.2-1.1-1.5-1.8
		c-0.3-0.7-0.4-1.6-0.4-2.5c0-1.8,0.5-3.3,1.6-4.5c1.1-1.2,2.4-1.8,3.9-1.8c1.6,0,2.8,0.6,3.6,1.8c0.8,1.2,1.1,2.7,0.9,4.7l-8,0.2
		c0.1,1.4,0.7,2.4,1.8,3c1.1,0.6,3.1,0.9,5.9,1L139.7,149.3z M135.6,138.6c-1,0-1.8,0.3-2.3,1c-0.6,0.7-0.9,1.6-1,2.9
		c1.2,0,3.2-0.1,6.2-0.2c0-1.2-0.3-2-0.8-2.7C137.2,138.9,136.5,138.6,135.6,138.6z M143.9,143.3c0-0.8,0.2-1.6,0.5-2.3
		c0.3-0.7,0.8-1.4,1.5-1.9c0.7-0.6,1.6-1.1,2.8-1.4c1.2-0.4,2.6-0.5,4.3-0.6l0.1,1.8c-1.5,0-2.7,0.1-3.7,0.3c-1,0.2-1.7,0.5-2.2,0.8
		c-0.5,0.4-0.8,0.8-1,1.3c-0.2,0.5-0.3,1-0.3,1.7c0,1.6,0.5,2.8,1.6,3.5s3,1,5.8,0.9l-0.2,1.6c-1.7,0.1-3.2,0.1-4.4-0.2
		c-1.2-0.2-2.2-0.6-2.8-1.2c-0.7-0.6-1.2-1.2-1.4-1.9C144,145.1,143.9,144.3,143.9,143.3z M163.1,135.3h-2l0.1-3.3h2.1L163.1,135.3z
		 M167.5,149h-10.6v-1.5h4.4v-8.7l-4.4-0.2l0.1-1.4h6.2v10.3h4.4L167.5,149z M174.5,147.6c1.1,0,2-0.4,2.7-1.2
		c0.7-0.8,1.1-1.9,1.1-3.3c0-1.4-0.3-2.5-0.9-3.3c-0.6-0.8-1.4-1.2-2.3-1.2c-0.9,0-1.8,0.3-2.7,1c0.1,2.5,0.1,5.1,0.1,7.7
		C173.2,147.5,173.8,147.6,174.5,147.6z M172.5,153l-1.9,0.2V149c0-5.8,0-9.7-0.1-11.7l1.8-0.1l0.1,1.2c1.1-1,2.2-1.4,3.5-1.4
		c1.3,0,2.3,0.5,3.1,1.5c0.8,1,1.2,2.4,1.2,4.1c0,2-0.6,3.7-1.9,4.9c-1.2,1.2-2.8,1.8-4.6,1.8c-0.5,0-0.9,0-1.3-0.1V153z
		 M189.5,135.3h-2l0.1-3.3h2.1L189.5,135.3z M193.9,149h-10.6v-1.5h4.4v-8.7l-4.4-0.2l0.1-1.4h6.2v10.3h4.4L193.9,149z M205.7,149.3
		c-1.8,0-3.3-0.1-4.6-0.4c-1.2-0.3-2.2-0.7-2.9-1.2c-0.7-0.5-1.2-1.1-1.5-1.8s-0.4-1.6-0.4-2.5c0-1.8,0.5-3.3,1.6-4.5
		c1.1-1.2,2.4-1.8,3.9-1.8c1.6,0,2.8,0.6,3.6,1.8c0.8,1.2,1.1,2.7,0.9,4.7l-8,0.2c0.1,1.4,0.7,2.4,1.8,3c1.1,0.6,3.1,0.9,5.9,1
		L205.7,149.3z M201.5,138.6c-1,0-1.8,0.3-2.3,1c-0.6,0.7-0.9,1.6-1,2.9c1.2,0,3.2-0.1,6.2-0.2c0-1.2-0.3-2-0.8-2.7
		C203.2,138.9,202.5,138.6,201.5,138.6z M214.9,138.6c-1,0-2,0.3-3,1c0.1,2.8,0.1,6,0.1,9.3H210c0-5.3-0.1-9.2-0.2-11.7l1.8-0.1
		l0.1,1.3c1.2-1,2.6-1.6,3.9-1.6c2.3,0,3.5,1.4,3.5,4.1v8h-1.9v-7.3c0-1.1-0.2-1.9-0.6-2.3C216.3,138.9,215.7,138.6,214.9,138.6z
		 M232.2,149.2c-2.5,0-4.3-0.2-5.3-0.8c-1-0.6-1.5-1.6-1.5-3.1v-6.5h-2.4l0.2-1.5h2.2V134l1.9-0.2v3.4h4.8v1.5h-4.8v6.2
		c0,1,0.3,1.7,1,2.1c0.7,0.4,2,0.5,4,0.6L232.2,149.2z M245.3,149.3c-1.8,0-3.3-0.1-4.6-0.4c-1.2-0.3-2.2-0.7-2.9-1.2
		c-0.7-0.5-1.2-1.1-1.5-1.8s-0.4-1.6-0.4-2.5c0-1.8,0.5-3.3,1.6-4.5c1.1-1.2,2.4-1.8,3.9-1.8c1.6,0,2.8,0.6,3.6,1.8
		c0.8,1.2,1.1,2.7,0.9,4.7l-8,0.2c0.1,1.4,0.7,2.4,1.8,3c1.1,0.6,3.1,0.9,5.9,1L245.3,149.3z M241.1,138.6c-1,0-1.8,0.3-2.3,1
		c-0.6,0.7-0.9,1.6-1,2.9c1.2,0,3.2-0.1,6.2-0.2c0-1.2-0.3-2-0.8-2.7C242.8,138.9,242.1,138.6,241.1,138.6z"/>
</g>
<line class="st4" x1="0" y1="159.5" x2="360" y2="159.5"/>
<line class="st4" x1="0.5" y1="120" x2="0.5" y2="159"/>
<line class="st4" x1="359.5" y1="120" x2="359.5" y2="159"/>
<path class="st5" d="M334.5,120L334.5,120c10.8,0,19.5,8.7,19.5,19.5v1c0,10.8-8.7,19.5-19.5,19.5l0,0c-10.8,0-19.5-8.7-19.5-19.5
	v-1C315,128.7,323.7,120,334.5,120z"/>
<path d="M323.1,147.5v-14h5.3c1.4,0,2.4,0.4,3.1,1.2c0.7,0.8,1.1,1.8,1.1,3.2c0,1.3-0.4,2.4-1.1,3.2c-0.7,0.8-1.8,1.2-3.1,1.2h-2.7
	v5.3H323.1z M325.7,140h2.1c0.7,0,1.2-0.1,1.5-0.4c0.3-0.3,0.5-0.8,0.5-1.4v-0.8c0-0.6-0.2-1.1-0.5-1.4c-0.3-0.3-0.8-0.4-1.5-0.4
	h-2.1V140z M339,141.4l-1.5,1.9v4.2H335v-14h2.6v6.3h0.1l1.6-2.3l2.9-4h3l-4.4,5.9l4.6,8.1h-3L339,141.4z"/>
<path class="st6" d="M290.5,120L290.5,120c10.8,0,19.5,8.7,19.5,19.5v1c0,10.8-8.7,19.5-19.5,19.5l0,0c-10.8,0-19.5-8.7-19.5-19.5
	v-1C271,128.7,279.7,120,290.5,120z"/>
<path d="M279.2,147.5v-14h9.1v2.2h-6.5v3.6h5.9v2.2h-5.9v6H279.2z M295,141.4l-1.5,1.9v4.2H291v-14h2.6v6.3h0.1l1.6-2.3l2.9-4h3
	l-4.4,5.9l4.6,8.1h-3L295,141.4z"/>
<path class="st6" d="M290.5,80L290.5,80c10.8,0,19.5,8.7,19.5,19.5v1c0,10.8-8.7,19.5-19.5,19.5l0,0c-10.8,0-19.5-8.7-19.5-19.5v-1
	C271,88.7,279.7,80,290.5,80z"/>
<path d="M279.2,107.5v-14h9.1v2.2h-6.5v3.6h5.9v2.2h-5.9v6H279.2z M295,101.4l-1.5,1.9v4.2H291v-14h2.6v6.3h0.1l1.6-2.3l2.9-4h3
	l-4.4,5.9l4.6,8.1h-3L295,101.4z"/>
<path class="st6" d="M290.5,40L290.5,40c10.8,0,19.5,8.7,19.5,19.5v1c0,10.8-8.7,19.5-19.5,19.5l0,0c-10.8,0-19.5-8.7-19.5-19.5v-1
	C271,48.7,279.7,40,290.5,40z"/>
<path d="M279.2,67.5v-14h9.1v2.2h-6.5v3.6h5.9v2.2h-5.9v6H279.2z M295,61.4l-1.5,1.9v4.2H291v-14h2.6v6.3h0.1l1.6-2.3l2.9-4h3
	l-4.4,5.9l4.6,8.1h-3L295,61.4z"/>
</svg>
