<svg width="100" height="100" viewBox="0 0 100 100" fill="none" xmlns="http://www.w3.org/2000/svg">
<rect width="100" height="100" fill="#E5E5E5"/>
<g id="flechas" clip-path="url(#clip0_0_1)">
<rect width="100" height="100" fill="white"/>
<path id="flecha3" d="M50.6999 95.3141C50.3111 95.6951 49.6889 95.6951 49.3001 95.3141L8.88899 55.7112C8.01016 54.85 9.16076 53.4703 10.1658 54.1802L49.4231 81.9078C49.7689 82.1521 50.2311 82.1521 50.5769 81.9078L89.8342 54.1802C90.8392 53.4703 91.9899 54.85 91.111 55.7112L50.6999 95.3141Z"/>
<path id="flecha2" d="M50.6999 48.3141C50.3111 48.6951 49.6889 48.6951 49.3001 48.3141L8.88899 8.71121C8.01016 7.84995 9.16076 6.4703 10.1658 7.18019L49.4231 34.9078C49.7689 35.1521 50.2311 35.1521 50.5769 34.9078L89.8342 7.1802C90.8392 6.47031 91.9899 7.84995 91.111 8.71121L50.6999 48.3141Z"/>
<path id="flecha1" d="M50.7071 72.2929C50.3166 72.6834 49.6834 72.6834 49.2929 72.2929L8.77039 31.7704C7.90054 30.9005 9.06422 29.5328 10.0622 30.252L49.4153 58.6146C49.7645 58.8663 50.2355 58.8663 50.5847 58.6146L89.9378 30.252C90.9358 29.5328 92.0995 30.9005 91.2296 31.7704L50.7071 72.2929Z"/>
</gid="clip0_0_1">
<rect width="100" height="100" fill="white"/>
</clipPath>
</defs>
</svg>
