<svg width="360" height="186" viewBox="0 0 360 186" fill="none" xmlns="http://www.w3.org/2000/svg">
<rect width="360" height="40" transform="translate(0 40)" fill="#C3C4A2" fill-opacity="0.15"/>
<g opacity="0.7">
<path d="M11.92 63.312C11.92 62.464 12.072 61.688 12.376 60.984C12.696 60.28 13.184 59.632 13.84 59.04C14.512 58.448 15.448 57.984 16.648 57.648C17.864 57.296 19.296 57.104 20.944 57.072L21.088 58.92C19.616 58.92 18.384 59.016 17.392 59.208C16.416 59.384 15.672 59.664 15.16 60.048C14.664 60.432 14.32 60.864 14.128 61.344C13.936 61.808 13.84 62.376 13.84 63.048C13.84 64.68 14.384 65.856 15.472 66.576C16.56 67.296 18.488 67.592 21.256 67.464L21.04 69.096C19.312 69.208 17.84 69.152 16.624 68.928C15.408 68.688 14.464 68.288 13.792 67.728C13.12 67.168 12.64 66.536 12.352 65.832C12.064 65.112 11.92 64.272 11.92 63.312ZM29.5313 69.336C28.0433 69.336 26.8353 68.8 25.9073 67.728C24.9793 66.656 24.5153 65.192 24.5153 63.336C24.5153 61.464 25.0513 59.928 26.1233 58.728C27.2113 57.528 28.5313 56.928 30.0833 56.928C31.5713 56.928 32.7713 57.464 33.6833 58.536C34.6113 59.592 35.0753 61.048 35.0753 62.904C35.0753 64.808 34.5393 66.36 33.4673 67.56C32.3953 68.744 31.0833 69.336 29.5313 69.336ZM29.8433 67.728C30.8353 67.728 31.6273 67.344 32.2193 66.576C32.8273 65.792 33.1313 64.688 33.1313 63.264C33.1313 61.76 32.8193 60.592 32.1953 59.76C31.5873 58.928 30.7713 58.512 29.7473 58.512C28.7713 58.512 27.9793 58.904 27.3713 59.688C26.7793 60.472 26.4833 61.568 26.4833 62.976C26.4833 64.48 26.7873 65.648 27.3953 66.48C28.0033 67.312 28.8193 67.728 29.8433 67.728ZM42.8946 67.68C43.8066 67.68 44.6786 67.344 45.5106 66.672C45.4626 64.624 45.4386 62.056 45.4386 58.968C44.7346 58.744 44.0866 58.632 43.4946 58.632C42.3746 58.632 41.4546 59.04 40.7346 59.856C40.0146 60.656 39.6546 61.776 39.6546 63.216C39.6546 64.672 39.9506 65.784 40.5426 66.552C41.1346 67.304 41.9186 67.68 42.8946 67.68ZM45.7266 69.048L45.6066 67.824C44.5666 68.8 43.4146 69.288 42.1506 69.288C40.8546 69.288 39.7906 68.792 38.9586 67.8C38.1426 66.792 37.7346 65.432 37.7346 63.72C37.7346 61.656 38.3746 60.016 39.6546 58.8C40.9346 57.584 42.5106 56.976 44.3826 56.976C44.7506 56.976 45.1026 57 45.4386 57.048V52.224L47.3826 52.056V57.288C47.3826 62.584 47.4386 66.472 47.5506 68.952L45.7266 69.048ZM57.4819 69H54.6259L54.7699 66.216H57.6259L57.4819 69ZM87.3046 69H77.8486V67.512H81.6646V53.808L78.0406 53.64L78.2086 52.248H83.6326V67.512H87.4726L87.3046 69ZM93.7559 54.744C94.4439 54.264 95.2439 53.608 96.1559 52.776C97.0679 51.928 97.8119 51.16 98.3879 50.472L99.9479 51.984C99.2919 52.576 98.4119 53.224 97.3079 53.928C96.2039 54.616 95.2039 55.176 94.3079 55.608L93.7559 54.744ZM101.508 69H90.8759V67.512H95.2919V58.8L90.8999 58.608L91.0439 57.24H97.2359V67.512H101.652L101.508 69ZM111.463 73.104V67.944C110.439 68.856 109.327 69.312 108.127 69.312C106.831 69.312 105.767 68.808 104.935 67.8C104.119 66.792 103.711 65.432 103.711 63.72C103.711 61.672 104.343 60.04 105.607 58.824C106.887 57.592 108.407 56.976 110.167 56.976C111.287 56.976 112.367 57.176 113.407 57.576V72.936L111.463 73.104ZM108.847 67.68C109.727 67.68 110.599 67.344 111.463 66.672V59.016C110.759 58.76 110.087 58.632 109.447 58.632C108.327 58.632 107.407 59.04 106.687 59.856C105.983 60.656 105.631 61.784 105.631 63.24C105.631 64.68 105.919 65.784 106.495 66.552C107.087 67.304 107.871 67.68 108.847 67.68ZM125.019 69.048L124.899 67.704C123.619 68.76 122.315 69.288 120.987 69.288C118.683 69.288 117.531 67.928 117.531 65.208V57.312L119.475 57.168V64.56C119.475 65.664 119.667 66.456 120.051 66.936C120.451 67.4 121.035 67.632 121.803 67.632C122.811 67.632 123.811 67.272 124.803 66.552C124.739 63.736 124.707 60.632 124.707 57.24H126.651C126.651 62.504 126.707 66.4 126.819 68.928L125.019 69.048ZM136.726 55.344H134.734L134.878 52.08H136.942L136.726 55.344ZM141.094 69H130.462V67.512H134.878V58.8L130.486 58.608L130.63 57.24H136.822V67.512H141.238L141.094 69ZM148.457 67.68C149.369 67.68 150.241 67.344 151.073 66.672C151.025 64.624 151.001 62.056 151.001 58.968C150.297 58.744 149.649 58.632 149.057 58.632C147.937 58.632 147.017 59.04 146.297 59.856C145.577 60.656 145.217 61.776 145.217 63.216C145.217 64.672 145.513 65.784 146.105 66.552C146.697 67.304 147.481 67.68 148.457 67.68ZM151.289 69.048L151.169 67.824C150.129 68.8 148.977 69.288 147.713 69.288C146.417 69.288 145.353 68.792 144.521 67.8C143.705 66.792 143.297 65.432 143.297 63.72C143.297 61.656 143.937 60.016 145.217 58.8C146.497 57.584 148.073 56.976 149.945 56.976C150.313 56.976 150.665 57 151.001 57.048V52.224L152.945 52.056V57.288C152.945 62.584 153.001 66.472 153.113 68.952L151.289 69.048ZM161.484 69.336C159.996 69.336 158.788 68.8 157.86 67.728C156.932 66.656 156.468 65.192 156.468 63.336C156.468 61.464 157.004 59.928 158.076 58.728C159.164 57.528 160.484 56.928 162.036 56.928C163.524 56.928 164.724 57.464 165.636 58.536C166.564 59.592 167.028 61.048 167.028 62.904C167.028 64.808 166.492 66.36 165.42 67.56C164.348 68.744 163.036 69.336 161.484 69.336ZM161.796 67.728C162.788 67.728 163.58 67.344 164.172 66.576C164.78 65.792 165.084 64.688 165.084 63.264C165.084 61.76 164.772 60.592 164.148 59.76C163.54 58.928 162.724 58.512 161.7 58.512C160.724 58.512 159.932 58.904 159.324 59.688C158.732 60.472 158.436 61.568 158.436 62.976C158.436 64.48 158.74 65.648 159.348 66.48C159.956 67.312 160.772 67.728 161.796 67.728Z" fill="black"/>
</g>
<line y1="79.5" x2="360" y2="79.5" stroke="#3D1A1A" stroke-opacity="0.2"/>
<line x1="0.5" y1="40" x2="0.499998" y2="79" stroke="#3D1A1A" stroke-opacity="0.2"/>
<line x1="359.5" y1="40" x2="359.5" y2="79" stroke="#3D1A1A" stroke-opacity="0.2"/>
<path d="M0 5C0 2.23858 2.23858 0 5 0H355C357.761 0 360 2.23858 360 5V40H0V5Z" fill="#836B7F"/>
<path d="M22.656 30H11.204L14.564 12.64H18.652L15.964 26.584H23.328L22.656 30ZM31.1065 12.64C32.0399 12.1547 33.1692 11.4547 34.4945 10.54C35.8199 9.60666 36.9305 8.748 37.8265 7.964L40.2625 10.932C39.2359 11.604 37.8732 12.2667 36.1745 12.92C34.4759 13.5547 33.0105 14.012 31.7785 14.292L31.1065 12.64ZM39.4785 28.488C37.9105 29.1787 36.5292 29.6733 35.3345 29.972C34.1399 30.2707 33.1692 30.3733 32.4225 30.28C31.6759 30.1867 31.0879 29.944 30.6585 29.552C30.2479 29.16 30.0332 28.6187 30.0145 27.928C29.9959 27.2187 30.0985 26.4067 30.3225 25.492L32.1145 18.968L27.7745 19.108L27.4945 17.148L33.4025 15.804H36.6225L34.2985 24.764C33.9812 25.9587 34.0465 26.6493 34.4945 26.836C34.9612 27.004 36.5199 26.892 39.1705 26.5L39.4785 28.488ZM55.8811 33.388C53.0997 34.7693 51.2144 35.32 50.2251 35.04C49.2544 34.76 48.9464 33.7053 49.3011 31.876L50.0011 28.096C48.3211 29.608 46.8464 30.364 45.5771 30.364C44.6437 30.364 43.8597 29.9533 43.2251 29.132C42.6091 28.3107 42.3011 27.1347 42.3011 25.604C42.3011 23.868 42.6557 22.244 43.3651 20.732C44.0744 19.2013 45.1477 17.932 46.5851 16.924C48.0411 15.916 49.7211 15.412 51.6251 15.412C53.0997 15.412 54.5651 15.7107 56.0211 16.308L53.2211 30.784C53.1277 31.3067 53.1837 31.596 53.3891 31.652C53.5944 31.7267 54.3224 31.6613 55.5731 31.456L55.8811 33.388ZM47.5931 26.752C48.3584 26.752 49.3384 26.248 50.5331 25.24L51.6811 19.052C50.6917 18.7533 49.9171 18.604 49.3571 18.604C48.5171 18.604 47.7704 19.248 47.1171 20.536C46.4637 21.824 46.1371 23.1587 46.1371 24.54C46.1371 25.268 46.2677 25.8187 46.5291 26.192C46.8091 26.5653 47.1637 26.752 47.5931 26.752ZM71.7516 28.712C67.6263 31.1947 65.6103 30.924 65.7036 27.9C64.2103 29.5613 62.7263 30.392 61.2516 30.392C60.1316 30.392 59.3476 29.9533 58.8996 29.076C58.4703 28.1987 58.4329 26.92 58.7876 25.24L59.7676 20.536L58.1996 19.5L60.8036 15.86L64.5836 15.636L62.6516 24.708C62.3716 26.0333 62.6329 26.696 63.4356 26.696C64.2756 26.696 65.1903 26.1453 66.1796 25.044L67.9716 15.804H71.7516L69.7636 26.052C69.6516 26.612 69.6703 26.9293 69.8196 27.004C69.9876 27.0787 70.5289 27.0133 71.4436 26.808L71.7516 28.712ZM84.3181 13.62L80.1181 13.816L81.0421 9.896L85.5221 9.672L84.3181 13.62ZM86.5021 28.488C84.9341 29.1787 83.5528 29.6733 82.3581 29.972C81.1635 30.2707 80.1928 30.3733 79.4461 30.28C78.6995 30.1867 78.1115 29.944 77.6821 29.552C77.2715 29.16 77.0568 28.6187 77.0381 27.928C77.0195 27.2187 77.1221 26.4067 77.3461 25.492L79.1381 18.968L74.7981 19.108L74.5181 17.148L80.4261 15.804H83.6461L81.3221 24.764C81.0048 25.9587 81.0701 26.6493 81.5181 26.836C81.9848 27.004 83.5435 26.892 86.1941 26.5L86.5021 28.488ZM94.4207 26.724C95.1487 26.724 96.0913 26.2107 97.2487 25.184L98.4247 19.052C97.6407 18.772 96.9407 18.632 96.3247 18.632C95.522 18.632 94.7847 19.2853 94.1127 20.592C93.4407 21.88 93.1047 23.1867 93.1047 24.512C93.1047 25.9867 93.5433 26.724 94.4207 26.724ZM103.101 28.656C101.533 29.5333 100.282 30.0467 99.3487 30.196C98.4153 30.364 97.7807 30.2333 97.4447 29.804C97.1087 29.3747 96.9687 28.6653 97.0247 27.676C95.158 29.468 93.5807 30.364 92.2927 30.364C91.3967 30.364 90.6593 29.9627 90.0807 29.16C89.5207 28.3387 89.2407 27.172 89.2407 25.66C89.2407 23.9427 89.586 22.3187 90.2767 20.788C90.9673 19.2387 92.0033 17.96 93.3847 16.952C94.7847 15.9253 96.3713 15.412 98.1447 15.412C98.35 15.412 98.6767 15.4307 99.1247 15.468L100.077 10.512L103.913 10.232L100.833 26.136C100.739 26.6773 100.786 26.9853 100.973 27.06C101.159 27.116 101.775 27.032 102.821 26.808L103.101 28.656ZM105.083 24.512C105.083 22.0293 105.821 19.892 107.295 18.1C108.789 16.2893 110.655 15.384 112.895 15.384C114.613 15.384 115.966 15.916 116.955 16.98C117.963 18.0253 118.467 19.4533 118.467 21.264C118.467 23.7467 117.721 25.8933 116.227 27.704C114.753 29.496 112.895 30.392 110.655 30.392C108.938 30.392 107.575 29.8693 106.567 28.824C105.578 27.76 105.083 26.3227 105.083 24.512ZM114.519 21.74C114.519 20.732 114.323 19.9573 113.931 19.416C113.558 18.856 113.045 18.576 112.391 18.576C111.421 18.576 110.618 19.136 109.983 20.256C109.349 21.3573 109.031 22.6173 109.031 24.036C109.031 25.044 109.218 25.828 109.591 26.388C109.983 26.9293 110.506 27.2 111.159 27.2C112.13 27.2 112.933 26.6493 113.567 25.548C114.202 24.428 114.519 23.1587 114.519 21.74Z" fill="#EEEEEE"/>
<rect width="360" height="40" transform="translate(0 146)" fill="#C3C4A2" fill-opacity="0.15"/>
<g opacity="0.7">
<path d="M21.04 175.192C18.528 175.224 16.768 174.944 15.76 174.352C14.752 173.744 14.248 172.704 14.248 171.232V164.752H11.824L12.016 163.24H14.248V159.976L16.192 159.808V163.24H20.992V164.752H16.192V170.92C16.192 171.928 16.536 172.616 17.224 172.984C17.928 173.336 19.272 173.528 21.256 173.56L21.04 175.192ZM31.0913 175H28.2353L28.3793 172.216H31.2353L31.0913 175ZM54.4339 164.632C53.8579 164.632 53.2739 164.928 52.6819 165.52C52.7459 168.368 52.7779 171.528 52.7779 175H50.9539C50.9539 169.912 50.9059 166.016 50.8099 163.312L52.5139 163.192L52.6099 164.296C53.4099 163.416 54.2579 162.976 55.1539 162.976C56.0499 162.976 56.6499 163.392 56.9539 164.224C57.7539 163.392 58.6099 162.976 59.5219 162.976C60.8979 162.976 61.5859 163.856 61.5859 165.616V175H59.7379V166.312C59.7379 165.704 59.6499 165.272 59.4739 165.016C59.3139 164.76 59.0259 164.632 58.6099 164.632C58.0819 164.632 57.5619 164.864 57.0499 165.328V165.544V175H55.5379V166.288C55.5379 165.696 55.4499 165.272 55.2739 165.016C55.1139 164.76 54.8339 164.632 54.4339 164.632ZM68.7333 173.752C69.8853 173.752 70.9973 173.328 72.0693 172.48C72.0373 171.456 72.0213 170.528 72.0213 169.696C68.2133 169.296 66.3092 169.992 66.3092 171.784C66.3092 172.408 66.5253 172.896 66.9573 173.248C67.4053 173.584 67.9973 173.752 68.7333 173.752ZM72.3333 175.072C72.3333 175.04 72.3093 174.832 72.2613 174.448C72.2133 174.064 72.1813 173.768 72.1653 173.56C70.9173 174.712 69.5253 175.288 67.9893 175.288C66.9013 175.288 66.0293 175.016 65.3733 174.472C64.7173 173.928 64.3893 173.184 64.3893 172.24C64.3893 170.96 65.0373 169.952 66.3333 169.216C67.6293 168.464 69.5173 168.16 71.9973 168.304C71.9173 166.96 71.4053 166.048 70.4613 165.568C69.5333 165.088 67.7413 164.8 65.0853 164.704L65.3013 163.024C67.6053 163.088 69.3653 163.32 70.5813 163.72C71.7973 164.12 72.6533 164.744 73.1493 165.592C73.6613 166.424 73.9173 167.616 73.9173 169.168C73.9173 170.784 73.9813 172.712 74.1093 174.952L72.3333 175.072ZM77.8966 169.312C77.8966 168.464 78.0486 167.688 78.3526 166.984C78.6726 166.28 79.1606 165.632 79.8166 165.04C80.4886 164.448 81.4246 163.984 82.6246 163.648C83.8406 163.296 85.2726 163.104 86.9206 163.072L87.0646 164.92C85.5926 164.92 84.3606 165.016 83.3686 165.208C82.3926 165.384 81.6486 165.664 81.1366 166.048C80.6406 166.432 80.2966 166.864 80.1046 167.344C79.9126 167.808 79.8166 168.376 79.8166 169.048C79.8166 170.68 80.3606 171.856 81.4486 172.576C82.5366 173.296 84.4646 173.592 87.2326 173.464L87.0166 175.096C85.2886 175.208 83.8166 175.152 82.6006 174.928C81.3846 174.688 80.4406 174.288 79.7686 173.728C79.0966 173.168 78.6166 172.536 78.3286 171.832C78.0406 171.112 77.8966 170.272 77.8966 169.312ZM100.116 175.264C98.3079 175.264 96.7879 175.136 95.5559 174.88C94.3239 174.608 93.3559 174.208 92.6519 173.68C91.9639 173.152 91.4759 172.536 91.1879 171.832C90.8999 171.128 90.7559 170.28 90.7559 169.288C90.7559 167.512 91.2919 166.016 92.3639 164.8C93.4519 163.568 94.7639 162.952 96.2999 162.952C97.8839 162.952 99.0679 163.544 99.8519 164.728C100.652 165.896 100.94 167.464 100.716 169.432L92.6759 169.624C92.7719 171.032 93.3639 172.032 94.4519 172.624C95.5559 173.216 97.5079 173.544 100.308 173.608L100.116 175.264ZM95.9639 164.56C94.9879 164.56 94.2119 164.896 93.6359 165.568C93.0599 166.224 92.7399 167.176 92.6759 168.424C93.8439 168.376 95.9159 168.312 98.8919 168.232C98.8759 167.08 98.6199 166.184 98.1239 165.544C97.6439 164.888 96.9239 164.56 95.9639 164.56ZM112.807 175H103.975V173.512H107.095C107.031 168.776 106.983 165.872 106.951 164.8L103.975 164.632L104.119 163.24H108.679C108.743 163.912 108.791 164.584 108.823 165.256C110.135 163.896 111.927 163.08 114.199 162.808L114.295 164.872C112.023 165.048 110.223 165.568 108.895 166.432C108.895 166.864 108.903 167.896 108.919 169.528C108.951 171.144 108.975 172.472 108.991 173.512H112.975L112.807 175ZM121.515 173.752C122.667 173.752 123.779 173.328 124.851 172.48C124.819 171.456 124.803 170.528 124.803 169.696C120.995 169.296 119.09 169.992 119.09 171.784C119.09 172.408 119.307 172.896 119.739 173.248C120.187 173.584 120.779 173.752 121.515 173.752ZM125.115 175.072C125.115 175.04 125.091 174.832 125.043 174.448C124.995 174.064 124.963 173.768 124.947 173.56C123.699 174.712 122.307 175.288 120.771 175.288C119.683 175.288 118.811 175.016 118.155 174.472C117.499 173.928 117.171 173.184 117.171 172.24C117.171 170.96 117.819 169.952 119.115 169.216C120.411 168.464 122.299 168.16 124.779 168.304C124.699 166.96 124.187 166.048 123.243 165.568C122.315 165.088 120.523 164.8 117.867 164.704L118.083 163.024C120.387 163.088 122.147 163.32 123.363 163.72C124.579 164.12 125.435 164.744 125.931 165.592C126.443 166.424 126.699 167.616 126.699 169.168C126.699 170.784 126.763 172.712 126.891 174.952L125.115 175.072ZM135.262 173.68C136.174 173.68 137.046 173.344 137.878 172.672C137.83 170.624 137.806 168.056 137.806 164.968C137.102 164.744 136.454 164.632 135.862 164.632C134.742 164.632 133.822 165.04 133.102 165.856C132.382 166.656 132.022 167.776 132.022 169.216C132.022 170.672 132.318 171.784 132.91 172.552C133.502 173.304 134.286 173.68 135.262 173.68ZM138.094 175.048L137.974 173.824C136.934 174.8 135.782 175.288 134.518 175.288C133.222 175.288 132.158 174.792 131.326 173.8C130.51 172.792 130.102 171.432 130.102 169.72C130.102 167.656 130.742 166.016 132.022 164.8C133.302 163.584 134.878 162.976 136.75 162.976C137.118 162.976 137.47 163 137.806 163.048V158.224L139.75 158.056V163.288C139.75 168.584 139.806 172.472 139.918 174.952L138.094 175.048ZM148.289 175.336C146.801 175.336 145.593 174.8 144.665 173.728C143.737 172.656 143.273 171.192 143.273 169.336C143.273 167.464 143.809 165.928 144.881 164.728C145.969 163.528 147.289 162.928 148.841 162.928C150.329 162.928 151.529 163.464 152.441 164.536C153.369 165.592 153.833 167.048 153.833 168.904C153.833 170.808 153.297 172.36 152.225 173.56C151.153 174.744 149.841 175.336 148.289 175.336ZM148.601 173.728C149.593 173.728 150.385 173.344 150.977 172.576C151.585 171.792 151.889 170.688 151.889 169.264C151.889 167.76 151.577 166.592 150.953 165.76C150.345 164.928 149.529 164.512 148.505 164.512C147.529 164.512 146.737 164.904 146.129 165.688C145.537 166.472 145.241 167.568 145.241 168.976C145.241 170.48 145.545 171.648 146.153 172.48C146.761 173.312 147.577 173.728 148.601 173.728Z" fill="black"/>
</g>
<line y1="185.5" x2="360" y2="185.5" stroke="#3D1A1A" stroke-opacity="0.2"/>
<line x1="0.5" y1="146" x2="0.499998" y2="185" stroke="#3D1A1A" stroke-opacity="0.2"/>
<line x1="359.5" y1="146" x2="359.5" y2="185" stroke="#3D1A1A" stroke-opacity="0.2"/>
<rect width="360" height="66" transform="translate(0 80)" fill="#C3C4A2" fill-opacity="0.15"/>
<g opacity="0.7">
<path d="M11.92 100.312C11.92 99.464 12.072 98.688 12.376 97.984C12.696 97.28 13.184 96.632 13.84 96.04C14.512 95.448 15.448 94.984 16.648 94.648C17.864 94.296 19.296 94.104 20.944 94.072L21.088 95.92C19.616 95.92 18.384 96.016 17.392 96.208C16.416 96.384 15.672 96.664 15.16 97.048C14.664 97.432 14.32 97.864 14.128 98.344C13.936 98.808 13.84 99.376 13.84 100.048C13.84 101.68 14.384 102.856 15.472 103.576C16.56 104.296 18.488 104.592 21.256 104.464L21.04 106.096C19.312 106.208 17.84 106.152 16.624 105.928C15.408 105.688 14.464 105.288 13.792 104.728C13.12 104.168 12.64 103.536 12.352 102.832C12.064 102.112 11.92 101.272 11.92 100.312ZM29.5313 106.336C28.0433 106.336 26.8353 105.8 25.9073 104.728C24.9793 103.656 24.5153 102.192 24.5153 100.336C24.5153 98.464 25.0513 96.928 26.1233 95.728C27.2113 94.528 28.5313 93.928 30.0833 93.928C31.5713 93.928 32.7713 94.464 33.6833 95.536C34.6113 96.592 35.0753 98.048 35.0753 99.904C35.0753 101.808 34.5393 103.36 33.4673 104.56C32.3953 105.744 31.0833 106.336 29.5313 106.336ZM29.8433 104.728C30.8353 104.728 31.6273 104.344 32.2193 103.576C32.8273 102.792 33.1313 101.688 33.1313 100.264C33.1313 98.76 32.8193 97.592 32.1953 96.76C31.5873 95.928 30.7713 95.512 29.7473 95.512C28.7713 95.512 27.9793 95.904 27.3713 96.688C26.7793 97.472 26.4833 98.568 26.4833 99.976C26.4833 101.48 26.7873 102.648 27.3953 103.48C28.0033 104.312 28.8193 104.728 29.8433 104.728ZM43.3746 95.632C42.3666 95.632 41.3586 95.976 40.3506 96.664C40.4146 99.512 40.4466 102.624 40.4466 106H38.5026C38.5026 100.736 38.4466 96.84 38.3346 94.312L40.1346 94.192L40.2546 95.536C41.5026 94.496 42.8146 93.976 44.1906 93.976C46.5266 93.976 47.6946 95.328 47.6946 98.032V106H45.7506V98.68C45.7506 97.592 45.5506 96.816 45.1506 96.352C44.7506 95.872 44.1586 95.632 43.3746 95.632ZM51.5059 100.312C51.5059 99.464 51.6579 98.688 51.9619 97.984C52.2819 97.28 52.7699 96.632 53.4259 96.04C54.0979 95.448 55.0339 94.984 56.2339 94.648C57.4499 94.296 58.8819 94.104 60.5299 94.072L60.6739 95.92C59.2019 95.92 57.9699 96.016 56.9779 96.208C56.0019 96.384 55.2579 96.664 54.7459 97.048C54.2499 97.432 53.9059 97.864 53.7139 98.344C53.5219 98.808 53.4259 99.376 53.4259 100.048C53.4259 101.68 53.9699 102.856 55.0579 103.576C56.1459 104.296 58.0739 104.592 60.8419 104.464L60.6259 106.096C58.8979 106.208 57.4259 106.152 56.2099 105.928C54.9939 105.688 54.0499 105.288 53.3779 104.728C52.7059 104.168 52.2259 103.536 51.9379 102.832C51.6499 102.112 51.5059 101.272 51.5059 100.312ZM73.7253 106.264C71.9173 106.264 70.3973 106.136 69.1653 105.88C67.9333 105.608 66.9653 105.208 66.2613 104.68C65.5733 104.152 65.0853 103.536 64.7973 102.832C64.5093 102.128 64.3652 101.28 64.3652 100.288C64.3652 98.512 64.9013 97.016 65.9733 95.8C67.0613 94.568 68.3733 93.952 69.9093 93.952C71.4933 93.952 72.6773 94.544 73.4613 95.728C74.2613 96.896 74.5493 98.464 74.3253 100.432L66.2853 100.624C66.3813 102.032 66.9733 103.032 68.0613 103.624C69.1653 104.216 71.1173 104.544 73.9173 104.608L73.7253 106.264ZM69.5733 95.56C68.5973 95.56 67.8213 95.896 67.2453 96.568C66.6693 97.224 66.3493 98.176 66.2853 99.424C67.4533 99.376 69.5253 99.312 72.5013 99.232C72.4853 98.08 72.2293 97.184 71.7333 96.544C71.2533 95.888 70.5333 95.56 69.5733 95.56ZM87.0166 106.192C84.5046 106.224 82.7446 105.944 81.7366 105.352C80.7286 104.744 80.2246 103.704 80.2246 102.232V95.752H77.8006L77.9926 94.24H80.2246V90.976L82.1686 90.808V94.24H86.9686V95.752H82.1686V101.92C82.1686 102.928 82.5126 103.616 83.2006 103.984C83.9046 104.336 85.2486 104.528 87.2326 104.56L87.0166 106.192ZM99.6119 106H90.7799V104.512H93.8999C93.8359 99.776 93.7879 96.872 93.7559 95.8L90.7799 95.632L90.9239 94.24H95.4839C95.5479 94.912 95.5959 95.584 95.6279 96.256C96.9399 94.896 98.7319 94.08 101.004 93.808L101.1 95.872C98.8279 96.048 97.0279 96.568 95.6999 97.432C95.6999 97.864 95.7079 98.896 95.7239 100.528C95.7559 102.144 95.7799 103.472 95.7959 104.512H99.7799L99.6119 106ZM108.319 104.752C109.471 104.752 110.583 104.328 111.655 103.48C111.623 102.456 111.607 101.528 111.607 100.696C107.799 100.296 105.895 100.992 105.895 102.784C105.895 103.408 106.111 103.896 106.543 104.248C106.991 104.584 107.583 104.752 108.319 104.752ZM111.919 106.072C111.919 106.04 111.895 105.832 111.847 105.448C111.799 105.064 111.767 104.768 111.751 104.56C110.503 105.712 109.111 106.288 107.575 106.288C106.487 106.288 105.615 106.016 104.959 105.472C104.303 104.928 103.975 104.184 103.975 103.24C103.975 101.96 104.623 100.952 105.919 100.216C107.215 99.464 109.103 99.16 111.583 99.304C111.503 97.96 110.991 97.048 110.047 96.568C109.119 96.088 107.327 95.8 104.671 95.704L104.887 94.024C107.191 94.088 108.951 94.32 110.167 94.72C111.383 95.12 112.239 95.744 112.735 96.592C113.247 97.424 113.503 98.616 113.503 100.168C113.503 101.784 113.567 103.712 113.695 105.952L111.919 106.072ZM117.483 100.312C117.483 99.464 117.635 98.688 117.939 97.984C118.259 97.28 118.747 96.632 119.403 96.04C120.075 95.448 121.011 94.984 122.211 94.648C123.427 94.296 124.859 94.104 126.507 94.072L126.651 95.92C125.179 95.92 123.947 96.016 122.955 96.208C121.979 96.384 121.235 96.664 120.723 97.048C120.227 97.432 119.883 97.864 119.691 98.344C119.499 98.808 119.403 99.376 119.403 100.048C119.403 101.68 119.947 102.856 121.035 103.576C122.123 104.296 124.051 104.592 126.819 104.464L126.603 106.096C124.875 106.208 123.403 106.152 122.187 105.928C120.971 105.688 120.027 105.288 119.355 104.728C118.683 104.168 118.203 103.536 117.915 102.832C117.627 102.112 117.483 101.272 117.483 100.312ZM136.726 92.344H134.734L134.878 89.08H136.942L136.726 92.344ZM141.094 106H130.462V104.512H134.878V95.8L130.486 95.608L130.63 94.24H136.822V104.512H141.238L141.094 106ZM146.033 91.624C146.721 91.144 147.513 90.488 148.409 89.656C149.321 88.808 150.073 88.04 150.665 87.352L152.225 88.864C151.569 89.456 150.689 90.104 149.585 90.808C148.481 91.496 147.481 92.056 146.585 92.488L146.033 91.624ZM148.289 106.336C146.801 106.336 145.593 105.8 144.665 104.728C143.737 103.656 143.273 102.192 143.273 100.336C143.273 98.464 143.809 96.928 144.881 95.728C145.969 94.528 147.289 93.928 148.841 93.928C150.329 93.928 151.529 94.464 152.441 95.536C153.369 96.592 153.833 98.048 153.833 99.904C153.833 101.808 153.297 103.36 152.225 104.56C151.153 105.744 149.841 106.336 148.289 106.336ZM148.601 104.728C149.593 104.728 150.385 104.344 150.977 103.576C151.585 102.792 151.889 101.688 151.889 100.264C151.889 98.76 151.577 97.592 150.953 96.76C150.345 95.928 149.529 95.512 148.505 95.512C147.529 95.512 146.737 95.904 146.129 96.688C145.537 97.472 145.241 98.568 145.241 99.976C145.241 101.48 145.545 102.648 146.153 103.48C146.761 104.312 147.577 104.728 148.601 104.728ZM161.484 106.336C159.996 106.336 158.788 105.8 157.86 104.728C156.932 103.656 156.468 102.192 156.468 100.336C156.468 98.464 157.004 96.928 158.076 95.728C159.164 94.528 160.484 93.928 162.036 93.928C163.524 93.928 164.724 94.464 165.636 95.536C166.564 96.592 167.028 98.048 167.028 99.904C167.028 101.808 166.492 103.36 165.42 104.56C164.348 105.744 163.036 106.336 161.484 106.336ZM161.796 104.728C162.788 104.728 163.58 104.344 164.172 103.576C164.78 102.792 165.084 101.688 165.084 100.264C165.084 98.76 164.772 97.592 164.148 96.76C163.54 95.928 162.724 95.512 161.7 95.512C160.724 95.512 159.932 95.904 159.324 96.688C158.732 97.472 158.436 98.568 158.436 99.976C158.436 101.48 158.74 102.648 159.348 103.48C159.956 104.312 160.772 104.728 161.796 104.728ZM175.328 95.632C174.32 95.632 173.312 95.976 172.304 96.664C172.368 99.512 172.4 102.624 172.4 106H170.456C170.456 100.736 170.4 96.84 170.288 94.312L172.088 94.192L172.208 95.536C173.456 94.496 174.768 93.976 176.144 93.976C178.48 93.976 179.648 95.328 179.648 98.032V106H177.704V98.68C177.704 97.592 177.504 96.816 177.104 96.352C176.704 95.872 176.112 95.632 175.328 95.632ZM16.504 135.68C17.416 135.68 18.288 135.344 19.12 134.672C19.072 132.624 19.048 130.056 19.048 126.968C18.344 126.744 17.696 126.632 17.104 126.632C15.984 126.632 15.064 127.04 14.344 127.856C13.624 128.656 13.264 129.776 13.264 131.216C13.264 132.672 13.56 133.784 14.152 134.552C14.744 135.304 15.528 135.68 16.504 135.68ZM19.336 137.048L19.216 135.824C18.176 136.8 17.024 137.288 15.76 137.288C14.464 137.288 13.4 136.792 12.568 135.8C11.752 134.792 11.344 133.432 11.344 131.72C11.344 129.656 11.984 128.016 13.264 126.8C14.544 125.584 16.12 124.976 17.992 124.976C18.36 124.976 18.712 125 19.048 125.048V120.224L20.992 120.056V125.288C20.992 130.584 21.048 134.472 21.16 136.952L19.336 137.048ZM34.1393 137.264C32.3313 137.264 30.8113 137.136 29.5793 136.88C28.3473 136.608 27.3793 136.208 26.6753 135.68C25.9873 135.152 25.4993 134.536 25.2113 133.832C24.9233 133.128 24.7793 132.28 24.7793 131.288C24.7793 129.512 25.3153 128.016 26.3873 126.8C27.4753 125.568 28.7873 124.952 30.3233 124.952C31.9073 124.952 33.0913 125.544 33.8753 126.728C34.6753 127.896 34.9633 129.464 34.7393 131.432L26.6993 131.624C26.7953 133.032 27.3873 134.032 28.4753 134.624C29.5793 135.216 31.5313 135.544 34.3313 135.608L34.1393 137.264ZM29.9873 126.56C29.0113 126.56 28.2353 126.896 27.6593 127.568C27.0833 128.224 26.7633 129.176 26.6993 130.424C27.8673 130.376 29.9393 130.312 32.9153 130.232C32.8993 129.08 32.6433 128.184 32.1473 127.544C31.6673 126.888 30.9473 126.56 29.9873 126.56ZM56.5699 126.632C55.5619 126.632 54.5539 126.976 53.5459 127.664C53.6099 130.512 53.6419 133.624 53.6419 137H51.6979C51.6979 131.736 51.6419 127.84 51.5299 125.312L53.3299 125.192L53.4499 126.536C54.6979 125.496 56.0099 124.976 57.3859 124.976C59.7219 124.976 60.8899 126.328 60.8899 129.032V137H58.9459V129.68C58.9459 128.592 58.7459 127.816 58.3459 127.352C57.9459 126.872 57.3539 126.632 56.5699 126.632ZM70.7493 123.344H68.7573L68.9013 120.08H70.9653L70.7493 123.344ZM75.1172 137H64.4853V135.512H68.9013V126.8L64.5093 126.608L64.6533 125.24H70.8453V135.512H75.2613L75.1172 137ZM77.8966 131.312C77.8966 130.464 78.0486 129.688 78.3526 128.984C78.6726 128.28 79.1606 127.632 79.8166 127.04C80.4886 126.448 81.4246 125.984 82.6246 125.648C83.8406 125.296 85.2726 125.104 86.9206 125.072L87.0646 126.92C85.5926 126.92 84.3606 127.016 83.3686 127.208C82.3926 127.384 81.6486 127.664 81.1366 128.048C80.6406 128.432 80.2966 128.864 80.1046 129.344C79.9126 129.808 79.8166 130.376 79.8166 131.048C79.8166 132.68 80.3606 133.856 81.4486 134.576C82.5366 135.296 84.4646 135.592 87.2326 135.464L87.0166 137.096C85.2886 137.208 83.8166 137.152 82.6006 136.928C81.3846 136.688 80.4406 136.288 79.7686 135.728C79.0966 135.168 78.6166 134.536 78.3286 133.832C78.0406 133.112 77.8966 132.272 77.8966 131.312ZM95.5079 137.336C94.0199 137.336 92.8119 136.8 91.8839 135.728C90.9559 134.656 90.4919 133.192 90.4919 131.336C90.4919 129.464 91.0279 127.928 92.0999 126.728C93.1879 125.528 94.5079 124.928 96.0599 124.928C97.5479 124.928 98.7479 125.464 99.6599 126.536C100.588 127.592 101.052 129.048 101.052 130.904C101.052 132.808 100.516 134.36 99.4439 135.56C98.3719 136.744 97.0599 137.336 95.5079 137.336ZM95.8199 135.728C96.8119 135.728 97.6039 135.344 98.1959 134.576C98.8039 133.792 99.1079 132.688 99.1079 131.264C99.1079 129.76 98.7959 128.592 98.1719 127.76C97.5639 126.928 96.7479 126.512 95.7239 126.512C94.7479 126.512 93.9559 126.904 93.3479 127.688C92.7559 128.472 92.4599 129.568 92.4599 130.976C92.4599 132.48 92.7639 133.648 93.3719 134.48C93.9799 135.312 94.7959 135.728 95.8199 135.728ZM113.407 137.192C110.895 137.224 109.135 136.944 108.127 136.352C107.119 135.744 106.615 134.704 106.615 133.232V126.752H104.191L104.383 125.24H106.615V121.976L108.559 121.808V125.24H113.359V126.752H108.559V132.92C108.559 133.928 108.903 134.616 109.591 134.984C110.295 135.336 111.639 135.528 113.623 135.56L113.407 137.192ZM123.531 123.344H121.539L121.683 120.08H123.747L123.531 123.344ZM127.898 137H117.267V135.512H121.683V126.8L117.291 126.608L117.435 125.24H123.627V135.512H128.043L127.898 137ZM135.742 126.632C134.734 126.632 133.726 126.976 132.718 127.664C132.782 130.512 132.814 133.624 132.814 137H130.87C130.87 131.736 130.814 127.84 130.702 125.312L132.502 125.192L132.622 126.536C133.87 125.496 135.182 124.976 136.558 124.976C138.894 124.976 140.062 126.328 140.062 129.032V137H138.118V129.68C138.118 128.592 137.918 127.816 137.518 127.352C137.118 126.872 136.526 126.632 135.742 126.632ZM147.905 135.752C149.057 135.752 150.169 135.328 151.241 134.48C151.209 133.456 151.193 132.528 151.193 131.696C147.385 131.296 145.481 131.992 145.481 133.784C145.481 134.408 145.697 134.896 146.129 135.248C146.577 135.584 147.169 135.752 147.905 135.752ZM151.505 137.072C151.505 137.04 151.481 136.832 151.433 136.448C151.385 136.064 151.353 135.768 151.337 135.56C150.089 136.712 148.697 137.288 147.161 137.288C146.073 137.288 145.201 137.016 144.545 136.472C143.889 135.928 143.561 135.184 143.561 134.24C143.561 132.96 144.209 131.952 145.505 131.216C146.801 130.464 148.689 130.16 151.169 130.304C151.089 128.96 150.577 128.048 149.633 127.568C148.705 127.088 146.913 126.8 144.257 126.704L144.473 125.024C146.777 125.088 148.537 125.32 149.753 125.72C150.969 126.12 151.825 126.744 152.321 127.592C152.833 128.424 153.089 129.616 153.089 131.168C153.089 132.784 153.153 134.712 153.281 136.952L151.505 137.072Z" fill="black"/>
</g>
<line y1="145.5" x2="360" y2="145.5" stroke="#3D1A1A" stroke-opacity="0.2"/>
<line x1="0.5" y1="80" x2="0.499997" y2="144.35" stroke="#3D1A1A" stroke-opacity="0.2"/>
<line x1="359.5" y1="80" x2="359.5" y2="144.35" stroke="#3D1A1A" stroke-opacity="0.2"/>
<rect x="316" y="40" width="39" height="40" rx="19.5" fill="#D6CACD"/>
<path d="M324.1 67.5V53.54H329.4C330.76 53.54 331.8 53.9267 332.52 54.7C333.24 55.4733 333.6 56.5267 333.6 57.86C333.6 59.1933 333.24 60.2467 332.52 61.02C331.8 61.7933 330.76 62.18 329.4 62.18H326.72V67.5H324.1ZM326.72 60.04H328.86C329.567 60.04 330.073 59.9 330.38 59.62C330.687 59.3267 330.84 58.8667 330.84 58.24V57.48C330.84 56.8533 330.687 56.4 330.38 56.12C330.073 55.8267 329.567 55.68 328.86 55.68H326.72V60.04ZM340.032 61.38L338.572 63.3V67.5H335.952V53.54H338.572V59.82H338.692L340.312 57.5L343.252 53.54H346.212L341.832 59.42L346.412 67.5H343.452L340.032 61.38Z" fill="black"/>
</svg>
