<svg width="360" height="120" viewBox="0 0 360 120" fill="none" xmlns="http://www.w3.org/2000/svg">
<path d="M0 5C0 2.23858 2.23858 0 5 0H355C357.761 0 360 2.23858 360 5V40H0V5Z" fill="#836B7F"/>
<path d="M17.56 12.556L18.232 21.348H18.316L22.236 12.64H26.24L22.908 30H19.128L21.144 20.032H21.06L18.316 26.108H16.384L15.908 20.032H15.824L14.144 30H10.448L13.78 12.724L17.56 12.556ZM39.4225 28.32C37.4065 29.328 35.5772 29.9533 33.9345 30.196C32.2919 30.4573 30.9665 30.364 29.9585 29.916C28.9505 29.468 28.1759 28.8147 27.6345 27.956C27.1119 27.0787 26.8505 26.052 26.8505 24.876C26.8505 23.364 27.2425 21.88 28.0265 20.424C28.8105 18.968 29.9025 17.764 31.3025 16.812C32.7025 15.86 34.1959 15.384 35.7825 15.384C37.1079 15.384 38.1532 15.72 38.9185 16.392C39.7025 17.0453 40.0945 17.9507 40.0945 19.108C40.0945 20.7507 39.2825 22.0573 37.6585 23.028C36.0532 23.9987 33.7012 24.596 30.6025 24.82C30.6585 25.66 30.9385 26.248 31.4425 26.584C31.9652 26.9013 32.7959 27.0413 33.9345 27.004C35.0919 26.9667 36.7999 26.7427 39.0585 26.332L39.4225 28.32ZM34.6905 18.52C33.7759 18.52 32.9639 18.9307 32.2545 19.752C31.5452 20.5547 31.0599 21.5533 30.7985 22.748C34.5505 22.4867 36.4265 21.572 36.4265 20.004C36.4265 19.556 36.2679 19.2013 35.9505 18.94C35.6332 18.66 35.2132 18.52 34.6905 18.52ZM53.5011 30H42.0491L42.6931 26.752L51.1211 19.08L44.1211 19.22L45.0451 15.804H56.2731L55.6291 19.052L47.2571 26.724L54.4251 26.584L53.5011 30ZM71.2196 21.012L67.6916 21.068C67.7103 20.228 67.5983 19.6307 67.3556 19.276C67.1129 18.9027 66.6929 18.716 66.0956 18.716C65.0129 18.716 64.0983 19.2573 63.3516 20.34C62.6049 21.404 62.2316 22.6547 62.2316 24.092C62.2316 25.5293 62.7076 26.4253 63.6596 26.78C64.6303 27.116 66.7116 27.0693 69.9036 26.64L70.1836 28.656C68.5596 29.384 67.0756 29.8693 65.7316 30.112C64.4063 30.3733 63.2956 30.4107 62.3996 30.224C61.5036 30.0373 60.7383 29.7013 60.1036 29.216C59.4876 28.712 59.0396 28.096 58.7596 27.368C58.4796 26.64 58.3396 25.8187 58.3396 24.904C58.3396 22.328 59.2169 20.1067 60.9716 18.24C62.7263 16.3547 64.8076 15.412 67.2156 15.412C68.7463 15.412 69.8383 15.8507 70.4916 16.728C71.1449 17.6053 71.3876 19.0333 71.2196 21.012ZM86.3621 28.264C83.6741 29.776 81.4341 30.4387 79.6421 30.252C77.8688 30.0653 76.6835 29.0573 76.0861 27.228L74.6861 28.04L73.7901 26.528L75.6941 25.324C75.6568 24.8013 75.6381 24.4 75.6381 24.12C75.6381 21.6373 76.0861 19.3133 76.9821 17.148C77.8968 14.964 79.0541 13.256 80.4541 12.024C81.8728 10.792 83.3195 10.176 84.7941 10.176C85.7648 10.176 86.5208 10.4747 87.0621 11.072C87.6221 11.6507 87.9021 12.4813 87.9021 13.564C87.9021 15.3373 87.1928 17.2227 85.7741 19.22C84.3741 21.2173 82.3675 23.2053 79.7541 25.184C80.0155 26.3227 80.6315 26.976 81.6021 27.144C82.5915 27.312 84.0101 27.06 85.8581 26.388L86.3621 28.264ZM83.3661 13.984C82.4888 13.984 81.6581 14.8147 80.8741 16.476C80.0901 18.1187 79.6608 20.2187 79.5861 22.776C81.1355 21.3387 82.3115 19.9573 83.1141 18.632C83.9355 17.3067 84.3461 16.1867 84.3461 15.272C84.3461 14.4133 84.0195 13.984 83.3661 13.984ZM93.1327 25.044C93.1327 26.1453 93.5247 26.696 94.3087 26.696C95.0927 26.696 96.054 26.2013 97.1927 25.212C97.3233 24.5587 97.7153 22.552 98.3687 19.192C97.5287 18.8933 96.8193 18.744 96.2407 18.744C95.438 18.744 94.7193 19.4347 94.0847 20.816C93.45 22.1787 93.1327 23.588 93.1327 25.044ZM102.905 28.712C101.411 29.608 100.217 30.1307 99.3207 30.28C98.4247 30.4293 97.8087 30.28 97.4727 29.832C97.1367 29.3653 96.9873 28.6187 97.0247 27.592C95.1393 29.44 93.506 30.364 92.1247 30.364C91.266 30.364 90.566 29.9907 90.0247 29.244C89.4833 28.4973 89.2127 27.4147 89.2127 25.996C89.2127 24.2227 89.558 22.552 90.2487 20.984C90.9393 19.3973 91.9847 18.0907 93.3847 17.064C94.8033 16.0187 96.4273 15.496 98.2567 15.496C99.7313 15.496 101.215 15.72 102.709 16.168L100.805 26.024C100.693 26.584 100.721 26.9013 100.889 26.976C101.057 27.0507 101.626 26.9947 102.597 26.808L102.905 28.712ZM125.77 26.724C126.498 26.724 127.44 26.2107 128.598 25.184L129.774 19.052C128.99 18.772 128.29 18.632 127.674 18.632C126.871 18.632 126.134 19.2853 125.462 20.592C124.79 21.88 124.454 23.1867 124.454 24.512C124.454 25.9867 124.892 26.724 125.77 26.724ZM134.45 28.656C132.882 29.5333 131.631 30.0467 130.698 30.196C129.764 30.364 129.13 30.2333 128.794 29.804C128.458 29.3747 128.318 28.6653 128.374 27.676C126.507 29.468 124.93 30.364 123.642 30.364C122.746 30.364 122.008 29.9627 121.43 29.16C120.87 28.3387 120.59 27.172 120.59 25.66C120.59 23.9427 120.935 22.3187 121.626 20.788C122.316 19.2387 123.352 17.96 124.734 16.952C126.134 15.9253 127.72 15.412 129.494 15.412C129.699 15.412 130.026 15.4307 130.474 15.468L131.426 10.512L135.262 10.232L132.182 26.136C132.088 26.6773 132.135 26.9853 132.322 27.06C132.508 27.116 133.124 27.032 134.17 26.808L134.45 28.656ZM149.144 28.32C147.128 29.328 145.299 29.9533 143.656 30.196C142.014 30.4573 140.688 30.364 139.68 29.916C138.672 29.468 137.898 28.8147 137.356 27.956C136.834 27.0787 136.572 26.052 136.572 24.876C136.572 23.364 136.964 21.88 137.748 20.424C138.532 18.968 139.624 17.764 141.024 16.812C142.424 15.86 143.918 15.384 145.504 15.384C146.83 15.384 147.875 15.72 148.64 16.392C149.424 17.0453 149.816 17.9507 149.816 19.108C149.816 20.7507 149.004 22.0573 147.38 23.028C145.775 23.9987 143.423 24.596 140.324 24.82C140.38 25.66 140.66 26.248 141.164 26.584C141.687 26.9013 142.518 27.0413 143.656 27.004C144.814 26.9667 146.522 26.7427 148.78 26.332L149.144 28.32ZM144.412 18.52C143.498 18.52 142.686 18.9307 141.976 19.752C141.267 20.5547 140.782 21.5533 140.52 22.748C144.272 22.4867 146.148 21.572 146.148 20.004C146.148 19.556 145.99 19.2013 145.672 18.94C145.355 18.66 144.935 18.52 144.412 18.52ZM171.505 25.044C171.505 26.1453 171.897 26.696 172.681 26.696C173.465 26.696 174.427 26.2013 175.565 25.212C175.696 24.5587 176.088 22.552 176.741 19.192C175.901 18.8933 175.192 18.744 174.613 18.744C173.811 18.744 173.092 19.4347 172.457 20.816C171.823 22.1787 171.505 23.588 171.505 25.044ZM181.277 28.712C179.784 29.608 178.589 30.1307 177.693 30.28C176.797 30.4293 176.181 30.28 175.845 29.832C175.509 29.3653 175.36 28.6187 175.397 27.592C173.512 29.44 171.879 30.364 170.497 30.364C169.639 30.364 168.939 29.9907 168.397 29.244C167.856 28.4973 167.585 27.4147 167.585 25.996C167.585 24.2227 167.931 22.552 168.621 20.984C169.312 19.3973 170.357 18.0907 171.757 17.064C173.176 16.0187 174.8 15.496 176.629 15.496C178.104 15.496 179.588 15.72 181.081 16.168L179.177 26.024C179.065 26.584 179.093 26.9013 179.261 26.976C179.429 27.0507 179.999 26.9947 180.969 26.808L181.277 28.712ZM196.588 29.02C192.967 30.6627 190.764 30.8027 189.98 29.44C189.196 28.0587 189.868 24.9413 191.996 20.088C190.969 20.3307 190.092 20.4707 189.364 20.508C188.375 22.1507 186.751 24.064 184.492 26.248L183.148 24.82C184.791 22.9907 185.957 21.4973 186.648 20.34C185.416 20.0227 184.8 19.4067 184.8 18.492C184.8 17.6147 185.22 16.784 186.06 16C186.919 15.216 187.861 14.824 188.888 14.824C189.429 14.824 189.859 14.992 190.176 15.328C190.512 15.664 190.68 16.1307 190.68 16.728C190.68 16.952 190.671 17.12 190.652 17.232C192.444 16.8773 193.965 16.364 195.216 15.692L197.092 16.504C194.908 21.6747 193.779 24.8667 193.704 26.08C193.648 26.864 193.947 27.2747 194.6 27.312C194.936 27.3307 195.533 27.2467 196.392 27.06L196.588 29.02ZM199.13 24.512C199.13 22.0293 199.868 19.892 201.342 18.1C202.836 16.2893 204.702 15.384 206.942 15.384C208.66 15.384 210.013 15.916 211.002 16.98C212.01 18.0253 212.514 19.4533 212.514 21.264C212.514 23.7467 211.768 25.8933 210.274 27.704C208.8 29.496 206.942 30.392 204.702 30.392C202.985 30.392 201.622 29.8693 200.614 28.824C199.625 27.76 199.13 26.3227 199.13 24.512ZM208.566 21.74C208.566 20.732 208.37 19.9573 207.978 19.416C207.605 18.856 207.092 18.576 206.438 18.576C205.468 18.576 204.665 19.136 204.03 20.256C203.396 21.3573 203.078 22.6173 203.078 24.036C203.078 25.044 203.265 25.828 203.638 26.388C204.03 26.9293 204.553 27.2 205.206 27.2C206.177 27.2 206.98 26.6493 207.614 25.548C208.249 24.428 208.566 23.1587 208.566 21.74ZM228.329 29.44C226.649 30.056 225.445 30.3173 224.717 30.224C224.008 30.1493 223.653 29.692 223.653 28.852C223.653 28.292 223.924 26.752 224.465 24.232C225.025 21.712 225.305 20.2653 225.305 19.892C225.305 19.4813 225.137 19.276 224.801 19.276C224.446 19.276 224.064 19.4253 223.653 19.724L221.665 30H219.061L220.825 20.872C220.9 20.48 220.946 20.1813 220.965 19.976C220.984 19.7707 220.956 19.6027 220.881 19.472C220.806 19.3413 220.666 19.276 220.461 19.276C220.05 19.276 219.63 19.4533 219.201 19.808L217.241 30H213.629C214.88 23.504 215.748 18.8187 216.233 15.944L219.677 15.748L219.537 17.148C220.582 16.028 221.562 15.468 222.477 15.468C223.485 15.468 223.98 16.14 223.961 17.484C225.249 16.14 226.472 15.468 227.629 15.468C228.73 15.468 229.281 16.112 229.281 17.4C229.281 18.2773 228.945 20.0507 228.273 22.72C227.62 25.3707 227.293 26.864 227.293 27.2C227.293 27.4613 227.545 27.564 228.049 27.508L228.329 29.44ZM234.203 25.044C234.203 26.1453 234.595 26.696 235.379 26.696C236.163 26.696 237.125 26.2013 238.263 25.212C238.394 24.5587 238.786 22.552 239.439 19.192C238.599 18.8933 237.89 18.744 237.311 18.744C236.509 18.744 235.79 19.4347 235.155 20.816C234.521 22.1787 234.203 23.588 234.203 25.044ZM243.975 28.712C242.482 29.608 241.287 30.1307 240.391 30.28C239.495 30.4293 238.879 30.28 238.543 29.832C238.207 29.3653 238.058 28.6187 238.095 27.592C236.21 29.44 234.577 30.364 233.195 30.364C232.337 30.364 231.637 29.9907 231.095 29.244C230.554 28.4973 230.283 27.4147 230.283 25.996C230.283 24.2227 230.629 22.552 231.319 20.984C232.01 19.3973 233.055 18.0907 234.455 17.064C235.874 16.0187 237.498 15.496 239.327 15.496C240.802 15.496 242.286 15.72 243.779 16.168L241.875 26.024C241.763 26.584 241.791 26.9013 241.959 26.976C242.127 27.0507 242.697 26.9947 243.667 26.808L243.975 28.712ZM258.698 25.548C258.698 26.22 258.521 26.8267 258.166 27.368C257.83 27.9093 257.279 28.4133 256.514 28.88C255.749 29.3467 254.657 29.7013 253.238 29.944C251.838 30.1867 250.158 30.2987 248.198 30.28L248.282 26.78C250.727 26.9107 252.426 26.9013 253.378 26.752C254.349 26.584 254.834 26.248 254.834 25.744C254.834 25.5573 254.787 25.352 254.694 25.128C254.601 24.904 254.442 24.6613 254.218 24.4C254.013 24.1387 253.817 23.9053 253.63 23.7C253.443 23.4947 253.182 23.224 252.846 22.888C252.529 22.5333 252.277 22.2533 252.09 22.048C250.951 22.7947 249.467 23.616 247.638 24.512L246.826 22.776C248.599 21.6933 249.906 20.8253 250.746 20.172C250.429 19.5373 250.27 18.9493 250.27 18.408C250.27 17.3627 250.699 16.532 251.558 15.916C252.417 15.2813 253.406 14.964 254.526 14.964C255.814 14.964 256.57 15.3933 256.794 16.252C257.018 17.1107 256.477 18.24 255.17 19.64C255.301 19.808 255.739 20.34 256.486 21.236C257.251 22.1133 257.811 22.8787 258.166 23.532C258.521 24.1853 258.698 24.8573 258.698 25.548Z" fill="#EEEEEE"/>
<rect width="360" height="40" transform="translate(0 40)" fill="#C3C4A2" fill-opacity="0.15"/>
<g opacity="0.7">
<path d="M15.952 67.752C17.104 67.752 18.216 67.328 19.288 66.48C19.256 65.456 19.24 64.528 19.24 63.696C15.432 63.296 13.528 63.992 13.528 65.784C13.528 66.408 13.744 66.896 14.176 67.248C14.624 67.584 15.216 67.752 15.952 67.752ZM19.552 69.072C19.552 69.04 19.528 68.832 19.48 68.448C19.432 68.064 19.4 67.768 19.384 67.56C18.136 68.712 16.744 69.288 15.208 69.288C14.12 69.288 13.248 69.016 12.592 68.472C11.936 67.928 11.608 67.184 11.608 66.24C11.608 64.96 12.256 63.952 13.552 63.216C14.848 62.464 16.736 62.16 19.216 62.304C19.136 60.96 18.624 60.048 17.68 59.568C16.752 59.088 14.96 58.8 12.304 58.704L12.52 57.024C14.824 57.088 16.584 57.32 17.8 57.72C19.016 58.12 19.872 58.744 20.368 59.592C20.88 60.424 21.136 61.616 21.136 63.168C21.136 64.784 21.2 66.712 21.328 68.952L19.552 69.072ZM33.6353 69H24.8033V67.512H27.9233C27.8593 62.776 27.8113 59.872 27.7793 58.8L24.8033 58.632L24.9473 57.24H29.5073C29.5713 57.912 29.6193 58.584 29.6513 59.256C30.9633 57.896 32.7553 57.08 35.0273 56.808L35.1233 58.872C32.8513 59.048 31.0513 59.568 29.7233 60.432C29.7233 60.864 29.7313 61.896 29.7473 63.528C29.7793 65.144 29.8033 66.472 29.8193 67.512H33.8033L33.6353 69ZM42.7266 69.336C41.2386 69.336 40.0306 68.8 39.1026 67.728C38.1746 66.656 37.7106 65.192 37.7106 63.336C37.7106 61.464 38.2466 59.928 39.3186 58.728C40.4066 57.528 41.7266 56.928 43.2786 56.928C44.7666 56.928 45.9666 57.464 46.8786 58.536C47.8066 59.592 48.2706 61.048 48.2706 62.904C48.2706 64.808 47.7346 66.36 46.6626 67.56C45.5906 68.744 44.2786 69.336 42.7266 69.336ZM43.0386 67.728C44.0306 67.728 44.8226 67.344 45.4146 66.576C46.0226 65.792 46.3266 64.688 46.3266 63.264C46.3266 61.76 46.0146 60.592 45.3906 59.76C44.7826 58.928 43.9666 58.512 42.9426 58.512C41.9666 58.512 41.1746 58.904 40.5666 59.688C39.9746 60.472 39.6786 61.568 39.6786 62.976C39.6786 64.48 39.9826 65.648 40.5906 66.48C41.1986 67.312 42.0146 67.728 43.0386 67.728ZM54.4339 58.632C53.8579 58.632 53.2739 58.928 52.6819 59.52C52.7459 62.368 52.7779 65.528 52.7779 69H50.9539C50.9539 63.912 50.9059 60.016 50.8099 57.312L52.5139 57.192L52.6099 58.296C53.4099 57.416 54.2579 56.976 55.1539 56.976C56.0499 56.976 56.6499 57.392 56.9539 58.224C57.7539 57.392 58.6099 56.976 59.5219 56.976C60.8979 56.976 61.5859 57.856 61.5859 59.616V69H59.7379V60.312C59.7379 59.704 59.6499 59.272 59.4739 59.016C59.3139 58.76 59.0259 58.632 58.6099 58.632C58.0819 58.632 57.5619 58.864 57.0499 59.328V59.544V69H55.5379V60.288C55.5379 59.696 55.4499 59.272 55.2739 59.016C55.1139 58.76 54.8339 58.632 54.4339 58.632ZM68.7333 67.752C69.8853 67.752 70.9973 67.328 72.0693 66.48C72.0373 65.456 72.0213 64.528 72.0213 63.696C68.2133 63.296 66.3092 63.992 66.3092 65.784C66.3092 66.408 66.5253 66.896 66.9573 67.248C67.4053 67.584 67.9973 67.752 68.7333 67.752ZM72.3333 69.072C72.3333 69.04 72.3093 68.832 72.2613 68.448C72.2133 68.064 72.1813 67.768 72.1653 67.56C70.9173 68.712 69.5253 69.288 67.9893 69.288C66.9013 69.288 66.0293 69.016 65.3733 68.472C64.7173 67.928 64.3893 67.184 64.3893 66.24C64.3893 64.96 65.0373 63.952 66.3333 63.216C67.6293 62.464 69.5173 62.16 71.9973 62.304C71.9173 60.96 71.4053 60.048 70.4613 59.568C69.5333 59.088 67.7413 58.8 65.0853 58.704L65.3013 57.024C67.6053 57.088 69.3653 57.32 70.5813 57.72C71.7973 58.12 72.6533 58.744 73.1493 59.592C73.6613 60.424 73.9173 61.616 73.9173 63.168C73.9173 64.784 73.9813 66.712 74.1093 68.952L72.3333 69.072ZM91.0919 63.312C91.0919 62.464 91.2439 61.688 91.5479 60.984C91.8679 60.28 92.3559 59.632 93.0119 59.04C93.6839 58.448 94.6199 57.984 95.8199 57.648C97.0359 57.296 98.4679 57.104 100.116 57.072L100.26 58.92C98.7879 58.92 97.5559 59.016 96.5639 59.208C95.5879 59.384 94.8439 59.664 94.3319 60.048C93.8359 60.432 93.4919 60.864 93.2999 61.344C93.1079 61.808 93.0119 62.376 93.0119 63.048C93.0119 64.68 93.5559 65.856 94.6439 66.576C95.7319 67.296 97.6599 67.592 100.428 67.464L100.212 69.096C98.4839 69.208 97.0119 69.152 95.7959 68.928C94.5799 68.688 93.6359 68.288 92.9639 67.728C92.2919 67.168 91.8119 66.536 91.5239 65.832C91.2359 65.112 91.0919 64.272 91.0919 63.312ZM108.703 69.336C107.215 69.336 106.007 68.8 105.079 67.728C104.151 66.656 103.687 65.192 103.687 63.336C103.687 61.464 104.223 59.928 105.295 58.728C106.383 57.528 107.703 56.928 109.255 56.928C110.743 56.928 111.943 57.464 112.855 58.536C113.783 59.592 114.247 61.048 114.247 62.904C114.247 64.808 113.711 66.36 112.639 67.56C111.567 68.744 110.255 69.336 108.703 69.336ZM109.015 67.728C110.007 67.728 110.799 67.344 111.391 66.576C111.999 65.792 112.303 64.688 112.303 63.264C112.303 61.76 111.991 60.592 111.367 59.76C110.759 58.928 109.943 58.512 108.919 58.512C107.943 58.512 107.151 58.904 106.543 59.688C105.951 60.472 105.655 61.568 105.655 62.976C105.655 64.48 105.959 65.648 106.567 66.48C107.175 67.312 107.991 67.728 109.015 67.728ZM120.411 58.632C119.835 58.632 119.251 58.928 118.659 59.52C118.723 62.368 118.755 65.528 118.755 69H116.931C116.931 63.912 116.883 60.016 116.787 57.312L118.491 57.192L118.587 58.296C119.387 57.416 120.235 56.976 121.131 56.976C122.027 56.976 122.627 57.392 122.931 58.224C123.731 57.392 124.587 56.976 125.499 56.976C126.875 56.976 127.562 57.856 127.562 59.616V69H125.715V60.312C125.715 59.704 125.627 59.272 125.451 59.016C125.291 58.76 125.003 58.632 124.587 58.632C124.059 58.632 123.539 58.864 123.027 59.328V59.544V69H121.515V60.288C121.515 59.696 121.427 59.272 121.251 59.016C121.091 58.76 120.811 58.632 120.411 58.632ZM134.878 67.608C135.982 67.608 136.894 67.208 137.614 66.408C138.334 65.608 138.694 64.496 138.694 63.072C138.694 61.648 138.398 60.544 137.806 59.76C137.214 58.976 136.438 58.584 135.478 58.584C134.55 58.584 133.654 58.912 132.79 59.568C132.854 62.08 132.894 64.64 132.91 67.248C133.598 67.488 134.254 67.608 134.878 67.608ZM132.91 72.96L130.966 73.128V69.048C130.966 63.224 130.918 59.312 130.822 57.312L132.598 57.192L132.718 58.416C133.79 57.456 134.966 56.976 136.246 56.976C137.51 56.976 138.55 57.488 139.366 58.512C140.198 59.536 140.614 60.896 140.614 62.592C140.614 64.64 139.99 66.272 138.742 67.488C137.51 68.688 135.99 69.288 134.182 69.288C133.718 69.288 133.294 69.256 132.91 69.192V72.96ZM151.409 69.048L151.289 67.704C150.009 68.76 148.705 69.288 147.377 69.288C145.073 69.288 143.921 67.928 143.921 65.208V57.312L145.865 57.168V64.56C145.865 65.664 146.057 66.456 146.441 66.936C146.841 67.4 147.425 67.632 148.193 67.632C149.201 67.632 150.201 67.272 151.193 66.552C151.129 63.736 151.097 60.632 151.097 57.24H153.041C153.041 62.504 153.097 66.4 153.209 68.928L151.409 69.048ZM166.092 69.264C164.284 69.264 162.764 69.136 161.532 68.88C160.3 68.608 159.332 68.208 158.628 67.68C157.94 67.152 157.452 66.536 157.164 65.832C156.876 65.128 156.732 64.28 156.732 63.288C156.732 61.512 157.268 60.016 158.34 58.8C159.428 57.568 160.74 56.952 162.276 56.952C163.86 56.952 165.044 57.544 165.828 58.728C166.628 59.896 166.916 61.464 166.692 63.432L158.652 63.624C158.748 65.032 159.34 66.032 160.428 66.624C161.532 67.216 163.484 67.544 166.284 67.608L166.092 69.264ZM161.94 58.56C160.964 58.56 160.188 58.896 159.612 59.568C159.036 60.224 158.716 61.176 158.652 62.424C159.82 62.376 161.892 62.312 164.868 62.232C164.852 61.08 164.596 60.184 164.1 59.544C163.62 58.888 162.9 58.56 161.94 58.56ZM178.832 57.144L178.904 58.872C174.824 58.504 172.784 58.952 172.784 60.216C172.784 60.568 173.008 60.904 173.456 61.224C173.92 61.544 174.472 61.848 175.112 62.136C175.768 62.408 176.416 62.704 177.056 63.024C177.712 63.328 178.264 63.712 178.712 64.176C179.176 64.624 179.408 65.128 179.408 65.688C179.408 66.792 178.72 67.68 177.344 68.352C175.968 69.008 173.76 69.256 170.72 69.096L170.792 67.368C175.192 67.72 177.392 67.216 177.392 65.856C177.392 65.472 177.168 65.12 176.72 64.8C176.272 64.464 175.72 64.168 175.064 63.912C174.424 63.64 173.776 63.36 173.12 63.072C172.48 62.768 171.936 62.4 171.488 61.968C171.04 61.52 170.816 61.024 170.816 60.48C170.816 59.408 171.456 58.536 172.736 57.864C174.032 57.176 176.064 56.936 178.832 57.144ZM192.579 69.192C190.067 69.224 188.307 68.944 187.299 68.352C186.291 67.744 185.787 66.704 185.787 65.232V58.752H183.363L183.555 57.24H185.787V53.976L187.731 53.808V57.24H192.531V58.752H187.731V64.92C187.731 65.928 188.075 66.616 188.763 66.984C189.467 67.336 190.811 67.528 192.795 67.56L192.579 69.192ZM201.07 69.336C199.582 69.336 198.374 68.8 197.446 67.728C196.518 66.656 196.054 65.192 196.054 63.336C196.054 61.464 196.59 59.928 197.662 58.728C198.75 57.528 200.07 56.928 201.622 56.928C203.11 56.928 204.31 57.464 205.222 58.536C206.15 59.592 206.614 61.048 206.614 62.904C206.614 64.808 206.078 66.36 205.006 67.56C203.934 68.744 202.622 69.336 201.07 69.336ZM201.382 67.728C202.374 67.728 203.166 67.344 203.758 66.576C204.366 65.792 204.67 64.688 204.67 63.264C204.67 61.76 204.358 60.592 203.734 59.76C203.126 58.928 202.31 58.512 201.286 58.512C200.31 58.512 199.518 58.904 198.91 59.688C198.318 60.472 198.022 61.568 198.022 62.976C198.022 64.48 198.326 65.648 198.934 66.48C199.542 67.312 200.358 67.728 201.382 67.728Z" fill="black"/>
<rect x="326" y="47" width="24" height="25" rx="12" fill="#C8B7BE"/>
<path d="M332.8 63V56.02H335.45C336.13 56.02 336.65 56.2133 337.01 56.6C337.37 56.9867 337.55 57.5133 337.55 58.18C337.55 58.8467 337.37 59.3733 337.01 59.76C336.65 60.1467 336.13 60.34 335.45 60.34H334.11V63H332.8ZM334.11 59.27H335.18C335.533 59.27 335.787 59.2 335.94 59.06C336.093 58.9133 336.17 58.6833 336.17 58.37V57.99C336.17 57.6767 336.093 57.45 335.94 57.31C335.787 57.1633 335.533 57.09 335.18 57.09H334.11V59.27ZM340.766 59.94L340.036 60.9V63H338.726V56.02H340.036V59.16H340.096L340.906 58L342.376 56.02H343.856L341.666 58.96L343.956 63H342.476L340.766 59.94Z" fill="black"/>
</g>
<line y1="79.5" x2="360" y2="79.5" stroke="#3D1A1A" stroke-opacity="0.2"/>
<line x1="0.5" y1="40" x2="0.499998" y2="79" stroke="#3D1A1A" stroke-opacity="0.2"/>
<line x1="359.5" y1="40" x2="359.5" y2="79" stroke="#3D1A1A" stroke-opacity="0.2"/>
<rect x="315" y="40" width="39" height="40" rx="19.5" fill="#D6CACD"/>
<path d="M323.1 67.5V53.54H328.4C329.76 53.54 330.8 53.9267 331.52 54.7C332.24 55.4733 332.6 56.5267 332.6 57.86C332.6 59.1933 332.24 60.2467 331.52 61.02C330.8 61.7933 329.76 62.18 328.4 62.18H325.72V67.5H323.1ZM325.72 60.04H327.86C328.567 60.04 329.073 59.9 329.38 59.62C329.687 59.3267 329.84 58.8667 329.84 58.24V57.48C329.84 56.8533 329.687 56.4 329.38 56.12C329.073 55.8267 328.567 55.68 327.86 55.68H325.72V60.04ZM339.032 61.38L337.572 63.3V67.5H334.952V53.54H337.572V59.82H337.692L339.312 57.5L342.252 53.54H345.212L340.832 59.42L345.412 67.5H342.452L339.032 61.38Z" fill="black"/>
<rect width="360" height="40" transform="translate(0 80)" fill="#C3C4A2" fill-opacity="0.15"/>
<g opacity="0.7">
<path d="M15.952 107.752C17.104 107.752 18.216 107.328 19.288 106.48C19.256 105.456 19.24 104.528 19.24 103.696C15.432 103.296 13.528 103.992 13.528 105.784C13.528 106.408 13.744 106.896 14.176 107.248C14.624 107.584 15.216 107.752 15.952 107.752ZM19.552 109.072C19.552 109.04 19.528 108.832 19.48 108.448C19.432 108.064 19.4 107.768 19.384 107.56C18.136 108.712 16.744 109.288 15.208 109.288C14.12 109.288 13.248 109.016 12.592 108.472C11.936 107.928 11.608 107.184 11.608 106.24C11.608 104.96 12.256 103.952 13.552 103.216C14.848 102.464 16.736 102.16 19.216 102.304C19.136 100.96 18.624 100.048 17.68 99.568C16.752 99.088 14.96 98.8 12.304 98.704L12.52 97.024C14.824 97.088 16.584 97.32 17.8 97.72C19.016 98.12 19.872 98.744 20.368 99.592C20.88 100.424 21.136 101.616 21.136 103.168C21.136 104.784 21.2 106.712 21.328 108.952L19.552 109.072ZM33.6353 109H24.8033V107.512H27.9233C27.8593 102.776 27.8113 99.872 27.7793 98.8L24.8033 98.632L24.9473 97.24H29.5073C29.5713 97.912 29.6193 98.584 29.6513 99.256C30.9633 97.896 32.7553 97.08 35.0273 96.808L35.1233 98.872C32.8513 99.048 31.0513 99.568 29.7233 100.432C29.7233 100.864 29.7313 101.896 29.7473 103.528C29.7793 105.144 29.8033 106.472 29.8193 107.512H33.8033L33.6353 109ZM42.7266 109.336C41.2386 109.336 40.0306 108.8 39.1026 107.728C38.1746 106.656 37.7106 105.192 37.7106 103.336C37.7106 101.464 38.2466 99.928 39.3186 98.728C40.4066 97.528 41.7266 96.928 43.2786 96.928C44.7666 96.928 45.9666 97.464 46.8786 98.536C47.8066 99.592 48.2706 101.048 48.2706 102.904C48.2706 104.808 47.7346 106.36 46.6626 107.56C45.5906 108.744 44.2786 109.336 42.7266 109.336ZM43.0386 107.728C44.0306 107.728 44.8226 107.344 45.4146 106.576C46.0226 105.792 46.3266 104.688 46.3266 103.264C46.3266 101.76 46.0146 100.592 45.3906 99.76C44.7826 98.928 43.9666 98.512 42.9426 98.512C41.9666 98.512 41.1746 98.904 40.5666 99.688C39.9746 100.472 39.6786 101.568 39.6786 102.976C39.6786 104.48 39.9826 105.648 40.5906 106.48C41.1986 107.312 42.0146 107.728 43.0386 107.728ZM54.4339 98.632C53.8579 98.632 53.2739 98.928 52.6819 99.52C52.7459 102.368 52.7779 105.528 52.7779 109H50.9539C50.9539 103.912 50.9059 100.016 50.8099 97.312L52.5139 97.192L52.6099 98.296C53.4099 97.416 54.2579 96.976 55.1539 96.976C56.0499 96.976 56.6499 97.392 56.9539 98.224C57.7539 97.392 58.6099 96.976 59.5219 96.976C60.8979 96.976 61.5859 97.856 61.5859 99.616V109H59.7379V100.312C59.7379 99.704 59.6499 99.272 59.4739 99.016C59.3139 98.76 59.0259 98.632 58.6099 98.632C58.0819 98.632 57.5619 98.864 57.0499 99.328V99.544V109H55.5379V100.288C55.5379 99.696 55.4499 99.272 55.2739 99.016C55.1139 98.76 54.8339 98.632 54.4339 98.632ZM68.7333 107.752C69.8853 107.752 70.9973 107.328 72.0693 106.48C72.0373 105.456 72.0213 104.528 72.0213 103.696C68.2133 103.296 66.3092 103.992 66.3092 105.784C66.3092 106.408 66.5253 106.896 66.9573 107.248C67.4053 107.584 67.9973 107.752 68.7333 107.752ZM72.3333 109.072C72.3333 109.04 72.3093 108.832 72.2613 108.448C72.2133 108.064 72.1813 107.768 72.1653 107.56C70.9173 108.712 69.5253 109.288 67.9893 109.288C66.9013 109.288 66.0293 109.016 65.3733 108.472C64.7173 107.928 64.3893 107.184 64.3893 106.24C64.3893 104.96 65.0373 103.952 66.3333 103.216C67.6293 102.464 69.5173 102.16 71.9973 102.304C71.9173 100.96 71.4053 100.048 70.4613 99.568C69.5333 99.088 67.7413 98.8 65.0853 98.704L65.3013 97.024C67.6053 97.088 69.3653 97.32 70.5813 97.72C71.7973 98.12 72.6533 98.744 73.1493 99.592C73.6613 100.424 73.9173 101.616 73.9173 103.168C73.9173 104.784 73.9813 106.712 74.1093 108.952L72.3333 109.072Z" fill="black"/>
<rect x="326" y="87" width="24" height="25" rx="12" fill="#C8B7BE"/>
<path d="M332.8 103V96.02H335.45C336.13 96.02 336.65 96.2133 337.01 96.6C337.37 96.9867 337.55 97.5133 337.55 98.18C337.55 98.8467 337.37 99.3733 337.01 99.76C336.65 100.147 336.13 100.34 335.45 100.34H334.11V103H332.8ZM334.11 99.27H335.18C335.533 99.27 335.787 99.2 335.94 99.06C336.093 98.9133 336.17 98.6833 336.17 98.37V97.99C336.17 97.6767 336.093 97.45 335.94 97.31C335.787 97.1633 335.533 97.09 335.18 97.09H334.11V99.27ZM340.766 99.94L340.036 100.9V103H338.726V96.02H340.036V99.16H340.096L340.906 98L342.376 96.02H343.856L341.666 98.96L343.956 103H342.476L340.766 99.94Z" fill="black"/>
</g>
<line y1="119.5" x2="360" y2="119.5" stroke="#3D1A1A" stroke-opacity="0.2"/>
<line x1="0.5" y1="80" x2="0.499998" y2="119" stroke="#3D1A1A" stroke-opacity="0.2"/>
<line x1="359.5" y1="80" x2="359.5" y2="119" stroke="#3D1A1A" stroke-opacity="0.2"/>
<rect x="315" y="80" width="39" height="40" rx="19.5" fill="#D6CACD"/>
<path d="M323.1 107.5V93.54H328.4C329.76 93.54 330.8 93.9267 331.52 94.7C332.24 95.4733 332.6 96.5267 332.6 97.86C332.6 99.1933 332.24 100.247 331.52 101.02C330.8 101.793 329.76 102.18 328.4 102.18H325.72V107.5H323.1ZM325.72 100.04H327.86C328.567 100.04 329.073 99.9 329.38 99.62C329.687 99.3267 329.84 98.8667 329.84 98.24V97.48C329.84 96.8533 329.687 96.4 329.38 96.12C329.073 95.8267 328.567 95.68 327.86 95.68H325.72V100.04ZM339.032 101.38L337.572 103.3V107.5H334.952V93.54H337.572V99.82H337.692L339.312 97.5L342.252 93.54H345.212L340.832 99.42L345.412 107.5H342.452L339.032 101.38Z" fill="black"/>
<rect x="271" y="80" width="39" height="40" rx="19.5" fill="#C3C4A2"/>
<path d="M279.16 107.5V93.54H288.28V95.7H281.78V99.34H287.64V101.5H281.78V107.5H279.16ZM295.032 101.38L293.572 103.3V107.5H290.952V93.54H293.572V99.82H293.692L295.312 97.5L298.252 93.54H301.212L296.832 99.42L301.412 107.5H298.452L295.032 101.38Z" fill="black"/>
<rect x="271" y="40" width="39" height="40" rx="19.5" fill="#C3C4A2"/>
<path d="M279.16 67.5V53.54H288.28V55.7H281.78V59.34H287.64V61.5H281.78V67.5H279.16ZM295.032 61.38L293.572 63.3V67.5H290.952V53.54H293.572V59.82H293.692L295.312 57.5L298.252 53.54H301.212L296.832 59.42L301.412 67.5H298.452L295.032 61.38Z" fill="black"/>
</svg>
