<svg width="360" height="120" viewBox="0 0 360 120" fill="none" xmlns="http://www.w3.org/2000/svg">
<path d="M0 5C0 2.23858 2.23858 0 5 0H355C357.761 0 360 2.23858 360 5V40H0V5Z" fill="#836B7F"/>
<path d="M19.52 30.28L16.692 22.16V22.132C18.204 21.404 19.268 20.6853 19.884 19.976C20.5 19.2667 20.808 18.5107 20.808 17.708C20.808 16.1773 19.6693 15.552 17.392 15.832L14.676 30H10.7L14.032 12.752C16.104 12.5093 17.8307 12.4253 19.212 12.5C20.5933 12.556 21.704 12.808 22.544 13.256C23.384 13.6853 23.972 14.1987 24.308 14.796C24.6627 15.3933 24.84 16.084 24.84 16.868C24.84 19.0707 23.5613 21.0027 21.004 22.664L23.888 29.72L19.52 30.28ZM39.4225 28.32C37.4065 29.328 35.5772 29.9533 33.9345 30.196C32.2919 30.4573 30.9665 30.364 29.9585 29.916C28.9505 29.468 28.1759 28.8147 27.6345 27.956C27.1119 27.0787 26.8505 26.052 26.8505 24.876C26.8505 23.364 27.2425 21.88 28.0265 20.424C28.8105 18.968 29.9025 17.764 31.3025 16.812C32.7025 15.86 34.1959 15.384 35.7825 15.384C37.1079 15.384 38.1532 15.72 38.9185 16.392C39.7025 17.0453 40.0945 17.9507 40.0945 19.108C40.0945 20.7507 39.2825 22.0573 37.6585 23.028C36.0532 23.9987 33.7012 24.596 30.6025 24.82C30.6585 25.66 30.9385 26.248 31.4425 26.584C31.9652 26.9013 32.7959 27.0413 33.9345 27.004C35.0919 26.9667 36.7999 26.7427 39.0585 26.332L39.4225 28.32ZM34.6905 18.52C33.7759 18.52 32.9639 18.9307 32.2545 19.752C31.5452 20.5547 31.0599 21.5533 30.7985 22.748C34.5505 22.4867 36.4265 21.572 36.4265 20.004C36.4265 19.556 36.2679 19.2013 35.9505 18.94C35.6332 18.66 35.2132 18.52 34.6905 18.52ZM55.5451 21.012L52.0171 21.068C52.0357 20.228 51.9237 19.6307 51.6811 19.276C51.4384 18.9027 51.0184 18.716 50.4211 18.716C49.3384 18.716 48.4237 19.2573 47.6771 20.34C46.9304 21.404 46.5571 22.6547 46.5571 24.092C46.5571 25.5293 47.0331 26.4253 47.9851 26.78C48.9557 27.116 51.0371 27.0693 54.2291 26.64L54.5091 28.656C52.8851 29.384 51.4011 29.8693 50.0571 30.112C48.7317 30.3733 47.6211 30.4107 46.7251 30.224C45.8291 30.0373 45.0637 29.7013 44.4291 29.216C43.8131 28.712 43.3651 28.096 43.0851 27.368C42.8051 26.64 42.6651 25.8187 42.6651 24.904C42.6651 22.328 43.5424 20.1067 45.2971 18.24C47.0517 16.3547 49.1331 15.412 51.5411 15.412C53.0717 15.412 54.1637 15.8507 54.8171 16.728C55.4704 17.6053 55.7131 19.0333 55.5451 21.012ZM68.6436 13.62L64.4436 13.816L65.3676 9.896L69.8476 9.672L68.6436 13.62ZM70.8276 28.488C69.2596 29.1787 67.8783 29.6733 66.6836 29.972C65.4889 30.2707 64.5183 30.3733 63.7716 30.28C63.0249 30.1867 62.4369 29.944 62.0076 29.552C61.5969 29.16 61.3823 28.6187 61.3636 27.928C61.3449 27.2187 61.4476 26.4067 61.6716 25.492L63.4636 18.968L59.1236 19.108L58.8436 17.148L64.7516 15.804H67.9716L65.6476 24.764C65.3303 25.9587 65.3956 26.6493 65.8436 26.836C66.3103 27.004 67.8689 26.892 70.5196 26.5L70.8276 28.488ZM80.1181 27.172C80.9208 27.172 81.6581 26.528 82.3301 25.24C83.0021 23.9333 83.3381 22.6173 83.3381 21.292C83.3381 19.8173 82.8995 19.08 82.0221 19.08C81.2381 19.08 80.2675 19.5933 79.1101 20.62L77.9061 26.724C78.8021 27.0227 79.5395 27.172 80.1181 27.172ZM76.3661 34.648L72.5301 34.928C74.6021 24.0827 75.7501 17.7453 75.9741 15.916L79.7541 15.692L79.4181 18.044C81.2475 16.308 82.8248 15.44 84.1501 15.44C85.0461 15.44 85.7741 15.8507 86.3341 16.672C86.9128 17.4747 87.2021 18.632 87.2021 20.144C87.2021 21.8613 86.8568 23.4947 86.1661 25.044C85.4755 26.5747 84.4301 27.8533 83.0301 28.88C81.6488 29.888 80.0715 30.392 78.2981 30.392C78.0928 30.392 77.7288 30.3733 77.2061 30.336L76.3661 34.648ZM99.9927 13.62L95.7927 13.816L96.7167 9.896L101.197 9.672L99.9927 13.62ZM102.177 28.488C100.609 29.1787 99.2273 29.6733 98.0327 29.972C96.838 30.2707 95.8673 30.3733 95.1207 30.28C94.374 30.1867 93.786 29.944 93.3567 29.552C92.946 29.16 92.7313 28.6187 92.7127 27.928C92.694 27.2187 92.7967 26.4067 93.0207 25.492L94.8127 18.968L90.4727 19.108L90.1927 17.148L96.1007 15.804H99.3207L96.9967 24.764C96.6793 25.9587 96.7447 26.6493 97.1927 26.836C97.6593 27.004 99.218 26.892 101.869 26.5L102.177 28.488ZM117.795 28.32C115.779 29.328 113.95 29.9533 112.307 30.196C110.665 30.4573 109.339 30.364 108.331 29.916C107.323 29.468 106.549 28.8147 106.007 27.956C105.485 27.0787 105.223 26.052 105.223 24.876C105.223 23.364 105.615 21.88 106.399 20.424C107.183 18.968 108.275 17.764 109.675 16.812C111.075 15.86 112.569 15.384 114.155 15.384C115.481 15.384 116.526 15.72 117.291 16.392C118.075 17.0453 118.467 17.9507 118.467 19.108C118.467 20.7507 117.655 22.0573 116.031 23.028C114.426 23.9987 112.074 24.596 108.975 24.82C109.031 25.66 109.311 26.248 109.815 26.584C110.338 26.9013 111.169 27.0413 112.307 27.004C113.465 26.9667 115.173 26.7427 117.431 26.332L117.795 28.32ZM113.063 18.52C112.149 18.52 111.337 18.9307 110.627 19.752C109.918 20.5547 109.433 21.5533 109.171 22.748C112.923 22.4867 114.799 21.572 114.799 20.004C114.799 19.556 114.641 19.2013 114.323 18.94C114.006 18.66 113.586 18.52 113.063 18.52ZM134.338 28.712C133.348 29.3093 132.462 29.7387 131.678 30C130.894 30.28 130.25 30.3827 129.746 30.308C129.242 30.2333 128.859 30.028 128.598 29.692C128.336 29.356 128.206 28.8987 128.206 28.32C128.206 27.592 128.458 26.2293 128.962 24.232C129.484 22.2347 129.746 20.928 129.746 20.312C129.746 19.5093 129.419 19.108 128.766 19.108C128.056 19.108 127.142 19.6493 126.022 20.732L124.146 30H120.366C121.71 23.0187 122.54 18.324 122.858 15.916L126.666 15.692L126.358 18.016C128.038 16.28 129.69 15.412 131.314 15.412C133.031 15.412 133.89 16.3733 133.89 18.296C133.89 19.3413 133.619 20.9187 133.078 23.028C132.555 25.1187 132.294 26.3133 132.294 26.612C132.294 26.8733 132.387 27.0227 132.574 27.06C132.76 27.0787 133.246 26.9947 134.03 26.808L134.338 28.712ZM148.556 28.516C147.119 29.2813 145.812 29.8133 144.636 30.112C143.46 30.4293 142.49 30.5133 141.724 30.364C140.978 30.2147 140.343 29.916 139.82 29.468C139.316 29.0013 139.027 28.3853 138.952 27.62C138.878 26.836 138.924 25.968 139.092 25.016L140.436 18.912H137.888L138.616 15.916H140.268L142.9 11.996L145.812 11.772L144.916 15.916H149.704L149.144 18.912H144.272L142.984 24.792C142.686 25.9493 142.863 26.6587 143.516 26.92C144.17 27.1627 145.794 27.06 148.388 26.612L148.556 28.516ZM164.819 28.32C162.803 29.328 160.973 29.9533 159.331 30.196C157.688 30.4573 156.363 30.364 155.355 29.916C154.347 29.468 153.572 28.8147 153.031 27.956C152.508 27.0787 152.247 26.052 152.247 24.876C152.247 23.364 152.639 21.88 153.423 20.424C154.207 18.968 155.299 17.764 156.699 16.812C158.099 15.86 159.592 15.384 161.179 15.384C162.504 15.384 163.549 15.72 164.315 16.392C165.099 17.0453 165.491 17.9507 165.491 19.108C165.491 20.7507 164.679 22.0573 163.055 23.028C161.449 23.9987 159.097 24.596 155.999 24.82C156.055 25.66 156.335 26.248 156.839 26.584C157.361 26.9013 158.192 27.0413 159.331 27.004C160.488 26.9667 162.196 26.7427 164.455 26.332L164.819 28.32ZM160.087 18.52C159.172 18.52 158.36 18.9307 157.651 19.752C156.941 20.5547 156.456 21.5533 156.195 22.748C159.947 22.4867 161.823 21.572 161.823 20.004C161.823 19.556 161.664 19.2013 161.347 18.94C161.029 18.66 160.609 18.52 160.087 18.52Z" fill="#EEEEEE"/>
<rect width="360" height="40" transform="translate(0 40)" fill="#C3C4A2" fill-opacity="0.15"/>
<g opacity="0.7">
<path d="M16.744 67.176C17.912 64.2 19.08 60.888 20.248 57.24H22.216C21.032 60.84 19.568 64.792 17.824 69.096H15.376C13.808 65.192 12.368 61.264 11.056 57.312L13 57.192C14.184 60.824 15.368 64.152 16.552 67.176H16.744ZM29.5313 69.336C28.0433 69.336 26.8353 68.8 25.9073 67.728C24.9793 66.656 24.5153 65.192 24.5153 63.336C24.5153 61.464 25.0513 59.928 26.1233 58.728C27.2113 57.528 28.5313 56.928 30.0833 56.928C31.5713 56.928 32.7713 57.464 33.6833 58.536C34.6113 59.592 35.0753 61.048 35.0753 62.904C35.0753 64.808 34.5393 66.36 33.4673 67.56C32.3953 68.744 31.0833 69.336 29.5313 69.336ZM29.8433 67.728C30.8353 67.728 31.6273 67.344 32.2193 66.576C32.8273 65.792 33.1313 64.688 33.1313 63.264C33.1313 61.76 32.8193 60.592 32.1953 59.76C31.5873 58.928 30.7713 58.512 29.7473 58.512C28.7713 58.512 27.9793 58.904 27.3713 59.688C26.7793 60.472 26.4833 61.568 26.4833 62.976C26.4833 64.48 26.7873 65.648 27.3953 66.48C28.0033 67.312 28.8193 67.728 29.8433 67.728ZM47.7186 69H38.2626V67.512H42.0786V53.808L38.4546 53.64L38.6226 52.248H44.0466V67.512H47.8866L47.7186 69ZM59.0419 69.048L58.9219 67.704C57.6419 68.76 56.3379 69.288 55.0099 69.288C52.7059 69.288 51.5539 67.928 51.5539 65.208V57.312L53.4979 57.168V64.56C53.4979 65.664 53.6899 66.456 54.0739 66.936C54.4739 67.4 55.0579 67.632 55.8259 67.632C56.8339 67.632 57.8339 67.272 58.8259 66.552C58.7619 63.736 58.7299 60.632 58.7299 57.24H60.6739C60.6739 62.504 60.7299 66.4 60.8419 68.928L59.0419 69.048ZM67.6293 58.632C67.0533 58.632 66.4693 58.928 65.8773 59.52C65.9413 62.368 65.9733 65.528 65.9733 69H64.1493C64.1493 63.912 64.1013 60.016 64.0053 57.312L65.7093 57.192L65.8053 58.296C66.6053 57.416 67.4533 56.976 68.3493 56.976C69.2453 56.976 69.8453 57.392 70.1493 58.224C70.9493 57.392 71.8053 56.976 72.7173 56.976C74.0933 56.976 74.7812 57.856 74.7812 59.616V69H72.9333V60.312C72.9333 59.704 72.8453 59.272 72.6693 59.016C72.5093 58.76 72.2213 58.632 71.8053 58.632C71.2773 58.632 70.7573 58.864 70.2453 59.328V59.544V69H68.7333V60.288C68.7333 59.696 68.6453 59.272 68.4693 59.016C68.3093 58.76 68.0293 58.632 67.6293 58.632ZM86.9206 69.264C85.1126 69.264 83.5926 69.136 82.3606 68.88C81.1286 68.608 80.1606 68.208 79.4566 67.68C78.7686 67.152 78.2806 66.536 77.9926 65.832C77.7046 65.128 77.5606 64.28 77.5606 63.288C77.5606 61.512 78.0966 60.016 79.1686 58.8C80.2566 57.568 81.5686 56.952 83.1046 56.952C84.6886 56.952 85.8726 57.544 86.6566 58.728C87.4566 59.896 87.7446 61.464 87.5206 63.432L79.4806 63.624C79.5766 65.032 80.1686 66.032 81.2566 66.624C82.3606 67.216 84.3126 67.544 87.1126 67.608L86.9206 69.264ZM82.7686 58.56C81.7926 58.56 81.0166 58.896 80.4406 59.568C79.8646 60.224 79.5446 61.176 79.4806 62.424C80.6486 62.376 82.7206 62.312 85.6966 62.232C85.6806 61.08 85.4246 60.184 84.9286 59.544C84.4486 58.888 83.7286 58.56 82.7686 58.56ZM96.1559 58.632C95.1479 58.632 94.1399 58.976 93.1319 59.664C93.1959 62.512 93.2279 65.624 93.2279 69H91.2839C91.2839 63.736 91.2279 59.84 91.1159 57.312L92.9159 57.192L93.0359 58.536C94.2839 57.496 95.5959 56.976 96.9719 56.976C99.3079 56.976 100.476 58.328 100.476 61.032V69H98.5319V61.68C98.5319 60.592 98.3319 59.816 97.9319 59.352C97.5319 58.872 96.9399 58.632 96.1559 58.632Z" fill="black"/>
<rect x="326" y="47" width="24" height="25" rx="12" fill="#C8B7BE"/>
<path d="M332.8 63V56.02H335.45C336.13 56.02 336.65 56.2133 337.01 56.6C337.37 56.9867 337.55 57.5133 337.55 58.18C337.55 58.8467 337.37 59.3733 337.01 59.76C336.65 60.1467 336.13 60.34 335.45 60.34H334.11V63H332.8ZM334.11 59.27H335.18C335.533 59.27 335.787 59.2 335.94 59.06C336.093 58.9133 336.17 58.6833 336.17 58.37V57.99C336.17 57.6767 336.093 57.45 335.94 57.31C335.787 57.1633 335.533 57.09 335.18 57.09H334.11V59.27ZM340.766 59.94L340.036 60.9V63H338.726V56.02H340.036V59.16H340.096L340.906 58L342.376 56.02H343.856L341.666 58.96L343.956 63H342.476L340.766 59.94Z" fill="black"/>
</g>
<line y1="79.5" x2="360" y2="79.5" stroke="#3D1A1A" stroke-opacity="0.2"/>
<line x1="0.5" y1="40" x2="0.499998" y2="79" stroke="#3D1A1A" stroke-opacity="0.2"/>
<line x1="359.5" y1="40" x2="359.5" y2="79" stroke="#3D1A1A" stroke-opacity="0.2"/>
<rect x="315" y="40" width="39" height="40" rx="19.5" fill="#D6CACD"/>
<path d="M323.1 67.5V53.54H328.4C329.76 53.54 330.8 53.9267 331.52 54.7C332.24 55.4733 332.6 56.5267 332.6 57.86C332.6 59.1933 332.24 60.2467 331.52 61.02C330.8 61.7933 329.76 62.18 328.4 62.18H325.72V67.5H323.1ZM325.72 60.04H327.86C328.567 60.04 329.073 59.9 329.38 59.62C329.687 59.3267 329.84 58.8667 329.84 58.24V57.48C329.84 56.8533 329.687 56.4 329.38 56.12C329.073 55.8267 328.567 55.68 327.86 55.68H325.72V60.04ZM339.032 61.38L337.572 63.3V67.5H334.952V53.54H337.572V59.82H337.692L339.312 57.5L342.252 53.54H345.212L340.832 59.42L345.412 67.5H342.452L339.032 61.38Z" fill="black"/>
<rect width="360" height="40" transform="translate(0 80)" fill="#C3C4A2" fill-opacity="0.15"/>
<g opacity="0.7">
<path d="M21.04 109.192C18.528 109.224 16.768 108.944 15.76 108.352C14.752 107.744 14.248 106.704 14.248 105.232V98.752H11.824L12.016 97.24H14.248V93.976L16.192 93.808V97.24H20.992V98.752H16.192V104.92C16.192 105.928 16.536 106.616 17.224 106.984C17.928 107.336 19.272 107.528 21.256 107.56L21.04 109.192ZM31.1633 95.344H29.1713L29.3153 92.08H31.3793L31.1633 95.344ZM35.5313 109H24.8993V107.512H29.3153V98.8L24.9233 98.608L25.0673 97.24H31.2593V107.512H35.6753L35.5313 109ZM42.5106 107.608C43.6146 107.608 44.5266 107.208 45.2466 106.408C45.9666 105.608 46.3266 104.496 46.3266 103.072C46.3266 101.648 46.0306 100.544 45.4386 99.76C44.8466 98.976 44.0706 98.584 43.1106 98.584C42.1826 98.584 41.2866 98.912 40.4226 99.568C40.4866 102.08 40.5266 104.64 40.5426 107.248C41.2306 107.488 41.8866 107.608 42.5106 107.608ZM40.5426 112.96L38.5986 113.128V109.048C38.5986 103.224 38.5506 99.312 38.4546 97.312L40.2306 97.192L40.3506 98.416C41.4226 97.456 42.5986 96.976 43.8786 96.976C45.1426 96.976 46.1826 97.488 46.9986 98.512C47.8306 99.536 48.2466 100.896 48.2466 102.592C48.2466 104.64 47.6226 106.272 46.3746 107.488C45.1426 108.688 43.6226 109.288 41.8146 109.288C41.3506 109.288 40.9266 109.256 40.5426 109.192V112.96ZM55.9219 109.336C54.4339 109.336 53.2259 108.8 52.2979 107.728C51.3699 106.656 50.9059 105.192 50.9059 103.336C50.9059 101.464 51.4419 99.928 52.5139 98.728C53.6019 97.528 54.9219 96.928 56.4739 96.928C57.9619 96.928 59.1619 97.464 60.0739 98.536C61.0019 99.592 61.4659 101.048 61.4659 102.904C61.4659 104.808 60.9299 106.36 59.8579 107.56C58.7859 108.744 57.4739 109.336 55.9219 109.336ZM56.2339 107.728C57.2259 107.728 58.0179 107.344 58.6099 106.576C59.2179 105.792 59.5219 104.688 59.5219 103.264C59.5219 101.76 59.2099 100.592 58.5859 99.76C57.9779 98.928 57.1619 98.512 56.1379 98.512C55.1619 98.512 54.3699 98.904 53.7619 99.688C53.1699 100.472 52.8739 101.568 52.8739 102.976C52.8739 104.48 53.1779 105.648 53.7859 106.48C54.3939 107.312 55.2099 107.728 56.2339 107.728ZM82.4806 107.68C83.3926 107.68 84.2646 107.344 85.0966 106.672C85.0486 104.624 85.0246 102.056 85.0246 98.968C84.3206 98.744 83.6726 98.632 83.0806 98.632C81.9606 98.632 81.0406 99.04 80.3206 99.856C79.6006 100.656 79.2406 101.776 79.2406 103.216C79.2406 104.672 79.5366 105.784 80.1286 106.552C80.7206 107.304 81.5046 107.68 82.4806 107.68ZM85.3126 109.048L85.1926 107.824C84.1526 108.8 83.0006 109.288 81.7366 109.288C80.4406 109.288 79.3766 108.792 78.5446 107.8C77.7286 106.792 77.3206 105.432 77.3206 103.72C77.3206 101.656 77.9606 100.016 79.2406 98.8C80.5206 97.584 82.0966 96.976 83.9686 96.976C84.3366 96.976 84.6886 97 85.0246 97.048V92.224L86.9686 92.056V97.288C86.9686 102.584 87.0246 106.472 87.1366 108.952L85.3126 109.048ZM100.116 109.264C98.3079 109.264 96.7879 109.136 95.5559 108.88C94.3239 108.608 93.3559 108.208 92.6519 107.68C91.9639 107.152 91.4759 106.536 91.1879 105.832C90.8999 105.128 90.7559 104.28 90.7559 103.288C90.7559 101.512 91.2919 100.016 92.3639 98.8C93.4519 97.568 94.7639 96.952 96.2999 96.952C97.8839 96.952 99.0679 97.544 99.8519 98.728C100.652 99.896 100.94 101.464 100.716 103.432L92.6759 103.624C92.7719 105.032 93.3639 106.032 94.4519 106.624C95.5559 107.216 97.5079 107.544 100.308 107.608L100.116 109.264ZM95.9639 98.56C94.9879 98.56 94.2119 98.896 93.6359 99.568C93.0599 100.224 92.7399 101.176 92.6759 102.424C93.8439 102.376 95.9159 102.312 98.8919 102.232C98.8759 101.08 98.6199 100.184 98.1239 99.544C97.6439 98.888 96.9239 98.56 95.9639 98.56ZM126.003 109H117.171V107.512H120.291C120.227 102.776 120.179 99.872 120.147 98.8L117.171 98.632L117.315 97.24H121.875C121.939 97.912 121.987 98.584 122.019 99.256C123.331 97.896 125.123 97.08 127.395 96.808L127.491 98.872C125.219 99.048 123.419 99.568 122.091 100.432C122.091 100.864 122.099 101.896 122.115 103.528C122.147 105.144 122.171 106.472 122.187 107.512H126.171L126.003 109ZM139.702 109.264C137.894 109.264 136.374 109.136 135.142 108.88C133.91 108.608 132.942 108.208 132.238 107.68C131.55 107.152 131.062 106.536 130.774 105.832C130.486 105.128 130.342 104.28 130.342 103.288C130.342 101.512 130.878 100.016 131.95 98.8C133.038 97.568 134.35 96.952 135.886 96.952C137.47 96.952 138.654 97.544 139.438 98.728C140.238 99.896 140.526 101.464 140.302 103.432L132.262 103.624C132.358 105.032 132.95 106.032 134.038 106.624C135.142 107.216 137.094 107.544 139.894 107.608L139.702 109.264ZM135.55 98.56C134.574 98.56 133.798 98.896 133.222 99.568C132.646 100.224 132.326 101.176 132.262 102.424C133.43 102.376 135.502 102.312 138.478 102.232C138.462 101.08 138.206 100.184 137.71 99.544C137.23 98.888 136.51 98.56 135.55 98.56ZM143.873 103.312C143.873 102.464 144.025 101.688 144.329 100.984C144.649 100.28 145.137 99.632 145.793 99.04C146.465 98.448 147.401 97.984 148.601 97.648C149.817 97.296 151.249 97.104 152.897 97.072L153.041 98.92C151.569 98.92 150.337 99.016 149.345 99.208C148.369 99.384 147.625 99.664 147.113 100.048C146.617 100.432 146.273 100.864 146.081 101.344C145.889 101.808 145.793 102.376 145.793 103.048C145.793 104.68 146.337 105.856 147.425 106.576C148.513 107.296 150.441 107.592 153.209 107.464L152.993 109.096C151.265 109.208 149.793 109.152 148.577 108.928C147.361 108.688 146.417 108.288 145.745 107.728C145.073 107.168 144.593 106.536 144.305 105.832C144.017 105.112 143.873 104.272 143.873 103.312ZM163.116 95.344H161.124L161.268 92.08H163.332L163.116 95.344ZM167.484 109H156.852V107.512H161.268V98.8L156.876 98.608L157.02 97.24H163.212V107.512H167.628L167.484 109ZM174.464 107.608C175.568 107.608 176.48 107.208 177.2 106.408C177.92 105.608 178.28 104.496 178.28 103.072C178.28 101.648 177.984 100.544 177.392 99.76C176.8 98.976 176.024 98.584 175.064 98.584C174.136 98.584 173.24 98.912 172.376 99.568C172.44 102.08 172.48 104.64 172.496 107.248C173.184 107.488 173.84 107.608 174.464 107.608ZM172.496 112.96L170.552 113.128V109.048C170.552 103.224 170.504 99.312 170.408 97.312L172.184 97.192L172.304 98.416C173.376 97.456 174.552 96.976 175.832 96.976C177.096 96.976 178.136 97.488 178.952 98.512C179.784 99.536 180.2 100.896 180.2 102.592C180.2 104.64 179.576 106.272 178.328 107.488C177.096 108.688 175.576 109.288 173.768 109.288C173.304 109.288 172.88 109.256 172.496 109.192V112.96ZM189.507 95.344H187.515L187.659 92.08H189.723L189.507 95.344ZM193.875 109H183.243V107.512H187.659V98.8L183.267 98.608L183.411 97.24H189.603V107.512H194.019L193.875 109ZM205.678 109.264C203.87 109.264 202.35 109.136 201.118 108.88C199.886 108.608 198.918 108.208 198.214 107.68C197.526 107.152 197.038 106.536 196.75 105.832C196.462 105.128 196.318 104.28 196.318 103.288C196.318 101.512 196.854 100.016 197.926 98.8C199.014 97.568 200.326 96.952 201.862 96.952C203.446 96.952 204.63 97.544 205.414 98.728C206.214 99.896 206.502 101.464 206.278 103.432L198.238 103.624C198.334 105.032 198.926 106.032 200.014 106.624C201.118 107.216 203.07 107.544 205.87 107.608L205.678 109.264ZM201.526 98.56C200.55 98.56 199.774 98.896 199.198 99.568C198.622 100.224 198.302 101.176 198.238 102.424C199.406 102.376 201.478 102.312 204.454 102.232C204.438 101.08 204.182 100.184 203.686 99.544C203.206 98.888 202.486 98.56 201.526 98.56ZM214.914 98.632C213.906 98.632 212.898 98.976 211.89 99.664C211.954 102.512 211.986 105.624 211.986 109H210.042C210.042 103.736 209.986 99.84 209.874 97.312L211.674 97.192L211.794 98.536C213.042 97.496 214.354 96.976 215.73 96.976C218.066 96.976 219.234 98.328 219.234 101.032V109H217.29V101.68C217.29 100.592 217.09 99.816 216.69 99.352C216.29 98.872 215.698 98.632 214.914 98.632ZM232.165 109.192C229.653 109.224 227.893 108.944 226.885 108.352C225.877 107.744 225.373 106.704 225.373 105.232V98.752H222.949L223.141 97.24H225.373V93.976L227.317 93.808V97.24H232.117V98.752H227.317V104.92C227.317 105.928 227.661 106.616 228.349 106.984C229.053 107.336 230.397 107.528 232.381 107.56L232.165 109.192ZM245.264 109.264C243.456 109.264 241.936 109.136 240.704 108.88C239.472 108.608 238.504 108.208 237.8 107.68C237.112 107.152 236.624 106.536 236.336 105.832C236.048 105.128 235.904 104.28 235.904 103.288C235.904 101.512 236.44 100.016 237.512 98.8C238.6 97.568 239.912 96.952 241.448 96.952C243.032 96.952 244.216 97.544 245 98.728C245.8 99.896 246.088 101.464 245.864 103.432L237.824 103.624C237.92 105.032 238.512 106.032 239.6 106.624C240.704 107.216 242.656 107.544 245.456 107.608L245.264 109.264ZM241.112 98.56C240.136 98.56 239.36 98.896 238.784 99.568C238.208 100.224 237.888 101.176 237.824 102.424C238.992 102.376 241.064 102.312 244.04 102.232C244.024 101.08 243.768 100.184 243.272 99.544C242.792 98.888 242.072 98.56 241.112 98.56Z" fill="black"/>
<rect x="326" y="87" width="24" height="25" rx="12" fill="#C8B7BE"/>
<path d="M332.8 103V96.02H335.45C336.13 96.02 336.65 96.2133 337.01 96.6C337.37 96.9867 337.55 97.5133 337.55 98.18C337.55 98.8467 337.37 99.3733 337.01 99.76C336.65 100.147 336.13 100.34 335.45 100.34H334.11V103H332.8ZM334.11 99.27H335.18C335.533 99.27 335.787 99.2 335.94 99.06C336.093 98.9133 336.17 98.6833 336.17 98.37V97.99C336.17 97.6767 336.093 97.45 335.94 97.31C335.787 97.1633 335.533 97.09 335.18 97.09H334.11V99.27ZM340.766 99.94L340.036 100.9V103H338.726V96.02H340.036V99.16H340.096L340.906 98L342.376 96.02H343.856L341.666 98.96L343.956 103H342.476L340.766 99.94Z" fill="black"/>
</g>
<line y1="119.5" x2="360" y2="119.5" stroke="#3D1A1A" stroke-opacity="0.2"/>
<line x1="0.5" y1="80" x2="0.499998" y2="119" stroke="#3D1A1A" stroke-opacity="0.2"/>
<line x1="359.5" y1="80" x2="359.5" y2="119" stroke="#3D1A1A" stroke-opacity="0.2"/>
<rect x="315" y="80" width="39" height="40" rx="19.5" fill="#D6CACD"/>
<path d="M323.1 107.5V93.54H328.4C329.76 93.54 330.8 93.9267 331.52 94.7C332.24 95.4733 332.6 96.5267 332.6 97.86C332.6 99.1933 332.24 100.247 331.52 101.02C330.8 101.793 329.76 102.18 328.4 102.18H325.72V107.5H323.1ZM325.72 100.04H327.86C328.567 100.04 329.073 99.9 329.38 99.62C329.687 99.3267 329.84 98.8667 329.84 98.24V97.48C329.84 96.8533 329.687 96.4 329.38 96.12C329.073 95.8267 328.567 95.68 327.86 95.68H325.72V100.04ZM339.032 101.38L337.572 103.3V107.5H334.952V93.54H337.572V99.82H337.692L339.312 97.5L342.252 93.54H345.212L340.832 99.42L345.412 107.5H342.452L339.032 101.38Z" fill="black"/>
</svg>
