<svg width="360" height="160" viewBox="0 0 360 160" fill="none" xmlns="http://www.w3.org/2000/svg">
<path d="M0 5C0 2.23858 2.23858 0 5 0H355C357.761 0 360 2.23858 360 5V40H0V5Z" fill="#836B7F"/>
<path d="M20.472 12.276C22.1707 12.276 23.3653 12.8453 24.056 13.984C24.7467 15.104 25.036 16.8773 24.924 19.304L21.144 19.36C21.1813 18.016 21.0973 17.092 20.892 16.588C20.6867 16.084 20.2667 15.832 19.632 15.832C18.8293 15.832 18.092 16.2147 17.42 16.98C16.7667 17.7267 16.272 18.6507 15.936 19.752C15.6 20.8347 15.432 21.9173 15.432 23C15.432 24.848 16.0387 26.0053 17.252 26.472C18.484 26.9387 20.5187 26.7427 23.356 25.884L22.936 29.412C19.1653 30.6067 16.3 30.6813 14.34 29.636C12.38 28.5907 11.4 26.5747 11.4 23.588C11.4 20.5827 12.296 17.9507 14.088 15.692C15.88 13.4147 18.008 12.276 20.472 12.276ZM26.7105 24.512C26.7105 22.0293 27.4479 19.892 28.9225 18.1C30.4159 16.2893 32.2825 15.384 34.5225 15.384C36.2399 15.384 37.5932 15.916 38.5825 16.98C39.5905 18.0253 40.0945 19.4533 40.0945 21.264C40.0945 23.7467 39.3479 25.8933 37.8545 27.704C36.3799 29.496 34.5225 30.392 32.2825 30.392C30.5652 30.392 29.2025 29.8693 28.1945 28.824C27.2052 27.76 26.7105 26.3227 26.7105 24.512ZM36.1465 21.74C36.1465 20.732 35.9505 19.9573 35.5585 19.416C35.1852 18.856 34.6719 18.576 34.0185 18.576C33.0479 18.576 32.2452 19.136 31.6105 20.256C30.9759 21.3573 30.6585 22.6173 30.6585 24.036C30.6585 25.044 30.8452 25.828 31.2185 26.388C31.6105 26.9293 32.1332 27.2 32.7865 27.2C33.7572 27.2 34.5599 26.6493 35.1945 25.548C35.8292 24.428 36.1465 23.1587 36.1465 21.74ZM55.0131 28.264C52.3251 29.776 50.0851 30.4387 48.2931 30.252C46.5197 30.0653 45.3344 29.0573 44.7371 27.228L43.3371 28.04L42.4411 26.528L44.3451 25.324C44.3077 24.8013 44.2891 24.4 44.2891 24.12C44.2891 21.6373 44.7371 19.3133 45.6331 17.148C46.5477 14.964 47.7051 13.256 49.1051 12.024C50.5237 10.792 51.9704 10.176 53.4451 10.176C54.4157 10.176 55.1717 10.4747 55.7131 11.072C56.2731 11.6507 56.5531 12.4813 56.5531 13.564C56.5531 15.3373 55.8437 17.2227 54.4251 19.22C53.0251 21.2173 51.0184 23.2053 48.4051 25.184C48.6664 26.3227 49.2824 26.976 50.2531 27.144C51.2424 27.312 52.6611 27.06 54.5091 26.388L55.0131 28.264ZM52.0171 13.984C51.1397 13.984 50.3091 14.8147 49.5251 16.476C48.7411 18.1187 48.3117 20.2187 48.2371 22.776C49.7864 21.3387 50.9624 19.9573 51.7651 18.632C52.5864 17.3067 52.9971 16.1867 52.9971 15.272C52.9971 14.4133 52.6704 13.984 52.0171 13.984ZM58.0596 24.512C58.0596 22.0293 58.7969 19.892 60.2716 18.1C61.7649 16.2893 63.6316 15.384 65.8716 15.384C67.5889 15.384 68.9423 15.916 69.9316 16.98C70.9396 18.0253 71.4436 19.4533 71.4436 21.264C71.4436 23.7467 70.6969 25.8933 69.2036 27.704C67.7289 29.496 65.8716 30.392 63.6316 30.392C61.9143 30.392 60.5516 29.8693 59.5436 28.824C58.5543 27.76 58.0596 26.3227 58.0596 24.512ZM67.4956 21.74C67.4956 20.732 67.2996 19.9573 66.9076 19.416C66.5343 18.856 66.0209 18.576 65.3676 18.576C64.3969 18.576 63.5943 19.136 62.9596 20.256C62.3249 21.3573 62.0076 22.6173 62.0076 24.036C62.0076 25.044 62.1943 25.828 62.5676 26.388C62.9596 26.9293 63.4823 27.2 64.1356 27.2C65.1063 27.2 65.9089 26.6493 66.5436 25.548C67.1783 24.428 67.4956 23.1587 67.4956 21.74ZM86.8661 29.02C83.2448 30.6627 81.0421 30.8027 80.2581 29.44C79.4741 28.0587 80.1461 24.9413 82.2741 20.088C81.2475 20.3307 80.3701 20.4707 79.6421 20.508C78.6528 22.1507 77.0288 24.064 74.7701 26.248L73.4261 24.82C75.0688 22.9907 76.2355 21.4973 76.9261 20.34C75.6941 20.0227 75.0781 19.4067 75.0781 18.492C75.0781 17.6147 75.4981 16.784 76.3381 16C77.1968 15.216 78.1395 14.824 79.1661 14.824C79.7075 14.824 80.1368 14.992 80.4541 15.328C80.7901 15.664 80.9581 16.1307 80.9581 16.728C80.9581 16.952 80.9488 17.12 80.9301 17.232C82.7221 16.8773 84.2435 16.364 85.4941 15.692L87.3701 16.504C85.1861 21.6747 84.0568 24.8667 83.9821 26.08C83.9261 26.864 84.2248 27.2747 84.8781 27.312C85.2141 27.3307 85.8115 27.2467 86.6701 27.06L86.8661 29.02ZM102.121 28.32C100.105 29.328 98.2753 29.9533 96.6327 30.196C94.99 30.4573 93.6647 30.364 92.6567 29.916C91.6487 29.468 90.874 28.8147 90.3327 27.956C89.81 27.0787 89.5487 26.052 89.5487 24.876C89.5487 23.364 89.9407 21.88 90.7247 20.424C91.5087 18.968 92.6007 17.764 94.0007 16.812C95.4007 15.86 96.894 15.384 98.4807 15.384C99.806 15.384 100.851 15.72 101.617 16.392C102.401 17.0453 102.793 17.9507 102.793 19.108C102.793 20.7507 101.981 22.0573 100.357 23.028C98.7513 23.9987 96.3993 24.596 93.3007 24.82C93.3567 25.66 93.6367 26.248 94.1407 26.584C94.6633 26.9013 95.494 27.0413 96.6327 27.004C97.79 26.9667 99.498 26.7427 101.757 26.332L102.121 28.32ZM97.3887 18.52C96.474 18.52 95.662 18.9307 94.9527 19.752C94.2433 20.5547 93.758 21.5533 93.4967 22.748C97.2487 22.4867 99.1247 21.572 99.1247 20.004C99.1247 19.556 98.966 19.2013 98.6487 18.94C98.3313 18.66 97.9113 18.52 97.3887 18.52ZM117.627 25.548C117.627 26.22 117.45 26.8267 117.095 27.368C116.759 27.9093 116.209 28.4133 115.443 28.88C114.678 29.3467 113.586 29.7013 112.167 29.944C110.767 30.1867 109.087 30.2987 107.127 30.28L107.211 26.78C109.657 26.9107 111.355 26.9013 112.307 26.752C113.278 26.584 113.763 26.248 113.763 25.744C113.763 25.5573 113.717 25.352 113.623 25.128C113.53 24.904 113.371 24.6613 113.147 24.4C112.942 24.1387 112.746 23.9053 112.559 23.7C112.373 23.4947 112.111 23.224 111.775 22.888C111.458 22.5333 111.206 22.2533 111.019 22.048C109.881 22.7947 108.397 23.616 106.567 24.512L105.755 22.776C107.529 21.6933 108.835 20.8253 109.675 20.172C109.358 19.5373 109.199 18.9493 109.199 18.408C109.199 17.3627 109.629 16.532 110.487 15.916C111.346 15.2813 112.335 14.964 113.455 14.964C114.743 14.964 115.499 15.3933 115.723 16.252C115.947 17.1107 115.406 18.24 114.099 19.64C114.23 19.808 114.669 20.34 115.415 21.236C116.181 22.1133 116.741 22.8787 117.095 23.532C117.45 24.1853 117.627 24.8573 117.627 25.548Z" fill="#EEEEEE"/>
<rect width="360" height="40" transform="translate(0 40)" fill="#C3C4A2" fill-opacity="0.15"/>
<g opacity="0.7">
<path d="M11.92 63.312C11.92 62.464 12.072 61.688 12.376 60.984C12.696 60.28 13.184 59.632 13.84 59.04C14.512 58.448 15.448 57.984 16.648 57.648C17.864 57.296 19.296 57.104 20.944 57.072L21.088 58.92C19.616 58.92 18.384 59.016 17.392 59.208C16.416 59.384 15.672 59.664 15.16 60.048C14.664 60.432 14.32 60.864 14.128 61.344C13.936 61.808 13.84 62.376 13.84 63.048C13.84 64.68 14.384 65.856 15.472 66.576C16.56 67.296 18.488 67.592 21.256 67.464L21.04 69.096C19.312 69.208 17.84 69.152 16.624 68.928C15.408 68.688 14.464 68.288 13.792 67.728C13.12 67.168 12.64 66.536 12.352 65.832C12.064 65.112 11.92 64.272 11.92 63.312ZM29.5313 69.336C28.0433 69.336 26.8353 68.8 25.9073 67.728C24.9793 66.656 24.5153 65.192 24.5153 63.336C24.5153 61.464 25.0513 59.928 26.1233 58.728C27.2113 57.528 28.5313 56.928 30.0833 56.928C31.5713 56.928 32.7713 57.464 33.6833 58.536C34.6113 59.592 35.0753 61.048 35.0753 62.904C35.0753 64.808 34.5393 66.36 33.4673 67.56C32.3953 68.744 31.0833 69.336 29.5313 69.336ZM29.8433 67.728C30.8353 67.728 31.6273 67.344 32.2193 66.576C32.8273 65.792 33.1313 64.688 33.1313 63.264C33.1313 61.76 32.8193 60.592 32.1953 59.76C31.5873 58.928 30.7713 58.512 29.7473 58.512C28.7713 58.512 27.9793 58.904 27.3713 59.688C26.7793 60.472 26.4833 61.568 26.4833 62.976C26.4833 64.48 26.7873 65.648 27.3953 66.48C28.0033 67.312 28.8193 67.728 29.8433 67.728ZM47.7186 69H38.2626V67.512H42.0786V53.808L38.4546 53.64L38.6226 52.248H44.0466V67.512H47.8866L47.7186 69ZM55.9219 69.336C54.4339 69.336 53.2259 68.8 52.2979 67.728C51.3699 66.656 50.9059 65.192 50.9059 63.336C50.9059 61.464 51.4419 59.928 52.5139 58.728C53.6019 57.528 54.9219 56.928 56.4739 56.928C57.9619 56.928 59.1619 57.464 60.0739 58.536C61.0019 59.592 61.4659 61.048 61.4659 62.904C61.4659 64.808 60.9299 66.36 59.8579 67.56C58.7859 68.744 57.4739 69.336 55.9219 69.336ZM56.2339 67.728C57.2259 67.728 58.0179 67.344 58.6099 66.576C59.2179 65.792 59.5219 64.688 59.5219 63.264C59.5219 61.76 59.2099 60.592 58.5859 59.76C57.9779 58.928 57.1619 58.512 56.1379 58.512C55.1619 58.512 54.3699 58.904 53.7619 59.688C53.1699 60.472 52.8739 61.568 52.8739 62.976C52.8739 64.48 53.1779 65.648 53.7859 66.48C54.3939 67.312 55.2099 67.728 56.2339 67.728ZM73.2213 69H64.3893V67.512H67.5093C67.4453 62.776 67.3973 59.872 67.3653 58.8L64.3893 58.632L64.5333 57.24H69.0933C69.1573 57.912 69.2053 58.584 69.2373 59.256C70.5493 57.896 72.3413 57.08 74.6133 56.808L74.7093 58.872C72.4373 59.048 70.6373 59.568 69.3093 60.432C69.3093 60.864 69.3173 61.896 69.3333 63.528C69.3653 65.144 69.3893 66.472 69.4053 67.512H73.3893L73.2213 69Z" fill="black"/>
</g>
<line y1="79.5" x2="360" y2="79.5" stroke="#3D1A1A" stroke-opacity="0.2"/>
<line x1="0.5" y1="40" x2="0.499998" y2="79" stroke="#3D1A1A" stroke-opacity="0.2"/>
<line x1="359.5" y1="40" x2="359.5" y2="79" stroke="#3D1A1A" stroke-opacity="0.2"/>
<rect width="360" height="40" transform="translate(0 80)" fill="#C3C4A2" fill-opacity="0.15"/>
<g opacity="0.7">
<path d="M11.92 103.312C11.92 102.464 12.072 101.688 12.376 100.984C12.696 100.28 13.184 99.632 13.84 99.04C14.512 98.448 15.448 97.984 16.648 97.648C17.864 97.296 19.296 97.104 20.944 97.072L21.088 98.92C19.616 98.92 18.384 99.016 17.392 99.208C16.416 99.384 15.672 99.664 15.16 100.048C14.664 100.432 14.32 100.864 14.128 101.344C13.936 101.808 13.84 102.376 13.84 103.048C13.84 104.68 14.384 105.856 15.472 106.576C16.56 107.296 18.488 107.592 21.256 107.464L21.04 109.096C19.312 109.208 17.84 109.152 16.624 108.928C15.408 108.688 14.464 108.288 13.792 107.728C13.12 107.168 12.64 106.536 12.352 105.832C12.064 105.112 11.92 104.272 11.92 103.312ZM29.5313 109.336C28.0433 109.336 26.8353 108.8 25.9073 107.728C24.9793 106.656 24.5153 105.192 24.5153 103.336C24.5153 101.464 25.0513 99.928 26.1233 98.728C27.2113 97.528 28.5313 96.928 30.0833 96.928C31.5713 96.928 32.7713 97.464 33.6833 98.536C34.6113 99.592 35.0753 101.048 35.0753 102.904C35.0753 104.808 34.5393 106.36 33.4673 107.56C32.3953 108.744 31.0833 109.336 29.5313 109.336ZM29.8433 107.728C30.8353 107.728 31.6273 107.344 32.2193 106.576C32.8273 105.792 33.1313 104.688 33.1313 103.264C33.1313 101.76 32.8193 100.592 32.1953 99.76C31.5873 98.928 30.7713 98.512 29.7473 98.512C28.7713 98.512 27.9793 98.904 27.3713 99.688C26.7793 100.472 26.4833 101.568 26.4833 102.976C26.4833 104.48 26.7873 105.648 27.3953 106.48C28.0033 107.312 28.8193 107.728 29.8433 107.728ZM42.8946 107.68C43.8066 107.68 44.6786 107.344 45.5106 106.672C45.4626 104.624 45.4386 102.056 45.4386 98.968C44.7346 98.744 44.0866 98.632 43.4946 98.632C42.3746 98.632 41.4546 99.04 40.7346 99.856C40.0146 100.656 39.6546 101.776 39.6546 103.216C39.6546 104.672 39.9506 105.784 40.5426 106.552C41.1346 107.304 41.9186 107.68 42.8946 107.68ZM45.7266 109.048L45.6066 107.824C44.5666 108.8 43.4146 109.288 42.1506 109.288C40.8546 109.288 39.7906 108.792 38.9586 107.8C38.1426 106.792 37.7346 105.432 37.7346 103.72C37.7346 101.656 38.3746 100.016 39.6546 98.8C40.9346 97.584 42.5106 96.976 44.3826 96.976C44.7506 96.976 45.1026 97 45.4386 97.048V92.224L47.3826 92.056V97.288C47.3826 102.584 47.4386 106.472 47.5506 108.952L45.7266 109.048ZM57.4819 109H54.6259L54.7699 106.216H57.6259L57.4819 109ZM87.3046 109H77.8486V107.512H81.6646V93.808L78.0406 93.64L78.2086 92.248H83.6326V107.512H87.4726L87.3046 109ZM93.7559 94.744C94.4439 94.264 95.2439 93.608 96.1559 92.776C97.0679 91.928 97.8119 91.16 98.3879 90.472L99.9479 91.984C99.2919 92.576 98.4119 93.224 97.3079 93.928C96.2039 94.616 95.2039 95.176 94.3079 95.608L93.7559 94.744ZM101.508 109H90.8759V107.512H95.2919V98.8L90.8999 98.608L91.0439 97.24H97.2359V107.512H101.652L101.508 109ZM111.463 113.104V107.944C110.439 108.856 109.327 109.312 108.127 109.312C106.831 109.312 105.767 108.808 104.935 107.8C104.119 106.792 103.711 105.432 103.711 103.72C103.711 101.672 104.343 100.04 105.607 98.824C106.887 97.592 108.407 96.976 110.167 96.976C111.287 96.976 112.367 97.176 113.407 97.576V112.936L111.463 113.104ZM108.847 107.68C109.727 107.68 110.599 107.344 111.463 106.672V99.016C110.759 98.76 110.087 98.632 109.447 98.632C108.327 98.632 107.407 99.04 106.687 99.856C105.983 100.656 105.631 101.784 105.631 103.24C105.631 104.68 105.919 105.784 106.495 106.552C107.087 107.304 107.871 107.68 108.847 107.68ZM125.019 109.048L124.899 107.704C123.619 108.76 122.315 109.288 120.987 109.288C118.683 109.288 117.531 107.928 117.531 105.208V97.312L119.475 97.168V104.56C119.475 105.664 119.667 106.456 120.051 106.936C120.451 107.4 121.035 107.632 121.803 107.632C122.811 107.632 123.811 107.272 124.803 106.552C124.739 103.736 124.707 100.632 124.707 97.24H126.651C126.651 102.504 126.707 106.4 126.819 108.928L125.019 109.048ZM136.726 95.344H134.734L134.878 92.08H136.942L136.726 95.344ZM141.094 109H130.462V107.512H134.878V98.8L130.486 98.608L130.63 97.24H136.822V107.512H141.238L141.094 109ZM148.457 107.68C149.369 107.68 150.241 107.344 151.073 106.672C151.025 104.624 151.001 102.056 151.001 98.968C150.297 98.744 149.649 98.632 149.057 98.632C147.937 98.632 147.017 99.04 146.297 99.856C145.577 100.656 145.217 101.776 145.217 103.216C145.217 104.672 145.513 105.784 146.105 106.552C146.697 107.304 147.481 107.68 148.457 107.68ZM151.289 109.048L151.169 107.824C150.129 108.8 148.977 109.288 147.713 109.288C146.417 109.288 145.353 108.792 144.521 107.8C143.705 106.792 143.297 105.432 143.297 103.72C143.297 101.656 143.937 100.016 145.217 98.8C146.497 97.584 148.073 96.976 149.945 96.976C150.313 96.976 150.665 97 151.001 97.048V92.224L152.945 92.056V97.288C152.945 102.584 153.001 106.472 153.113 108.952L151.289 109.048ZM161.484 109.336C159.996 109.336 158.788 108.8 157.86 107.728C156.932 106.656 156.468 105.192 156.468 103.336C156.468 101.464 157.004 99.928 158.076 98.728C159.164 97.528 160.484 96.928 162.036 96.928C163.524 96.928 164.724 97.464 165.636 98.536C166.564 99.592 167.028 101.048 167.028 102.904C167.028 104.808 166.492 106.36 165.42 107.56C164.348 108.744 163.036 109.336 161.484 109.336ZM161.796 107.728C162.788 107.728 163.58 107.344 164.172 106.576C164.78 105.792 165.084 104.688 165.084 103.264C165.084 101.76 164.772 100.592 164.148 99.76C163.54 98.928 162.724 98.512 161.7 98.512C160.724 98.512 159.932 98.904 159.324 99.688C158.732 100.472 158.436 101.568 158.436 102.976C158.436 104.48 158.74 105.648 159.348 106.48C159.956 107.312 160.772 107.728 161.796 107.728Z" fill="black"/>
</g>
<line y1="119.5" x2="360" y2="119.5" stroke="#3D1A1A" stroke-opacity="0.2"/>
<line x1="0.5" y1="80" x2="0.499998" y2="119" stroke="#3D1A1A" stroke-opacity="0.2"/>
<line x1="359.5" y1="80" x2="359.5" y2="119" stroke="#3D1A1A" stroke-opacity="0.2"/>
<rect x="284" y="83" width="32" height="33" rx="16" fill="#C3C4A2"/>
<path d="M291.994 108.5V95.936H300.202V97.88H294.352V101.156H299.626V103.1H294.352V108.5H291.994ZM306.279 102.992L304.965 104.72V108.5H302.607V95.936H304.965V101.588H305.073L306.531 99.5L309.177 95.936H311.841L307.899 101.228L312.021 108.5H309.357L306.279 102.992Z" fill="black"/>
<rect x="322" y="43" width="32" height="33" rx="16" fill="#836B7F"/>
<path d="M329.94 68.5V55.936H334.71C335.934 55.936 336.87 56.284 337.518 56.98C338.166 57.676 338.49 58.624 338.49 59.824C338.49 61.024 338.166 61.972 337.518 62.668C336.87 63.364 335.934 63.712 334.71 63.712H332.298V68.5H329.94ZM332.298 61.786H334.224C334.86 61.786 335.316 61.66 335.592 61.408C335.868 61.144 336.006 60.73 336.006 60.166V59.482C336.006 58.918 335.868 58.51 335.592 58.258C335.316 57.994 334.86 57.862 334.224 57.862H332.298V61.786ZM344.279 62.992L342.965 64.72V68.5H340.607V55.936H342.965V61.588H343.073L344.531 59.5L347.177 55.936H349.841L345.899 61.228L350.021 68.5H347.357L344.279 62.992Z" fill="white"/>
<rect x="322" y="83" width="32" height="33" rx="16" fill="#836B7F"/>
<path d="M329.94 108.5V95.936H334.71C335.934 95.936 336.87 96.284 337.518 96.98C338.166 97.676 338.49 98.624 338.49 99.824C338.49 101.024 338.166 101.972 337.518 102.668C336.87 103.364 335.934 103.712 334.71 103.712H332.298V108.5H329.94ZM332.298 101.786H334.224C334.86 101.786 335.316 101.66 335.592 101.408C335.868 101.144 336.006 100.73 336.006 100.166V99.482C336.006 98.918 335.868 98.51 335.592 98.258C335.316 97.994 334.86 97.862 334.224 97.862H332.298V101.786ZM344.279 102.992L342.965 104.72V108.5H340.607V95.936H342.965V101.588H343.073L344.531 99.5L347.177 95.936H349.841L345.899 101.228L350.021 108.5H347.357L344.279 102.992Z" fill="white"/>
<rect x="284" y="123" width="32" height="33" rx="16" fill="#C3C4A2"/>
<path d="M291.994 148.5V135.936H300.202V137.88H294.352V141.156H299.626V143.1H294.352V148.5H291.994ZM306.279 142.992L304.965 144.72V148.5H302.607V135.936H304.965V141.588H305.073L306.531 139.5L309.177 135.936H311.841L307.899 141.228L312.021 148.5H309.357L306.279 142.992Z" fill="black"/>
<rect width="360" height="40" transform="translate(0 120)" fill="#C3C4A2" fill-opacity="0.15"/>
<g opacity="0.7">
<path d="M11.92 143.312C11.92 142.464 12.072 141.688 12.376 140.984C12.696 140.28 13.184 139.632 13.84 139.04C14.512 138.448 15.448 137.984 16.648 137.648C17.864 137.296 19.296 137.104 20.944 137.072L21.088 138.92C19.616 138.92 18.384 139.016 17.392 139.208C16.416 139.384 15.672 139.664 15.16 140.048C14.664 140.432 14.32 140.864 14.128 141.344C13.936 141.808 13.84 142.376 13.84 143.048C13.84 144.68 14.384 145.856 15.472 146.576C16.56 147.296 18.488 147.592 21.256 147.464L21.04 149.096C19.312 149.208 17.84 149.152 16.624 148.928C15.408 148.688 14.464 148.288 13.792 147.728C13.12 147.168 12.64 146.536 12.352 145.832C12.064 145.112 11.92 144.272 11.92 143.312ZM29.5313 149.336C28.0433 149.336 26.8353 148.8 25.9073 147.728C24.9793 146.656 24.5153 145.192 24.5153 143.336C24.5153 141.464 25.0513 139.928 26.1233 138.728C27.2113 137.528 28.5313 136.928 30.0833 136.928C31.5713 136.928 32.7713 137.464 33.6833 138.536C34.6113 139.592 35.0753 141.048 35.0753 142.904C35.0753 144.808 34.5393 146.36 33.4673 147.56C32.3953 148.744 31.0833 149.336 29.5313 149.336ZM29.8433 147.728C30.8353 147.728 31.6273 147.344 32.2193 146.576C32.8273 145.792 33.1313 144.688 33.1313 143.264C33.1313 141.76 32.8193 140.592 32.1953 139.76C31.5873 138.928 30.7713 138.512 29.7473 138.512C28.7713 138.512 27.9793 138.904 27.3713 139.688C26.7793 140.472 26.4833 141.568 26.4833 142.976C26.4833 144.48 26.7873 145.648 27.3953 146.48C28.0033 147.312 28.8193 147.728 29.8433 147.728ZM42.8946 147.68C43.8066 147.68 44.6786 147.344 45.5106 146.672C45.4626 144.624 45.4386 142.056 45.4386 138.968C44.7346 138.744 44.0866 138.632 43.4946 138.632C42.3746 138.632 41.4546 139.04 40.7346 139.856C40.0146 140.656 39.6546 141.776 39.6546 143.216C39.6546 144.672 39.9506 145.784 40.5426 146.552C41.1346 147.304 41.9186 147.68 42.8946 147.68ZM45.7266 149.048L45.6066 147.824C44.5666 148.8 43.4146 149.288 42.1506 149.288C40.8546 149.288 39.7906 148.792 38.9586 147.8C38.1426 146.792 37.7346 145.432 37.7346 143.72C37.7346 141.656 38.3746 140.016 39.6546 138.8C40.9346 137.584 42.5106 136.976 44.3826 136.976C44.7506 136.976 45.1026 137 45.4386 137.048V132.224L47.3826 132.056V137.288C47.3826 142.584 47.4386 146.472 47.5506 148.952L45.7266 149.048ZM57.4819 149H54.6259L54.7699 146.216H57.6259L57.4819 149ZM86.4166 149H77.5846V147.512H80.7046C80.6406 142.776 80.5926 139.872 80.5606 138.8L77.5846 138.632L77.7286 137.24H82.2886C82.3526 137.912 82.4006 138.584 82.4326 139.256C83.7446 137.896 85.5366 137.08 87.8086 136.808L87.9046 138.872C85.6326 139.048 83.8326 139.568 82.5046 140.432C82.5046 140.864 82.5126 141.896 82.5286 143.528C82.5606 145.144 82.5846 146.472 82.6006 147.512H86.5846L86.4166 149ZM100.116 149.264C98.3079 149.264 96.7879 149.136 95.5559 148.88C94.3239 148.608 93.3559 148.208 92.6519 147.68C91.9639 147.152 91.4759 146.536 91.1879 145.832C90.8999 145.128 90.7559 144.28 90.7559 143.288C90.7559 141.512 91.2919 140.016 92.3639 138.8C93.4519 137.568 94.7639 136.952 96.2999 136.952C97.8839 136.952 99.0679 137.544 99.8519 138.728C100.652 139.896 100.94 141.464 100.716 143.432L92.6759 143.624C92.7719 145.032 93.3639 146.032 94.4519 146.624C95.5559 147.216 97.5079 147.544 100.308 147.608L100.116 149.264ZM95.9639 138.56C94.9879 138.56 94.2119 138.896 93.6359 139.568C93.0599 140.224 92.7399 141.176 92.6759 142.424C93.8439 142.376 95.9159 142.312 98.8919 142.232C98.8759 141.08 98.6199 140.184 98.1239 139.544C97.6439 138.888 96.9239 138.56 95.9639 138.56ZM104.287 143.312C104.287 142.464 104.439 141.688 104.743 140.984C105.063 140.28 105.551 139.632 106.207 139.04C106.879 138.448 107.815 137.984 109.015 137.648C110.231 137.296 111.663 137.104 113.311 137.072L113.455 138.92C111.983 138.92 110.751 139.016 109.759 139.208C108.783 139.384 108.039 139.664 107.527 140.048C107.031 140.432 106.687 140.864 106.495 141.344C106.303 141.808 106.207 142.376 106.207 143.048C106.207 144.68 106.751 145.856 107.839 146.576C108.927 147.296 110.855 147.592 113.623 147.464L113.407 149.096C111.679 149.208 110.207 149.152 108.991 148.928C107.775 148.688 106.831 148.288 106.159 147.728C105.487 147.168 105.007 146.536 104.719 145.832C104.431 145.112 104.287 144.272 104.287 143.312ZM123.531 135.344H121.539L121.683 132.08H123.747L123.531 135.344ZM127.898 149H117.267V147.512H121.683V138.8L117.291 138.608L117.435 137.24H123.627V147.512H128.043L127.898 149ZM134.878 147.608C135.982 147.608 136.894 147.208 137.614 146.408C138.334 145.608 138.694 144.496 138.694 143.072C138.694 141.648 138.398 140.544 137.806 139.76C137.214 138.976 136.438 138.584 135.478 138.584C134.55 138.584 133.654 138.912 132.79 139.568C132.854 142.08 132.894 144.64 132.91 147.248C133.598 147.488 134.254 147.608 134.878 147.608ZM132.91 152.96L130.966 153.128V149.048C130.966 143.224 130.918 139.312 130.822 137.312L132.598 137.192L132.718 138.416C133.79 137.456 134.966 136.976 136.246 136.976C137.51 136.976 138.55 137.488 139.366 138.512C140.198 139.536 140.614 140.896 140.614 142.592C140.614 144.64 139.99 146.272 138.742 147.488C137.51 148.688 135.99 149.288 134.182 149.288C133.718 149.288 133.294 149.256 132.91 149.192V152.96ZM149.921 135.344H147.929L148.073 132.08H150.137L149.921 135.344ZM154.289 149H143.657V147.512H148.073V138.8L143.681 138.608L143.825 137.24H150.017V147.512H154.433L154.289 149ZM166.092 149.264C164.284 149.264 162.764 149.136 161.532 148.88C160.3 148.608 159.332 148.208 158.628 147.68C157.94 147.152 157.452 146.536 157.164 145.832C156.876 145.128 156.732 144.28 156.732 143.288C156.732 141.512 157.268 140.016 158.34 138.8C159.428 137.568 160.74 136.952 162.276 136.952C163.86 136.952 165.044 137.544 165.828 138.728C166.628 139.896 166.916 141.464 166.692 143.432L158.652 143.624C158.748 145.032 159.34 146.032 160.428 146.624C161.532 147.216 163.484 147.544 166.284 147.608L166.092 149.264ZM161.94 138.56C160.964 138.56 160.188 138.896 159.612 139.568C159.036 140.224 158.716 141.176 158.652 142.424C159.82 142.376 161.892 142.312 164.868 142.232C164.852 141.08 164.596 140.184 164.1 139.544C163.62 138.888 162.9 138.56 161.94 138.56ZM175.328 138.632C174.32 138.632 173.312 138.976 172.304 139.664C172.368 142.512 172.4 145.624 172.4 149H170.456C170.456 143.736 170.4 139.84 170.288 137.312L172.088 137.192L172.208 138.536C173.456 137.496 174.768 136.976 176.144 136.976C178.48 136.976 179.648 138.328 179.648 141.032V149H177.704V141.68C177.704 140.592 177.504 139.816 177.104 139.352C176.704 138.872 176.112 138.632 175.328 138.632ZM192.579 149.192C190.067 149.224 188.307 148.944 187.299 148.352C186.291 147.744 185.787 146.704 185.787 145.232V138.752H183.363L183.555 137.24H185.787V133.976L187.731 133.808V137.24H192.531V138.752H187.731V144.92C187.731 145.928 188.075 146.616 188.763 146.984C189.467 147.336 190.811 147.528 192.795 147.56L192.579 149.192ZM205.678 149.264C203.87 149.264 202.35 149.136 201.118 148.88C199.886 148.608 198.918 148.208 198.214 147.68C197.526 147.152 197.038 146.536 196.75 145.832C196.462 145.128 196.318 144.28 196.318 143.288C196.318 141.512 196.854 140.016 197.926 138.8C199.014 137.568 200.326 136.952 201.862 136.952C203.446 136.952 204.63 137.544 205.414 138.728C206.214 139.896 206.502 141.464 206.278 143.432L198.238 143.624C198.334 145.032 198.926 146.032 200.014 146.624C201.118 147.216 203.07 147.544 205.87 147.608L205.678 149.264ZM201.526 138.56C200.55 138.56 199.774 138.896 199.198 139.568C198.622 140.224 198.302 141.176 198.238 142.424C199.406 142.376 201.478 142.312 204.454 142.232C204.438 141.08 204.182 140.184 203.686 139.544C203.206 138.888 202.486 138.56 201.526 138.56Z" fill="black"/>
</g>
<line y1="159.5" x2="360" y2="159.5" stroke="#3D1A1A" stroke-opacity="0.2"/>
<line x1="0.5" y1="120" x2="0.499998" y2="159" stroke="#3D1A1A" stroke-opacity="0.2"/>
<line x1="359.5" y1="120" x2="359.5" y2="159" stroke="#3D1A1A" stroke-opacity="0.2"/>
<rect x="322" y="123" width="32" height="33" rx="16" fill="#836B7F"/>
<path d="M329.94 148.5V135.936H334.71C335.934 135.936 336.87 136.284 337.518 136.98C338.166 137.676 338.49 138.624 338.49 139.824C338.49 141.024 338.166 141.972 337.518 142.668C336.87 143.364 335.934 143.712 334.71 143.712H332.298V148.5H329.94ZM332.298 141.786H334.224C334.86 141.786 335.316 141.66 335.592 141.408C335.868 141.144 336.006 140.73 336.006 140.166V139.482C336.006 138.918 335.868 138.51 335.592 138.258C335.316 137.994 334.86 137.862 334.224 137.862H332.298V141.786ZM344.279 142.992L342.965 144.72V148.5H340.607V135.936H342.965V141.588H343.073L344.531 139.5L347.177 135.936H349.841L345.899 141.228L350.021 148.5H347.357L344.279 142.992Z" fill="white"/>
</svg>
