<svg width="360" height="160" viewBox="0 0 360 160" fill="none" xmlns="http://www.w3.org/2000/svg">
<path d="M0 5C0 2.23858 2.23858 0 5 0H355C357.761 0 360 2.23858 360 5V40H0V5Z" fill="#836B7F"/>
<path d="M22.824 26.64L21.9 30H11.008L14.368 12.64H25.372L24.728 16H17.756L17 19.864H22.88L22.292 22.776H16.412L15.656 26.64H22.824ZM40.2905 28.712C39.3012 29.3093 38.4145 29.7387 37.6305 30C36.8465 30.28 36.2025 30.3827 35.6985 30.308C35.1945 30.2333 34.8119 30.028 34.5505 29.692C34.2892 29.356 34.1585 28.8987 34.1585 28.32C34.1585 27.592 34.4105 26.2293 34.9145 24.232C35.4372 22.2347 35.6985 20.928 35.6985 20.312C35.6985 19.5093 35.3719 19.108 34.7185 19.108C34.0092 19.108 33.0945 19.6493 31.9745 20.732L30.0985 30H26.3185C27.6625 23.0187 28.4932 18.324 28.8105 15.916L32.6185 15.692L32.3105 18.016C33.9905 16.28 35.6425 15.412 37.2665 15.412C38.9839 15.412 39.8425 16.3733 39.8425 18.296C39.8425 19.3413 39.5719 20.9187 39.0305 23.028C38.5079 25.1187 38.2465 26.3133 38.2465 26.612C38.2465 26.8733 38.3399 27.0227 38.5265 27.06C38.7132 27.0787 39.1985 26.9947 39.9825 26.808L40.2905 28.712ZM48.7131 25.968C48.9371 25.5013 50.5517 22.1133 53.5571 15.804H57.5331C55.2744 20.452 52.7824 25.2213 50.0571 30.112H45.4091C44.4571 24.288 43.8224 19.5653 43.5051 15.944L47.3691 15.664C47.6491 18.9307 48.0224 22.3653 48.4891 25.968H48.7131ZM61.7836 25.044C61.7836 26.1453 62.1756 26.696 62.9596 26.696C63.7436 26.696 64.7049 26.2013 65.8436 25.212C65.9743 24.5587 66.3663 22.552 67.0196 19.192C66.1796 18.8933 65.4703 18.744 64.8916 18.744C64.0889 18.744 63.3703 19.4347 62.7356 20.816C62.1009 22.1787 61.7836 23.588 61.7836 25.044ZM71.5556 28.712C70.0623 29.608 68.8676 30.1307 67.9716 30.28C67.0756 30.4293 66.4596 30.28 66.1236 29.832C65.7876 29.3653 65.6383 28.6187 65.6756 27.592C63.7903 29.44 62.1569 30.364 60.7756 30.364C59.9169 30.364 59.2169 29.9907 58.6756 29.244C58.1343 28.4973 57.8636 27.4147 57.8636 25.996C57.8636 24.2227 58.2089 22.552 58.8996 20.984C59.5903 19.3973 60.6356 18.0907 62.0356 17.064C63.4543 16.0187 65.0783 15.496 66.9076 15.496C68.3823 15.496 69.8663 15.72 71.3596 16.168L69.4556 26.024C69.3436 26.584 69.3716 26.9013 69.5396 26.976C69.7076 27.0507 70.2769 26.9947 71.2476 26.808L71.5556 28.712ZM86.2781 25.548C86.2781 26.22 86.1008 26.8267 85.7461 27.368C85.4101 27.9093 84.8595 28.4133 84.0941 28.88C83.3288 29.3467 82.2368 29.7013 80.8181 29.944C79.4181 30.1867 77.7381 30.2987 75.7781 30.28L75.8621 26.78C78.3075 26.9107 80.0061 26.9013 80.9581 26.752C81.9288 26.584 82.4141 26.248 82.4141 25.744C82.4141 25.5573 82.3675 25.352 82.2741 25.128C82.1808 24.904 82.0221 24.6613 81.7981 24.4C81.5928 24.1387 81.3968 23.9053 81.2101 23.7C81.0235 23.4947 80.7621 23.224 80.4261 22.888C80.1088 22.5333 79.8568 22.2533 79.6701 22.048C78.5315 22.7947 77.0475 23.616 75.2181 24.512L74.4061 22.776C76.1795 21.6933 77.4861 20.8253 78.3261 20.172C78.0088 19.5373 77.8501 18.9493 77.8501 18.408C77.8501 17.3627 78.2795 16.532 79.1381 15.916C79.9968 15.2813 80.9861 14.964 82.1061 14.964C83.3941 14.964 84.1501 15.3933 84.3741 16.252C84.5981 17.1107 84.0568 18.24 82.7501 19.64C82.8808 19.808 83.3195 20.34 84.0661 21.236C84.8315 22.1133 85.3915 22.8787 85.7461 23.532C86.1008 24.1853 86.2781 24.8573 86.2781 25.548ZM93.1327 25.044C93.1327 26.1453 93.5247 26.696 94.3087 26.696C95.0927 26.696 96.054 26.2013 97.1927 25.212C97.3233 24.5587 97.7153 22.552 98.3687 19.192C97.5287 18.8933 96.8193 18.744 96.2407 18.744C95.438 18.744 94.7193 19.4347 94.0847 20.816C93.45 22.1787 93.1327 23.588 93.1327 25.044ZM102.905 28.712C101.411 29.608 100.217 30.1307 99.3207 30.28C98.4247 30.4293 97.8087 30.28 97.4727 29.832C97.1367 29.3653 96.9873 28.6187 97.0247 27.592C95.1393 29.44 93.506 30.364 92.1247 30.364C91.266 30.364 90.566 29.9907 90.0247 29.244C89.4833 28.4973 89.2127 27.4147 89.2127 25.996C89.2127 24.2227 89.558 22.552 90.2487 20.984C90.9393 19.3973 91.9847 18.0907 93.3847 17.064C94.8033 16.0187 96.4273 15.496 98.2567 15.496C99.7313 15.496 101.215 15.72 102.709 16.168L100.805 26.024C100.693 26.584 100.721 26.9013 100.889 26.976C101.057 27.0507 101.626 26.9947 102.597 26.808L102.905 28.712ZM110.095 26.724C110.823 26.724 111.766 26.2107 112.923 25.184L114.099 19.052C113.315 18.772 112.615 18.632 111.999 18.632C111.197 18.632 110.459 19.2853 109.787 20.592C109.115 21.88 108.779 23.1867 108.779 24.512C108.779 25.9867 109.218 26.724 110.095 26.724ZM118.775 28.656C117.207 29.5333 115.957 30.0467 115.023 30.196C114.09 30.364 113.455 30.2333 113.119 29.804C112.783 29.3747 112.643 28.6653 112.699 27.676C110.833 29.468 109.255 30.364 107.967 30.364C107.071 30.364 106.334 29.9627 105.755 29.16C105.195 28.3387 104.915 27.172 104.915 25.66C104.915 23.9427 105.261 22.3187 105.951 20.788C106.642 19.2387 107.678 17.96 109.059 16.952C110.459 15.9253 112.046 15.412 113.819 15.412C114.025 15.412 114.351 15.4307 114.799 15.468L115.751 10.512L119.587 10.232L116.507 26.136C116.414 26.6773 116.461 26.9853 116.647 27.06C116.834 27.116 117.45 27.032 118.495 26.808L118.775 28.656ZM120.758 24.512C120.758 22.0293 121.495 19.892 122.97 18.1C124.463 16.2893 126.33 15.384 128.57 15.384C130.287 15.384 131.64 15.916 132.63 16.98C133.638 18.0253 134.142 19.4533 134.142 21.264C134.142 23.7467 133.395 25.8933 131.902 27.704C130.427 29.496 128.57 30.392 126.33 30.392C124.612 30.392 123.25 29.8693 122.242 28.824C121.252 27.76 120.758 26.3227 120.758 24.512ZM130.194 21.74C130.194 20.732 129.998 19.9573 129.606 19.416C129.232 18.856 128.719 18.576 128.066 18.576C127.095 18.576 126.292 19.136 125.658 20.256C125.023 21.3573 124.706 22.6173 124.706 24.036C124.706 25.044 124.892 25.828 125.266 26.388C125.658 26.9293 126.18 27.2 126.834 27.2C127.804 27.2 128.607 26.6493 129.242 25.548C129.876 24.428 130.194 23.1587 130.194 21.74Z" fill="#EEEEEE"/>
<rect width="360" height="40" transform="translate(0 120)" fill="#C3C4A2" fill-opacity="0.15"/>
<g opacity="0.7">
<path d="M16.504 147.68C17.416 147.68 18.288 147.344 19.12 146.672C19.072 144.624 19.048 142.056 19.048 138.968C18.344 138.744 17.696 138.632 17.104 138.632C15.984 138.632 15.064 139.04 14.344 139.856C13.624 140.656 13.264 141.776 13.264 143.216C13.264 144.672 13.56 145.784 14.152 146.552C14.744 147.304 15.528 147.68 16.504 147.68ZM19.336 149.048L19.216 147.824C18.176 148.8 17.024 149.288 15.76 149.288C14.464 149.288 13.4 148.792 12.568 147.8C11.752 146.792 11.344 145.432 11.344 143.72C11.344 141.656 11.984 140.016 13.264 138.8C14.544 137.584 16.12 136.976 17.992 136.976C18.36 136.976 18.712 137 19.048 137.048V132.224L20.992 132.056V137.288C20.992 142.584 21.048 146.472 21.16 148.952L19.336 149.048ZM31.1633 135.344H29.1713L29.3153 132.08H31.3793L31.1633 135.344ZM35.5313 149H24.8993V147.512H29.3153V138.8L24.9233 138.608L25.0673 137.24H31.2593V147.512H35.6753L35.5313 149ZM46.8786 137.144L46.9506 138.872C42.8706 138.504 40.8306 138.952 40.8306 140.216C40.8306 140.568 41.0546 140.904 41.5026 141.224C41.9666 141.544 42.5186 141.848 43.1586 142.136C43.8146 142.408 44.4626 142.704 45.1026 143.024C45.7586 143.328 46.3106 143.712 46.7586 144.176C47.2226 144.624 47.4546 145.128 47.4546 145.688C47.4546 146.792 46.7666 147.68 45.3906 148.352C44.0146 149.008 41.8066 149.256 38.7666 149.096L38.8386 147.368C43.2386 147.72 45.4386 147.216 45.4386 145.856C45.4386 145.472 45.2146 145.12 44.7666 144.8C44.3186 144.464 43.7666 144.168 43.1106 143.912C42.4706 143.64 41.8226 143.36 41.1666 143.072C40.5266 142.768 39.9826 142.4 39.5346 141.968C39.0866 141.52 38.8626 141.024 38.8626 140.48C38.8626 139.408 39.5026 138.536 40.7826 137.864C42.0786 137.176 44.1106 136.936 46.8786 137.144ZM60.5299 149.264C58.7219 149.264 57.2019 149.136 55.9699 148.88C54.7379 148.608 53.7699 148.208 53.0659 147.68C52.3779 147.152 51.8899 146.536 51.6019 145.832C51.3139 145.128 51.1699 144.28 51.1699 143.288C51.1699 141.512 51.7059 140.016 52.7779 138.8C53.8659 137.568 55.1779 136.952 56.7139 136.952C58.2979 136.952 59.4819 137.544 60.2659 138.728C61.0659 139.896 61.3539 141.464 61.1299 143.432L53.0899 143.624C53.1859 145.032 53.7779 146.032 54.8659 146.624C55.9699 147.216 57.9219 147.544 60.7219 147.608L60.5299 149.264ZM56.3779 138.56C55.4019 138.56 54.6259 138.896 54.0499 139.568C53.4739 140.224 53.1539 141.176 53.0899 142.424C54.2579 142.376 56.3299 142.312 59.3059 142.232C59.2899 141.08 59.0339 140.184 58.5379 139.544C58.0579 138.888 57.3379 138.56 56.3779 138.56ZM71.2293 135.104C70.7973 135.104 70.3573 134.904 69.9093 134.504C69.4613 134.104 69.0453 133.704 68.6613 133.304C68.2933 132.904 67.9733 132.704 67.7013 132.704C67.1413 132.704 66.5173 133.44 65.8293 134.912L64.7493 134.432C65.6613 132.208 66.7173 131.096 67.9173 131.096C68.2693 131.096 68.6213 131.224 68.9733 131.48C69.3253 131.736 69.6213 132.016 69.8613 132.32C70.1173 132.608 70.3893 132.88 70.6773 133.136C70.9653 133.392 71.2213 133.52 71.4453 133.52C71.9893 133.52 72.6053 132.776 73.2933 131.288L74.3973 131.768C73.4533 133.992 72.3973 135.104 71.2293 135.104ZM69.7653 138.632C68.7573 138.632 67.7493 138.976 66.7413 139.664C66.8053 142.512 66.8373 145.624 66.8373 149H64.8933C64.8933 143.736 64.8373 139.84 64.7253 137.312L66.5253 137.192L66.6453 138.536C67.8933 137.496 69.2053 136.976 70.5813 136.976C72.9173 136.976 74.0853 138.328 74.0853 141.032V149H72.1413V141.68C72.1413 140.592 71.9413 139.816 71.5413 139.352C71.1413 138.872 70.5493 138.632 69.7653 138.632ZM82.3126 149.336C80.8246 149.336 79.6166 148.8 78.6886 147.728C77.7606 146.656 77.2966 145.192 77.2966 143.336C77.2966 141.464 77.8326 139.928 78.9046 138.728C79.9926 137.528 81.3126 136.928 82.8646 136.928C84.3526 136.928 85.5526 137.464 86.4646 138.536C87.3926 139.592 87.8566 141.048 87.8566 142.904C87.8566 144.808 87.3206 146.36 86.2486 147.56C85.1766 148.744 83.8646 149.336 82.3126 149.336ZM82.6246 147.728C83.6166 147.728 84.4086 147.344 85.0006 146.576C85.6086 145.792 85.9126 144.688 85.9126 143.264C85.9126 141.76 85.6006 140.592 84.9766 139.76C84.3686 138.928 83.5526 138.512 82.5286 138.512C81.5526 138.512 80.7606 138.904 80.1526 139.688C79.5606 140.472 79.2646 141.568 79.2646 142.976C79.2646 144.48 79.5686 145.648 80.1766 146.48C80.7846 147.312 81.6006 147.728 82.6246 147.728Z" fill="black"/>
</g>
<line y1="159.5" x2="360" y2="159.5" stroke="#3D1A1A" stroke-opacity="0.2"/>
<line x1="0.5" y1="120" x2="0.499998" y2="159" stroke="#3D1A1A" stroke-opacity="0.2"/>
<line x1="359.5" y1="120" x2="359.5" y2="159" stroke="#3D1A1A" stroke-opacity="0.2"/>
<rect width="360" height="40" transform="translate(0 40)" fill="#C3C4A2" fill-opacity="0.15"/>
<g opacity="0.7">
<path d="M11.92 63.312C11.92 62.464 12.072 61.688 12.376 60.984C12.696 60.28 13.184 59.632 13.84 59.04C14.512 58.448 15.448 57.984 16.648 57.648C17.864 57.296 19.296 57.104 20.944 57.072L21.088 58.92C19.616 58.92 18.384 59.016 17.392 59.208C16.416 59.384 15.672 59.664 15.16 60.048C14.664 60.432 14.32 60.864 14.128 61.344C13.936 61.808 13.84 62.376 13.84 63.048C13.84 64.68 14.384 65.856 15.472 66.576C16.56 67.296 18.488 67.592 21.256 67.464L21.04 69.096C19.312 69.208 17.84 69.152 16.624 68.928C15.408 68.688 14.464 68.288 13.792 67.728C13.12 67.168 12.64 66.536 12.352 65.832C12.064 65.112 11.92 64.272 11.92 63.312ZM29.5313 69.336C28.0433 69.336 26.8353 68.8 25.9073 67.728C24.9793 66.656 24.5153 65.192 24.5153 63.336C24.5153 61.464 25.0513 59.928 26.1233 58.728C27.2113 57.528 28.5313 56.928 30.0833 56.928C31.5713 56.928 32.7713 57.464 33.6833 58.536C34.6113 59.592 35.0753 61.048 35.0753 62.904C35.0753 64.808 34.5393 66.36 33.4673 67.56C32.3953 68.744 31.0833 69.336 29.5313 69.336ZM29.8433 67.728C30.8353 67.728 31.6273 67.344 32.2193 66.576C32.8273 65.792 33.1313 64.688 33.1313 63.264C33.1313 61.76 32.8193 60.592 32.1953 59.76C31.5873 58.928 30.7713 58.512 29.7473 58.512C28.7713 58.512 27.9793 58.904 27.3713 59.688C26.7793 60.472 26.4833 61.568 26.4833 62.976C26.4833 64.48 26.7873 65.648 27.3953 66.48C28.0033 67.312 28.8193 67.728 29.8433 67.728ZM42.8946 67.68C43.8066 67.68 44.6786 67.344 45.5106 66.672C45.4626 64.624 45.4386 62.056 45.4386 58.968C44.7346 58.744 44.0866 58.632 43.4946 58.632C42.3746 58.632 41.4546 59.04 40.7346 59.856C40.0146 60.656 39.6546 61.776 39.6546 63.216C39.6546 64.672 39.9506 65.784 40.5426 66.552C41.1346 67.304 41.9186 67.68 42.8946 67.68ZM45.7266 69.048L45.6066 67.824C44.5666 68.8 43.4146 69.288 42.1506 69.288C40.8546 69.288 39.7906 68.792 38.9586 67.8C38.1426 66.792 37.7346 65.432 37.7346 63.72C37.7346 61.656 38.3746 60.016 39.6546 58.8C40.9346 57.584 42.5106 56.976 44.3826 56.976C44.7506 56.976 45.1026 57 45.4386 57.048V52.224L47.3826 52.056V57.288C47.3826 62.584 47.4386 66.472 47.5506 68.952L45.7266 69.048ZM57.4819 69H54.6259L54.7699 66.216H57.6259L57.4819 69ZM87.3046 69H77.8486V67.512H81.6646V53.808L78.0406 53.64L78.2086 52.248H83.6326V67.512H87.4726L87.3046 69ZM93.7559 54.744C94.4439 54.264 95.2439 53.608 96.1559 52.776C97.0679 51.928 97.8119 51.16 98.3879 50.472L99.9479 51.984C99.2919 52.576 98.4119 53.224 97.3079 53.928C96.2039 54.616 95.2039 55.176 94.3079 55.608L93.7559 54.744ZM101.508 69H90.8759V67.512H95.2919V58.8L90.8999 58.608L91.0439 57.24H97.2359V67.512H101.652L101.508 69ZM111.463 73.104V67.944C110.439 68.856 109.327 69.312 108.127 69.312C106.831 69.312 105.767 68.808 104.935 67.8C104.119 66.792 103.711 65.432 103.711 63.72C103.711 61.672 104.343 60.04 105.607 58.824C106.887 57.592 108.407 56.976 110.167 56.976C111.287 56.976 112.367 57.176 113.407 57.576V72.936L111.463 73.104ZM108.847 67.68C109.727 67.68 110.599 67.344 111.463 66.672V59.016C110.759 58.76 110.087 58.632 109.447 58.632C108.327 58.632 107.407 59.04 106.687 59.856C105.983 60.656 105.631 61.784 105.631 63.24C105.631 64.68 105.919 65.784 106.495 66.552C107.087 67.304 107.871 67.68 108.847 67.68ZM125.019 69.048L124.899 67.704C123.619 68.76 122.315 69.288 120.987 69.288C118.683 69.288 117.531 67.928 117.531 65.208V57.312L119.475 57.168V64.56C119.475 65.664 119.667 66.456 120.051 66.936C120.451 67.4 121.035 67.632 121.803 67.632C122.811 67.632 123.811 67.272 124.803 66.552C124.739 63.736 124.707 60.632 124.707 57.24H126.651C126.651 62.504 126.707 66.4 126.819 68.928L125.019 69.048ZM136.726 55.344H134.734L134.878 52.08H136.942L136.726 55.344ZM141.094 69H130.462V67.512H134.878V58.8L130.486 58.608L130.63 57.24H136.822V67.512H141.238L141.094 69ZM148.457 67.68C149.369 67.68 150.241 67.344 151.073 66.672C151.025 64.624 151.001 62.056 151.001 58.968C150.297 58.744 149.649 58.632 149.057 58.632C147.937 58.632 147.017 59.04 146.297 59.856C145.577 60.656 145.217 61.776 145.217 63.216C145.217 64.672 145.513 65.784 146.105 66.552C146.697 67.304 147.481 67.68 148.457 67.68ZM151.289 69.048L151.169 67.824C150.129 68.8 148.977 69.288 147.713 69.288C146.417 69.288 145.353 68.792 144.521 67.8C143.705 66.792 143.297 65.432 143.297 63.72C143.297 61.656 143.937 60.016 145.217 58.8C146.497 57.584 148.073 56.976 149.945 56.976C150.313 56.976 150.665 57 151.001 57.048V52.224L152.945 52.056V57.288C152.945 62.584 153.001 66.472 153.113 68.952L151.289 69.048ZM161.484 69.336C159.996 69.336 158.788 68.8 157.86 67.728C156.932 66.656 156.468 65.192 156.468 63.336C156.468 61.464 157.004 59.928 158.076 58.728C159.164 57.528 160.484 56.928 162.036 56.928C163.524 56.928 164.724 57.464 165.636 58.536C166.564 59.592 167.028 61.048 167.028 62.904C167.028 64.808 166.492 66.36 165.42 67.56C164.348 68.744 163.036 69.336 161.484 69.336ZM161.796 67.728C162.788 67.728 163.58 67.344 164.172 66.576C164.78 65.792 165.084 64.688 165.084 63.264C165.084 61.76 164.772 60.592 164.148 59.76C163.54 58.928 162.724 58.512 161.7 58.512C160.724 58.512 159.932 58.904 159.324 59.688C158.732 60.472 158.436 61.568 158.436 62.976C158.436 64.48 158.74 65.648 159.348 66.48C159.956 67.312 160.772 67.728 161.796 67.728Z" fill="black"/>
</g>
<line y1="79.5" x2="360" y2="79.5" stroke="#3D1A1A" stroke-opacity="0.2"/>
<line x1="0.5" y1="40" x2="0.499998" y2="79" stroke="#3D1A1A" stroke-opacity="0.2"/>
<line x1="359.5" y1="40" x2="359.5" y2="79" stroke="#3D1A1A" stroke-opacity="0.2"/>
<rect x="322" y="43" width="32" height="33" rx="16" fill="#836B7F"/>
<path d="M329.94 68.5V55.936H334.71C335.934 55.936 336.87 56.284 337.518 56.98C338.166 57.676 338.49 58.624 338.49 59.824C338.49 61.024 338.166 61.972 337.518 62.668C336.87 63.364 335.934 63.712 334.71 63.712H332.298V68.5H329.94ZM332.298 61.786H334.224C334.86 61.786 335.316 61.66 335.592 61.408C335.868 61.144 336.006 60.73 336.006 60.166V59.482C336.006 58.918 335.868 58.51 335.592 58.258C335.316 57.994 334.86 57.862 334.224 57.862H332.298V61.786ZM344.279 62.992L342.965 64.72V68.5H340.607V55.936H342.965V61.588H343.073L344.531 59.5L347.177 55.936H349.841L345.899 61.228L350.021 68.5H347.357L344.279 62.992Z" fill="white"/>
<rect x="284" y="43" width="32" height="33" rx="16" fill="#C3C4A2"/>
<path d="M291.994 68.5V55.936H300.202V57.88H294.352V61.156H299.626V63.1H294.352V68.5H291.994ZM306.279 62.992L304.965 64.72V68.5H302.607V55.936H304.965V61.588H305.073L306.531 59.5L309.177 55.936H311.841L307.899 61.228L312.021 68.5H309.357L306.279 62.992Z" fill="black"/>
<rect x="322" y="123" width="32" height="33" rx="16" fill="#9DA076"/>
<path d="M331.902 139.482H331.722V148.5H329.706V135.936H332.604L335.898 144.954H336.078V135.936H338.094V148.5H335.196L331.902 139.482ZM342.695 139.482H342.515V148.5H340.499V135.936H343.397L346.691 144.954H346.871V135.936H348.887V148.5H345.989L342.695 139.482Z" fill="white"/>
<rect x="284" y="83" width="32" height="33" rx="16" fill="#C3C4A2"/>
<path d="M291.994 108.5V95.936H300.202V97.88H294.352V101.156H299.626V103.1H294.352V108.5H291.994ZM306.279 102.992L304.965 104.72V108.5H302.607V95.936H304.965V101.588H305.073L306.531 99.5L309.177 95.936H311.841L307.899 101.228L312.021 108.5H309.357L306.279 102.992Z" fill="black"/>
<rect width="360" height="40" transform="translate(0 80)" fill="#C3C4A2" fill-opacity="0.15"/>
<g opacity="0.7">
<path d="M11.92 103.312C11.92 102.464 12.072 101.688 12.376 100.984C12.696 100.28 13.184 99.632 13.84 99.04C14.512 98.448 15.448 97.984 16.648 97.648C17.864 97.296 19.296 97.104 20.944 97.072L21.088 98.92C19.616 98.92 18.384 99.016 17.392 99.208C16.416 99.384 15.672 99.664 15.16 100.048C14.664 100.432 14.32 100.864 14.128 101.344C13.936 101.808 13.84 102.376 13.84 103.048C13.84 104.68 14.384 105.856 15.472 106.576C16.56 107.296 18.488 107.592 21.256 107.464L21.04 109.096C19.312 109.208 17.84 109.152 16.624 108.928C15.408 108.688 14.464 108.288 13.792 107.728C13.12 107.168 12.64 106.536 12.352 105.832C12.064 105.112 11.92 104.272 11.92 103.312ZM29.5313 109.336C28.0433 109.336 26.8353 108.8 25.9073 107.728C24.9793 106.656 24.5153 105.192 24.5153 103.336C24.5153 101.464 25.0513 99.928 26.1233 98.728C27.2113 97.528 28.5313 96.928 30.0833 96.928C31.5713 96.928 32.7713 97.464 33.6833 98.536C34.6113 99.592 35.0753 101.048 35.0753 102.904C35.0753 104.808 34.5393 106.36 33.4673 107.56C32.3953 108.744 31.0833 109.336 29.5313 109.336ZM29.8433 107.728C30.8353 107.728 31.6273 107.344 32.2193 106.576C32.8273 105.792 33.1313 104.688 33.1313 103.264C33.1313 101.76 32.8193 100.592 32.1953 99.76C31.5873 98.928 30.7713 98.512 29.7473 98.512C28.7713 98.512 27.9793 98.904 27.3713 99.688C26.7793 100.472 26.4833 101.568 26.4833 102.976C26.4833 104.48 26.7873 105.648 27.3953 106.48C28.0033 107.312 28.8193 107.728 29.8433 107.728ZM42.8946 107.68C43.8066 107.68 44.6786 107.344 45.5106 106.672C45.4626 104.624 45.4386 102.056 45.4386 98.968C44.7346 98.744 44.0866 98.632 43.4946 98.632C42.3746 98.632 41.4546 99.04 40.7346 99.856C40.0146 100.656 39.6546 101.776 39.6546 103.216C39.6546 104.672 39.9506 105.784 40.5426 106.552C41.1346 107.304 41.9186 107.68 42.8946 107.68ZM45.7266 109.048L45.6066 107.824C44.5666 108.8 43.4146 109.288 42.1506 109.288C40.8546 109.288 39.7906 108.792 38.9586 107.8C38.1426 106.792 37.7346 105.432 37.7346 103.72C37.7346 101.656 38.3746 100.016 39.6546 98.8C40.9346 97.584 42.5106 96.976 44.3826 96.976C44.7506 96.976 45.1026 97 45.4386 97.048V92.224L47.3826 92.056V97.288C47.3826 102.584 47.4386 106.472 47.5506 108.952L45.7266 109.048ZM57.4819 109H54.6259L54.7699 106.216H57.6259L57.4819 109ZM86.4166 109H77.5846V107.512H80.7046C80.6406 102.776 80.5926 99.872 80.5606 98.8L77.5846 98.632L77.7286 97.24H82.2886C82.3526 97.912 82.4006 98.584 82.4326 99.256C83.7446 97.896 85.5366 97.08 87.8086 96.808L87.9046 98.872C85.6326 99.048 83.8326 99.568 82.5046 100.432C82.5046 100.864 82.5126 101.896 82.5286 103.528C82.5606 105.144 82.5846 106.472 82.6006 107.512H86.5846L86.4166 109ZM100.116 109.264C98.3079 109.264 96.7879 109.136 95.5559 108.88C94.3239 108.608 93.3559 108.208 92.6519 107.68C91.9639 107.152 91.4759 106.536 91.1879 105.832C90.8999 105.128 90.7559 104.28 90.7559 103.288C90.7559 101.512 91.2919 100.016 92.3639 98.8C93.4519 97.568 94.7639 96.952 96.2999 96.952C97.8839 96.952 99.0679 97.544 99.8519 98.728C100.652 99.896 100.94 101.464 100.716 103.432L92.6759 103.624C92.7719 105.032 93.3639 106.032 94.4519 106.624C95.5559 107.216 97.5079 107.544 100.308 107.608L100.116 109.264ZM95.9639 98.56C94.9879 98.56 94.2119 98.896 93.6359 99.568C93.0599 100.224 92.7399 101.176 92.6759 102.424C93.8439 102.376 95.9159 102.312 98.8919 102.232C98.8759 101.08 98.6199 100.184 98.1239 99.544C97.6439 98.888 96.9239 98.56 95.9639 98.56ZM104.287 103.312C104.287 102.464 104.439 101.688 104.743 100.984C105.063 100.28 105.551 99.632 106.207 99.04C106.879 98.448 107.815 97.984 109.015 97.648C110.231 97.296 111.663 97.104 113.311 97.072L113.455 98.92C111.983 98.92 110.751 99.016 109.759 99.208C108.783 99.384 108.039 99.664 107.527 100.048C107.031 100.432 106.687 100.864 106.495 101.344C106.303 101.808 106.207 102.376 106.207 103.048C106.207 104.68 106.751 105.856 107.839 106.576C108.927 107.296 110.855 107.592 113.623 107.464L113.407 109.096C111.679 109.208 110.207 109.152 108.991 108.928C107.775 108.688 106.831 108.288 106.159 107.728C105.487 107.168 105.007 106.536 104.719 105.832C104.431 105.112 104.287 104.272 104.287 103.312ZM123.531 95.344H121.539L121.683 92.08H123.747L123.531 95.344ZM127.898 109H117.267V107.512H121.683V98.8L117.291 98.608L117.435 97.24H123.627V107.512H128.043L127.898 109ZM134.878 107.608C135.982 107.608 136.894 107.208 137.614 106.408C138.334 105.608 138.694 104.496 138.694 103.072C138.694 101.648 138.398 100.544 137.806 99.76C137.214 98.976 136.438 98.584 135.478 98.584C134.55 98.584 133.654 98.912 132.79 99.568C132.854 102.08 132.894 104.64 132.91 107.248C133.598 107.488 134.254 107.608 134.878 107.608ZM132.91 112.96L130.966 113.128V109.048C130.966 103.224 130.918 99.312 130.822 97.312L132.598 97.192L132.718 98.416C133.79 97.456 134.966 96.976 136.246 96.976C137.51 96.976 138.55 97.488 139.366 98.512C140.198 99.536 140.614 100.896 140.614 102.592C140.614 104.64 139.99 106.272 138.742 107.488C137.51 108.688 135.99 109.288 134.182 109.288C133.718 109.288 133.294 109.256 132.91 109.192V112.96ZM149.921 95.344H147.929L148.073 92.08H150.137L149.921 95.344ZM154.289 109H143.657V107.512H148.073V98.8L143.681 98.608L143.825 97.24H150.017V107.512H154.433L154.289 109ZM166.092 109.264C164.284 109.264 162.764 109.136 161.532 108.88C160.3 108.608 159.332 108.208 158.628 107.68C157.94 107.152 157.452 106.536 157.164 105.832C156.876 105.128 156.732 104.28 156.732 103.288C156.732 101.512 157.268 100.016 158.34 98.8C159.428 97.568 160.74 96.952 162.276 96.952C163.86 96.952 165.044 97.544 165.828 98.728C166.628 99.896 166.916 101.464 166.692 103.432L158.652 103.624C158.748 105.032 159.34 106.032 160.428 106.624C161.532 107.216 163.484 107.544 166.284 107.608L166.092 109.264ZM161.94 98.56C160.964 98.56 160.188 98.896 159.612 99.568C159.036 100.224 158.716 101.176 158.652 102.424C159.82 102.376 161.892 102.312 164.868 102.232C164.852 101.08 164.596 100.184 164.1 99.544C163.62 98.888 162.9 98.56 161.94 98.56ZM175.328 98.632C174.32 98.632 173.312 98.976 172.304 99.664C172.368 102.512 172.4 105.624 172.4 109H170.456C170.456 103.736 170.4 99.84 170.288 97.312L172.088 97.192L172.208 98.536C173.456 97.496 174.768 96.976 176.144 96.976C178.48 96.976 179.648 98.328 179.648 101.032V109H177.704V101.68C177.704 100.592 177.504 99.816 177.104 99.352C176.704 98.872 176.112 98.632 175.328 98.632ZM192.579 109.192C190.067 109.224 188.307 108.944 187.299 108.352C186.291 107.744 185.787 106.704 185.787 105.232V98.752H183.363L183.555 97.24H185.787V93.976L187.731 93.808V97.24H192.531V98.752H187.731V104.92C187.731 105.928 188.075 106.616 188.763 106.984C189.467 107.336 190.811 107.528 192.795 107.56L192.579 109.192ZM205.678 109.264C203.87 109.264 202.35 109.136 201.118 108.88C199.886 108.608 198.918 108.208 198.214 107.68C197.526 107.152 197.038 106.536 196.75 105.832C196.462 105.128 196.318 104.28 196.318 103.288C196.318 101.512 196.854 100.016 197.926 98.8C199.014 97.568 200.326 96.952 201.862 96.952C203.446 96.952 204.63 97.544 205.414 98.728C206.214 99.896 206.502 101.464 206.278 103.432L198.238 103.624C198.334 105.032 198.926 106.032 200.014 106.624C201.118 107.216 203.07 107.544 205.87 107.608L205.678 109.264ZM201.526 98.56C200.55 98.56 199.774 98.896 199.198 99.568C198.622 100.224 198.302 101.176 198.238 102.424C199.406 102.376 201.478 102.312 204.454 102.232C204.438 101.08 204.182 100.184 203.686 99.544C203.206 98.888 202.486 98.56 201.526 98.56Z" fill="black"/>
</g>
<line y1="119.5" x2="360" y2="119.5" stroke="#3D1A1A" stroke-opacity="0.2"/>
<line x1="0.5" y1="80" x2="0.499998" y2="119" stroke="#3D1A1A" stroke-opacity="0.2"/>
<line x1="359.5" y1="80" x2="359.5" y2="119" stroke="#3D1A1A" stroke-opacity="0.2"/>
<rect x="322" y="83" width="32" height="33" rx="16" fill="#836B7F"/>
<path d="M329.94 108.5V95.936H334.71C335.934 95.936 336.87 96.284 337.518 96.98C338.166 97.676 338.49 98.624 338.49 99.824C338.49 101.024 338.166 101.972 337.518 102.668C336.87 103.364 335.934 103.712 334.71 103.712H332.298V108.5H329.94ZM332.298 101.786H334.224C334.86 101.786 335.316 101.66 335.592 101.408C335.868 101.144 336.006 100.73 336.006 100.166V99.482C336.006 98.918 335.868 98.51 335.592 98.258C335.316 97.994 334.86 97.862 334.224 97.862H332.298V101.786ZM344.279 102.992L342.965 104.72V108.5H340.607V95.936H342.965V101.588H343.073L344.531 99.5L347.177 95.936H349.841L345.899 101.228L350.021 108.5H347.357L344.279 102.992Z" fill="white"/>
</svg>
