<svg width="360" height="186" viewBox="0 0 360 186" fill="none" xmlns="http://www.w3.org/2000/svg">
<rect width="360" height="40" transform="translate(0 40)" fill="#C3C4A2" fill-opacity="0.15"/>
<g opacity="0.7">
<path d="M11.92 63.312C11.92 62.464 12.072 61.688 12.376 60.984C12.696 60.28 13.184 59.632 13.84 59.04C14.512 58.448 15.448 57.984 16.648 57.648C17.864 57.296 19.296 57.104 20.944 57.072L21.088 58.92C19.616 58.92 18.384 59.016 17.392 59.208C16.416 59.384 15.672 59.664 15.16 60.048C14.664 60.432 14.32 60.864 14.128 61.344C13.936 61.808 13.84 62.376 13.84 63.048C13.84 64.68 14.384 65.856 15.472 66.576C16.56 67.296 18.488 67.592 21.256 67.464L21.04 69.096C19.312 69.208 17.84 69.152 16.624 68.928C15.408 68.688 14.464 68.288 13.792 67.728C13.12 67.168 12.64 66.536 12.352 65.832C12.064 65.112 11.92 64.272 11.92 63.312ZM29.5313 69.336C28.0433 69.336 26.8353 68.8 25.9073 67.728C24.9793 66.656 24.5153 65.192 24.5153 63.336C24.5153 61.464 25.0513 59.928 26.1233 58.728C27.2113 57.528 28.5313 56.928 30.0833 56.928C31.5713 56.928 32.7713 57.464 33.6833 58.536C34.6113 59.592 35.0753 61.048 35.0753 62.904C35.0753 64.808 34.5393 66.36 33.4673 67.56C32.3953 68.744 31.0833 69.336 29.5313 69.336ZM29.8433 67.728C30.8353 67.728 31.6273 67.344 32.2193 66.576C32.8273 65.792 33.1313 64.688 33.1313 63.264C33.1313 61.76 32.8193 60.592 32.1953 59.76C31.5873 58.928 30.7713 58.512 29.7473 58.512C28.7713 58.512 27.9793 58.904 27.3713 59.688C26.7793 60.472 26.4833 61.568 26.4833 62.976C26.4833 64.48 26.7873 65.648 27.3953 66.48C28.0033 67.312 28.8193 67.728 29.8433 67.728ZM42.8946 67.68C43.8066 67.68 44.6786 67.344 45.5106 66.672C45.4626 64.624 45.4386 62.056 45.4386 58.968C44.7346 58.744 44.0866 58.632 43.4946 58.632C42.3746 58.632 41.4546 59.04 40.7346 59.856C40.0146 60.656 39.6546 61.776 39.6546 63.216C39.6546 64.672 39.9506 65.784 40.5426 66.552C41.1346 67.304 41.9186 67.68 42.8946 67.68ZM45.7266 69.048L45.6066 67.824C44.5666 68.8 43.4146 69.288 42.1506 69.288C40.8546 69.288 39.7906 68.792 38.9586 67.8C38.1426 66.792 37.7346 65.432 37.7346 63.72C37.7346 61.656 38.3746 60.016 39.6546 58.8C40.9346 57.584 42.5106 56.976 44.3826 56.976C44.7506 56.976 45.1026 57 45.4386 57.048V52.224L47.3826 52.056V57.288C47.3826 62.584 47.4386 66.472 47.5506 68.952L45.7266 69.048ZM57.4819 69H54.6259L54.7699 66.216H57.6259L57.4819 69ZM87.3046 69H77.8486V67.512H81.6646V53.808L78.0406 53.64L78.2086 52.248H83.6326V67.512H87.4726L87.3046 69ZM93.7559 54.744C94.4439 54.264 95.2439 53.608 96.1559 52.776C97.0679 51.928 97.8119 51.16 98.3879 50.472L99.9479 51.984C99.2919 52.576 98.4119 53.224 97.3079 53.928C96.2039 54.616 95.2039 55.176 94.3079 55.608L93.7559 54.744ZM101.508 69H90.8759V67.512H95.2919V58.8L90.8999 58.608L91.0439 57.24H97.2359V67.512H101.652L101.508 69ZM111.463 73.104V67.944C110.439 68.856 109.327 69.312 108.127 69.312C106.831 69.312 105.767 68.808 104.935 67.8C104.119 66.792 103.711 65.432 103.711 63.72C103.711 61.672 104.343 60.04 105.607 58.824C106.887 57.592 108.407 56.976 110.167 56.976C111.287 56.976 112.367 57.176 113.407 57.576V72.936L111.463 73.104ZM108.847 67.68C109.727 67.68 110.599 67.344 111.463 66.672V59.016C110.759 58.76 110.087 58.632 109.447 58.632C108.327 58.632 107.407 59.04 106.687 59.856C105.983 60.656 105.631 61.784 105.631 63.24C105.631 64.68 105.919 65.784 106.495 66.552C107.087 67.304 107.871 67.68 108.847 67.68ZM125.019 69.048L124.899 67.704C123.619 68.76 122.315 69.288 120.987 69.288C118.683 69.288 117.531 67.928 117.531 65.208V57.312L119.475 57.168V64.56C119.475 65.664 119.667 66.456 120.051 66.936C120.451 67.4 121.035 67.632 121.803 67.632C122.811 67.632 123.811 67.272 124.803 66.552C124.739 63.736 124.707 60.632 124.707 57.24H126.651C126.651 62.504 126.707 66.4 126.819 68.928L125.019 69.048ZM136.726 55.344H134.734L134.878 52.08H136.942L136.726 55.344ZM141.094 69H130.462V67.512H134.878V58.8L130.486 58.608L130.63 57.24H136.822V67.512H141.238L141.094 69ZM148.457 67.68C149.369 67.68 150.241 67.344 151.073 66.672C151.025 64.624 151.001 62.056 151.001 58.968C150.297 58.744 149.649 58.632 149.057 58.632C147.937 58.632 147.017 59.04 146.297 59.856C145.577 60.656 145.217 61.776 145.217 63.216C145.217 64.672 145.513 65.784 146.105 66.552C146.697 67.304 147.481 67.68 148.457 67.68ZM151.289 69.048L151.169 67.824C150.129 68.8 148.977 69.288 147.713 69.288C146.417 69.288 145.353 68.792 144.521 67.8C143.705 66.792 143.297 65.432 143.297 63.72C143.297 61.656 143.937 60.016 145.217 58.8C146.497 57.584 148.073 56.976 149.945 56.976C150.313 56.976 150.665 57 151.001 57.048V52.224L152.945 52.056V57.288C152.945 62.584 153.001 66.472 153.113 68.952L151.289 69.048ZM161.484 69.336C159.996 69.336 158.788 68.8 157.86 67.728C156.932 66.656 156.468 65.192 156.468 63.336C156.468 61.464 157.004 59.928 158.076 58.728C159.164 57.528 160.484 56.928 162.036 56.928C163.524 56.928 164.724 57.464 165.636 58.536C166.564 59.592 167.028 61.048 167.028 62.904C167.028 64.808 166.492 66.36 165.42 67.56C164.348 68.744 163.036 69.336 161.484 69.336ZM161.796 67.728C162.788 67.728 163.58 67.344 164.172 66.576C164.78 65.792 165.084 64.688 165.084 63.264C165.084 61.76 164.772 60.592 164.148 59.76C163.54 58.928 162.724 58.512 161.7 58.512C160.724 58.512 159.932 58.904 159.324 59.688C158.732 60.472 158.436 61.568 158.436 62.976C158.436 64.48 158.74 65.648 159.348 66.48C159.956 67.312 160.772 67.728 161.796 67.728Z" fill="black"/>
</g>
<line y1="79.5" x2="360" y2="79.5" stroke="#3D1A1A" stroke-opacity="0.2"/>
<line x1="0.5" y1="40" x2="0.499998" y2="79" stroke="#3D1A1A" stroke-opacity="0.2"/>
<line x1="359.5" y1="40" x2="359.5" y2="79" stroke="#3D1A1A" stroke-opacity="0.2"/>
<rect width="360" height="40" transform="translate(0 80)" fill="#C3C4A2" fill-opacity="0.15"/>
<g opacity="0.7">
<path d="M16.984 98.632C15.976 98.632 14.968 98.976 13.96 99.664C14.024 102.512 14.056 105.624 14.056 109H12.112C12.112 103.736 12.056 99.84 11.944 97.312L13.744 97.192L13.864 98.536C15.112 97.496 16.424 96.976 17.8 96.976C20.136 96.976 21.304 98.328 21.304 101.032V109H19.36V101.68C19.36 100.592 19.16 99.816 18.76 99.352C18.36 98.872 17.768 98.632 16.984 98.632ZM29.5313 109.336C28.0433 109.336 26.8353 108.8 25.9073 107.728C24.9793 106.656 24.5153 105.192 24.5153 103.336C24.5153 101.464 25.0513 99.928 26.1233 98.728C27.2113 97.528 28.5313 96.928 30.0833 96.928C31.5713 96.928 32.7713 97.464 33.6833 98.536C34.6113 99.592 35.0753 101.048 35.0753 102.904C35.0753 104.808 34.5393 106.36 33.4673 107.56C32.3953 108.744 31.0833 109.336 29.5313 109.336ZM29.8433 107.728C30.8353 107.728 31.6273 107.344 32.2193 106.576C32.8273 105.792 33.1313 104.688 33.1313 103.264C33.1313 101.76 32.8193 100.592 32.1953 99.76C31.5873 98.928 30.7713 98.512 29.7473 98.512C28.7713 98.512 27.9793 98.904 27.3713 99.688C26.7793 100.472 26.4833 101.568 26.4833 102.976C26.4833 104.48 26.7873 105.648 27.3953 106.48C28.0033 107.312 28.8193 107.728 29.8433 107.728ZM41.2386 98.632C40.6626 98.632 40.0786 98.928 39.4866 99.52C39.5506 102.368 39.5826 105.528 39.5826 109H37.7586C37.7586 103.912 37.7106 100.016 37.6146 97.312L39.3186 97.192L39.4146 98.296C40.2146 97.416 41.0626 96.976 41.9586 96.976C42.8546 96.976 43.4546 97.392 43.7586 98.224C44.5586 97.392 45.4146 96.976 46.3266 96.976C47.7026 96.976 48.3906 97.856 48.3906 99.616V109H46.5426V100.312C46.5426 99.704 46.4546 99.272 46.2786 99.016C46.1186 98.76 45.8306 98.632 45.4146 98.632C44.8866 98.632 44.3666 98.864 43.8546 99.328V99.544V109H42.3426V100.288C42.3426 99.696 42.2546 99.272 42.0786 99.016C41.9186 98.76 41.6386 98.632 41.2386 98.632ZM55.2019 109.288C54.0179 109.288 52.8659 109.088 51.7459 108.688V92.224L53.6899 92.056V98.296C54.7459 97.416 55.8739 96.976 57.0739 96.976C58.3539 96.976 59.4019 97.488 60.2179 98.512C61.0339 99.536 61.4419 100.896 61.4419 102.592C61.4419 104.592 60.8259 106.208 59.5939 107.44C58.3779 108.672 56.9139 109.288 55.2019 109.288ZM55.8739 107.608C56.9619 107.608 57.8419 107.216 58.5139 106.432C59.1859 105.648 59.5219 104.528 59.5219 103.072C59.5219 101.648 59.2259 100.544 58.6339 99.76C58.0419 98.976 57.2659 98.584 56.3059 98.584C55.3939 98.584 54.5219 98.896 53.6899 99.52V107.2C54.4579 107.472 55.1859 107.608 55.8739 107.608ZM73.2213 109H64.3893V107.512H67.5093C67.4453 102.776 67.3973 99.872 67.3653 98.8L64.3893 98.632L64.5333 97.24H69.0933C69.1573 97.912 69.2053 98.584 69.2373 99.256C70.5493 97.896 72.3413 97.08 74.6133 96.808L74.7093 98.872C72.4373 99.048 70.6373 99.568 69.3093 100.432C69.3093 100.864 69.3173 101.896 69.3333 103.528C69.3653 105.144 69.3893 106.472 69.4053 107.512H73.3893L73.2213 109ZM86.9206 109.264C85.1126 109.264 83.5926 109.136 82.3606 108.88C81.1286 108.608 80.1606 108.208 79.4566 107.68C78.7686 107.152 78.2806 106.536 77.9926 105.832C77.7046 105.128 77.5606 104.28 77.5606 103.288C77.5606 101.512 78.0966 100.016 79.1686 98.8C80.2566 97.568 81.5686 96.952 83.1046 96.952C84.6886 96.952 85.8726 97.544 86.6566 98.728C87.4566 99.896 87.7446 101.464 87.5206 103.432L79.4806 103.624C79.5766 105.032 80.1686 106.032 81.2566 106.624C82.3606 107.216 84.3126 107.544 87.1126 107.608L86.9206 109.264ZM82.7686 98.56C81.7926 98.56 81.0166 98.896 80.4406 99.568C79.8646 100.224 79.5446 101.176 79.4806 102.424C80.6486 102.376 82.7206 102.312 85.6966 102.232C85.6806 101.08 85.4246 100.184 84.9286 99.544C84.4486 98.888 83.7286 98.56 82.7686 98.56ZM108.871 107.68C109.783 107.68 110.655 107.344 111.487 106.672C111.439 104.624 111.415 102.056 111.415 98.968C110.711 98.744 110.063 98.632 109.471 98.632C108.351 98.632 107.431 99.04 106.711 99.856C105.991 100.656 105.631 101.776 105.631 103.216C105.631 104.672 105.927 105.784 106.519 106.552C107.111 107.304 107.895 107.68 108.871 107.68ZM111.703 109.048L111.583 107.824C110.543 108.8 109.391 109.288 108.127 109.288C106.831 109.288 105.767 108.792 104.935 107.8C104.119 106.792 103.711 105.432 103.711 103.72C103.711 101.656 104.351 100.016 105.631 98.8C106.911 97.584 108.487 96.976 110.359 96.976C110.727 96.976 111.079 97 111.415 97.048V92.224L113.359 92.056V97.288C113.359 102.584 113.415 106.472 113.527 108.952L111.703 109.048ZM126.507 109.264C124.699 109.264 123.179 109.136 121.947 108.88C120.715 108.608 119.747 108.208 119.043 107.68C118.355 107.152 117.867 106.536 117.579 105.832C117.291 105.128 117.146 104.28 117.146 103.288C117.146 101.512 117.683 100.016 118.755 98.8C119.843 97.568 121.155 96.952 122.691 96.952C124.275 96.952 125.459 97.544 126.243 98.728C127.043 99.896 127.331 101.464 127.107 103.432L119.067 103.624C119.163 105.032 119.755 106.032 120.843 106.624C121.947 107.216 123.899 107.544 126.699 107.608L126.507 109.264ZM122.355 98.56C121.379 98.56 120.603 98.896 120.027 99.568C119.451 100.224 119.131 101.176 119.067 102.424C120.235 102.376 122.307 102.312 125.283 102.232C125.267 101.08 125.011 100.184 124.515 99.544C124.035 98.888 123.315 98.56 122.355 98.56ZM153.281 109H143.825V107.512H147.641V93.808L144.017 93.64L144.185 92.248H149.609V107.512H153.449L153.281 109ZM159.732 94.744C160.42 94.264 161.22 93.608 162.132 92.776C163.044 91.928 163.788 91.16 164.364 90.472L165.924 91.984C165.268 92.576 164.388 93.224 163.284 93.928C162.18 94.616 161.18 95.176 160.284 95.608L159.732 94.744ZM167.484 109H156.852V107.512H161.268V98.8L156.876 98.608L157.02 97.24H163.212V107.512H167.628L167.484 109ZM177.44 113.104V107.944C176.416 108.856 175.304 109.312 174.104 109.312C172.808 109.312 171.744 108.808 170.912 107.8C170.096 106.792 169.688 105.432 169.688 103.72C169.688 101.672 170.32 100.04 171.584 98.824C172.864 97.592 174.384 96.976 176.144 96.976C177.264 96.976 178.344 97.176 179.384 97.576V112.936L177.44 113.104ZM174.824 107.68C175.704 107.68 176.576 107.344 177.44 106.672V99.016C176.736 98.76 176.064 98.632 175.424 98.632C174.304 98.632 173.384 99.04 172.664 99.856C171.96 100.656 171.608 101.784 171.608 103.24C171.608 104.68 171.896 105.784 172.472 106.552C173.064 107.304 173.848 107.68 174.824 107.68ZM190.995 109.048L190.875 107.704C189.595 108.76 188.291 109.288 186.963 109.288C184.659 109.288 183.507 107.928 183.507 105.208V97.312L185.451 97.168V104.56C185.451 105.664 185.643 106.456 186.027 106.936C186.427 107.4 187.011 107.632 187.779 107.632C188.787 107.632 189.787 107.272 190.779 106.552C190.715 103.736 190.683 100.632 190.683 97.24H192.627C192.627 102.504 192.683 106.4 192.795 108.928L190.995 109.048ZM202.702 95.344H200.71L200.854 92.08H202.918L202.702 95.344ZM207.07 109H196.438V107.512H200.854V98.8L196.462 98.608L196.606 97.24H202.798V107.512H207.214L207.07 109ZM214.434 107.68C215.346 107.68 216.218 107.344 217.05 106.672C217.002 104.624 216.978 102.056 216.978 98.968C216.274 98.744 215.626 98.632 215.034 98.632C213.914 98.632 212.994 99.04 212.274 99.856C211.554 100.656 211.194 101.776 211.194 103.216C211.194 104.672 211.49 105.784 212.082 106.552C212.674 107.304 213.458 107.68 214.434 107.68ZM217.266 109.048L217.146 107.824C216.106 108.8 214.954 109.288 213.69 109.288C212.394 109.288 211.33 108.792 210.498 107.8C209.682 106.792 209.274 105.432 209.274 103.72C209.274 101.656 209.914 100.016 211.194 98.8C212.474 97.584 214.05 96.976 215.922 96.976C216.29 96.976 216.642 97 216.978 97.048V92.224L218.922 92.056V97.288C218.922 102.584 218.978 106.472 219.09 108.952L217.266 109.048ZM227.461 109.336C225.973 109.336 224.765 108.8 223.837 107.728C222.909 106.656 222.445 105.192 222.445 103.336C222.445 101.464 222.981 99.928 224.053 98.728C225.141 97.528 226.461 96.928 228.013 96.928C229.501 96.928 230.701 97.464 231.613 98.536C232.541 99.592 233.005 101.048 233.005 102.904C233.005 104.808 232.469 106.36 231.397 107.56C230.325 108.744 229.013 109.336 227.461 109.336ZM227.773 107.728C228.765 107.728 229.557 107.344 230.149 106.576C230.757 105.792 231.061 104.688 231.061 103.264C231.061 101.76 230.749 100.592 230.125 99.76C229.517 98.928 228.701 98.512 227.677 98.512C226.701 98.512 225.909 98.904 225.301 99.688C224.709 100.472 224.413 101.568 224.413 102.976C224.413 104.48 224.717 105.648 225.325 106.48C225.933 107.312 226.749 107.728 227.773 107.728Z" fill="black"/>
</g>
<line y1="119.5" x2="360" y2="119.5" stroke="#3D1A1A" stroke-opacity="0.2"/>
<line x1="0.5" y1="80" x2="0.499998" y2="119" stroke="#3D1A1A" stroke-opacity="0.2"/>
<line x1="359.5" y1="80" x2="359.5" y2="119" stroke="#3D1A1A" stroke-opacity="0.2"/>
<path d="M0 5C0 2.23858 2.23858 0 5 0H355C357.761 0 360 2.23858 360 5V40H0V5Z" fill="#836B7F"/>
<path d="M22.656 30L23.328 26.584H15.964L18.652 12.64H14.564L11.204 30H22.656ZM31.1065 12.64L31.7785 14.292C34.0185 13.788 38.0505 12.36 40.2625 10.932L37.8265 7.964C35.9785 9.588 32.8985 11.688 31.1065 12.64ZM39.4785 28.488L39.1705 26.5C33.8505 27.34 33.6825 27.088 34.2985 24.764L36.6225 15.804H33.4025L27.4945 17.148L27.7745 19.108L32.1145 18.968L30.3225 25.492C29.0345 30.14 31.4705 31.988 39.4785 28.488ZM55.8811 33.388L55.5731 31.456C53.0811 31.876 53.0251 31.82 53.2211 30.784L56.0211 16.308C54.7891 15.804 52.9971 15.412 51.6251 15.412C45.6891 15.412 42.3011 20.536 42.3011 25.604C42.3011 28.824 43.8131 30.364 45.5771 30.364C46.9771 30.364 48.5451 29.412 50.0011 28.096L49.3011 31.876C48.6291 35.432 50.2811 36.244 55.8811 33.388ZM47.5931 26.752C46.7811 26.752 46.1371 26.08 46.1371 24.54C46.1371 21.936 47.5931 18.604 49.3571 18.604C49.8891 18.604 50.7571 18.772 51.6811 19.052L50.5331 25.24C49.4971 26.108 48.4051 26.752 47.5931 26.752ZM71.7516 28.712L71.4436 26.808C69.6236 27.256 69.5396 27.144 69.7636 26.052L71.7516 15.804H67.9716L66.1796 25.044C65.1996 26.136 64.1916 26.696 63.4356 26.696C62.5676 26.696 62.3716 26.024 62.6516 24.708L64.5836 15.636L60.8036 15.86L58.1996 19.5L59.7676 20.536L58.7876 25.24C58.0596 28.656 59.0676 30.392 61.2516 30.392C62.7356 30.392 64.2196 29.552 65.7036 27.9C65.6196 30.616 67.3276 31.372 71.7516 28.712ZM84.3181 13.62L85.5221 9.672L81.0421 9.896L80.1181 13.816L84.3181 13.62ZM86.5021 28.488L86.1941 26.5C80.8741 27.34 80.7061 27.088 81.3221 24.764L83.6461 15.804H80.4261L74.5181 17.148L74.7981 19.108L79.1381 18.968L77.3461 25.492C76.0581 30.14 78.4941 31.988 86.5021 28.488ZM94.4207 26.724C93.6927 26.724 93.1047 26.08 93.1047 24.512C93.1047 21.964 94.6727 18.632 96.3247 18.632C96.7447 18.632 97.5567 18.744 98.4247 19.052L97.2487 25.184C96.2407 26.08 95.1767 26.724 94.4207 26.724ZM103.101 28.656L102.821 26.808C100.721 27.256 100.637 27.228 100.833 26.136L103.913 10.232L100.077 10.512L99.1247 15.468C98.7887 15.44 98.4527 15.412 98.1447 15.412C92.5727 15.412 89.2407 20.648 89.2407 25.66C89.2407 28.824 90.6127 30.364 92.2927 30.364C93.7487 30.364 95.4847 29.16 97.0247 27.676C96.8567 30.504 98.2567 31.372 103.101 28.656ZM105.083 24.512C105.083 28.152 107.239 30.392 110.655 30.392C115.219 30.392 118.467 26.108 118.467 21.264C118.467 17.624 116.311 15.384 112.895 15.384C108.331 15.384 105.083 19.668 105.083 24.512ZM114.519 21.74C114.519 24.456 113.175 27.2 111.159 27.2C109.871 27.2 109.031 26.08 109.031 24.036C109.031 21.32 110.375 18.576 112.391 18.576C113.679 18.576 114.519 19.696 114.519 21.74ZM147.94 23.252L148.556 20.172H142.48L143.292 16.056H150.488L151.104 12.64H139.876L136.516 30H140.576L141.892 23.252H147.94ZM162.691 13.62L163.895 9.672L159.415 9.896L158.491 13.816L162.691 13.62ZM164.875 28.488L164.567 26.5C159.247 27.34 159.079 27.088 159.695 24.764L162.019 15.804H158.799L152.891 17.148L153.171 19.108L157.511 18.968L155.719 25.492C154.431 30.14 156.867 31.988 164.875 28.488ZM181.361 28.712L181.053 26.808C179.485 27.2 179.317 27.116 179.317 26.612C179.317 25.324 180.913 21.068 180.913 18.296C180.913 16.756 180.325 15.412 178.337 15.412C176.713 15.412 175.033 16.308 173.381 18.016L173.689 15.692L169.881 15.916C169.321 20.088 168.677 23.28 167.389 30H171.169L173.045 20.732C174.137 19.668 175.061 19.108 175.789 19.108C176.489 19.108 176.769 19.584 176.769 20.312C176.769 22.216 175.229 26.192 175.229 28.32C175.229 30.616 177.329 31.204 181.361 28.712ZM188.356 26.696C187.712 26.696 187.18 26.276 187.18 25.044C187.18 22.244 188.636 18.744 190.288 18.744C190.764 18.744 191.548 18.884 192.416 19.192C192.024 21.208 191.492 23.952 191.24 25.212C190.204 26.108 189.084 26.696 188.356 26.696ZM196.952 28.712L196.644 26.808C194.712 27.172 194.628 27.144 194.852 26.024L196.756 16.168C195.272 15.72 193.648 15.496 192.304 15.496C186.564 15.496 183.26 20.788 183.26 25.996C183.26 28.964 184.52 30.364 186.172 30.364C187.656 30.364 189.476 29.16 191.072 27.592C190.96 30.532 192.36 31.456 196.952 28.712ZM211.758 28.264L211.254 26.388C207.558 27.676 205.682 27.508 205.15 25.184C210.33 21.264 213.298 17.148 213.298 13.564C213.298 11.352 212.094 10.176 210.19 10.176C205.738 10.176 201.034 16.392 201.034 24.12C201.034 24.54 201.062 24.932 201.09 25.324L199.186 26.528L200.082 28.04L201.482 27.228C202.686 30.868 206.382 31.316 211.758 28.264ZM208.762 13.984C209.294 13.984 209.742 14.348 209.742 15.272C209.742 17.036 208.202 19.78 204.982 22.776C205.15 17.4 207.11 13.984 208.762 13.984Z" fill="#EEEEEE"/>
<rect width="360" height="66" transform="translate(0 120)" fill="#C3C4A2" fill-opacity="0.15"/>
<g opacity="0.7">
<path d="M11.92 140.312C11.92 139.464 12.072 138.688 12.376 137.984C12.696 137.28 13.184 136.632 13.84 136.04C14.512 135.448 15.448 134.984 16.648 134.648C17.864 134.296 19.296 134.104 20.944 134.072L21.088 135.92C19.616 135.92 18.384 136.016 17.392 136.208C16.416 136.384 15.672 136.664 15.16 137.048C14.664 137.432 14.32 137.864 14.128 138.344C13.936 138.808 13.84 139.376 13.84 140.048C13.84 141.68 14.384 142.856 15.472 143.576C16.56 144.296 18.488 144.592 21.256 144.464L21.04 146.096C19.312 146.208 17.84 146.152 16.624 145.928C15.408 145.688 14.464 145.288 13.792 144.728C13.12 144.168 12.64 143.536 12.352 142.832C12.064 142.112 11.92 141.272 11.92 140.312ZM29.5313 146.336C28.0433 146.336 26.8353 145.8 25.9073 144.728C24.9793 143.656 24.5153 142.192 24.5153 140.336C24.5153 138.464 25.0513 136.928 26.1233 135.728C27.2113 134.528 28.5313 133.928 30.0833 133.928C31.5713 133.928 32.7713 134.464 33.6833 135.536C34.6113 136.592 35.0753 138.048 35.0753 139.904C35.0753 141.808 34.5393 143.36 33.4673 144.56C32.3953 145.744 31.0833 146.336 29.5313 146.336ZM29.8433 144.728C30.8353 144.728 31.6273 144.344 32.2193 143.576C32.8273 142.792 33.1313 141.688 33.1313 140.264C33.1313 138.76 32.8193 137.592 32.1953 136.76C31.5873 135.928 30.7713 135.512 29.7473 135.512C28.7713 135.512 27.9793 135.904 27.3713 136.688C26.7793 137.472 26.4833 138.568 26.4833 139.976C26.4833 141.48 26.7873 142.648 27.3953 143.48C28.0033 144.312 28.8193 144.728 29.8433 144.728ZM43.3746 135.632C42.3666 135.632 41.3586 135.976 40.3506 136.664C40.4146 139.512 40.4466 142.624 40.4466 146H38.5026C38.5026 140.736 38.4466 136.84 38.3346 134.312L40.1346 134.192L40.2546 135.536C41.5026 134.496 42.8146 133.976 44.1906 133.976C46.5266 133.976 47.6946 135.328 47.6946 138.032V146H45.7506V138.68C45.7506 137.592 45.5506 136.816 45.1506 136.352C44.7506 135.872 44.1586 135.632 43.3746 135.632ZM51.5059 140.312C51.5059 139.464 51.6579 138.688 51.9619 137.984C52.2819 137.28 52.7699 136.632 53.4259 136.04C54.0979 135.448 55.0339 134.984 56.2339 134.648C57.4499 134.296 58.8819 134.104 60.5299 134.072L60.6739 135.92C59.2019 135.92 57.9699 136.016 56.9779 136.208C56.0019 136.384 55.2579 136.664 54.7459 137.048C54.2499 137.432 53.9059 137.864 53.7139 138.344C53.5219 138.808 53.4259 139.376 53.4259 140.048C53.4259 141.68 53.9699 142.856 55.0579 143.576C56.1459 144.296 58.0739 144.592 60.8419 144.464L60.6259 146.096C58.8979 146.208 57.4259 146.152 56.2099 145.928C54.9939 145.688 54.0499 145.288 53.3779 144.728C52.7059 144.168 52.2259 143.536 51.9379 142.832C51.6499 142.112 51.5059 141.272 51.5059 140.312ZM73.7253 146.264C71.9173 146.264 70.3973 146.136 69.1653 145.88C67.9333 145.608 66.9653 145.208 66.2613 144.68C65.5733 144.152 65.0853 143.536 64.7973 142.832C64.5093 142.128 64.3652 141.28 64.3652 140.288C64.3652 138.512 64.9013 137.016 65.9733 135.8C67.0613 134.568 68.3733 133.952 69.9093 133.952C71.4933 133.952 72.6773 134.544 73.4613 135.728C74.2613 136.896 74.5493 138.464 74.3253 140.432L66.2853 140.624C66.3813 142.032 66.9733 143.032 68.0613 143.624C69.1653 144.216 71.1173 144.544 73.9173 144.608L73.7253 146.264ZM69.5733 135.56C68.5973 135.56 67.8213 135.896 67.2453 136.568C66.6693 137.224 66.3493 138.176 66.2853 139.424C67.4533 139.376 69.5253 139.312 72.5013 139.232C72.4853 138.08 72.2293 137.184 71.7333 136.544C71.2533 135.888 70.5333 135.56 69.5733 135.56ZM87.0166 146.192C84.5046 146.224 82.7446 145.944 81.7366 145.352C80.7286 144.744 80.2246 143.704 80.2246 142.232V135.752H77.8006L77.9926 134.24H80.2246V130.976L82.1686 130.808V134.24H86.9686V135.752H82.1686V141.92C82.1686 142.928 82.5126 143.616 83.2006 143.984C83.9046 144.336 85.2486 144.528 87.2326 144.56L87.0166 146.192ZM99.6119 146H90.7799V144.512H93.8999C93.8359 139.776 93.7879 136.872 93.7559 135.8L90.7799 135.632L90.9239 134.24H95.4839C95.5479 134.912 95.5959 135.584 95.6279 136.256C96.9399 134.896 98.7319 134.08 101.004 133.808L101.1 135.872C98.8279 136.048 97.0279 136.568 95.6999 137.432C95.6999 137.864 95.7079 138.896 95.7239 140.528C95.7559 142.144 95.7799 143.472 95.7959 144.512H99.7799L99.6119 146ZM108.319 144.752C109.471 144.752 110.583 144.328 111.655 143.48C111.623 142.456 111.607 141.528 111.607 140.696C107.799 140.296 105.895 140.992 105.895 142.784C105.895 143.408 106.111 143.896 106.543 144.248C106.991 144.584 107.583 144.752 108.319 144.752ZM111.919 146.072C111.919 146.04 111.895 145.832 111.847 145.448C111.799 145.064 111.767 144.768 111.751 144.56C110.503 145.712 109.111 146.288 107.575 146.288C106.487 146.288 105.615 146.016 104.959 145.472C104.303 144.928 103.975 144.184 103.975 143.24C103.975 141.96 104.623 140.952 105.919 140.216C107.215 139.464 109.103 139.16 111.583 139.304C111.503 137.96 110.991 137.048 110.047 136.568C109.119 136.088 107.327 135.8 104.671 135.704L104.887 134.024C107.191 134.088 108.951 134.32 110.167 134.72C111.383 135.12 112.239 135.744 112.735 136.592C113.247 137.424 113.503 138.616 113.503 140.168C113.503 141.784 113.567 143.712 113.695 145.952L111.919 146.072ZM117.483 140.312C117.483 139.464 117.635 138.688 117.939 137.984C118.259 137.28 118.747 136.632 119.403 136.04C120.075 135.448 121.011 134.984 122.211 134.648C123.427 134.296 124.859 134.104 126.507 134.072L126.651 135.92C125.179 135.92 123.947 136.016 122.955 136.208C121.979 136.384 121.235 136.664 120.723 137.048C120.227 137.432 119.883 137.864 119.691 138.344C119.499 138.808 119.403 139.376 119.403 140.048C119.403 141.68 119.947 142.856 121.035 143.576C122.123 144.296 124.051 144.592 126.819 144.464L126.603 146.096C124.875 146.208 123.403 146.152 122.187 145.928C120.971 145.688 120.027 145.288 119.355 144.728C118.683 144.168 118.203 143.536 117.915 142.832C117.627 142.112 117.483 141.272 117.483 140.312ZM136.726 132.344H134.734L134.878 129.08H136.942L136.726 132.344ZM141.094 146H130.462V144.512H134.878V135.8L130.486 135.608L130.63 134.24H136.822V144.512H141.238L141.094 146ZM146.033 131.624C146.721 131.144 147.513 130.488 148.409 129.656C149.321 128.808 150.073 128.04 150.665 127.352L152.225 128.864C151.569 129.456 150.689 130.104 149.585 130.808C148.481 131.496 147.481 132.056 146.585 132.488L146.033 131.624ZM148.289 146.336C146.801 146.336 145.593 145.8 144.665 144.728C143.737 143.656 143.273 142.192 143.273 140.336C143.273 138.464 143.809 136.928 144.881 135.728C145.969 134.528 147.289 133.928 148.841 133.928C150.329 133.928 151.529 134.464 152.441 135.536C153.369 136.592 153.833 138.048 153.833 139.904C153.833 141.808 153.297 143.36 152.225 144.56C151.153 145.744 149.841 146.336 148.289 146.336ZM148.601 144.728C149.593 144.728 150.385 144.344 150.977 143.576C151.585 142.792 151.889 141.688 151.889 140.264C151.889 138.76 151.577 137.592 150.953 136.76C150.345 135.928 149.529 135.512 148.505 135.512C147.529 135.512 146.737 135.904 146.129 136.688C145.537 137.472 145.241 138.568 145.241 139.976C145.241 141.48 145.545 142.648 146.153 143.48C146.761 144.312 147.577 144.728 148.601 144.728ZM162.132 135.632C161.124 135.632 160.116 135.976 159.108 136.664C159.172 139.512 159.204 142.624 159.204 146H157.26C157.26 140.736 157.204 136.84 157.092 134.312L158.892 134.192L159.012 135.536C160.26 134.496 161.572 133.976 162.948 133.976C165.284 133.976 166.452 135.328 166.452 138.032V146H164.508V138.68C164.508 137.592 164.308 136.816 163.908 136.352C163.508 135.872 162.916 135.632 162.132 135.632ZM16.504 175.68C17.416 175.68 18.288 175.344 19.12 174.672C19.072 172.624 19.048 170.056 19.048 166.968C18.344 166.744 17.696 166.632 17.104 166.632C15.984 166.632 15.064 167.04 14.344 167.856C13.624 168.656 13.264 169.776 13.264 171.216C13.264 172.672 13.56 173.784 14.152 174.552C14.744 175.304 15.528 175.68 16.504 175.68ZM19.336 177.048L19.216 175.824C18.176 176.8 17.024 177.288 15.76 177.288C14.464 177.288 13.4 176.792 12.568 175.8C11.752 174.792 11.344 173.432 11.344 171.72C11.344 169.656 11.984 168.016 13.264 166.8C14.544 165.584 16.12 164.976 17.992 164.976C18.36 164.976 18.712 165 19.048 165.048V160.224L20.992 160.056V165.288C20.992 170.584 21.048 174.472 21.16 176.952L19.336 177.048ZM34.1393 177.264C32.3313 177.264 30.8113 177.136 29.5793 176.88C28.3473 176.608 27.3793 176.208 26.6753 175.68C25.9873 175.152 25.4993 174.536 25.2113 173.832C24.9233 173.128 24.7793 172.28 24.7793 171.288C24.7793 169.512 25.3153 168.016 26.3873 166.8C27.4753 165.568 28.7873 164.952 30.3233 164.952C31.9073 164.952 33.0913 165.544 33.8753 166.728C34.6753 167.896 34.9633 169.464 34.7393 171.432L26.6993 171.624C26.7953 173.032 27.3873 174.032 28.4753 174.624C29.5793 175.216 31.5313 175.544 34.3313 175.608L34.1393 177.264ZM29.9873 166.56C29.0113 166.56 28.2353 166.896 27.6593 167.568C27.0833 168.224 26.7633 169.176 26.6993 170.424C27.8673 170.376 29.9393 170.312 32.9153 170.232C32.8993 169.08 32.6433 168.184 32.1473 167.544C31.6673 166.888 30.9473 166.56 29.9873 166.56ZM56.5699 166.632C55.5619 166.632 54.5539 166.976 53.5459 167.664C53.6099 170.512 53.6419 173.624 53.6419 177H51.6979C51.6979 171.736 51.6419 167.84 51.5299 165.312L53.3299 165.192L53.4499 166.536C54.6979 165.496 56.0099 164.976 57.3859 164.976C59.7219 164.976 60.8899 166.328 60.8899 169.032V177H58.9459V169.68C58.9459 168.592 58.7459 167.816 58.3459 167.352C57.9459 166.872 57.3539 166.632 56.5699 166.632ZM70.7493 163.344H68.7573L68.9013 160.08H70.9653L70.7493 163.344ZM75.1172 177H64.4853V175.512H68.9013V166.8L64.5093 166.608L64.6533 165.24H70.8453V175.512H75.2613L75.1172 177ZM77.8966 171.312C77.8966 170.464 78.0486 169.688 78.3526 168.984C78.6726 168.28 79.1606 167.632 79.8166 167.04C80.4886 166.448 81.4246 165.984 82.6246 165.648C83.8406 165.296 85.2726 165.104 86.9206 165.072L87.0646 166.92C85.5926 166.92 84.3606 167.016 83.3686 167.208C82.3926 167.384 81.6486 167.664 81.1366 168.048C80.6406 168.432 80.2966 168.864 80.1046 169.344C79.9126 169.808 79.8166 170.376 79.8166 171.048C79.8166 172.68 80.3606 173.856 81.4486 174.576C82.5366 175.296 84.4646 175.592 87.2326 175.464L87.0166 177.096C85.2886 177.208 83.8166 177.152 82.6006 176.928C81.3846 176.688 80.4406 176.288 79.7686 175.728C79.0966 175.168 78.6166 174.536 78.3286 173.832C78.0406 173.112 77.8966 172.272 77.8966 171.312ZM95.5079 177.336C94.0199 177.336 92.8119 176.8 91.8839 175.728C90.9559 174.656 90.4919 173.192 90.4919 171.336C90.4919 169.464 91.0279 167.928 92.0999 166.728C93.1879 165.528 94.5079 164.928 96.0599 164.928C97.5479 164.928 98.7479 165.464 99.6599 166.536C100.588 167.592 101.052 169.048 101.052 170.904C101.052 172.808 100.516 174.36 99.4439 175.56C98.3719 176.744 97.0599 177.336 95.5079 177.336ZM95.8199 175.728C96.8119 175.728 97.6039 175.344 98.1959 174.576C98.8039 173.792 99.1079 172.688 99.1079 171.264C99.1079 169.76 98.7959 168.592 98.1719 167.76C97.5639 166.928 96.7479 166.512 95.7239 166.512C94.7479 166.512 93.9559 166.904 93.3479 167.688C92.7559 168.472 92.4599 169.568 92.4599 170.976C92.4599 172.48 92.7639 173.648 93.3719 174.48C93.9799 175.312 94.7959 175.728 95.8199 175.728ZM113.407 177.192C110.895 177.224 109.135 176.944 108.127 176.352C107.119 175.744 106.615 174.704 106.615 173.232V166.752H104.191L104.383 165.24H106.615V161.976L108.559 161.808V165.24H113.359V166.752H108.559V172.92C108.559 173.928 108.903 174.616 109.591 174.984C110.295 175.336 111.639 175.528 113.623 175.56L113.407 177.192ZM123.531 163.344H121.539L121.683 160.08H123.747L123.531 163.344ZM127.898 177H117.267V175.512H121.683V166.8L117.291 166.608L117.435 165.24H123.627V175.512H128.043L127.898 177ZM135.742 166.632C134.734 166.632 133.726 166.976 132.718 167.664C132.782 170.512 132.814 173.624 132.814 177H130.87C130.87 171.736 130.814 167.84 130.702 165.312L132.502 165.192L132.622 166.536C133.87 165.496 135.182 164.976 136.558 164.976C138.894 164.976 140.062 166.328 140.062 169.032V177H138.118V169.68C138.118 168.592 137.918 167.816 137.518 167.352C137.118 166.872 136.526 166.632 135.742 166.632ZM147.905 175.752C149.057 175.752 150.169 175.328 151.241 174.48C151.209 173.456 151.193 172.528 151.193 171.696C147.385 171.296 145.481 171.992 145.481 173.784C145.481 174.408 145.697 174.896 146.129 175.248C146.577 175.584 147.169 175.752 147.905 175.752ZM151.505 177.072C151.505 177.04 151.481 176.832 151.433 176.448C151.385 176.064 151.353 175.768 151.337 175.56C150.089 176.712 148.697 177.288 147.161 177.288C146.073 177.288 145.201 177.016 144.545 176.472C143.889 175.928 143.561 175.184 143.561 174.24C143.561 172.96 144.209 171.952 145.505 171.216C146.801 170.464 148.689 170.16 151.169 170.304C151.089 168.96 150.577 168.048 149.633 167.568C148.705 167.088 146.913 166.8 144.257 166.704L144.473 165.024C146.777 165.088 148.537 165.32 149.753 165.72C150.969 166.12 151.825 166.744 152.321 167.592C152.833 168.424 153.089 169.616 153.089 171.168C153.089 172.784 153.153 174.712 153.281 176.952L151.505 177.072Z" fill="black"/>
</g>
<line y1="185.5" x2="360" y2="185.5" stroke="#3D1A1A" stroke-opacity="0.2"/>
<line x1="0.5" y1="120" x2="0.499997" y2="184.35" stroke="#3D1A1A" stroke-opacity="0.2"/>
<line x1="359.5" y1="120" x2="359.5" y2="184.35" stroke="#3D1A1A" stroke-opacity="0.2"/>
<rect x="322" y="43" width="32" height="33" rx="16" fill="#836B7F"/>
<path d="M329.94 68.5V55.936H334.71C335.934 55.936 336.87 56.284 337.518 56.98C338.166 57.676 338.49 58.624 338.49 59.824C338.49 61.024 338.166 61.972 337.518 62.668C336.87 63.364 335.934 63.712 334.71 63.712H332.298V68.5H329.94ZM332.298 61.786H334.224C334.86 61.786 335.316 61.66 335.592 61.408C335.868 61.144 336.006 60.73 336.006 60.166V59.482C336.006 58.918 335.868 58.51 335.592 58.258C335.316 57.994 334.86 57.862 334.224 57.862H332.298V61.786ZM344.279 62.992L342.965 64.72V68.5H340.607V55.936H342.965V61.588H343.073L344.531 59.5L347.177 55.936H349.841L345.899 61.228L350.021 68.5H347.357L344.279 62.992Z" fill="white"/>
<rect x="322" y="83" width="32" height="73" rx="16" fill="#D6CACD"/>
<path d="M331.974 95.936V103.766C331.974 104.234 331.986 104.654 332.01 105.026C332.046 105.398 332.124 105.716 332.244 105.98C332.376 106.232 332.568 106.43 332.82 106.574C333.084 106.718 333.444 106.79 333.9 106.79C334.356 106.79 334.71 106.718 334.962 106.574C335.226 106.43 335.418 106.232 335.538 105.98C335.67 105.716 335.748 105.398 335.772 105.026C335.808 104.654 335.826 104.234 335.826 103.766V95.936H338.184V103.406C338.184 104.294 338.13 105.068 338.022 105.728C337.914 106.388 337.704 106.94 337.392 107.384C337.08 107.828 336.642 108.164 336.078 108.392C335.526 108.608 334.8 108.716 333.9 108.716C333 108.716 332.268 108.608 331.704 108.392C331.152 108.164 330.72 107.828 330.408 107.384C330.096 106.94 329.886 106.388 329.778 105.728C329.67 105.068 329.616 104.294 329.616 103.406V95.936H331.974ZM344.279 102.992L342.965 104.72V108.5H340.607V95.936H342.965V101.588H343.073L344.531 99.5L347.177 95.936H349.841L345.899 101.228L350.021 108.5H347.357L344.279 102.992Z" fill="black"/>
<rect x="244" y="83" width="32" height="33" rx="16" fill="#C3C4A2"/>
<path d="M251.994 108.5V95.936H260.202V97.88H254.352V101.156H259.626V103.1H254.352V108.5H251.994ZM266.279 102.992L264.965 104.72V108.5H262.607V95.936H264.965V101.588H265.073L266.531 99.5L269.177 95.936H271.841L267.899 101.228L272.021 108.5H269.357L266.279 102.992Z" fill="black"/>
<rect x="244" y="123" width="32" height="33" rx="16" fill="#C3C4A2"/>
<path d="M251.994 148.5V135.936H260.202V137.88H254.352V141.156H259.626V143.1H254.352V148.5H251.994ZM266.279 142.992L264.965 144.72V148.5H262.607V135.936H264.965V141.588H265.073L266.531 139.5L269.177 135.936H271.841L267.899 141.228L272.021 148.5H269.357L266.279 142.992Z" fill="black"/>
<rect x="282" y="83" width="32" height="33" rx="16" fill="#9DA076"/>
<path d="M291.902 99.482H291.722V108.5H289.706V95.936H292.604L295.898 104.954H296.078V95.936H298.094V108.5H295.196L291.902 99.482ZM302.695 99.482H302.515V108.5H300.499V95.936H303.397L306.691 104.954H306.871V95.936H308.887V108.5H305.989L302.695 99.482Z" fill="white"/>
<rect x="282" y="123" width="32" height="33" rx="16" fill="#9DA076"/>
<path d="M291.902 139.482H291.722V148.5H289.706V135.936H292.604L295.898 144.954H296.078V135.936H298.094V148.5H295.196L291.902 139.482ZM302.695 139.482H302.515V148.5H300.499V135.936H303.397L306.691 144.954H306.871V135.936H308.887V148.5H305.989L302.695 139.482Z" fill="white"/>
</svg>
