<svg width="360" height="160" viewBox="0 0 360 160" fill="none" xmlns="http://www.w3.org/2000/svg">
<rect width="360" height="40" transform="translate(0 40)" fill="#C3C4A2" fill-opacity="0.15"/>
<g opacity="0.7">
<path d="M16.984 58.632C18.472 58.632 19.36 59.424 19.36 61.68V69H21.304V61.032C21.304 58.152 19.912 56.976 17.8 56.976C16.12 56.976 14.848 57.72 13.864 58.536L13.744 57.192L11.944 57.312C12.064 60.024 12.112 63.864 12.112 69H14.056C14.056 64.896 14.008 61.8 13.96 59.664C14.872 59.04 15.856 58.632 16.984 58.632ZM29.5313 69.336C32.5553 69.336 35.0753 66.792 35.0753 62.904C35.0753 59.136 33.0113 56.928 30.0833 56.928C27.0593 56.928 24.5153 59.52 24.5153 63.336C24.5153 67.128 26.6273 69.336 29.5313 69.336ZM29.8433 67.728C27.8513 67.728 26.4833 66.048 26.4833 62.976C26.4833 60.096 27.8273 58.512 29.7473 58.512C31.7633 58.512 33.1313 60.216 33.1313 63.264C33.1313 66.168 31.7873 67.728 29.8433 67.728ZM41.2386 58.632C42.0306 58.632 42.3426 59.088 42.3426 60.288V69H43.8546V59.544C43.8546 59.472 43.8546 59.4 43.8546 59.328C44.3586 58.872 44.8866 58.632 45.4146 58.632C46.2306 58.632 46.5426 59.088 46.5426 60.312V69H48.3906V59.616C48.3906 57.84 47.6466 56.976 46.3266 56.976C45.2946 56.976 44.4066 57.552 43.7586 58.224C43.4706 57.432 42.8466 56.976 41.9586 56.976C40.9746 56.976 40.0866 57.552 39.4146 58.296L39.3186 57.192L37.6146 57.312C37.7106 60.024 37.7586 63.864 37.7586 69H39.5826C39.5826 64.872 39.5346 61.656 39.4866 59.52C40.0626 58.944 40.7106 58.632 41.2386 58.632ZM55.2019 69.288C58.4659 69.288 61.4419 66.744 61.4419 62.592C61.4419 59.16 59.5939 56.976 57.0739 56.976C55.6819 56.976 54.5539 57.576 53.6899 58.296V52.056L51.7459 52.224V68.688C52.8259 69.072 53.9779 69.288 55.2019 69.288ZM55.8739 67.608C55.1539 67.608 54.4339 67.464 53.6899 67.2V59.52C54.4579 58.944 55.3939 58.584 56.3059 58.584C58.1779 58.584 59.5219 60.144 59.5219 63.072C59.5219 66.072 57.9859 67.608 55.8739 67.608ZM73.2213 69L73.3893 67.512H69.4053C69.3813 64.776 69.3333 62.472 69.3093 60.432C70.6053 59.592 72.3093 59.064 74.7093 58.872L74.6133 56.808C72.1893 57.096 70.3893 58.056 69.2373 59.256C69.2133 58.704 69.1172 57.48 69.0933 57.24H64.5333L64.3893 58.632L67.3653 58.8C67.4373 61.152 67.4613 63.912 67.5093 67.512H64.3893V69H73.2213ZM86.9206 69.264L87.1126 67.608C81.4246 67.464 79.6726 66.408 79.4806 63.624L87.5206 63.432C87.9526 59.544 86.3206 56.952 83.1046 56.952C80.0566 56.952 77.5606 59.712 77.5606 63.288C77.5606 67.104 79.5526 69.24 86.9206 69.264ZM82.7686 58.56C84.7366 58.56 85.6726 59.976 85.6966 62.232C84.0406 62.28 80.8246 62.376 79.4806 62.424C79.6246 59.904 80.8246 58.56 82.7686 58.56ZM108.871 67.68C106.975 67.68 105.631 66.216 105.631 63.216C105.631 60.24 107.311 58.632 109.471 58.632C110.095 58.632 110.743 58.752 111.415 58.968C111.415 62.256 111.439 64.632 111.487 66.672C110.767 67.248 109.855 67.68 108.871 67.68ZM111.703 69.048L113.527 68.952C113.407 66.288 113.359 62.568 113.359 57.288V52.056L111.415 52.224V57.048C111.079 57 110.719 56.976 110.359 56.976C106.783 56.976 103.711 59.424 103.711 63.72C103.711 67.2 105.583 69.288 108.127 69.288C109.567 69.288 110.743 68.616 111.583 67.824L111.703 69.048ZM126.507 69.264L126.699 67.608C121.011 67.464 119.259 66.408 119.067 63.624L127.107 63.432C127.539 59.544 125.907 56.952 122.691 56.952C119.643 56.952 117.146 59.712 117.146 63.288C117.146 67.104 119.139 69.24 126.507 69.264ZM122.355 58.56C124.323 58.56 125.259 59.976 125.283 62.232C123.627 62.28 120.411 62.376 119.067 62.424C119.211 59.904 120.411 58.56 122.355 58.56ZM153.281 69L153.449 67.512H149.609V52.248H144.185L144.017 53.64L147.641 53.808V67.512H143.825V69H153.281ZM159.732 54.744L160.284 55.608C161.916 54.816 164.508 53.256 165.924 51.984L164.364 50.472C163.212 51.84 161.124 53.784 159.732 54.744ZM167.484 69L167.628 67.512H163.212V57.24H157.02L156.876 58.608L161.268 58.8V67.512H156.852V69H167.484ZM177.44 73.104L179.384 72.936V57.576C178.328 57.168 177.344 56.976 176.144 56.976C172.784 56.976 169.688 59.472 169.688 63.72C169.688 67.176 171.536 69.312 174.104 69.312C175.472 69.312 176.6 68.688 177.44 67.944V73.104ZM174.824 67.68C172.952 67.68 171.608 66.192 171.608 63.24C171.608 60.24 173.264 58.632 175.424 58.632C176.096 58.632 176.72 58.752 177.44 59.016V66.672C176.696 67.248 175.784 67.68 174.824 67.68ZM190.995 69.048L192.795 68.928C192.675 66.216 192.627 62.376 192.627 57.24H190.683C190.683 61.368 190.731 64.44 190.779 66.552C189.891 67.2 188.907 67.632 187.779 67.632C186.315 67.632 185.451 66.864 185.451 64.56V57.168L183.507 57.312V65.208C183.507 68.112 184.875 69.288 186.963 69.288C188.643 69.288 189.891 68.52 190.875 67.704L190.995 69.048ZM202.702 55.344L202.918 52.08H200.854L200.71 55.344H202.702ZM207.07 69L207.214 67.512H202.798V57.24H196.606L196.462 58.608L200.854 58.8V67.512H196.438V69H207.07ZM214.434 67.68C212.538 67.68 211.194 66.216 211.194 63.216C211.194 60.24 212.874 58.632 215.034 58.632C215.658 58.632 216.306 58.752 216.978 58.968C216.978 62.256 217.002 64.632 217.05 66.672C216.33 67.248 215.418 67.68 214.434 67.68ZM217.266 69.048L219.09 68.952C218.97 66.288 218.922 62.568 218.922 57.288V52.056L216.978 52.224V57.048C216.642 57 216.282 56.976 215.922 56.976C212.346 56.976 209.274 59.424 209.274 63.72C209.274 67.2 211.146 69.288 213.69 69.288C215.13 69.288 216.306 68.616 217.146 67.824L217.266 69.048ZM227.461 69.336C230.485 69.336 233.005 66.792 233.005 62.904C233.005 59.136 230.941 56.928 228.013 56.928C224.989 56.928 222.445 59.52 222.445 63.336C222.445 67.128 224.557 69.336 227.461 69.336ZM227.773 67.728C225.781 67.728 224.413 66.048 224.413 62.976C224.413 60.096 225.757 58.512 227.677 58.512C229.693 58.512 231.061 60.216 231.061 63.264C231.061 66.168 229.717 67.728 227.773 67.728Z" fill="black"/>
</g>
<line y1="79.5" x2="360" y2="79.5" stroke="#3D1A1A" stroke-opacity="0.2"/>
<line x1="0.5" y1="40" x2="0.499998" y2="79" stroke="#3D1A1A" stroke-opacity="0.2"/>
<line x1="359.5" y1="40" x2="359.5" y2="79" stroke="#3D1A1A" stroke-opacity="0.2"/>
<path d="M0 5C0 2.23858 2.23858 0 5 0H355C357.761 0 360 2.23858 360 5V40H0V5Z" fill="#836B7F"/>
<path d="M22.656 30L23.328 26.584H15.964L18.652 12.64H14.564L11.204 30H22.656ZM31.1065 12.64L31.7785 14.292C34.0185 13.788 38.0505 12.36 40.2625 10.932L37.8265 7.964C35.9785 9.588 32.8985 11.688 31.1065 12.64ZM39.4785 28.488L39.1705 26.5C33.8505 27.34 33.6825 27.088 34.2985 24.764L36.6225 15.804H33.4025L27.4945 17.148L27.7745 19.108L32.1145 18.968L30.3225 25.492C29.0345 30.14 31.4705 31.988 39.4785 28.488ZM55.8811 33.388L55.5731 31.456C53.0811 31.876 53.0251 31.82 53.2211 30.784L56.0211 16.308C54.7891 15.804 52.9971 15.412 51.6251 15.412C45.6891 15.412 42.3011 20.536 42.3011 25.604C42.3011 28.824 43.8131 30.364 45.5771 30.364C46.9771 30.364 48.5451 29.412 50.0011 28.096L49.3011 31.876C48.6291 35.432 50.2811 36.244 55.8811 33.388ZM47.5931 26.752C46.7811 26.752 46.1371 26.08 46.1371 24.54C46.1371 21.936 47.5931 18.604 49.3571 18.604C49.8891 18.604 50.7571 18.772 51.6811 19.052L50.5331 25.24C49.4971 26.108 48.4051 26.752 47.5931 26.752ZM71.7516 28.712L71.4436 26.808C69.6236 27.256 69.5396 27.144 69.7636 26.052L71.7516 15.804H67.9716L66.1796 25.044C65.1996 26.136 64.1916 26.696 63.4356 26.696C62.5676 26.696 62.3716 26.024 62.6516 24.708L64.5836 15.636L60.8036 15.86L58.1996 19.5L59.7676 20.536L58.7876 25.24C58.0596 28.656 59.0676 30.392 61.2516 30.392C62.7356 30.392 64.2196 29.552 65.7036 27.9C65.6196 30.616 67.3276 31.372 71.7516 28.712ZM84.3181 13.62L85.5221 9.672L81.0421 9.896L80.1181 13.816L84.3181 13.62ZM86.5021 28.488L86.1941 26.5C80.8741 27.34 80.7061 27.088 81.3221 24.764L83.6461 15.804H80.4261L74.5181 17.148L74.7981 19.108L79.1381 18.968L77.3461 25.492C76.0581 30.14 78.4941 31.988 86.5021 28.488ZM94.4207 26.724C93.6927 26.724 93.1047 26.08 93.1047 24.512C93.1047 21.964 94.6727 18.632 96.3247 18.632C96.7447 18.632 97.5567 18.744 98.4247 19.052L97.2487 25.184C96.2407 26.08 95.1767 26.724 94.4207 26.724ZM103.101 28.656L102.821 26.808C100.721 27.256 100.637 27.228 100.833 26.136L103.913 10.232L100.077 10.512L99.1247 15.468C98.7887 15.44 98.4527 15.412 98.1447 15.412C92.5727 15.412 89.2407 20.648 89.2407 25.66C89.2407 28.824 90.6127 30.364 92.2927 30.364C93.7487 30.364 95.4847 29.16 97.0247 27.676C96.8567 30.504 98.2567 31.372 103.101 28.656ZM105.083 24.512C105.083 28.152 107.239 30.392 110.655 30.392C115.219 30.392 118.467 26.108 118.467 21.264C118.467 17.624 116.311 15.384 112.895 15.384C108.331 15.384 105.083 19.668 105.083 24.512ZM114.519 21.74C114.519 24.456 113.175 27.2 111.159 27.2C109.871 27.2 109.031 26.08 109.031 24.036C109.031 21.32 110.375 18.576 112.391 18.576C113.679 18.576 114.519 19.696 114.519 21.74ZM149.368 24.484C149.368 22.86 148.444 21.572 146.848 20.984C149.032 19.948 150.292 18.324 150.292 16.476C150.292 13.592 147.268 11.576 139.484 12.78L136.152 29.972C145.756 31.204 149.368 27.928 149.368 24.484ZM146.372 17.372C146.372 18.772 145.056 20.032 142.032 20.368L142.928 15.636C145.168 15.412 146.372 16.112 146.372 17.372ZM145.476 24.624C145.476 26.248 143.852 27.396 140.772 26.92L141.612 22.58C144.3 22.272 145.476 23.14 145.476 24.624ZM157.147 12.332L157.819 13.984C160.059 13.48 164.091 12.052 166.303 10.624L163.867 7.656C162.019 9.28 158.939 11.38 157.147 12.332ZM157.007 26.696C156.363 26.696 155.831 26.276 155.831 25.044C155.831 22.244 157.287 18.744 158.939 18.744C159.415 18.744 160.199 18.884 161.067 19.192C160.675 21.208 160.143 23.952 159.891 25.212C158.855 26.108 157.735 26.696 157.007 26.696ZM165.603 28.712L165.295 26.808C163.363 27.172 163.279 27.144 163.503 26.024L165.407 16.168C163.923 15.72 162.299 15.496 160.955 15.496C155.215 15.496 151.911 20.788 151.911 25.996C151.911 28.964 153.171 30.364 154.823 30.364C156.307 30.364 158.127 29.16 159.723 27.592C159.611 30.532 161.011 31.456 165.603 28.712ZM180.325 25.548C180.325 23.252 178.001 21.292 176.797 19.64C179.597 16.84 178.561 14.964 176.153 14.964C174.081 14.964 171.897 16.224 171.897 18.408C171.897 19.024 172.093 19.612 172.373 20.172C171.449 20.9 170.161 21.74 168.453 22.776L169.265 24.512C171.029 23.644 172.513 22.832 173.717 22.048C175.005 23.476 176.461 24.736 176.461 25.744C176.461 26.752 174.837 27.032 169.909 26.78L169.825 30.28C177.945 30.364 180.325 28.068 180.325 25.548ZM194.04 13.62L195.244 9.672L190.764 9.896L189.84 13.816L194.04 13.62ZM196.224 28.488L195.916 26.5C190.596 27.34 190.428 27.088 191.044 24.764L193.368 15.804H190.148L184.24 17.148L184.52 19.108L188.86 18.968L187.068 25.492C185.78 30.14 188.216 31.988 196.224 28.488ZM212.29 21.012C212.626 16.98 211.282 15.412 208.286 15.412C203.442 15.412 199.41 19.78 199.41 24.904C199.41 29.328 202.91 32.38 211.254 28.656L210.974 26.64C204.59 27.564 203.302 26.892 203.302 24.092C203.302 21.264 204.982 18.716 207.166 18.716C208.37 18.716 208.79 19.416 208.762 21.068L212.29 21.012ZM214.805 24.512C214.805 28.152 216.961 30.392 220.377 30.392C224.941 30.392 228.189 26.108 228.189 21.264C228.189 17.624 226.033 15.384 222.617 15.384C218.053 15.384 214.805 19.668 214.805 24.512ZM224.241 21.74C224.241 24.456 222.897 27.2 220.881 27.2C219.593 27.2 218.753 26.08 218.753 24.036C218.753 21.32 220.097 18.576 222.113 18.576C223.401 18.576 224.241 19.696 224.241 21.74Z" fill="#EEEEEE"/>
<rect width="360" height="40" transform="translate(0 120)" fill="#C3C4A2" fill-opacity="0.15"/>
<g opacity="0.7">
<path d="M11.92 143.312C11.92 146.912 13.912 149.576 21.04 149.096L21.256 147.464C15.496 147.728 13.84 146.144 13.84 143.048C13.84 140.552 15.016 138.896 21.088 138.92L20.944 137.072C14.104 137.216 11.92 140.072 11.92 143.312ZM29.5313 149.336C32.5553 149.336 35.0753 146.792 35.0753 142.904C35.0753 139.136 33.0113 136.928 30.0833 136.928C27.0593 136.928 24.5153 139.52 24.5153 143.336C24.5153 147.128 26.6273 149.336 29.5313 149.336ZM29.8433 147.728C27.8513 147.728 26.4833 146.048 26.4833 142.976C26.4833 140.096 27.8273 138.512 29.7473 138.512C31.7633 138.512 33.1313 140.216 33.1313 143.264C33.1313 146.168 31.7873 147.728 29.8433 147.728ZM42.8946 147.68C40.9986 147.68 39.6546 146.216 39.6546 143.216C39.6546 140.24 41.3346 138.632 43.4946 138.632C44.1186 138.632 44.7666 138.752 45.4386 138.968C45.4386 142.256 45.4626 144.632 45.5106 146.672C44.7906 147.248 43.8786 147.68 42.8946 147.68ZM45.7266 149.048L47.5506 148.952C47.4306 146.288 47.3826 142.568 47.3826 137.288V132.056L45.4386 132.224V137.048C45.1026 137 44.7426 136.976 44.3826 136.976C40.8066 136.976 37.7346 139.424 37.7346 143.72C37.7346 147.2 39.6066 149.288 42.1506 149.288C43.5906 149.288 44.7666 148.616 45.6066 147.824L45.7266 149.048ZM57.4819 149L57.6259 146.216H54.7699L54.6259 149H57.4819ZM81.9286 147.752C80.4646 147.752 79.5046 147.032 79.5046 145.784C79.5046 144.176 80.9206 143.24 85.2166 143.696C85.2166 144.848 85.2406 145.712 85.2646 146.48C84.3526 147.2 83.1046 147.752 81.9286 147.752ZM85.5286 149.072L87.3046 148.952C87.2086 147.272 87.1126 145.616 87.1126 143.168C87.1126 138.632 85.2886 137.216 78.4966 137.024L78.2806 138.704C83.5366 138.896 85.0246 139.592 85.1926 142.304C79.9846 141.992 77.5846 143.816 77.5846 146.24C77.5846 148.136 79.0486 149.288 81.1846 149.288C83.0326 149.288 84.4006 148.448 85.3606 147.56C85.4086 148.088 85.5046 148.832 85.5286 149.072ZM99.6119 149L99.7799 147.512H95.7959C95.7719 144.776 95.7239 142.472 95.6999 140.432C96.9959 139.592 98.6999 139.064 101.1 138.872L101.004 136.808C98.5799 137.096 96.7799 138.056 95.6279 139.256C95.6039 138.704 95.5079 137.48 95.4839 137.24H90.9239L90.7799 138.632L93.7559 138.8C93.8279 141.152 93.8519 143.912 93.8999 147.512H90.7799V149H99.6119ZM108.703 149.336C111.727 149.336 114.247 146.792 114.247 142.904C114.247 139.136 112.183 136.928 109.255 136.928C106.231 136.928 103.687 139.52 103.687 143.336C103.687 147.128 105.799 149.336 108.703 149.336ZM109.015 147.728C107.023 147.728 105.655 146.048 105.655 142.976C105.655 140.096 106.999 138.512 108.919 138.512C110.935 138.512 112.303 140.216 112.303 143.264C112.303 146.168 110.959 147.728 109.015 147.728ZM120.411 138.632C121.203 138.632 121.515 139.088 121.515 140.288V149H123.027V139.544C123.027 139.472 123.027 139.4 123.027 139.328C123.531 138.872 124.059 138.632 124.587 138.632C125.403 138.632 125.715 139.088 125.715 140.312V149H127.562V139.616C127.562 137.84 126.819 136.976 125.499 136.976C124.467 136.976 123.579 137.552 122.931 138.224C122.643 137.432 122.019 136.976 121.131 136.976C120.147 136.976 119.259 137.552 118.587 138.296L118.491 137.192L116.787 137.312C116.883 140.024 116.931 143.864 116.931 149H118.755C118.755 144.872 118.707 141.656 118.659 139.52C119.235 138.944 119.883 138.632 120.411 138.632ZM134.71 147.752C133.246 147.752 132.286 147.032 132.286 145.784C132.286 144.176 133.702 143.24 137.998 143.696C137.998 144.848 138.022 145.712 138.046 146.48C137.134 147.2 135.886 147.752 134.71 147.752ZM138.31 149.072L140.086 148.952C139.99 147.272 139.894 145.616 139.894 143.168C139.894 138.632 138.07 137.216 131.278 137.024L131.062 138.704C136.318 138.896 137.806 139.592 137.974 142.304C132.766 141.992 130.366 143.816 130.366 146.24C130.366 148.136 131.83 149.288 133.966 149.288C135.814 149.288 137.182 148.448 138.142 147.56C138.19 148.088 138.286 148.832 138.31 149.072Z" fill="black"/>
</g>
<line y1="159.5" x2="360" y2="159.5" stroke="#3D1A1A" stroke-opacity="0.2"/>
<line x1="0.5" y1="120" x2="0.499998" y2="159" stroke="#3D1A1A" stroke-opacity="0.2"/>
<line x1="359.5" y1="120" x2="359.5" y2="159" stroke="#3D1A1A" stroke-opacity="0.2"/>
<rect width="360" height="40" transform="translate(0 80)" fill="#C3C4A2" fill-opacity="0.15"/>
<g opacity="0.7">
<path d="M11.92 103.312C11.92 106.912 13.912 109.576 21.04 109.096L21.256 107.464C15.496 107.728 13.84 106.144 13.84 103.048C13.84 100.552 15.016 98.896 21.088 98.92L20.944 97.072C14.104 97.216 11.92 100.072 11.92 103.312ZM29.5313 109.336C32.5553 109.336 35.0753 106.792 35.0753 102.904C35.0753 99.136 33.0113 96.928 30.0833 96.928C27.0593 96.928 24.5153 99.52 24.5153 103.336C24.5153 107.128 26.6273 109.336 29.5313 109.336ZM29.8433 107.728C27.8513 107.728 26.4833 106.048 26.4833 102.976C26.4833 100.096 27.8273 98.512 29.7473 98.512C31.7633 98.512 33.1313 100.216 33.1313 103.264C33.1313 106.168 31.7873 107.728 29.8433 107.728ZM42.8946 107.68C40.9986 107.68 39.6546 106.216 39.6546 103.216C39.6546 100.24 41.3346 98.632 43.4946 98.632C44.1186 98.632 44.7666 98.752 45.4386 98.968C45.4386 102.256 45.4626 104.632 45.5106 106.672C44.7906 107.248 43.8786 107.68 42.8946 107.68ZM45.7266 109.048L47.5506 108.952C47.4306 106.288 47.3826 102.568 47.3826 97.288V92.056L45.4386 92.224V97.048C45.1026 97 44.7426 96.976 44.3826 96.976C40.8066 96.976 37.7346 99.424 37.7346 103.72C37.7346 107.2 39.6066 109.288 42.1506 109.288C43.5906 109.288 44.7666 108.616 45.6066 107.824L45.7266 109.048ZM57.4819 109L57.6259 106.216H54.7699L54.6259 109H57.4819ZM81.5926 109.288C84.8566 109.288 87.8326 106.744 87.8326 102.592C87.8326 99.16 85.9846 96.976 83.4646 96.976C82.0726 96.976 80.9446 97.576 80.0806 98.296V92.056L78.1366 92.224V108.688C79.2166 109.072 80.3686 109.288 81.5926 109.288ZM82.2646 107.608C81.5446 107.608 80.8246 107.464 80.0806 107.2V99.52C80.8486 98.944 81.7846 98.584 82.6966 98.584C84.5686 98.584 85.9126 100.144 85.9126 103.072C85.9126 106.072 84.3766 107.608 82.2646 107.608ZM95.1239 107.752C93.6599 107.752 92.6999 107.032 92.6999 105.784C92.6999 104.176 94.1159 103.24 98.4119 103.696C98.4119 104.848 98.4359 105.712 98.4599 106.48C97.5479 107.2 96.2999 107.752 95.1239 107.752ZM98.7239 109.072L100.5 108.952C100.404 107.272 100.308 105.616 100.308 103.168C100.308 98.632 98.4839 97.216 91.6919 97.024L91.4759 98.704C96.7319 98.896 98.2199 99.592 98.3879 102.304C93.1799 101.992 90.7799 103.816 90.7799 106.24C90.7799 108.136 92.2439 109.288 94.3799 109.288C96.2279 109.288 97.5959 108.448 98.5559 107.56C98.6039 108.088 98.6999 108.832 98.7239 109.072ZM112.855 97.144C106.855 96.688 104.839 98.608 104.839 100.48C104.839 103.432 111.415 103.768 111.415 105.856C111.415 106.912 109.951 107.776 104.815 107.368L104.743 109.096C111.343 109.456 113.431 107.608 113.431 105.688C113.431 102.688 106.807 102.16 106.807 100.216C106.807 99.256 108.103 98.44 112.927 98.872L112.855 97.144ZM126.507 109.264L126.699 107.608C121.011 107.464 119.259 106.408 119.067 103.624L127.107 103.432C127.539 99.544 125.907 96.952 122.691 96.952C119.643 96.952 117.146 99.712 117.146 103.288C117.146 107.104 119.139 109.24 126.507 109.264ZM122.355 98.56C124.323 98.56 125.259 99.976 125.283 102.232C123.627 102.28 120.411 102.376 119.067 102.424C119.211 99.904 120.411 98.56 122.355 98.56Z" fill="black"/>
</g>
<line y1="119.5" x2="360" y2="119.5" stroke="#3D1A1A" stroke-opacity="0.2"/>
<line x1="0.5" y1="80" x2="0.499998" y2="119" stroke="#3D1A1A" stroke-opacity="0.2"/>
<line x1="359.5" y1="80" x2="359.5" y2="119" stroke="#3D1A1A" stroke-opacity="0.2"/>
<rect x="322" y="83" width="32" height="33" rx="16" fill="#9DA076"/>
<path d="M331.902 99.482H331.722V108.5H329.706V95.936H332.604L335.898 104.954H336.078V95.936H338.094V108.5H335.196L331.902 99.482ZM342.695 99.482H342.515V108.5H340.499V95.936H343.397L346.691 104.954H346.871V95.936H348.887V108.5H345.989L342.695 99.482Z" fill="white"/>
<rect x="322" y="123" width="32" height="33" rx="16" fill="#9DA076"/>
<path d="M331.902 139.482H331.722V148.5H329.706V135.936H332.604L335.898 144.954H336.078V135.936H338.094V148.5H335.196L331.902 139.482ZM342.695 139.482H342.515V148.5H340.499V135.936H343.397L346.691 144.954H346.871V135.936H348.887V148.5H345.989L342.695 139.482Z" fill="white"/>
<rect x="322" y="43" width="32" height="33" rx="16" fill="#836B7F"/>
<path d="M329.94 68.5V55.936H334.71C335.934 55.936 336.87 56.284 337.518 56.98C338.166 57.676 338.49 58.624 338.49 59.824C338.49 61.024 338.166 61.972 337.518 62.668C336.87 63.364 335.934 63.712 334.71 63.712H332.298V68.5H329.94ZM332.298 61.786H334.224C334.86 61.786 335.316 61.66 335.592 61.408C335.868 61.144 336.006 60.73 336.006 60.166V59.482C336.006 58.918 335.868 58.51 335.592 58.258C335.316 57.994 334.86 57.862 334.224 57.862H332.298V61.786ZM344.279 62.992L342.965 64.72V68.5H340.607V55.936H342.965V61.588H343.073L344.531 59.5L347.177 55.936H349.841L345.899 61.228L350.021 68.5H347.357L344.279 62.992Z" fill="white"/>
</svg>
