<svg width="360" height="305" viewBox="0 0 360 305" fill="none" xmlns="http://www.w3.org/2000/svg">
<rect width="360" height="40" transform="translate(0 40)" fill="#C3C4A2" fill-opacity="0.15"/>
<g opacity="0.7">
<path d="M11.92 63.312C11.92 62.464 12.072 61.688 12.376 60.984C12.696 60.28 13.184 59.632 13.84 59.04C14.512 58.448 15.448 57.984 16.648 57.648C17.864 57.296 19.296 57.104 20.944 57.072L21.088 58.92C19.616 58.92 18.384 59.016 17.392 59.208C16.416 59.384 15.672 59.664 15.16 60.048C14.664 60.432 14.32 60.864 14.128 61.344C13.936 61.808 13.84 62.376 13.84 63.048C13.84 64.68 14.384 65.856 15.472 66.576C16.56 67.296 18.488 67.592 21.256 67.464L21.04 69.096C19.312 69.208 17.84 69.152 16.624 68.928C15.408 68.688 14.464 68.288 13.792 67.728C13.12 67.168 12.64 66.536 12.352 65.832C12.064 65.112 11.92 64.272 11.92 63.312ZM29.5313 69.336C28.0433 69.336 26.8353 68.8 25.9073 67.728C24.9793 66.656 24.5153 65.192 24.5153 63.336C24.5153 61.464 25.0513 59.928 26.1233 58.728C27.2113 57.528 28.5313 56.928 30.0833 56.928C31.5713 56.928 32.7713 57.464 33.6833 58.536C34.6113 59.592 35.0753 61.048 35.0753 62.904C35.0753 64.808 34.5393 66.36 33.4673 67.56C32.3953 68.744 31.0833 69.336 29.5313 69.336ZM29.8433 67.728C30.8353 67.728 31.6273 67.344 32.2193 66.576C32.8273 65.792 33.1313 64.688 33.1313 63.264C33.1313 61.76 32.8193 60.592 32.1953 59.76C31.5873 58.928 30.7713 58.512 29.7473 58.512C28.7713 58.512 27.9793 58.904 27.3713 59.688C26.7793 60.472 26.4833 61.568 26.4833 62.976C26.4833 64.48 26.7873 65.648 27.3953 66.48C28.0033 67.312 28.8193 67.728 29.8433 67.728ZM42.8946 67.68C43.8066 67.68 44.6786 67.344 45.5106 66.672C45.4626 64.624 45.4386 62.056 45.4386 58.968C44.7346 58.744 44.0866 58.632 43.4946 58.632C42.3746 58.632 41.4546 59.04 40.7346 59.856C40.0146 60.656 39.6546 61.776 39.6546 63.216C39.6546 64.672 39.9506 65.784 40.5426 66.552C41.1346 67.304 41.9186 67.68 42.8946 67.68ZM45.7266 69.048L45.6066 67.824C44.5666 68.8 43.4146 69.288 42.1506 69.288C40.8546 69.288 39.7906 68.792 38.9586 67.8C38.1426 66.792 37.7346 65.432 37.7346 63.72C37.7346 61.656 38.3746 60.016 39.6546 58.8C40.9346 57.584 42.5106 56.976 44.3826 56.976C44.7506 56.976 45.1026 57 45.4386 57.048V52.224L47.3826 52.056V57.288C47.3826 62.584 47.4386 66.472 47.5506 68.952L45.7266 69.048ZM57.4819 69H54.6259L54.7699 66.216H57.6259L57.4819 69ZM87.3046 69H77.8486V67.512H81.6646V53.808L78.0406 53.64L78.2086 52.248H83.6326V67.512H87.4726L87.3046 69ZM93.7559 54.744C94.4439 54.264 95.2439 53.608 96.1559 52.776C97.0679 51.928 97.8119 51.16 98.3879 50.472L99.9479 51.984C99.2919 52.576 98.4119 53.224 97.3079 53.928C96.2039 54.616 95.2039 55.176 94.3079 55.608L93.7559 54.744ZM101.508 69H90.8759V67.512H95.2919V58.8L90.8999 58.608L91.0439 57.24H97.2359V67.512H101.652L101.508 69ZM111.463 73.104V67.944C110.439 68.856 109.327 69.312 108.127 69.312C106.831 69.312 105.767 68.808 104.935 67.8C104.119 66.792 103.711 65.432 103.711 63.72C103.711 61.672 104.343 60.04 105.607 58.824C106.887 57.592 108.407 56.976 110.167 56.976C111.287 56.976 112.367 57.176 113.407 57.576V72.936L111.463 73.104ZM108.847 67.68C109.727 67.68 110.599 67.344 111.463 66.672V59.016C110.759 58.76 110.087 58.632 109.447 58.632C108.327 58.632 107.407 59.04 106.687 59.856C105.983 60.656 105.631 61.784 105.631 63.24C105.631 64.68 105.919 65.784 106.495 66.552C107.087 67.304 107.871 67.68 108.847 67.68ZM125.019 69.048L124.899 67.704C123.619 68.76 122.315 69.288 120.987 69.288C118.683 69.288 117.531 67.928 117.531 65.208V57.312L119.475 57.168V64.56C119.475 65.664 119.667 66.456 120.051 66.936C120.451 67.4 121.035 67.632 121.803 67.632C122.811 67.632 123.811 67.272 124.803 66.552C124.739 63.736 124.707 60.632 124.707 57.24H126.651C126.651 62.504 126.707 66.4 126.819 68.928L125.019 69.048ZM136.726 55.344H134.734L134.878 52.08H136.942L136.726 55.344ZM141.094 69H130.462V67.512H134.878V58.8L130.486 58.608L130.63 57.24H136.822V67.512H141.238L141.094 69ZM148.457 67.68C149.369 67.68 150.241 67.344 151.073 66.672C151.025 64.624 151.001 62.056 151.001 58.968C150.297 58.744 149.649 58.632 149.057 58.632C147.937 58.632 147.017 59.04 146.297 59.856C145.577 60.656 145.217 61.776 145.217 63.216C145.217 64.672 145.513 65.784 146.105 66.552C146.697 67.304 147.481 67.68 148.457 67.68ZM151.289 69.048L151.169 67.824C150.129 68.8 148.977 69.288 147.713 69.288C146.417 69.288 145.353 68.792 144.521 67.8C143.705 66.792 143.297 65.432 143.297 63.72C143.297 61.656 143.937 60.016 145.217 58.8C146.497 57.584 148.073 56.976 149.945 56.976C150.313 56.976 150.665 57 151.001 57.048V52.224L152.945 52.056V57.288C152.945 62.584 153.001 66.472 153.113 68.952L151.289 69.048ZM161.484 69.336C159.996 69.336 158.788 68.8 157.86 67.728C156.932 66.656 156.468 65.192 156.468 63.336C156.468 61.464 157.004 59.928 158.076 58.728C159.164 57.528 160.484 56.928 162.036 56.928C163.524 56.928 164.724 57.464 165.636 58.536C166.564 59.592 167.028 61.048 167.028 62.904C167.028 64.808 166.492 66.36 165.42 67.56C164.348 68.744 163.036 69.336 161.484 69.336ZM161.796 67.728C162.788 67.728 163.58 67.344 164.172 66.576C164.78 65.792 165.084 64.688 165.084 63.264C165.084 61.76 164.772 60.592 164.148 59.76C163.54 58.928 162.724 58.512 161.7 58.512C160.724 58.512 159.932 58.904 159.324 59.688C158.732 60.472 158.436 61.568 158.436 62.976C158.436 64.48 158.74 65.648 159.348 66.48C159.956 67.312 160.772 67.728 161.796 67.728Z" fill="black"/>
</g>
<line y1="79.5" x2="360" y2="79.5" stroke="#3D1A1A" stroke-opacity="0.2"/>
<line x1="0.5" y1="40" x2="0.499998" y2="79" stroke="#3D1A1A" stroke-opacity="0.2"/>
<line x1="359.5" y1="40" x2="359.5" y2="79" stroke="#3D1A1A" stroke-opacity="0.2"/>
<rect width="360" height="40" transform="translate(0 80)" fill="#C3C4A2" fill-opacity="0.15"/>
<g opacity="0.7">
<path d="M16.984 98.632C15.976 98.632 14.968 98.976 13.96 99.664C14.024 102.512 14.056 105.624 14.056 109H12.112C12.112 103.736 12.056 99.84 11.944 97.312L13.744 97.192L13.864 98.536C15.112 97.496 16.424 96.976 17.8 96.976C20.136 96.976 21.304 98.328 21.304 101.032V109H19.36V101.68C19.36 100.592 19.16 99.816 18.76 99.352C18.36 98.872 17.768 98.632 16.984 98.632ZM29.5313 109.336C28.0433 109.336 26.8353 108.8 25.9073 107.728C24.9793 106.656 24.5153 105.192 24.5153 103.336C24.5153 101.464 25.0513 99.928 26.1233 98.728C27.2113 97.528 28.5313 96.928 30.0833 96.928C31.5713 96.928 32.7713 97.464 33.6833 98.536C34.6113 99.592 35.0753 101.048 35.0753 102.904C35.0753 104.808 34.5393 106.36 33.4673 107.56C32.3953 108.744 31.0833 109.336 29.5313 109.336ZM29.8433 107.728C30.8353 107.728 31.6273 107.344 32.2193 106.576C32.8273 105.792 33.1313 104.688 33.1313 103.264C33.1313 101.76 32.8193 100.592 32.1953 99.76C31.5873 98.928 30.7713 98.512 29.7473 98.512C28.7713 98.512 27.9793 98.904 27.3713 99.688C26.7793 100.472 26.4833 101.568 26.4833 102.976C26.4833 104.48 26.7873 105.648 27.3953 106.48C28.0033 107.312 28.8193 107.728 29.8433 107.728ZM41.2386 98.632C40.6626 98.632 40.0786 98.928 39.4866 99.52C39.5506 102.368 39.5826 105.528 39.5826 109H37.7586C37.7586 103.912 37.7106 100.016 37.6146 97.312L39.3186 97.192L39.4146 98.296C40.2146 97.416 41.0626 96.976 41.9586 96.976C42.8546 96.976 43.4546 97.392 43.7586 98.224C44.5586 97.392 45.4146 96.976 46.3266 96.976C47.7026 96.976 48.3906 97.856 48.3906 99.616V109H46.5426V100.312C46.5426 99.704 46.4546 99.272 46.2786 99.016C46.1186 98.76 45.8306 98.632 45.4146 98.632C44.8866 98.632 44.3666 98.864 43.8546 99.328V99.544V109H42.3426V100.288C42.3426 99.696 42.2546 99.272 42.0786 99.016C41.9186 98.76 41.6386 98.632 41.2386 98.632ZM55.2019 109.288C54.0179 109.288 52.8659 109.088 51.7459 108.688V92.224L53.6899 92.056V98.296C54.7459 97.416 55.8739 96.976 57.0739 96.976C58.3539 96.976 59.4019 97.488 60.2179 98.512C61.0339 99.536 61.4419 100.896 61.4419 102.592C61.4419 104.592 60.8259 106.208 59.5939 107.44C58.3779 108.672 56.9139 109.288 55.2019 109.288ZM55.8739 107.608C56.9619 107.608 57.8419 107.216 58.5139 106.432C59.1859 105.648 59.5219 104.528 59.5219 103.072C59.5219 101.648 59.2259 100.544 58.6339 99.76C58.0419 98.976 57.2659 98.584 56.3059 98.584C55.3939 98.584 54.5219 98.896 53.6899 99.52V107.2C54.4579 107.472 55.1859 107.608 55.8739 107.608ZM73.2213 109H64.3893V107.512H67.5093C67.4453 102.776 67.3973 99.872 67.3653 98.8L64.3893 98.632L64.5333 97.24H69.0933C69.1573 97.912 69.2053 98.584 69.2373 99.256C70.5493 97.896 72.3413 97.08 74.6133 96.808L74.7093 98.872C72.4373 99.048 70.6373 99.568 69.3093 100.432C69.3093 100.864 69.3173 101.896 69.3333 103.528C69.3653 105.144 69.3893 106.472 69.4053 107.512H73.3893L73.2213 109ZM86.9206 109.264C85.1126 109.264 83.5926 109.136 82.3606 108.88C81.1286 108.608 80.1606 108.208 79.4566 107.68C78.7686 107.152 78.2806 106.536 77.9926 105.832C77.7046 105.128 77.5606 104.28 77.5606 103.288C77.5606 101.512 78.0966 100.016 79.1686 98.8C80.2566 97.568 81.5686 96.952 83.1046 96.952C84.6886 96.952 85.8726 97.544 86.6566 98.728C87.4566 99.896 87.7446 101.464 87.5206 103.432L79.4806 103.624C79.5766 105.032 80.1686 106.032 81.2566 106.624C82.3606 107.216 84.3126 107.544 87.1126 107.608L86.9206 109.264ZM82.7686 98.56C81.7926 98.56 81.0166 98.896 80.4406 99.568C79.8646 100.224 79.5446 101.176 79.4806 102.424C80.6486 102.376 82.7206 102.312 85.6966 102.232C85.6806 101.08 85.4246 100.184 84.9286 99.544C84.4486 98.888 83.7286 98.56 82.7686 98.56ZM108.871 107.68C109.783 107.68 110.655 107.344 111.487 106.672C111.439 104.624 111.415 102.056 111.415 98.968C110.711 98.744 110.063 98.632 109.471 98.632C108.351 98.632 107.431 99.04 106.711 99.856C105.991 100.656 105.631 101.776 105.631 103.216C105.631 104.672 105.927 105.784 106.519 106.552C107.111 107.304 107.895 107.68 108.871 107.68ZM111.703 109.048L111.583 107.824C110.543 108.8 109.391 109.288 108.127 109.288C106.831 109.288 105.767 108.792 104.935 107.8C104.119 106.792 103.711 105.432 103.711 103.72C103.711 101.656 104.351 100.016 105.631 98.8C106.911 97.584 108.487 96.976 110.359 96.976C110.727 96.976 111.079 97 111.415 97.048V92.224L113.359 92.056V97.288C113.359 102.584 113.415 106.472 113.527 108.952L111.703 109.048ZM126.507 109.264C124.699 109.264 123.179 109.136 121.947 108.88C120.715 108.608 119.747 108.208 119.043 107.68C118.355 107.152 117.867 106.536 117.579 105.832C117.291 105.128 117.146 104.28 117.146 103.288C117.146 101.512 117.683 100.016 118.755 98.8C119.843 97.568 121.155 96.952 122.691 96.952C124.275 96.952 125.459 97.544 126.243 98.728C127.043 99.896 127.331 101.464 127.107 103.432L119.067 103.624C119.163 105.032 119.755 106.032 120.843 106.624C121.947 107.216 123.899 107.544 126.699 107.608L126.507 109.264ZM122.355 98.56C121.379 98.56 120.603 98.896 120.027 99.568C119.451 100.224 119.131 101.176 119.067 102.424C120.235 102.376 122.307 102.312 125.283 102.232C125.267 101.08 125.011 100.184 124.515 99.544C124.035 98.888 123.315 98.56 122.355 98.56ZM153.281 109H143.825V107.512H147.641V93.808L144.017 93.64L144.185 92.248H149.609V107.512H153.449L153.281 109ZM159.732 94.744C160.42 94.264 161.22 93.608 162.132 92.776C163.044 91.928 163.788 91.16 164.364 90.472L165.924 91.984C165.268 92.576 164.388 93.224 163.284 93.928C162.18 94.616 161.18 95.176 160.284 95.608L159.732 94.744ZM167.484 109H156.852V107.512H161.268V98.8L156.876 98.608L157.02 97.24H163.212V107.512H167.628L167.484 109ZM177.44 113.104V107.944C176.416 108.856 175.304 109.312 174.104 109.312C172.808 109.312 171.744 108.808 170.912 107.8C170.096 106.792 169.688 105.432 169.688 103.72C169.688 101.672 170.32 100.04 171.584 98.824C172.864 97.592 174.384 96.976 176.144 96.976C177.264 96.976 178.344 97.176 179.384 97.576V112.936L177.44 113.104ZM174.824 107.68C175.704 107.68 176.576 107.344 177.44 106.672V99.016C176.736 98.76 176.064 98.632 175.424 98.632C174.304 98.632 173.384 99.04 172.664 99.856C171.96 100.656 171.608 101.784 171.608 103.24C171.608 104.68 171.896 105.784 172.472 106.552C173.064 107.304 173.848 107.68 174.824 107.68ZM190.995 109.048L190.875 107.704C189.595 108.76 188.291 109.288 186.963 109.288C184.659 109.288 183.507 107.928 183.507 105.208V97.312L185.451 97.168V104.56C185.451 105.664 185.643 106.456 186.027 106.936C186.427 107.4 187.011 107.632 187.779 107.632C188.787 107.632 189.787 107.272 190.779 106.552C190.715 103.736 190.683 100.632 190.683 97.24H192.627C192.627 102.504 192.683 106.4 192.795 108.928L190.995 109.048ZM202.702 95.344H200.71L200.854 92.08H202.918L202.702 95.344ZM207.07 109H196.438V107.512H200.854V98.8L196.462 98.608L196.606 97.24H202.798V107.512H207.214L207.07 109ZM214.434 107.68C215.346 107.68 216.218 107.344 217.05 106.672C217.002 104.624 216.978 102.056 216.978 98.968C216.274 98.744 215.626 98.632 215.034 98.632C213.914 98.632 212.994 99.04 212.274 99.856C211.554 100.656 211.194 101.776 211.194 103.216C211.194 104.672 211.49 105.784 212.082 106.552C212.674 107.304 213.458 107.68 214.434 107.68ZM217.266 109.048L217.146 107.824C216.106 108.8 214.954 109.288 213.69 109.288C212.394 109.288 211.33 108.792 210.498 107.8C209.682 106.792 209.274 105.432 209.274 103.72C209.274 101.656 209.914 100.016 211.194 98.8C212.474 97.584 214.05 96.976 215.922 96.976C216.29 96.976 216.642 97 216.978 97.048V92.224L218.922 92.056V97.288C218.922 102.584 218.978 106.472 219.09 108.952L217.266 109.048ZM227.461 109.336C225.973 109.336 224.765 108.8 223.837 107.728C222.909 106.656 222.445 105.192 222.445 103.336C222.445 101.464 222.981 99.928 224.053 98.728C225.141 97.528 226.461 96.928 228.013 96.928C229.501 96.928 230.701 97.464 231.613 98.536C232.541 99.592 233.005 101.048 233.005 102.904C233.005 104.808 232.469 106.36 231.397 107.56C230.325 108.744 229.013 109.336 227.461 109.336ZM227.773 107.728C228.765 107.728 229.557 107.344 230.149 106.576C230.757 105.792 231.061 104.688 231.061 103.264C231.061 101.76 230.749 100.592 230.125 99.76C229.517 98.928 228.701 98.512 227.677 98.512C226.701 98.512 225.909 98.904 225.301 99.688C224.709 100.472 224.413 101.568 224.413 102.976C224.413 104.48 224.717 105.648 225.325 106.48C225.933 107.312 226.749 107.728 227.773 107.728Z" fill="black"/>
</g>
<line y1="119.5" x2="360" y2="119.5" stroke="#3D1A1A" stroke-opacity="0.2"/>
<line x1="0.5" y1="80" x2="0.499998" y2="119" stroke="#3D1A1A" stroke-opacity="0.2"/>
<line x1="359.5" y1="80" x2="359.5" y2="119" stroke="#3D1A1A" stroke-opacity="0.2"/>
<path d="M0 5C0 2.23858 2.23858 0 5 0H355C357.761 0 360 2.23858 360 5V40H0V5Z" fill="#836B7F"/>
<path d="M22.656 30H11.204L14.564 12.64H18.652L15.964 26.584H23.328L22.656 30ZM31.1065 12.64C32.0399 12.1547 33.1692 11.4547 34.4945 10.54C35.8199 9.60666 36.9305 8.748 37.8265 7.964L40.2625 10.932C39.2359 11.604 37.8732 12.2667 36.1745 12.92C34.4759 13.5547 33.0105 14.012 31.7785 14.292L31.1065 12.64ZM39.4785 28.488C37.9105 29.1787 36.5292 29.6733 35.3345 29.972C34.1399 30.2707 33.1692 30.3733 32.4225 30.28C31.6759 30.1867 31.0879 29.944 30.6585 29.552C30.2479 29.16 30.0332 28.6187 30.0145 27.928C29.9959 27.2187 30.0985 26.4067 30.3225 25.492L32.1145 18.968L27.7745 19.108L27.4945 17.148L33.4025 15.804H36.6225L34.2985 24.764C33.9812 25.9587 34.0465 26.6493 34.4945 26.836C34.9612 27.004 36.5199 26.892 39.1705 26.5L39.4785 28.488ZM55.8811 33.388C53.0997 34.7693 51.2144 35.32 50.2251 35.04C49.2544 34.76 48.9464 33.7053 49.3011 31.876L50.0011 28.096C48.3211 29.608 46.8464 30.364 45.5771 30.364C44.6437 30.364 43.8597 29.9533 43.2251 29.132C42.6091 28.3107 42.3011 27.1347 42.3011 25.604C42.3011 23.868 42.6557 22.244 43.3651 20.732C44.0744 19.2013 45.1477 17.932 46.5851 16.924C48.0411 15.916 49.7211 15.412 51.6251 15.412C53.0997 15.412 54.5651 15.7107 56.0211 16.308L53.2211 30.784C53.1277 31.3067 53.1837 31.596 53.3891 31.652C53.5944 31.7267 54.3224 31.6613 55.5731 31.456L55.8811 33.388ZM47.5931 26.752C48.3584 26.752 49.3384 26.248 50.5331 25.24L51.6811 19.052C50.6917 18.7533 49.9171 18.604 49.3571 18.604C48.5171 18.604 47.7704 19.248 47.1171 20.536C46.4637 21.824 46.1371 23.1587 46.1371 24.54C46.1371 25.268 46.2677 25.8187 46.5291 26.192C46.8091 26.5653 47.1637 26.752 47.5931 26.752ZM71.7516 28.712C67.6263 31.1947 65.6103 30.924 65.7036 27.9C64.2103 29.5613 62.7263 30.392 61.2516 30.392C60.1316 30.392 59.3476 29.9533 58.8996 29.076C58.4703 28.1987 58.4329 26.92 58.7876 25.24L59.7676 20.536L58.1996 19.5L60.8036 15.86L64.5836 15.636L62.6516 24.708C62.3716 26.0333 62.6329 26.696 63.4356 26.696C64.2756 26.696 65.1903 26.1453 66.1796 25.044L67.9716 15.804H71.7516L69.7636 26.052C69.6516 26.612 69.6703 26.9293 69.8196 27.004C69.9876 27.0787 70.5289 27.0133 71.4436 26.808L71.7516 28.712ZM84.3181 13.62L80.1181 13.816L81.0421 9.896L85.5221 9.672L84.3181 13.62ZM86.5021 28.488C84.9341 29.1787 83.5528 29.6733 82.3581 29.972C81.1635 30.2707 80.1928 30.3733 79.4461 30.28C78.6995 30.1867 78.1115 29.944 77.6821 29.552C77.2715 29.16 77.0568 28.6187 77.0381 27.928C77.0195 27.2187 77.1221 26.4067 77.3461 25.492L79.1381 18.968L74.7981 19.108L74.5181 17.148L80.4261 15.804H83.6461L81.3221 24.764C81.0048 25.9587 81.0701 26.6493 81.5181 26.836C81.9848 27.004 83.5435 26.892 86.1941 26.5L86.5021 28.488ZM94.4207 26.724C95.1487 26.724 96.0913 26.2107 97.2487 25.184L98.4247 19.052C97.6407 18.772 96.9407 18.632 96.3247 18.632C95.522 18.632 94.7847 19.2853 94.1127 20.592C93.4407 21.88 93.1047 23.1867 93.1047 24.512C93.1047 25.9867 93.5433 26.724 94.4207 26.724ZM103.101 28.656C101.533 29.5333 100.282 30.0467 99.3487 30.196C98.4153 30.364 97.7807 30.2333 97.4447 29.804C97.1087 29.3747 96.9687 28.6653 97.0247 27.676C95.158 29.468 93.5807 30.364 92.2927 30.364C91.3967 30.364 90.6593 29.9627 90.0807 29.16C89.5207 28.3387 89.2407 27.172 89.2407 25.66C89.2407 23.9427 89.586 22.3187 90.2767 20.788C90.9673 19.2387 92.0033 17.96 93.3847 16.952C94.7847 15.9253 96.3713 15.412 98.1447 15.412C98.35 15.412 98.6767 15.4307 99.1247 15.468L100.077 10.512L103.913 10.232L100.833 26.136C100.739 26.6773 100.786 26.9853 100.973 27.06C101.159 27.116 101.775 27.032 102.821 26.808L103.101 28.656ZM105.083 24.512C105.083 22.0293 105.821 19.892 107.295 18.1C108.789 16.2893 110.655 15.384 112.895 15.384C114.613 15.384 115.966 15.916 116.955 16.98C117.963 18.0253 118.467 19.4533 118.467 21.264C118.467 23.7467 117.721 25.8933 116.227 27.704C114.753 29.496 112.895 30.392 110.655 30.392C108.938 30.392 107.575 29.8693 106.567 28.824C105.578 27.76 105.083 26.3227 105.083 24.512ZM114.519 21.74C114.519 20.732 114.323 19.9573 113.931 19.416C113.558 18.856 113.045 18.576 112.391 18.576C111.421 18.576 110.618 19.136 109.983 20.256C109.349 21.3573 109.031 22.6173 109.031 24.036C109.031 25.044 109.218 25.828 109.591 26.388C109.983 26.9293 110.506 27.2 111.159 27.2C112.13 27.2 112.933 26.6493 113.567 25.548C114.202 24.428 114.519 23.1587 114.519 21.74Z" fill="#EEEEEE"/>
<rect width="360" height="40" transform="translate(0 186)" fill="#C3C4A2" fill-opacity="0.15"/>
<g opacity="0.7">
<path d="M21.04 215.192C18.528 215.224 16.768 214.944 15.76 214.352C14.752 213.744 14.248 212.704 14.248 211.232V204.752H11.824L12.016 203.24H14.248V199.976L16.192 199.808V203.24H20.992V204.752H16.192V210.92C16.192 211.928 16.536 212.616 17.224 212.984C17.928 213.336 19.272 213.528 21.256 213.56L21.04 215.192ZM31.0913 215H28.2353L28.3793 212.216H31.2353L31.0913 215ZM54.4339 204.632C53.8579 204.632 53.2739 204.928 52.6819 205.52C52.7459 208.368 52.7779 211.528 52.7779 215H50.9539C50.9539 209.912 50.9059 206.016 50.8099 203.312L52.5139 203.192L52.6099 204.296C53.4099 203.416 54.2579 202.976 55.1539 202.976C56.0499 202.976 56.6499 203.392 56.9539 204.224C57.7539 203.392 58.6099 202.976 59.5219 202.976C60.8979 202.976 61.5859 203.856 61.5859 205.616V215H59.7379V206.312C59.7379 205.704 59.6499 205.272 59.4739 205.016C59.3139 204.76 59.0259 204.632 58.6099 204.632C58.0819 204.632 57.5619 204.864 57.0499 205.328V205.544V215H55.5379V206.288C55.5379 205.696 55.4499 205.272 55.2739 205.016C55.1139 204.76 54.8339 204.632 54.4339 204.632ZM68.7333 213.752C69.8853 213.752 70.9973 213.328 72.0693 212.48C72.0373 211.456 72.0213 210.528 72.0213 209.696C68.2133 209.296 66.3092 209.992 66.3092 211.784C66.3092 212.408 66.5253 212.896 66.9573 213.248C67.4053 213.584 67.9973 213.752 68.7333 213.752ZM72.3333 215.072C72.3333 215.04 72.3093 214.832 72.2613 214.448C72.2133 214.064 72.1813 213.768 72.1653 213.56C70.9173 214.712 69.5253 215.288 67.9893 215.288C66.9013 215.288 66.0293 215.016 65.3733 214.472C64.7173 213.928 64.3893 213.184 64.3893 212.24C64.3893 210.96 65.0373 209.952 66.3333 209.216C67.6293 208.464 69.5173 208.16 71.9973 208.304C71.9173 206.96 71.4053 206.048 70.4613 205.568C69.5333 205.088 67.7413 204.8 65.0853 204.704L65.3013 203.024C67.6053 203.088 69.3653 203.32 70.5813 203.72C71.7973 204.12 72.6533 204.744 73.1493 205.592C73.6613 206.424 73.9173 207.616 73.9173 209.168C73.9173 210.784 73.9813 212.712 74.1093 214.952L72.3333 215.072ZM77.8966 209.312C77.8966 208.464 78.0486 207.688 78.3526 206.984C78.6726 206.28 79.1606 205.632 79.8166 205.04C80.4886 204.448 81.4246 203.984 82.6246 203.648C83.8406 203.296 85.2726 203.104 86.9206 203.072L87.0646 204.92C85.5926 204.92 84.3606 205.016 83.3686 205.208C82.3926 205.384 81.6486 205.664 81.1366 206.048C80.6406 206.432 80.2966 206.864 80.1046 207.344C79.9126 207.808 79.8166 208.376 79.8166 209.048C79.8166 210.68 80.3606 211.856 81.4486 212.576C82.5366 213.296 84.4646 213.592 87.2326 213.464L87.0166 215.096C85.2886 215.208 83.8166 215.152 82.6006 214.928C81.3846 214.688 80.4406 214.288 79.7686 213.728C79.0966 213.168 78.6166 212.536 78.3286 211.832C78.0406 211.112 77.8966 210.272 77.8966 209.312ZM100.116 215.264C98.3079 215.264 96.7879 215.136 95.5559 214.88C94.3239 214.608 93.3559 214.208 92.6519 213.68C91.9639 213.152 91.4759 212.536 91.1879 211.832C90.8999 211.128 90.7559 210.28 90.7559 209.288C90.7559 207.512 91.2919 206.016 92.3639 204.8C93.4519 203.568 94.7639 202.952 96.2999 202.952C97.8839 202.952 99.0679 203.544 99.8519 204.728C100.652 205.896 100.94 207.464 100.716 209.432L92.6759 209.624C92.7719 211.032 93.3639 212.032 94.4519 212.624C95.5559 213.216 97.5079 213.544 100.308 213.608L100.116 215.264ZM95.9639 204.56C94.9879 204.56 94.2119 204.896 93.6359 205.568C93.0599 206.224 92.7399 207.176 92.6759 208.424C93.8439 208.376 95.9159 208.312 98.8919 208.232C98.8759 207.08 98.6199 206.184 98.1239 205.544C97.6439 204.888 96.9239 204.56 95.9639 204.56ZM112.807 215H103.975V213.512H107.095C107.031 208.776 106.983 205.872 106.951 204.8L103.975 204.632L104.119 203.24H108.679C108.743 203.912 108.791 204.584 108.823 205.256C110.135 203.896 111.927 203.08 114.199 202.808L114.295 204.872C112.023 205.048 110.223 205.568 108.895 206.432C108.895 206.864 108.903 207.896 108.919 209.528C108.951 211.144 108.975 212.472 108.991 213.512H112.975L112.807 215ZM121.515 213.752C122.667 213.752 123.779 213.328 124.851 212.48C124.819 211.456 124.803 210.528 124.803 209.696C120.995 209.296 119.09 209.992 119.09 211.784C119.09 212.408 119.307 212.896 119.739 213.248C120.187 213.584 120.779 213.752 121.515 213.752ZM125.115 215.072C125.115 215.04 125.091 214.832 125.043 214.448C124.995 214.064 124.963 213.768 124.947 213.56C123.699 214.712 122.307 215.288 120.771 215.288C119.683 215.288 118.811 215.016 118.155 214.472C117.499 213.928 117.171 213.184 117.171 212.24C117.171 210.96 117.819 209.952 119.115 209.216C120.411 208.464 122.299 208.16 124.779 208.304C124.699 206.96 124.187 206.048 123.243 205.568C122.315 205.088 120.523 204.8 117.867 204.704L118.083 203.024C120.387 203.088 122.147 203.32 123.363 203.72C124.579 204.12 125.435 204.744 125.931 205.592C126.443 206.424 126.699 207.616 126.699 209.168C126.699 210.784 126.763 212.712 126.891 214.952L125.115 215.072ZM135.262 213.68C136.174 213.68 137.046 213.344 137.878 212.672C137.83 210.624 137.806 208.056 137.806 204.968C137.102 204.744 136.454 204.632 135.862 204.632C134.742 204.632 133.822 205.04 133.102 205.856C132.382 206.656 132.022 207.776 132.022 209.216C132.022 210.672 132.318 211.784 132.91 212.552C133.502 213.304 134.286 213.68 135.262 213.68ZM138.094 215.048L137.974 213.824C136.934 214.8 135.782 215.288 134.518 215.288C133.222 215.288 132.158 214.792 131.326 213.8C130.51 212.792 130.102 211.432 130.102 209.72C130.102 207.656 130.742 206.016 132.022 204.8C133.302 203.584 134.878 202.976 136.75 202.976C137.118 202.976 137.47 203 137.806 203.048V198.224L139.75 198.056V203.288C139.75 208.584 139.806 212.472 139.918 214.952L138.094 215.048ZM148.289 215.336C146.801 215.336 145.593 214.8 144.665 213.728C143.737 212.656 143.273 211.192 143.273 209.336C143.273 207.464 143.809 205.928 144.881 204.728C145.969 203.528 147.289 202.928 148.841 202.928C150.329 202.928 151.529 203.464 152.441 204.536C153.369 205.592 153.833 207.048 153.833 208.904C153.833 210.808 153.297 212.36 152.225 213.56C151.153 214.744 149.841 215.336 148.289 215.336ZM148.601 213.728C149.593 213.728 150.385 213.344 150.977 212.576C151.585 211.792 151.889 210.688 151.889 209.264C151.889 207.76 151.577 206.592 150.953 205.76C150.345 204.928 149.529 204.512 148.505 204.512C147.529 204.512 146.737 204.904 146.129 205.688C145.537 206.472 145.241 207.568 145.241 208.976C145.241 210.48 145.545 211.648 146.153 212.48C146.761 213.312 147.577 213.728 148.601 213.728Z" fill="black"/>
</g>
<line y1="225.5" x2="360" y2="225.5" stroke="#3D1A1A" stroke-opacity="0.2"/>
<line x1="0.5" y1="186" x2="0.499998" y2="225" stroke="#3D1A1A" stroke-opacity="0.2"/>
<line x1="359.5" y1="186" x2="359.5" y2="225" stroke="#3D1A1A" stroke-opacity="0.2"/>
<rect width="360" height="40" transform="translate(0 265)" fill="#C3C4A2" fill-opacity="0.15"/>
<g opacity="0.7">
<path d="M11.92 288.312C11.92 287.464 12.072 286.688 12.376 285.984C12.696 285.28 13.184 284.632 13.84 284.04C14.512 283.448 15.448 282.984 16.648 282.648C17.864 282.296 19.296 282.104 20.944 282.072L21.088 283.92C19.616 283.92 18.384 284.016 17.392 284.208C16.416 284.384 15.672 284.664 15.16 285.048C14.664 285.432 14.32 285.864 14.128 286.344C13.936 286.808 13.84 287.376 13.84 288.048C13.84 289.68 14.384 290.856 15.472 291.576C16.56 292.296 18.488 292.592 21.256 292.464L21.04 294.096C19.312 294.208 17.84 294.152 16.624 293.928C15.408 293.688 14.464 293.288 13.792 292.728C13.12 292.168 12.64 291.536 12.352 290.832C12.064 290.112 11.92 289.272 11.92 288.312ZM29.5313 294.336C28.0433 294.336 26.8353 293.8 25.9073 292.728C24.9793 291.656 24.5153 290.192 24.5153 288.336C24.5153 286.464 25.0513 284.928 26.1233 283.728C27.2113 282.528 28.5313 281.928 30.0833 281.928C31.5713 281.928 32.7713 282.464 33.6833 283.536C34.6113 284.592 35.0753 286.048 35.0753 287.904C35.0753 289.808 34.5393 291.36 33.4673 292.56C32.3953 293.744 31.0833 294.336 29.5313 294.336ZM29.8433 292.728C30.8353 292.728 31.6273 292.344 32.2193 291.576C32.8273 290.792 33.1313 289.688 33.1313 288.264C33.1313 286.76 32.8193 285.592 32.1953 284.76C31.5873 283.928 30.7713 283.512 29.7473 283.512C28.7713 283.512 27.9793 283.904 27.3713 284.688C26.7793 285.472 26.4833 286.568 26.4833 287.976C26.4833 289.48 26.7873 290.648 27.3953 291.48C28.0033 292.312 28.8193 292.728 29.8433 292.728ZM42.8946 292.68C43.8066 292.68 44.6786 292.344 45.5106 291.672C45.4626 289.624 45.4386 287.056 45.4386 283.968C44.7346 283.744 44.0866 283.632 43.4946 283.632C42.3746 283.632 41.4546 284.04 40.7346 284.856C40.0146 285.656 39.6546 286.776 39.6546 288.216C39.6546 289.672 39.9506 290.784 40.5426 291.552C41.1346 292.304 41.9186 292.68 42.8946 292.68ZM45.7266 294.048L45.6066 292.824C44.5666 293.8 43.4146 294.288 42.1506 294.288C40.8546 294.288 39.7906 293.792 38.9586 292.8C38.1426 291.792 37.7346 290.432 37.7346 288.72C37.7346 286.656 38.3746 285.016 39.6546 283.8C40.9346 282.584 42.5106 281.976 44.3826 281.976C44.7506 281.976 45.1026 282 45.4386 282.048V277.224L47.3826 277.056V282.288C47.3826 287.584 47.4386 291.472 47.5506 293.952L45.7266 294.048ZM57.4819 294H54.6259L54.7699 291.216H57.6259L57.4819 294ZM81.9286 292.752C83.0806 292.752 84.1926 292.328 85.2646 291.48C85.2326 290.456 85.2166 289.528 85.2166 288.696C81.4086 288.296 79.5046 288.992 79.5046 290.784C79.5046 291.408 79.7206 291.896 80.1526 292.248C80.6006 292.584 81.1926 292.752 81.9286 292.752ZM85.5286 294.072C85.5286 294.04 85.5046 293.832 85.4566 293.448C85.4086 293.064 85.3766 292.768 85.3606 292.56C84.1126 293.712 82.7206 294.288 81.1846 294.288C80.0966 294.288 79.2246 294.016 78.5686 293.472C77.9126 292.928 77.5846 292.184 77.5846 291.24C77.5846 289.96 78.2326 288.952 79.5286 288.216C80.8246 287.464 82.7126 287.16 85.1926 287.304C85.1126 285.96 84.6006 285.048 83.6566 284.568C82.7286 284.088 80.9366 283.8 78.2806 283.704L78.4966 282.024C80.8006 282.088 82.5606 282.32 83.7766 282.72C84.9926 283.12 85.8486 283.744 86.3446 284.592C86.8566 285.424 87.1126 286.616 87.1126 288.168C87.1126 289.784 87.1766 291.712 87.3046 293.952L85.5286 294.072ZM99.6119 294H90.7799V292.512H93.8999C93.8359 287.776 93.7879 284.872 93.7559 283.8L90.7799 283.632L90.9239 282.24H95.4839C95.5479 282.912 95.5959 283.584 95.6279 284.256C96.9399 282.896 98.7319 282.08 101.004 281.808L101.1 283.872C98.8279 284.048 97.0279 284.568 95.6999 285.432C95.6999 285.864 95.7079 286.896 95.7239 288.528C95.7559 290.144 95.7799 291.472 95.7959 292.512H99.7799L99.6119 294ZM108.703 294.336C107.215 294.336 106.007 293.8 105.079 292.728C104.151 291.656 103.687 290.192 103.687 288.336C103.687 286.464 104.223 284.928 105.295 283.728C106.383 282.528 107.703 281.928 109.255 281.928C110.743 281.928 111.943 282.464 112.855 283.536C113.783 284.592 114.247 286.048 114.247 287.904C114.247 289.808 113.711 291.36 112.639 292.56C111.567 293.744 110.255 294.336 108.703 294.336ZM109.015 292.728C110.007 292.728 110.799 292.344 111.391 291.576C111.999 290.792 112.303 289.688 112.303 288.264C112.303 286.76 111.991 285.592 111.367 284.76C110.759 283.928 109.943 283.512 108.919 283.512C107.943 283.512 107.151 283.904 106.543 284.688C105.951 285.472 105.655 286.568 105.655 287.976C105.655 289.48 105.959 290.648 106.567 291.48C107.175 292.312 107.991 292.728 109.015 292.728ZM120.411 283.632C119.835 283.632 119.251 283.928 118.659 284.52C118.723 287.368 118.755 290.528 118.755 294H116.931C116.931 288.912 116.883 285.016 116.787 282.312L118.491 282.192L118.587 283.296C119.387 282.416 120.235 281.976 121.131 281.976C122.027 281.976 122.627 282.392 122.931 283.224C123.731 282.392 124.587 281.976 125.499 281.976C126.875 281.976 127.562 282.856 127.562 284.616V294H125.715V285.312C125.715 284.704 125.627 284.272 125.451 284.016C125.291 283.76 125.003 283.632 124.587 283.632C124.059 283.632 123.539 283.864 123.027 284.328V284.544V294H121.515V285.288C121.515 284.696 121.427 284.272 121.251 284.016C121.091 283.76 120.811 283.632 120.411 283.632ZM134.71 292.752C135.862 292.752 136.974 292.328 138.046 291.48C138.014 290.456 137.998 289.528 137.998 288.696C134.19 288.296 132.286 288.992 132.286 290.784C132.286 291.408 132.502 291.896 132.934 292.248C133.382 292.584 133.974 292.752 134.71 292.752ZM138.31 294.072C138.31 294.04 138.286 293.832 138.238 293.448C138.19 293.064 138.158 292.768 138.142 292.56C136.894 293.712 135.502 294.288 133.966 294.288C132.878 294.288 132.006 294.016 131.35 293.472C130.694 292.928 130.366 292.184 130.366 291.24C130.366 289.96 131.014 288.952 132.31 288.216C133.606 287.464 135.494 287.16 137.974 287.304C137.894 285.96 137.382 285.048 136.438 284.568C135.51 284.088 133.718 283.8 131.062 283.704L131.278 282.024C133.582 282.088 135.342 282.32 136.558 282.72C137.774 283.12 138.63 283.744 139.126 284.592C139.638 285.424 139.894 286.616 139.894 288.168C139.894 289.784 139.958 291.712 140.086 293.952L138.31 294.072Z" fill="black"/>
</g>
<line y1="304.5" x2="360" y2="304.5" stroke="#3D1A1A" stroke-opacity="0.2"/>
<line x1="0.5" y1="265" x2="0.499998" y2="304" stroke="#3D1A1A" stroke-opacity="0.2"/>
<line x1="359.5" y1="265" x2="359.5" y2="304" stroke="#3D1A1A" stroke-opacity="0.2"/>
<rect width="360" height="40" transform="translate(0 226)" fill="#C3C4A2" fill-opacity="0.15"/>
<g opacity="0.7">
<path d="M11.92 249.312C11.92 248.464 12.072 247.688 12.376 246.984C12.696 246.28 13.184 245.632 13.84 245.04C14.512 244.448 15.448 243.984 16.648 243.648C17.864 243.296 19.296 243.104 20.944 243.072L21.088 244.92C19.616 244.92 18.384 245.016 17.392 245.208C16.416 245.384 15.672 245.664 15.16 246.048C14.664 246.432 14.32 246.864 14.128 247.344C13.936 247.808 13.84 248.376 13.84 249.048C13.84 250.68 14.384 251.856 15.472 252.576C16.56 253.296 18.488 253.592 21.256 253.464L21.04 255.096C19.312 255.208 17.84 255.152 16.624 254.928C15.408 254.688 14.464 254.288 13.792 253.728C13.12 253.168 12.64 252.536 12.352 251.832C12.064 251.112 11.92 250.272 11.92 249.312ZM29.5313 255.336C28.0433 255.336 26.8353 254.8 25.9073 253.728C24.9793 252.656 24.5153 251.192 24.5153 249.336C24.5153 247.464 25.0513 245.928 26.1233 244.728C27.2113 243.528 28.5313 242.928 30.0833 242.928C31.5713 242.928 32.7713 243.464 33.6833 244.536C34.6113 245.592 35.0753 247.048 35.0753 248.904C35.0753 250.808 34.5393 252.36 33.4673 253.56C32.3953 254.744 31.0833 255.336 29.5313 255.336ZM29.8433 253.728C30.8353 253.728 31.6273 253.344 32.2193 252.576C32.8273 251.792 33.1313 250.688 33.1313 249.264C33.1313 247.76 32.8193 246.592 32.1953 245.76C31.5873 244.928 30.7713 244.512 29.7473 244.512C28.7713 244.512 27.9793 244.904 27.3713 245.688C26.7793 246.472 26.4833 247.568 26.4833 248.976C26.4833 250.48 26.7873 251.648 27.3953 252.48C28.0033 253.312 28.8193 253.728 29.8433 253.728ZM42.8946 253.68C43.8066 253.68 44.6786 253.344 45.5106 252.672C45.4626 250.624 45.4386 248.056 45.4386 244.968C44.7346 244.744 44.0866 244.632 43.4946 244.632C42.3746 244.632 41.4546 245.04 40.7346 245.856C40.0146 246.656 39.6546 247.776 39.6546 249.216C39.6546 250.672 39.9506 251.784 40.5426 252.552C41.1346 253.304 41.9186 253.68 42.8946 253.68ZM45.7266 255.048L45.6066 253.824C44.5666 254.8 43.4146 255.288 42.1506 255.288C40.8546 255.288 39.7906 254.792 38.9586 253.8C38.1426 252.792 37.7346 251.432 37.7346 249.72C37.7346 247.656 38.3746 246.016 39.6546 244.8C40.9346 243.584 42.5106 242.976 44.3826 242.976C44.7506 242.976 45.1026 243 45.4386 243.048V238.224L47.3826 238.056V243.288C47.3826 248.584 47.4386 252.472 47.5506 254.952L45.7266 255.048ZM57.4819 255H54.6259L54.7699 252.216H57.6259L57.4819 255ZM81.5926 255.288C80.4086 255.288 79.2566 255.088 78.1366 254.688V238.224L80.0806 238.056V244.296C81.1366 243.416 82.2646 242.976 83.4646 242.976C84.7446 242.976 85.7926 243.488 86.6086 244.512C87.4246 245.536 87.8326 246.896 87.8326 248.592C87.8326 250.592 87.2166 252.208 85.9846 253.44C84.7686 254.672 83.3046 255.288 81.5926 255.288ZM82.2646 253.608C83.3526 253.608 84.2326 253.216 84.9046 252.432C85.5766 251.648 85.9126 250.528 85.9126 249.072C85.9126 247.648 85.6166 246.544 85.0246 245.76C84.4326 244.976 83.6566 244.584 82.6966 244.584C81.7846 244.584 80.9126 244.896 80.0806 245.52V253.2C80.8486 253.472 81.5766 253.608 82.2646 253.608ZM95.1239 253.752C96.2759 253.752 97.3879 253.328 98.4599 252.48C98.4279 251.456 98.4119 250.528 98.4119 249.696C94.6039 249.296 92.6999 249.992 92.6999 251.784C92.6999 252.408 92.9159 252.896 93.3479 253.248C93.7959 253.584 94.3879 253.752 95.1239 253.752ZM98.7239 255.072C98.7239 255.04 98.6999 254.832 98.6519 254.448C98.6039 254.064 98.5719 253.768 98.5559 253.56C97.3079 254.712 95.9159 255.288 94.3799 255.288C93.2919 255.288 92.4199 255.016 91.7639 254.472C91.1079 253.928 90.7799 253.184 90.7799 252.24C90.7799 250.96 91.4279 249.952 92.7239 249.216C94.0199 248.464 95.9079 248.16 98.3879 248.304C98.3079 246.96 97.7959 246.048 96.8519 245.568C95.9239 245.088 94.1319 244.8 91.4759 244.704L91.6919 243.024C93.9959 243.088 95.7559 243.32 96.9719 243.72C98.1879 244.12 99.0439 244.744 99.5399 245.592C100.052 246.424 100.308 247.616 100.308 249.168C100.308 250.784 100.372 252.712 100.5 254.952L98.7239 255.072ZM112.855 243.144L112.927 244.872C108.847 244.504 106.807 244.952 106.807 246.216C106.807 246.568 107.031 246.904 107.479 247.224C107.943 247.544 108.495 247.848 109.135 248.136C109.791 248.408 110.439 248.704 111.079 249.024C111.735 249.328 112.287 249.712 112.735 250.176C113.199 250.624 113.431 251.128 113.431 251.688C113.431 252.792 112.743 253.68 111.367 254.352C109.991 255.008 107.783 255.256 104.743 255.096L104.815 253.368C109.215 253.72 111.415 253.216 111.415 251.856C111.415 251.472 111.191 251.12 110.743 250.8C110.295 250.464 109.743 250.168 109.087 249.912C108.447 249.64 107.799 249.36 107.143 249.072C106.503 248.768 105.959 248.4 105.511 247.968C105.063 247.52 104.839 247.024 104.839 246.48C104.839 245.408 105.479 244.536 106.759 243.864C108.055 243.176 110.087 242.936 112.855 243.144ZM126.507 255.264C124.699 255.264 123.179 255.136 121.947 254.88C120.715 254.608 119.747 254.208 119.043 253.68C118.355 253.152 117.867 252.536 117.579 251.832C117.291 251.128 117.146 250.28 117.146 249.288C117.146 247.512 117.683 246.016 118.755 244.8C119.843 243.568 121.155 242.952 122.691 242.952C124.275 242.952 125.459 243.544 126.243 244.728C127.043 245.896 127.331 247.464 127.107 249.432L119.067 249.624C119.163 251.032 119.755 252.032 120.843 252.624C121.947 253.216 123.899 253.544 126.699 253.608L126.507 255.264ZM122.355 244.56C121.379 244.56 120.603 244.896 120.027 245.568C119.451 246.224 119.131 247.176 119.067 248.424C120.235 248.376 122.307 248.312 125.283 248.232C125.267 247.08 125.011 246.184 124.515 245.544C124.035 244.888 123.315 244.56 122.355 244.56Z" fill="black"/>
</g>
<line y1="265.5" x2="360" y2="265.5" stroke="#3D1A1A" stroke-opacity="0.2"/>
<line x1="0.5" y1="226" x2="0.499998" y2="265" stroke="#3D1A1A" stroke-opacity="0.2"/>
<line x1="359.5" y1="226" x2="359.5" y2="265" stroke="#3D1A1A" stroke-opacity="0.2"/>
<rect width="360" height="66" transform="translate(0 120)" fill="#C3C4A2" fill-opacity="0.15"/>
<g opacity="0.7">
<path d="M11.92 140.312C11.92 139.464 12.072 138.688 12.376 137.984C12.696 137.28 13.184 136.632 13.84 136.04C14.512 135.448 15.448 134.984 16.648 134.648C17.864 134.296 19.296 134.104 20.944 134.072L21.088 135.92C19.616 135.92 18.384 136.016 17.392 136.208C16.416 136.384 15.672 136.664 15.16 137.048C14.664 137.432 14.32 137.864 14.128 138.344C13.936 138.808 13.84 139.376 13.84 140.048C13.84 141.68 14.384 142.856 15.472 143.576C16.56 144.296 18.488 144.592 21.256 144.464L21.04 146.096C19.312 146.208 17.84 146.152 16.624 145.928C15.408 145.688 14.464 145.288 13.792 144.728C13.12 144.168 12.64 143.536 12.352 142.832C12.064 142.112 11.92 141.272 11.92 140.312ZM29.5313 146.336C28.0433 146.336 26.8353 145.8 25.9073 144.728C24.9793 143.656 24.5153 142.192 24.5153 140.336C24.5153 138.464 25.0513 136.928 26.1233 135.728C27.2113 134.528 28.5313 133.928 30.0833 133.928C31.5713 133.928 32.7713 134.464 33.6833 135.536C34.6113 136.592 35.0753 138.048 35.0753 139.904C35.0753 141.808 34.5393 143.36 33.4673 144.56C32.3953 145.744 31.0833 146.336 29.5313 146.336ZM29.8433 144.728C30.8353 144.728 31.6273 144.344 32.2193 143.576C32.8273 142.792 33.1313 141.688 33.1313 140.264C33.1313 138.76 32.8193 137.592 32.1953 136.76C31.5873 135.928 30.7713 135.512 29.7473 135.512C28.7713 135.512 27.9793 135.904 27.3713 136.688C26.7793 137.472 26.4833 138.568 26.4833 139.976C26.4833 141.48 26.7873 142.648 27.3953 143.48C28.0033 144.312 28.8193 144.728 29.8433 144.728ZM43.3746 135.632C42.3666 135.632 41.3586 135.976 40.3506 136.664C40.4146 139.512 40.4466 142.624 40.4466 146H38.5026C38.5026 140.736 38.4466 136.84 38.3346 134.312L40.1346 134.192L40.2546 135.536C41.5026 134.496 42.8146 133.976 44.1906 133.976C46.5266 133.976 47.6946 135.328 47.6946 138.032V146H45.7506V138.68C45.7506 137.592 45.5506 136.816 45.1506 136.352C44.7506 135.872 44.1586 135.632 43.3746 135.632ZM51.5059 140.312C51.5059 139.464 51.6579 138.688 51.9619 137.984C52.2819 137.28 52.7699 136.632 53.4259 136.04C54.0979 135.448 55.0339 134.984 56.2339 134.648C57.4499 134.296 58.8819 134.104 60.5299 134.072L60.6739 135.92C59.2019 135.92 57.9699 136.016 56.9779 136.208C56.0019 136.384 55.2579 136.664 54.7459 137.048C54.2499 137.432 53.9059 137.864 53.7139 138.344C53.5219 138.808 53.4259 139.376 53.4259 140.048C53.4259 141.68 53.9699 142.856 55.0579 143.576C56.1459 144.296 58.0739 144.592 60.8419 144.464L60.6259 146.096C58.8979 146.208 57.4259 146.152 56.2099 145.928C54.9939 145.688 54.0499 145.288 53.3779 144.728C52.7059 144.168 52.2259 143.536 51.9379 142.832C51.6499 142.112 51.5059 141.272 51.5059 140.312ZM73.7253 146.264C71.9173 146.264 70.3973 146.136 69.1653 145.88C67.9333 145.608 66.9653 145.208 66.2613 144.68C65.5733 144.152 65.0853 143.536 64.7973 142.832C64.5093 142.128 64.3652 141.28 64.3652 140.288C64.3652 138.512 64.9013 137.016 65.9733 135.8C67.0613 134.568 68.3733 133.952 69.9093 133.952C71.4933 133.952 72.6773 134.544 73.4613 135.728C74.2613 136.896 74.5493 138.464 74.3253 140.432L66.2853 140.624C66.3813 142.032 66.9733 143.032 68.0613 143.624C69.1653 144.216 71.1173 144.544 73.9173 144.608L73.7253 146.264ZM69.5733 135.56C68.5973 135.56 67.8213 135.896 67.2453 136.568C66.6693 137.224 66.3493 138.176 66.2853 139.424C67.4533 139.376 69.5253 139.312 72.5013 139.232C72.4853 138.08 72.2293 137.184 71.7333 136.544C71.2533 135.888 70.5333 135.56 69.5733 135.56ZM87.0166 146.192C84.5046 146.224 82.7446 145.944 81.7366 145.352C80.7286 144.744 80.2246 143.704 80.2246 142.232V135.752H77.8006L77.9926 134.24H80.2246V130.976L82.1686 130.808V134.24H86.9686V135.752H82.1686V141.92C82.1686 142.928 82.5126 143.616 83.2006 143.984C83.9046 144.336 85.2486 144.528 87.2326 144.56L87.0166 146.192ZM99.6119 146H90.7799V144.512H93.8999C93.8359 139.776 93.7879 136.872 93.7559 135.8L90.7799 135.632L90.9239 134.24H95.4839C95.5479 134.912 95.5959 135.584 95.6279 136.256C96.9399 134.896 98.7319 134.08 101.004 133.808L101.1 135.872C98.8279 136.048 97.0279 136.568 95.6999 137.432C95.6999 137.864 95.7079 138.896 95.7239 140.528C95.7559 142.144 95.7799 143.472 95.7959 144.512H99.7799L99.6119 146ZM108.319 144.752C109.471 144.752 110.583 144.328 111.655 143.48C111.623 142.456 111.607 141.528 111.607 140.696C107.799 140.296 105.895 140.992 105.895 142.784C105.895 143.408 106.111 143.896 106.543 144.248C106.991 144.584 107.583 144.752 108.319 144.752ZM111.919 146.072C111.919 146.04 111.895 145.832 111.847 145.448C111.799 145.064 111.767 144.768 111.751 144.56C110.503 145.712 109.111 146.288 107.575 146.288C106.487 146.288 105.615 146.016 104.959 145.472C104.303 144.928 103.975 144.184 103.975 143.24C103.975 141.96 104.623 140.952 105.919 140.216C107.215 139.464 109.103 139.16 111.583 139.304C111.503 137.96 110.991 137.048 110.047 136.568C109.119 136.088 107.327 135.8 104.671 135.704L104.887 134.024C107.191 134.088 108.951 134.32 110.167 134.72C111.383 135.12 112.239 135.744 112.735 136.592C113.247 137.424 113.503 138.616 113.503 140.168C113.503 141.784 113.567 143.712 113.695 145.952L111.919 146.072ZM117.483 140.312C117.483 139.464 117.635 138.688 117.939 137.984C118.259 137.28 118.747 136.632 119.403 136.04C120.075 135.448 121.011 134.984 122.211 134.648C123.427 134.296 124.859 134.104 126.507 134.072L126.651 135.92C125.179 135.92 123.947 136.016 122.955 136.208C121.979 136.384 121.235 136.664 120.723 137.048C120.227 137.432 119.883 137.864 119.691 138.344C119.499 138.808 119.403 139.376 119.403 140.048C119.403 141.68 119.947 142.856 121.035 143.576C122.123 144.296 124.051 144.592 126.819 144.464L126.603 146.096C124.875 146.208 123.403 146.152 122.187 145.928C120.971 145.688 120.027 145.288 119.355 144.728C118.683 144.168 118.203 143.536 117.915 142.832C117.627 142.112 117.483 141.272 117.483 140.312ZM136.726 132.344H134.734L134.878 129.08H136.942L136.726 132.344ZM141.094 146H130.462V144.512H134.878V135.8L130.486 135.608L130.63 134.24H136.822V144.512H141.238L141.094 146ZM146.033 131.624C146.721 131.144 147.513 130.488 148.409 129.656C149.321 128.808 150.073 128.04 150.665 127.352L152.225 128.864C151.569 129.456 150.689 130.104 149.585 130.808C148.481 131.496 147.481 132.056 146.585 132.488L146.033 131.624ZM148.289 146.336C146.801 146.336 145.593 145.8 144.665 144.728C143.737 143.656 143.273 142.192 143.273 140.336C143.273 138.464 143.809 136.928 144.881 135.728C145.969 134.528 147.289 133.928 148.841 133.928C150.329 133.928 151.529 134.464 152.441 135.536C153.369 136.592 153.833 138.048 153.833 139.904C153.833 141.808 153.297 143.36 152.225 144.56C151.153 145.744 149.841 146.336 148.289 146.336ZM148.601 144.728C149.593 144.728 150.385 144.344 150.977 143.576C151.585 142.792 151.889 141.688 151.889 140.264C151.889 138.76 151.577 137.592 150.953 136.76C150.345 135.928 149.529 135.512 148.505 135.512C147.529 135.512 146.737 135.904 146.129 136.688C145.537 137.472 145.241 138.568 145.241 139.976C145.241 141.48 145.545 142.648 146.153 143.48C146.761 144.312 147.577 144.728 148.601 144.728ZM162.132 135.632C161.124 135.632 160.116 135.976 159.108 136.664C159.172 139.512 159.204 142.624 159.204 146H157.26C157.26 140.736 157.204 136.84 157.092 134.312L158.892 134.192L159.012 135.536C160.26 134.496 161.572 133.976 162.948 133.976C165.284 133.976 166.452 135.328 166.452 138.032V146H164.508V138.68C164.508 137.592 164.308 136.816 163.908 136.352C163.508 135.872 162.916 135.632 162.132 135.632ZM16.504 175.68C17.416 175.68 18.288 175.344 19.12 174.672C19.072 172.624 19.048 170.056 19.048 166.968C18.344 166.744 17.696 166.632 17.104 166.632C15.984 166.632 15.064 167.04 14.344 167.856C13.624 168.656 13.264 169.776 13.264 171.216C13.264 172.672 13.56 173.784 14.152 174.552C14.744 175.304 15.528 175.68 16.504 175.68ZM19.336 177.048L19.216 175.824C18.176 176.8 17.024 177.288 15.76 177.288C14.464 177.288 13.4 176.792 12.568 175.8C11.752 174.792 11.344 173.432 11.344 171.72C11.344 169.656 11.984 168.016 13.264 166.8C14.544 165.584 16.12 164.976 17.992 164.976C18.36 164.976 18.712 165 19.048 165.048V160.224L20.992 160.056V165.288C20.992 170.584 21.048 174.472 21.16 176.952L19.336 177.048ZM34.1393 177.264C32.3313 177.264 30.8113 177.136 29.5793 176.88C28.3473 176.608 27.3793 176.208 26.6753 175.68C25.9873 175.152 25.4993 174.536 25.2113 173.832C24.9233 173.128 24.7793 172.28 24.7793 171.288C24.7793 169.512 25.3153 168.016 26.3873 166.8C27.4753 165.568 28.7873 164.952 30.3233 164.952C31.9073 164.952 33.0913 165.544 33.8753 166.728C34.6753 167.896 34.9633 169.464 34.7393 171.432L26.6993 171.624C26.7953 173.032 27.3873 174.032 28.4753 174.624C29.5793 175.216 31.5313 175.544 34.3313 175.608L34.1393 177.264ZM29.9873 166.56C29.0113 166.56 28.2353 166.896 27.6593 167.568C27.0833 168.224 26.7633 169.176 26.6993 170.424C27.8673 170.376 29.9393 170.312 32.9153 170.232C32.8993 169.08 32.6433 168.184 32.1473 167.544C31.6673 166.888 30.9473 166.56 29.9873 166.56ZM56.5699 166.632C55.5619 166.632 54.5539 166.976 53.5459 167.664C53.6099 170.512 53.6419 173.624 53.6419 177H51.6979C51.6979 171.736 51.6419 167.84 51.5299 165.312L53.3299 165.192L53.4499 166.536C54.6979 165.496 56.0099 164.976 57.3859 164.976C59.7219 164.976 60.8899 166.328 60.8899 169.032V177H58.9459V169.68C58.9459 168.592 58.7459 167.816 58.3459 167.352C57.9459 166.872 57.3539 166.632 56.5699 166.632ZM70.7493 163.344H68.7573L68.9013 160.08H70.9653L70.7493 163.344ZM75.1172 177H64.4853V175.512H68.9013V166.8L64.5093 166.608L64.6533 165.24H70.8453V175.512H75.2613L75.1172 177ZM77.8966 171.312C77.8966 170.464 78.0486 169.688 78.3526 168.984C78.6726 168.28 79.1606 167.632 79.8166 167.04C80.4886 166.448 81.4246 165.984 82.6246 165.648C83.8406 165.296 85.2726 165.104 86.9206 165.072L87.0646 166.92C85.5926 166.92 84.3606 167.016 83.3686 167.208C82.3926 167.384 81.6486 167.664 81.1366 168.048C80.6406 168.432 80.2966 168.864 80.1046 169.344C79.9126 169.808 79.8166 170.376 79.8166 171.048C79.8166 172.68 80.3606 173.856 81.4486 174.576C82.5366 175.296 84.4646 175.592 87.2326 175.464L87.0166 177.096C85.2886 177.208 83.8166 177.152 82.6006 176.928C81.3846 176.688 80.4406 176.288 79.7686 175.728C79.0966 175.168 78.6166 174.536 78.3286 173.832C78.0406 173.112 77.8966 172.272 77.8966 171.312ZM95.5079 177.336C94.0199 177.336 92.8119 176.8 91.8839 175.728C90.9559 174.656 90.4919 173.192 90.4919 171.336C90.4919 169.464 91.0279 167.928 92.0999 166.728C93.1879 165.528 94.5079 164.928 96.0599 164.928C97.5479 164.928 98.7479 165.464 99.6599 166.536C100.588 167.592 101.052 169.048 101.052 170.904C101.052 172.808 100.516 174.36 99.4439 175.56C98.3719 176.744 97.0599 177.336 95.5079 177.336ZM95.8199 175.728C96.8119 175.728 97.6039 175.344 98.1959 174.576C98.8039 173.792 99.1079 172.688 99.1079 171.264C99.1079 169.76 98.7959 168.592 98.1719 167.76C97.5639 166.928 96.7479 166.512 95.7239 166.512C94.7479 166.512 93.9559 166.904 93.3479 167.688C92.7559 168.472 92.4599 169.568 92.4599 170.976C92.4599 172.48 92.7639 173.648 93.3719 174.48C93.9799 175.312 94.7959 175.728 95.8199 175.728ZM113.407 177.192C110.895 177.224 109.135 176.944 108.127 176.352C107.119 175.744 106.615 174.704 106.615 173.232V166.752H104.191L104.383 165.24H106.615V161.976L108.559 161.808V165.24H113.359V166.752H108.559V172.92C108.559 173.928 108.903 174.616 109.591 174.984C110.295 175.336 111.639 175.528 113.623 175.56L113.407 177.192ZM123.531 163.344H121.539L121.683 160.08H123.747L123.531 163.344ZM127.898 177H117.267V175.512H121.683V166.8L117.291 166.608L117.435 165.24H123.627V175.512H128.043L127.898 177ZM135.742 166.632C134.734 166.632 133.726 166.976 132.718 167.664C132.782 170.512 132.814 173.624 132.814 177H130.87C130.87 171.736 130.814 167.84 130.702 165.312L132.502 165.192L132.622 166.536C133.87 165.496 135.182 164.976 136.558 164.976C138.894 164.976 140.062 166.328 140.062 169.032V177H138.118V169.68C138.118 168.592 137.918 167.816 137.518 167.352C137.118 166.872 136.526 166.632 135.742 166.632ZM147.905 175.752C149.057 175.752 150.169 175.328 151.241 174.48C151.209 173.456 151.193 172.528 151.193 171.696C147.385 171.296 145.481 171.992 145.481 173.784C145.481 174.408 145.697 174.896 146.129 175.248C146.577 175.584 147.169 175.752 147.905 175.752ZM151.505 177.072C151.505 177.04 151.481 176.832 151.433 176.448C151.385 176.064 151.353 175.768 151.337 175.56C150.089 176.712 148.697 177.288 147.161 177.288C146.073 177.288 145.201 177.016 144.545 176.472C143.889 175.928 143.561 175.184 143.561 174.24C143.561 172.96 144.209 171.952 145.505 171.216C146.801 170.464 148.689 170.16 151.169 170.304C151.089 168.96 150.577 168.048 149.633 167.568C148.705 167.088 146.913 166.8 144.257 166.704L144.473 165.024C146.777 165.088 148.537 165.32 149.753 165.72C150.969 166.12 151.825 166.744 152.321 167.592C152.833 168.424 153.089 169.616 153.089 171.168C153.089 172.784 153.153 174.712 153.281 176.952L151.505 177.072Z" fill="black"/>
</g>
<line y1="185.5" x2="360" y2="185.5" stroke="#3D1A1A" stroke-opacity="0.2"/>
<line x1="0.5" y1="120" x2="0.499997" y2="184.35" stroke="#3D1A1A" stroke-opacity="0.2"/>
<line x1="359.5" y1="120" x2="359.5" y2="184.35" stroke="#3D1A1A" stroke-opacity="0.2"/>
<rect x="322" y="123" width="32" height="179" rx="16" fill="#D6CACD"/>
<path d="M331.974 135.936V143.766C331.974 144.234 331.986 144.654 332.01 145.026C332.046 145.398 332.124 145.716 332.244 145.98C332.376 146.232 332.568 146.43 332.82 146.574C333.084 146.718 333.444 146.79 333.9 146.79C334.356 146.79 334.71 146.718 334.962 146.574C335.226 146.43 335.418 146.232 335.538 145.98C335.67 145.716 335.748 145.398 335.772 145.026C335.808 144.654 335.826 144.234 335.826 143.766V135.936H338.184V143.406C338.184 144.294 338.13 145.068 338.022 145.728C337.914 146.388 337.704 146.94 337.392 147.384C337.08 147.828 336.642 148.164 336.078 148.392C335.526 148.608 334.8 148.716 333.9 148.716C333 148.716 332.268 148.608 331.704 148.392C331.152 148.164 330.72 147.828 330.408 147.384C330.096 146.94 329.886 146.388 329.778 145.728C329.67 145.068 329.616 144.294 329.616 143.406V135.936H331.974ZM344.279 142.992L342.965 144.72V148.5H340.607V135.936H342.965V141.588H343.073L344.531 139.5L347.177 135.936H349.841L345.899 141.228L350.021 148.5H347.357L344.279 142.992Z" fill="black"/>
<rect x="322" y="43" width="32" height="33" rx="16" fill="#836B7F"/>
<path d="M329.94 68.5V55.936H334.71C335.934 55.936 336.87 56.284 337.518 56.98C338.166 57.676 338.49 58.624 338.49 59.824C338.49 61.024 338.166 61.972 337.518 62.668C336.87 63.364 335.934 63.712 334.71 63.712H332.298V68.5H329.94ZM332.298 61.786H334.224C334.86 61.786 335.316 61.66 335.592 61.408C335.868 61.144 336.006 60.73 336.006 60.166V59.482C336.006 58.918 335.868 58.51 335.592 58.258C335.316 57.994 334.86 57.862 334.224 57.862H332.298V61.786ZM344.279 62.992L342.965 64.72V68.5H340.607V55.936H342.965V61.588H343.073L344.531 59.5L347.177 55.936H349.841L345.899 61.228L350.021 68.5H347.357L344.279 62.992Z" fill="white"/>
<rect x="284" y="269" width="32" height="33" rx="16" fill="#C3C4A2"/>
<path d="M291.994 294.5V281.936H300.202V283.88H294.352V287.156H299.626V289.1H294.352V294.5H291.994ZM306.279 288.992L304.965 290.72V294.5H302.607V281.936H304.965V287.588H305.073L306.531 285.5L309.177 281.936H311.841L307.899 287.228L312.021 294.5H309.357L306.279 288.992Z" fill="black"/>
<rect x="284" y="229" width="32" height="33" rx="16" fill="#C3C4A2"/>
<path d="M291.994 254.5V241.936H300.202V243.88H294.352V247.156H299.626V249.1H294.352V254.5H291.994ZM306.279 248.992L304.965 250.72V254.5H302.607V241.936H304.965V247.588H305.073L306.531 245.5L309.177 241.936H311.841L307.899 247.228L312.021 254.5H309.357L306.279 248.992Z" fill="black"/>
<rect x="322" y="83" width="32" height="33" rx="16" fill="#9DA076"/>
<path d="M331.902 99.482H331.722V108.5H329.706V95.936H332.604L335.898 104.954H336.078V95.936H338.094V108.5H335.196L331.902 99.482ZM342.695 99.482H342.515V108.5H340.499V95.936H343.397L346.691 104.954H346.871V95.936H348.887V108.5H345.989L342.695 99.482Z" fill="white"/>
<rect x="284" y="123" width="32" height="33" rx="16" fill="#9DA076"/>
<path d="M293.902 139.482H293.722V148.5H291.706V135.936H294.604L297.898 144.954H298.078V135.936H300.094V148.5H297.196L293.902 139.482ZM304.695 139.482H304.515V148.5H302.499V135.936H305.397L308.691 144.954H308.871V135.936H310.887V148.5H307.989L304.695 139.482Z" fill="white"/>
<rect x="284" y="189" width="32" height="33" rx="16" fill="#9DA076"/>
<path d="M293.902 205.482H293.722V214.5H291.706V201.936H294.604L297.898 210.954H298.078V201.936H300.094V214.5H297.196L293.902 205.482ZM304.695 205.482H304.515V214.5H302.499V201.936H305.397L308.691 210.954H308.871V201.936H310.887V214.5H307.989L304.695 205.482Z" fill="white"/>
</svg>
