<svg width="360" height="160" viewBox="0 0 360 160" fill="none" xmlns="http://www.w3.org/2000/svg">
<rect width="360" height="40" transform="translate(0 40)" fill="#C3C4A2" fill-opacity="0.15"/>
<g opacity="0.7">
<path d="M16.984 58.632C15.976 58.632 14.968 58.976 13.96 59.664C14.024 62.512 14.056 65.624 14.056 69H12.112C12.112 63.736 12.056 59.84 11.944 57.312L13.744 57.192L13.864 58.536C15.112 57.496 16.424 56.976 17.8 56.976C20.136 56.976 21.304 58.328 21.304 61.032V69H19.36V61.68C19.36 60.592 19.16 59.816 18.76 59.352C18.36 58.872 17.768 58.632 16.984 58.632ZM29.5313 69.336C28.0433 69.336 26.8353 68.8 25.9073 67.728C24.9793 66.656 24.5153 65.192 24.5153 63.336C24.5153 61.464 25.0513 59.928 26.1233 58.728C27.2113 57.528 28.5313 56.928 30.0833 56.928C31.5713 56.928 32.7713 57.464 33.6833 58.536C34.6113 59.592 35.0753 61.048 35.0753 62.904C35.0753 64.808 34.5393 66.36 33.4673 67.56C32.3953 68.744 31.0833 69.336 29.5313 69.336ZM29.8433 67.728C30.8353 67.728 31.6273 67.344 32.2193 66.576C32.8273 65.792 33.1313 64.688 33.1313 63.264C33.1313 61.76 32.8193 60.592 32.1953 59.76C31.5873 58.928 30.7713 58.512 29.7473 58.512C28.7713 58.512 27.9793 58.904 27.3713 59.688C26.7793 60.472 26.4833 61.568 26.4833 62.976C26.4833 64.48 26.7873 65.648 27.3953 66.48C28.0033 67.312 28.8193 67.728 29.8433 67.728ZM41.2386 58.632C40.6626 58.632 40.0786 58.928 39.4866 59.52C39.5506 62.368 39.5826 65.528 39.5826 69H37.7586C37.7586 63.912 37.7106 60.016 37.6146 57.312L39.3186 57.192L39.4146 58.296C40.2146 57.416 41.0626 56.976 41.9586 56.976C42.8546 56.976 43.4546 57.392 43.7586 58.224C44.5586 57.392 45.4146 56.976 46.3266 56.976C47.7026 56.976 48.3906 57.856 48.3906 59.616V69H46.5426V60.312C46.5426 59.704 46.4546 59.272 46.2786 59.016C46.1186 58.76 45.8306 58.632 45.4146 58.632C44.8866 58.632 44.3666 58.864 43.8546 59.328V59.544V69H42.3426V60.288C42.3426 59.696 42.2546 59.272 42.0786 59.016C41.9186 58.76 41.6386 58.632 41.2386 58.632ZM55.2019 69.288C54.0179 69.288 52.8659 69.088 51.7459 68.688V52.224L53.6899 52.056V58.296C54.7459 57.416 55.8739 56.976 57.0739 56.976C58.3539 56.976 59.4019 57.488 60.2179 58.512C61.0339 59.536 61.4419 60.896 61.4419 62.592C61.4419 64.592 60.8259 66.208 59.5939 67.44C58.3779 68.672 56.9139 69.288 55.2019 69.288ZM55.8739 67.608C56.9619 67.608 57.8419 67.216 58.5139 66.432C59.1859 65.648 59.5219 64.528 59.5219 63.072C59.5219 61.648 59.2259 60.544 58.6339 59.76C58.0419 58.976 57.2659 58.584 56.3059 58.584C55.3939 58.584 54.5219 58.896 53.6899 59.52V67.2C54.4579 67.472 55.1859 67.608 55.8739 67.608ZM73.2213 69H64.3893V67.512H67.5093C67.4453 62.776 67.3973 59.872 67.3653 58.8L64.3893 58.632L64.5333 57.24H69.0933C69.1573 57.912 69.2053 58.584 69.2373 59.256C70.5493 57.896 72.3413 57.08 74.6133 56.808L74.7093 58.872C72.4373 59.048 70.6373 59.568 69.3093 60.432C69.3093 60.864 69.3173 61.896 69.3333 63.528C69.3653 65.144 69.3893 66.472 69.4053 67.512H73.3893L73.2213 69ZM86.9206 69.264C85.1126 69.264 83.5926 69.136 82.3606 68.88C81.1286 68.608 80.1606 68.208 79.4566 67.68C78.7686 67.152 78.2806 66.536 77.9926 65.832C77.7046 65.128 77.5606 64.28 77.5606 63.288C77.5606 61.512 78.0966 60.016 79.1686 58.8C80.2566 57.568 81.5686 56.952 83.1046 56.952C84.6886 56.952 85.8726 57.544 86.6566 58.728C87.4566 59.896 87.7446 61.464 87.5206 63.432L79.4806 63.624C79.5766 65.032 80.1686 66.032 81.2566 66.624C82.3606 67.216 84.3126 67.544 87.1126 67.608L86.9206 69.264ZM82.7686 58.56C81.7926 58.56 81.0166 58.896 80.4406 59.568C79.8646 60.224 79.5446 61.176 79.4806 62.424C80.6486 62.376 82.7206 62.312 85.6966 62.232C85.6806 61.08 85.4246 60.184 84.9286 59.544C84.4486 58.888 83.7286 58.56 82.7686 58.56ZM108.871 67.68C109.783 67.68 110.655 67.344 111.487 66.672C111.439 64.624 111.415 62.056 111.415 58.968C110.711 58.744 110.063 58.632 109.471 58.632C108.351 58.632 107.431 59.04 106.711 59.856C105.991 60.656 105.631 61.776 105.631 63.216C105.631 64.672 105.927 65.784 106.519 66.552C107.111 67.304 107.895 67.68 108.871 67.68ZM111.703 69.048L111.583 67.824C110.543 68.8 109.391 69.288 108.127 69.288C106.831 69.288 105.767 68.792 104.935 67.8C104.119 66.792 103.711 65.432 103.711 63.72C103.711 61.656 104.351 60.016 105.631 58.8C106.911 57.584 108.487 56.976 110.359 56.976C110.727 56.976 111.079 57 111.415 57.048V52.224L113.359 52.056V57.288C113.359 62.584 113.415 66.472 113.527 68.952L111.703 69.048ZM126.507 69.264C124.699 69.264 123.179 69.136 121.947 68.88C120.715 68.608 119.747 68.208 119.043 67.68C118.355 67.152 117.867 66.536 117.579 65.832C117.291 65.128 117.146 64.28 117.146 63.288C117.146 61.512 117.683 60.016 118.755 58.8C119.843 57.568 121.155 56.952 122.691 56.952C124.275 56.952 125.459 57.544 126.243 58.728C127.043 59.896 127.331 61.464 127.107 63.432L119.067 63.624C119.163 65.032 119.755 66.032 120.843 66.624C121.947 67.216 123.899 67.544 126.699 67.608L126.507 69.264ZM122.355 58.56C121.379 58.56 120.603 58.896 120.027 59.568C119.451 60.224 119.131 61.176 119.067 62.424C120.235 62.376 122.307 62.312 125.283 62.232C125.267 61.08 125.011 60.184 124.515 59.544C124.035 58.888 123.315 58.56 122.355 58.56ZM153.281 69H143.825V67.512H147.641V53.808L144.017 53.64L144.185 52.248H149.609V67.512H153.449L153.281 69ZM159.732 54.744C160.42 54.264 161.22 53.608 162.132 52.776C163.044 51.928 163.788 51.16 164.364 50.472L165.924 51.984C165.268 52.576 164.388 53.224 163.284 53.928C162.18 54.616 161.18 55.176 160.284 55.608L159.732 54.744ZM167.484 69H156.852V67.512H161.268V58.8L156.876 58.608L157.02 57.24H163.212V67.512H167.628L167.484 69ZM177.44 73.104V67.944C176.416 68.856 175.304 69.312 174.104 69.312C172.808 69.312 171.744 68.808 170.912 67.8C170.096 66.792 169.688 65.432 169.688 63.72C169.688 61.672 170.32 60.04 171.584 58.824C172.864 57.592 174.384 56.976 176.144 56.976C177.264 56.976 178.344 57.176 179.384 57.576V72.936L177.44 73.104ZM174.824 67.68C175.704 67.68 176.576 67.344 177.44 66.672V59.016C176.736 58.76 176.064 58.632 175.424 58.632C174.304 58.632 173.384 59.04 172.664 59.856C171.96 60.656 171.608 61.784 171.608 63.24C171.608 64.68 171.896 65.784 172.472 66.552C173.064 67.304 173.848 67.68 174.824 67.68ZM190.995 69.048L190.875 67.704C189.595 68.76 188.291 69.288 186.963 69.288C184.659 69.288 183.507 67.928 183.507 65.208V57.312L185.451 57.168V64.56C185.451 65.664 185.643 66.456 186.027 66.936C186.427 67.4 187.011 67.632 187.779 67.632C188.787 67.632 189.787 67.272 190.779 66.552C190.715 63.736 190.683 60.632 190.683 57.24H192.627C192.627 62.504 192.683 66.4 192.795 68.928L190.995 69.048ZM202.702 55.344H200.71L200.854 52.08H202.918L202.702 55.344ZM207.07 69H196.438V67.512H200.854V58.8L196.462 58.608L196.606 57.24H202.798V67.512H207.214L207.07 69ZM214.434 67.68C215.346 67.68 216.218 67.344 217.05 66.672C217.002 64.624 216.978 62.056 216.978 58.968C216.274 58.744 215.626 58.632 215.034 58.632C213.914 58.632 212.994 59.04 212.274 59.856C211.554 60.656 211.194 61.776 211.194 63.216C211.194 64.672 211.49 65.784 212.082 66.552C212.674 67.304 213.458 67.68 214.434 67.68ZM217.266 69.048L217.146 67.824C216.106 68.8 214.954 69.288 213.69 69.288C212.394 69.288 211.33 68.792 210.498 67.8C209.682 66.792 209.274 65.432 209.274 63.72C209.274 61.656 209.914 60.016 211.194 58.8C212.474 57.584 214.05 56.976 215.922 56.976C216.29 56.976 216.642 57 216.978 57.048V52.224L218.922 52.056V57.288C218.922 62.584 218.978 66.472 219.09 68.952L217.266 69.048ZM227.461 69.336C225.973 69.336 224.765 68.8 223.837 67.728C222.909 66.656 222.445 65.192 222.445 63.336C222.445 61.464 222.981 59.928 224.053 58.728C225.141 57.528 226.461 56.928 228.013 56.928C229.501 56.928 230.701 57.464 231.613 58.536C232.541 59.592 233.005 61.048 233.005 62.904C233.005 64.808 232.469 66.36 231.397 67.56C230.325 68.744 229.013 69.336 227.461 69.336ZM227.773 67.728C228.765 67.728 229.557 67.344 230.149 66.576C230.757 65.792 231.061 64.688 231.061 63.264C231.061 61.76 230.749 60.592 230.125 59.76C229.517 58.928 228.701 58.512 227.677 58.512C226.701 58.512 225.909 58.904 225.301 59.688C224.709 60.472 224.413 61.568 224.413 62.976C224.413 64.48 224.717 65.648 225.325 66.48C225.933 67.312 226.749 67.728 227.773 67.728Z" fill="black"/>
</g>
<line y1="79.5" x2="360" y2="79.5" stroke="#3D1A1A" stroke-opacity="0.2"/>
<line x1="0.5" y1="40" x2="0.499998" y2="79" stroke="#3D1A1A" stroke-opacity="0.2"/>
<line x1="359.5" y1="40" x2="359.5" y2="79" stroke="#3D1A1A" stroke-opacity="0.2"/>
<path d="M0 5C0 2.23858 2.23858 0 5 0H355C357.761 0 360 2.23858 360 5V40H0V5Z" fill="#836B7F"/>
<path d="M22.656 30L23.328 26.584H15.964L18.652 12.64H14.564L11.204 30H22.656ZM31.1065 12.64L31.7785 14.292C34.0185 13.788 38.0505 12.36 40.2625 10.932L37.8265 7.964C35.9785 9.588 32.8985 11.688 31.1065 12.64ZM39.4785 28.488L39.1705 26.5C33.8505 27.34 33.6825 27.088 34.2985 24.764L36.6225 15.804H33.4025L27.4945 17.148L27.7745 19.108L32.1145 18.968L30.3225 25.492C29.0345 30.14 31.4705 31.988 39.4785 28.488ZM55.8811 33.388L55.5731 31.456C53.0811 31.876 53.0251 31.82 53.2211 30.784L56.0211 16.308C54.7891 15.804 52.9971 15.412 51.6251 15.412C45.6891 15.412 42.3011 20.536 42.3011 25.604C42.3011 28.824 43.8131 30.364 45.5771 30.364C46.9771 30.364 48.5451 29.412 50.0011 28.096L49.3011 31.876C48.6291 35.432 50.2811 36.244 55.8811 33.388ZM47.5931 26.752C46.7811 26.752 46.1371 26.08 46.1371 24.54C46.1371 21.936 47.5931 18.604 49.3571 18.604C49.8891 18.604 50.7571 18.772 51.6811 19.052L50.5331 25.24C49.4971 26.108 48.4051 26.752 47.5931 26.752ZM71.7516 28.712L71.4436 26.808C69.6236 27.256 69.5396 27.144 69.7636 26.052L71.7516 15.804H67.9716L66.1796 25.044C65.1996 26.136 64.1916 26.696 63.4356 26.696C62.5676 26.696 62.3716 26.024 62.6516 24.708L64.5836 15.636L60.8036 15.86L58.1996 19.5L59.7676 20.536L58.7876 25.24C58.0596 28.656 59.0676 30.392 61.2516 30.392C62.7356 30.392 64.2196 29.552 65.7036 27.9C65.6196 30.616 67.3276 31.372 71.7516 28.712ZM84.3181 13.62L85.5221 9.672L81.0421 9.896L80.1181 13.816L84.3181 13.62ZM86.5021 28.488L86.1941 26.5C80.8741 27.34 80.7061 27.088 81.3221 24.764L83.6461 15.804H80.4261L74.5181 17.148L74.7981 19.108L79.1381 18.968L77.3461 25.492C76.0581 30.14 78.4941 31.988 86.5021 28.488ZM94.4207 26.724C93.6927 26.724 93.1047 26.08 93.1047 24.512C93.1047 21.964 94.6727 18.632 96.3247 18.632C96.7447 18.632 97.5567 18.744 98.4247 19.052L97.2487 25.184C96.2407 26.08 95.1767 26.724 94.4207 26.724ZM103.101 28.656L102.821 26.808C100.721 27.256 100.637 27.228 100.833 26.136L103.913 10.232L100.077 10.512L99.1247 15.468C98.7887 15.44 98.4527 15.412 98.1447 15.412C92.5727 15.412 89.2407 20.648 89.2407 25.66C89.2407 28.824 90.6127 30.364 92.2927 30.364C93.7487 30.364 95.4847 29.16 97.0247 27.676C96.8567 30.504 98.2567 31.372 103.101 28.656ZM105.083 24.512C105.083 28.152 107.239 30.392 110.655 30.392C115.219 30.392 118.467 26.108 118.467 21.264C118.467 17.624 116.311 15.384 112.895 15.384C108.331 15.384 105.083 19.668 105.083 24.512ZM114.519 21.74C114.519 24.456 113.175 27.2 111.159 27.2C109.871 27.2 109.031 26.08 109.031 24.036C109.031 21.32 110.375 18.576 112.391 18.576C113.679 18.576 114.519 19.696 114.519 21.74ZM149.368 24.484C149.368 22.86 148.444 21.572 146.848 20.984C149.032 19.948 150.292 18.324 150.292 16.476C150.292 13.592 147.268 11.576 139.484 12.78L136.152 29.972C145.756 31.204 149.368 27.928 149.368 24.484ZM146.372 17.372C146.372 18.772 145.056 20.032 142.032 20.368L142.928 15.636C145.168 15.412 146.372 16.112 146.372 17.372ZM145.476 24.624C145.476 26.248 143.852 27.396 140.772 26.92L141.612 22.58C144.3 22.272 145.476 23.14 145.476 24.624ZM157.147 12.332L157.819 13.984C160.059 13.48 164.091 12.052 166.303 10.624L163.867 7.656C162.019 9.28 158.939 11.38 157.147 12.332ZM157.007 26.696C156.363 26.696 155.831 26.276 155.831 25.044C155.831 22.244 157.287 18.744 158.939 18.744C159.415 18.744 160.199 18.884 161.067 19.192C160.675 21.208 160.143 23.952 159.891 25.212C158.855 26.108 157.735 26.696 157.007 26.696ZM165.603 28.712L165.295 26.808C163.363 27.172 163.279 27.144 163.503 26.024L165.407 16.168C163.923 15.72 162.299 15.496 160.955 15.496C155.215 15.496 151.911 20.788 151.911 25.996C151.911 28.964 153.171 30.364 154.823 30.364C156.307 30.364 158.127 29.16 159.723 27.592C159.611 30.532 161.011 31.456 165.603 28.712ZM180.325 25.548C180.325 23.252 178.001 21.292 176.797 19.64C179.597 16.84 178.561 14.964 176.153 14.964C174.081 14.964 171.897 16.224 171.897 18.408C171.897 19.024 172.093 19.612 172.373 20.172C171.449 20.9 170.161 21.74 168.453 22.776L169.265 24.512C171.029 23.644 172.513 22.832 173.717 22.048C175.005 23.476 176.461 24.736 176.461 25.744C176.461 26.752 174.837 27.032 169.909 26.78L169.825 30.28C177.945 30.364 180.325 28.068 180.325 25.548ZM194.04 13.62L195.244 9.672L190.764 9.896L189.84 13.816L194.04 13.62ZM196.224 28.488L195.916 26.5C190.596 27.34 190.428 27.088 191.044 24.764L193.368 15.804H190.148L184.24 17.148L184.52 19.108L188.86 18.968L187.068 25.492C185.78 30.14 188.216 31.988 196.224 28.488ZM212.29 21.012C212.626 16.98 211.282 15.412 208.286 15.412C203.442 15.412 199.41 19.78 199.41 24.904C199.41 29.328 202.91 32.38 211.254 28.656L210.974 26.64C204.59 27.564 203.302 26.892 203.302 24.092C203.302 21.264 204.982 18.716 207.166 18.716C208.37 18.716 208.79 19.416 208.762 21.068L212.29 21.012ZM214.805 24.512C214.805 28.152 216.961 30.392 220.377 30.392C224.941 30.392 228.189 26.108 228.189 21.264C228.189 17.624 226.033 15.384 222.617 15.384C218.053 15.384 214.805 19.668 214.805 24.512ZM224.241 21.74C224.241 24.456 222.897 27.2 220.881 27.2C219.593 27.2 218.753 26.08 218.753 24.036C218.753 21.32 220.097 18.576 222.113 18.576C223.401 18.576 224.241 19.696 224.241 21.74Z" fill="#EEEEEE"/>
<rect width="360" height="40" transform="translate(0 120)" fill="#C3C4A2" fill-opacity="0.15"/>
<g opacity="0.7">
<path d="M11.92 143.312C11.92 142.464 12.072 141.688 12.376 140.984C12.696 140.28 13.184 139.632 13.84 139.04C14.512 138.448 15.448 137.984 16.648 137.648C17.864 137.296 19.296 137.104 20.944 137.072L21.088 138.92C19.616 138.92 18.384 139.016 17.392 139.208C16.416 139.384 15.672 139.664 15.16 140.048C14.664 140.432 14.32 140.864 14.128 141.344C13.936 141.808 13.84 142.376 13.84 143.048C13.84 144.68 14.384 145.856 15.472 146.576C16.56 147.296 18.488 147.592 21.256 147.464L21.04 149.096C19.312 149.208 17.84 149.152 16.624 148.928C15.408 148.688 14.464 148.288 13.792 147.728C13.12 147.168 12.64 146.536 12.352 145.832C12.064 145.112 11.92 144.272 11.92 143.312ZM29.5313 149.336C28.0433 149.336 26.8353 148.8 25.9073 147.728C24.9793 146.656 24.5153 145.192 24.5153 143.336C24.5153 141.464 25.0513 139.928 26.1233 138.728C27.2113 137.528 28.5313 136.928 30.0833 136.928C31.5713 136.928 32.7713 137.464 33.6833 138.536C34.6113 139.592 35.0753 141.048 35.0753 142.904C35.0753 144.808 34.5393 146.36 33.4673 147.56C32.3953 148.744 31.0833 149.336 29.5313 149.336ZM29.8433 147.728C30.8353 147.728 31.6273 147.344 32.2193 146.576C32.8273 145.792 33.1313 144.688 33.1313 143.264C33.1313 141.76 32.8193 140.592 32.1953 139.76C31.5873 138.928 30.7713 138.512 29.7473 138.512C28.7713 138.512 27.9793 138.904 27.3713 139.688C26.7793 140.472 26.4833 141.568 26.4833 142.976C26.4833 144.48 26.7873 145.648 27.3953 146.48C28.0033 147.312 28.8193 147.728 29.8433 147.728ZM42.8946 147.68C43.8066 147.68 44.6786 147.344 45.5106 146.672C45.4626 144.624 45.4386 142.056 45.4386 138.968C44.7346 138.744 44.0866 138.632 43.4946 138.632C42.3746 138.632 41.4546 139.04 40.7346 139.856C40.0146 140.656 39.6546 141.776 39.6546 143.216C39.6546 144.672 39.9506 145.784 40.5426 146.552C41.1346 147.304 41.9186 147.68 42.8946 147.68ZM45.7266 149.048L45.6066 147.824C44.5666 148.8 43.4146 149.288 42.1506 149.288C40.8546 149.288 39.7906 148.792 38.9586 147.8C38.1426 146.792 37.7346 145.432 37.7346 143.72C37.7346 141.656 38.3746 140.016 39.6546 138.8C40.9346 137.584 42.5106 136.976 44.3826 136.976C44.7506 136.976 45.1026 137 45.4386 137.048V132.224L47.3826 132.056V137.288C47.3826 142.584 47.4386 146.472 47.5506 148.952L45.7266 149.048ZM57.4819 149H54.6259L54.7699 146.216H57.6259L57.4819 149ZM81.9286 147.752C83.0806 147.752 84.1926 147.328 85.2646 146.48C85.2326 145.456 85.2166 144.528 85.2166 143.696C81.4086 143.296 79.5046 143.992 79.5046 145.784C79.5046 146.408 79.7206 146.896 80.1526 147.248C80.6006 147.584 81.1926 147.752 81.9286 147.752ZM85.5286 149.072C85.5286 149.04 85.5046 148.832 85.4566 148.448C85.4086 148.064 85.3766 147.768 85.3606 147.56C84.1126 148.712 82.7206 149.288 81.1846 149.288C80.0966 149.288 79.2246 149.016 78.5686 148.472C77.9126 147.928 77.5846 147.184 77.5846 146.24C77.5846 144.96 78.2326 143.952 79.5286 143.216C80.8246 142.464 82.7126 142.16 85.1926 142.304C85.1126 140.96 84.6006 140.048 83.6566 139.568C82.7286 139.088 80.9366 138.8 78.2806 138.704L78.4966 137.024C80.8006 137.088 82.5606 137.32 83.7766 137.72C84.9926 138.12 85.8486 138.744 86.3446 139.592C86.8566 140.424 87.1126 141.616 87.1126 143.168C87.1126 144.784 87.1766 146.712 87.3046 148.952L85.5286 149.072ZM99.6119 149H90.7799V147.512H93.8999C93.8359 142.776 93.7879 139.872 93.7559 138.8L90.7799 138.632L90.9239 137.24H95.4839C95.5479 137.912 95.5959 138.584 95.6279 139.256C96.9399 137.896 98.7319 137.08 101.004 136.808L101.1 138.872C98.8279 139.048 97.0279 139.568 95.6999 140.432C95.6999 140.864 95.7079 141.896 95.7239 143.528C95.7559 145.144 95.7799 146.472 95.7959 147.512H99.7799L99.6119 149ZM108.703 149.336C107.215 149.336 106.007 148.8 105.079 147.728C104.151 146.656 103.687 145.192 103.687 143.336C103.687 141.464 104.223 139.928 105.295 138.728C106.383 137.528 107.703 136.928 109.255 136.928C110.743 136.928 111.943 137.464 112.855 138.536C113.783 139.592 114.247 141.048 114.247 142.904C114.247 144.808 113.711 146.36 112.639 147.56C111.567 148.744 110.255 149.336 108.703 149.336ZM109.015 147.728C110.007 147.728 110.799 147.344 111.391 146.576C111.999 145.792 112.303 144.688 112.303 143.264C112.303 141.76 111.991 140.592 111.367 139.76C110.759 138.928 109.943 138.512 108.919 138.512C107.943 138.512 107.151 138.904 106.543 139.688C105.951 140.472 105.655 141.568 105.655 142.976C105.655 144.48 105.959 145.648 106.567 146.48C107.175 147.312 107.991 147.728 109.015 147.728ZM120.411 138.632C119.835 138.632 119.251 138.928 118.659 139.52C118.723 142.368 118.755 145.528 118.755 149H116.931C116.931 143.912 116.883 140.016 116.787 137.312L118.491 137.192L118.587 138.296C119.387 137.416 120.235 136.976 121.131 136.976C122.027 136.976 122.627 137.392 122.931 138.224C123.731 137.392 124.587 136.976 125.499 136.976C126.875 136.976 127.562 137.856 127.562 139.616V149H125.715V140.312C125.715 139.704 125.627 139.272 125.451 139.016C125.291 138.76 125.003 138.632 124.587 138.632C124.059 138.632 123.539 138.864 123.027 139.328V139.544V149H121.515V140.288C121.515 139.696 121.427 139.272 121.251 139.016C121.091 138.76 120.811 138.632 120.411 138.632ZM134.71 147.752C135.862 147.752 136.974 147.328 138.046 146.48C138.014 145.456 137.998 144.528 137.998 143.696C134.19 143.296 132.286 143.992 132.286 145.784C132.286 146.408 132.502 146.896 132.934 147.248C133.382 147.584 133.974 147.752 134.71 147.752ZM138.31 149.072C138.31 149.04 138.286 148.832 138.238 148.448C138.19 148.064 138.158 147.768 138.142 147.56C136.894 148.712 135.502 149.288 133.966 149.288C132.878 149.288 132.006 149.016 131.35 148.472C130.694 147.928 130.366 147.184 130.366 146.24C130.366 144.96 131.014 143.952 132.31 143.216C133.606 142.464 135.494 142.16 137.974 142.304C137.894 140.96 137.382 140.048 136.438 139.568C135.51 139.088 133.718 138.8 131.062 138.704L131.278 137.024C133.582 137.088 135.342 137.32 136.558 137.72C137.774 138.12 138.63 138.744 139.126 139.592C139.638 140.424 139.894 141.616 139.894 143.168C139.894 144.784 139.958 146.712 140.086 148.952L138.31 149.072Z" fill="black"/>
</g>
<line y1="159.5" x2="360" y2="159.5" stroke="#3D1A1A" stroke-opacity="0.2"/>
<line x1="0.5" y1="120" x2="0.499998" y2="159" stroke="#3D1A1A" stroke-opacity="0.2"/>
<line x1="359.5" y1="120" x2="359.5" y2="159" stroke="#3D1A1A" stroke-opacity="0.2"/>
<rect width="360" height="40" transform="translate(0 80)" fill="#C3C4A2" fill-opacity="0.15"/>
<g opacity="0.7">
<path d="M11.92 103.312C11.92 102.464 12.072 101.688 12.376 100.984C12.696 100.28 13.184 99.632 13.84 99.04C14.512 98.448 15.448 97.984 16.648 97.648C17.864 97.296 19.296 97.104 20.944 97.072L21.088 98.92C19.616 98.92 18.384 99.016 17.392 99.208C16.416 99.384 15.672 99.664 15.16 100.048C14.664 100.432 14.32 100.864 14.128 101.344C13.936 101.808 13.84 102.376 13.84 103.048C13.84 104.68 14.384 105.856 15.472 106.576C16.56 107.296 18.488 107.592 21.256 107.464L21.04 109.096C19.312 109.208 17.84 109.152 16.624 108.928C15.408 108.688 14.464 108.288 13.792 107.728C13.12 107.168 12.64 106.536 12.352 105.832C12.064 105.112 11.92 104.272 11.92 103.312ZM29.5313 109.336C28.0433 109.336 26.8353 108.8 25.9073 107.728C24.9793 106.656 24.5153 105.192 24.5153 103.336C24.5153 101.464 25.0513 99.928 26.1233 98.728C27.2113 97.528 28.5313 96.928 30.0833 96.928C31.5713 96.928 32.7713 97.464 33.6833 98.536C34.6113 99.592 35.0753 101.048 35.0753 102.904C35.0753 104.808 34.5393 106.36 33.4673 107.56C32.3953 108.744 31.0833 109.336 29.5313 109.336ZM29.8433 107.728C30.8353 107.728 31.6273 107.344 32.2193 106.576C32.8273 105.792 33.1313 104.688 33.1313 103.264C33.1313 101.76 32.8193 100.592 32.1953 99.76C31.5873 98.928 30.7713 98.512 29.7473 98.512C28.7713 98.512 27.9793 98.904 27.3713 99.688C26.7793 100.472 26.4833 101.568 26.4833 102.976C26.4833 104.48 26.7873 105.648 27.3953 106.48C28.0033 107.312 28.8193 107.728 29.8433 107.728ZM42.8946 107.68C43.8066 107.68 44.6786 107.344 45.5106 106.672C45.4626 104.624 45.4386 102.056 45.4386 98.968C44.7346 98.744 44.0866 98.632 43.4946 98.632C42.3746 98.632 41.4546 99.04 40.7346 99.856C40.0146 100.656 39.6546 101.776 39.6546 103.216C39.6546 104.672 39.9506 105.784 40.5426 106.552C41.1346 107.304 41.9186 107.68 42.8946 107.68ZM45.7266 109.048L45.6066 107.824C44.5666 108.8 43.4146 109.288 42.1506 109.288C40.8546 109.288 39.7906 108.792 38.9586 107.8C38.1426 106.792 37.7346 105.432 37.7346 103.72C37.7346 101.656 38.3746 100.016 39.6546 98.8C40.9346 97.584 42.5106 96.976 44.3826 96.976C44.7506 96.976 45.1026 97 45.4386 97.048V92.224L47.3826 92.056V97.288C47.3826 102.584 47.4386 106.472 47.5506 108.952L45.7266 109.048ZM57.4819 109H54.6259L54.7699 106.216H57.6259L57.4819 109ZM81.5926 109.288C80.4086 109.288 79.2566 109.088 78.1366 108.688V92.224L80.0806 92.056V98.296C81.1366 97.416 82.2646 96.976 83.4646 96.976C84.7446 96.976 85.7926 97.488 86.6086 98.512C87.4246 99.536 87.8326 100.896 87.8326 102.592C87.8326 104.592 87.2166 106.208 85.9846 107.44C84.7686 108.672 83.3046 109.288 81.5926 109.288ZM82.2646 107.608C83.3526 107.608 84.2326 107.216 84.9046 106.432C85.5766 105.648 85.9126 104.528 85.9126 103.072C85.9126 101.648 85.6166 100.544 85.0246 99.76C84.4326 98.976 83.6566 98.584 82.6966 98.584C81.7846 98.584 80.9126 98.896 80.0806 99.52V107.2C80.8486 107.472 81.5766 107.608 82.2646 107.608ZM95.1239 107.752C96.2759 107.752 97.3879 107.328 98.4599 106.48C98.4279 105.456 98.4119 104.528 98.4119 103.696C94.6039 103.296 92.6999 103.992 92.6999 105.784C92.6999 106.408 92.9159 106.896 93.3479 107.248C93.7959 107.584 94.3879 107.752 95.1239 107.752ZM98.7239 109.072C98.7239 109.04 98.6999 108.832 98.6519 108.448C98.6039 108.064 98.5719 107.768 98.5559 107.56C97.3079 108.712 95.9159 109.288 94.3799 109.288C93.2919 109.288 92.4199 109.016 91.7639 108.472C91.1079 107.928 90.7799 107.184 90.7799 106.24C90.7799 104.96 91.4279 103.952 92.7239 103.216C94.0199 102.464 95.9079 102.16 98.3879 102.304C98.3079 100.96 97.7959 100.048 96.8519 99.568C95.9239 99.088 94.1319 98.8 91.4759 98.704L91.6919 97.024C93.9959 97.088 95.7559 97.32 96.9719 97.72C98.1879 98.12 99.0439 98.744 99.5399 99.592C100.052 100.424 100.308 101.616 100.308 103.168C100.308 104.784 100.372 106.712 100.5 108.952L98.7239 109.072ZM112.855 97.144L112.927 98.872C108.847 98.504 106.807 98.952 106.807 100.216C106.807 100.568 107.031 100.904 107.479 101.224C107.943 101.544 108.495 101.848 109.135 102.136C109.791 102.408 110.439 102.704 111.079 103.024C111.735 103.328 112.287 103.712 112.735 104.176C113.199 104.624 113.431 105.128 113.431 105.688C113.431 106.792 112.743 107.68 111.367 108.352C109.991 109.008 107.783 109.256 104.743 109.096L104.815 107.368C109.215 107.72 111.415 107.216 111.415 105.856C111.415 105.472 111.191 105.12 110.743 104.8C110.295 104.464 109.743 104.168 109.087 103.912C108.447 103.64 107.799 103.36 107.143 103.072C106.503 102.768 105.959 102.4 105.511 101.968C105.063 101.52 104.839 101.024 104.839 100.48C104.839 99.408 105.479 98.536 106.759 97.864C108.055 97.176 110.087 96.936 112.855 97.144ZM126.507 109.264C124.699 109.264 123.179 109.136 121.947 108.88C120.715 108.608 119.747 108.208 119.043 107.68C118.355 107.152 117.867 106.536 117.579 105.832C117.291 105.128 117.146 104.28 117.146 103.288C117.146 101.512 117.683 100.016 118.755 98.8C119.843 97.568 121.155 96.952 122.691 96.952C124.275 96.952 125.459 97.544 126.243 98.728C127.043 99.896 127.331 101.464 127.107 103.432L119.067 103.624C119.163 105.032 119.755 106.032 120.843 106.624C121.947 107.216 123.899 107.544 126.699 107.608L126.507 109.264ZM122.355 98.56C121.379 98.56 120.603 98.896 120.027 99.568C119.451 100.224 119.131 101.176 119.067 102.424C120.235 102.376 122.307 102.312 125.283 102.232C125.267 101.08 125.011 100.184 124.515 99.544C124.035 98.888 123.315 98.56 122.355 98.56Z" fill="black"/>
</g>
<line y1="119.5" x2="360" y2="119.5" stroke="#3D1A1A" stroke-opacity="0.2"/>
<line x1="0.5" y1="80" x2="0.499998" y2="119" stroke="#3D1A1A" stroke-opacity="0.2"/>
<line x1="359.5" y1="80" x2="359.5" y2="119" stroke="#3D1A1A" stroke-opacity="0.2"/>
<rect x="322" y="83" width="32" height="33" rx="16" fill="#9DA076"/>
<path d="M331.902 99.482H331.722V108.5H329.706V95.936H332.604L335.898 104.954H336.078V95.936H338.094V108.5H335.196L331.902 99.482ZM342.695 99.482H342.515V108.5H340.499V95.936H343.397L346.691 104.954H346.871V95.936H348.887V108.5H345.989L342.695 99.482Z" fill="white"/>
<rect x="322" y="123" width="32" height="33" rx="16" fill="#9DA076"/>
<path d="M331.902 139.482H331.722V148.5H329.706V135.936H332.604L335.898 144.954H336.078V135.936H338.094V148.5H335.196L331.902 139.482ZM342.695 139.482H342.515V148.5H340.499V135.936H343.397L346.691 144.954H346.871V135.936H348.887V148.5H345.989L342.695 139.482Z" fill="white"/>
<rect x="322" y="43" width="32" height="33" rx="16" fill="#836B7F"/>
<path d="M329.94 68.5V55.936H334.71C335.934 55.936 336.87 56.284 337.518 56.98C338.166 57.676 338.49 58.624 338.49 59.824C338.49 61.024 338.166 61.972 337.518 62.668C336.87 63.364 335.934 63.712 334.71 63.712H332.298V68.5H329.94ZM332.298 61.786H334.224C334.86 61.786 335.316 61.66 335.592 61.408C335.868 61.144 336.006 60.73 336.006 60.166V59.482C336.006 58.918 335.868 58.51 335.592 58.258C335.316 57.994 334.86 57.862 334.224 57.862H332.298V61.786ZM344.279 62.992L342.965 64.72V68.5H340.607V55.936H342.965V61.588H343.073L344.531 59.5L347.177 55.936H349.841L345.899 61.228L350.021 68.5H347.357L344.279 62.992Z" fill="white"/>
<rect x="282" y="123" width="32" height="33" rx="16" fill="#C3C4A2"/>
<path d="M289.994 148.5V135.936H298.202V137.88H292.352V141.156H297.626V143.1H292.352V148.5H289.994ZM304.279 142.992L302.965 144.72V148.5H300.607V135.936H302.965V141.588H303.073L304.531 139.5L307.177 135.936H309.841L305.899 141.228L310.021 148.5H307.357L304.279 142.992Z" fill="black"/>
<rect x="282" y="83" width="32" height="33" rx="16" fill="#C3C4A2"/>
<path d="M289.994 108.5V95.936H298.202V97.88H292.352V101.156H297.626V103.1H292.352V108.5H289.994ZM304.279 102.992L302.965 104.72V108.5H300.607V95.936H302.965V101.588H303.073L304.531 99.5L307.177 95.936H309.841L305.899 101.228L310.021 108.5H307.357L304.279 102.992Z" fill="black"/>
</svg>
