<svg width="360" height="186" viewBox="0 0 360 186" fill="none" xmlns="http://www.w3.org/2000/svg">
<rect width="360" height="40" transform="translate(0 40)" fill="#C3C4A2" fill-opacity="0.15"/>
<g opacity="0.7">
<path d="M11.92 63.312C11.92 66.912 13.912 69.576 21.04 69.096L21.256 67.464C15.496 67.728 13.84 66.144 13.84 63.048C13.84 60.552 15.016 58.896 21.088 58.92L20.944 57.072C14.104 57.216 11.92 60.072 11.92 63.312ZM29.5313 69.336C32.5553 69.336 35.0753 66.792 35.0753 62.904C35.0753 59.136 33.0113 56.928 30.0833 56.928C27.0593 56.928 24.5153 59.52 24.5153 63.336C24.5153 67.128 26.6273 69.336 29.5313 69.336ZM29.8433 67.728C27.8513 67.728 26.4833 66.048 26.4833 62.976C26.4833 60.096 27.8273 58.512 29.7473 58.512C31.7633 58.512 33.1313 60.216 33.1313 63.264C33.1313 66.168 31.7873 67.728 29.8433 67.728ZM42.8946 67.68C40.9986 67.68 39.6546 66.216 39.6546 63.216C39.6546 60.24 41.3346 58.632 43.4946 58.632C44.1186 58.632 44.7666 58.752 45.4386 58.968C45.4386 62.256 45.4626 64.632 45.5106 66.672C44.7906 67.248 43.8786 67.68 42.8946 67.68ZM45.7266 69.048L47.5506 68.952C47.4306 66.288 47.3826 62.568 47.3826 57.288V52.056L45.4386 52.224V57.048C45.1026 57 44.7426 56.976 44.3826 56.976C40.8066 56.976 37.7346 59.424 37.7346 63.72C37.7346 67.2 39.6066 69.288 42.1506 69.288C43.5906 69.288 44.7666 68.616 45.6066 67.824L45.7266 69.048ZM57.4819 69L57.6259 66.216H54.7699L54.6259 69H57.4819ZM87.3046 69L87.4726 67.512H83.6326V52.248H78.2086L78.0406 53.64L81.6646 53.808V67.512H77.8486V69H87.3046ZM93.7559 54.744L94.3079 55.608C95.9399 54.816 98.5319 53.256 99.9479 51.984L98.3879 50.472C97.2359 51.84 95.1479 53.784 93.7559 54.744ZM101.508 69L101.652 67.512H97.2359V57.24H91.0439L90.8999 58.608L95.2919 58.8V67.512H90.8759V69H101.508ZM111.463 73.104L113.407 72.936V57.576C112.351 57.168 111.367 56.976 110.167 56.976C106.807 56.976 103.711 59.472 103.711 63.72C103.711 67.176 105.559 69.312 108.127 69.312C109.495 69.312 110.623 68.688 111.463 67.944V73.104ZM108.847 67.68C106.975 67.68 105.631 66.192 105.631 63.24C105.631 60.24 107.287 58.632 109.447 58.632C110.119 58.632 110.743 58.752 111.463 59.016V66.672C110.719 67.248 109.807 67.68 108.847 67.68ZM125.019 69.048L126.819 68.928C126.699 66.216 126.651 62.376 126.651 57.24H124.707C124.707 61.368 124.755 64.44 124.803 66.552C123.915 67.2 122.931 67.632 121.803 67.632C120.339 67.632 119.475 66.864 119.475 64.56V57.168L117.531 57.312V65.208C117.531 68.112 118.899 69.288 120.987 69.288C122.667 69.288 123.915 68.52 124.899 67.704L125.019 69.048ZM136.726 55.344L136.942 52.08H134.878L134.734 55.344H136.726ZM141.094 69L141.238 67.512H136.822V57.24H130.63L130.486 58.608L134.878 58.8V67.512H130.462V69H141.094ZM148.457 67.68C146.561 67.68 145.217 66.216 145.217 63.216C145.217 60.24 146.897 58.632 149.057 58.632C149.681 58.632 150.329 58.752 151.001 58.968C151.001 62.256 151.025 64.632 151.073 66.672C150.353 67.248 149.441 67.68 148.457 67.68ZM151.289 69.048L153.113 68.952C152.993 66.288 152.945 62.568 152.945 57.288V52.056L151.001 52.224V57.048C150.665 57 150.305 56.976 149.945 56.976C146.369 56.976 143.297 59.424 143.297 63.72C143.297 67.2 145.169 69.288 147.713 69.288C149.153 69.288 150.329 68.616 151.169 67.824L151.289 69.048ZM161.484 69.336C164.508 69.336 167.028 66.792 167.028 62.904C167.028 59.136 164.964 56.928 162.036 56.928C159.012 56.928 156.468 59.52 156.468 63.336C156.468 67.128 158.58 69.336 161.484 69.336ZM161.796 67.728C159.804 67.728 158.436 66.048 158.436 62.976C158.436 60.096 159.78 58.512 161.7 58.512C163.716 58.512 165.084 60.216 165.084 63.264C165.084 66.168 163.74 67.728 161.796 67.728Z" fill="black"/>
</g>
<line y1="79.5" x2="360" y2="79.5" stroke="#3D1A1A" stroke-opacity="0.2"/>
<line x1="0.5" y1="40" x2="0.499998" y2="79" stroke="#3D1A1A" stroke-opacity="0.2"/>
<line x1="359.5" y1="40" x2="359.5" y2="79" stroke="#3D1A1A" stroke-opacity="0.2"/>
<rect width="360" height="40" transform="translate(0 80)" fill="#C3C4A2" fill-opacity="0.15"/>
<g opacity="0.7">
<path d="M16.984 98.632C18.472 98.632 19.36 99.424 19.36 101.68V109H21.304V101.032C21.304 98.152 19.912 96.976 17.8 96.976C16.12 96.976 14.848 97.72 13.864 98.536L13.744 97.192L11.944 97.312C12.064 100.024 12.112 103.864 12.112 109H14.056C14.056 104.896 14.008 101.8 13.96 99.664C14.872 99.04 15.856 98.632 16.984 98.632ZM29.5313 109.336C32.5553 109.336 35.0753 106.792 35.0753 102.904C35.0753 99.136 33.0113 96.928 30.0833 96.928C27.0593 96.928 24.5153 99.52 24.5153 103.336C24.5153 107.128 26.6273 109.336 29.5313 109.336ZM29.8433 107.728C27.8513 107.728 26.4833 106.048 26.4833 102.976C26.4833 100.096 27.8273 98.512 29.7473 98.512C31.7633 98.512 33.1313 100.216 33.1313 103.264C33.1313 106.168 31.7873 107.728 29.8433 107.728ZM41.2386 98.632C42.0306 98.632 42.3426 99.088 42.3426 100.288V109H43.8546V99.544C43.8546 99.472 43.8546 99.4 43.8546 99.328C44.3586 98.872 44.8866 98.632 45.4146 98.632C46.2306 98.632 46.5426 99.088 46.5426 100.312V109H48.3906V99.616C48.3906 97.84 47.6466 96.976 46.3266 96.976C45.2946 96.976 44.4066 97.552 43.7586 98.224C43.4706 97.432 42.8466 96.976 41.9586 96.976C40.9746 96.976 40.0866 97.552 39.4146 98.296L39.3186 97.192L37.6146 97.312C37.7106 100.024 37.7586 103.864 37.7586 109H39.5826C39.5826 104.872 39.5346 101.656 39.4866 99.52C40.0626 98.944 40.7106 98.632 41.2386 98.632ZM55.2019 109.288C58.4659 109.288 61.4419 106.744 61.4419 102.592C61.4419 99.16 59.5939 96.976 57.0739 96.976C55.6819 96.976 54.5539 97.576 53.6899 98.296V92.056L51.7459 92.224V108.688C52.8259 109.072 53.9779 109.288 55.2019 109.288ZM55.8739 107.608C55.1539 107.608 54.4339 107.464 53.6899 107.2V99.52C54.4579 98.944 55.3939 98.584 56.3059 98.584C58.1779 98.584 59.5219 100.144 59.5219 103.072C59.5219 106.072 57.9859 107.608 55.8739 107.608ZM73.2213 109L73.3893 107.512H69.4053C69.3813 104.776 69.3333 102.472 69.3093 100.432C70.6053 99.592 72.3093 99.064 74.7093 98.872L74.6133 96.808C72.1893 97.096 70.3893 98.056 69.2373 99.256C69.2133 98.704 69.1172 97.48 69.0933 97.24H64.5333L64.3893 98.632L67.3653 98.8C67.4373 101.152 67.4613 103.912 67.5093 107.512H64.3893V109H73.2213ZM86.9206 109.264L87.1126 107.608C81.4246 107.464 79.6726 106.408 79.4806 103.624L87.5206 103.432C87.9526 99.544 86.3206 96.952 83.1046 96.952C80.0566 96.952 77.5606 99.712 77.5606 103.288C77.5606 107.104 79.5526 109.24 86.9206 109.264ZM82.7686 98.56C84.7366 98.56 85.6726 99.976 85.6966 102.232C84.0406 102.28 80.8246 102.376 79.4806 102.424C79.6246 99.904 80.8246 98.56 82.7686 98.56ZM108.871 107.68C106.975 107.68 105.631 106.216 105.631 103.216C105.631 100.24 107.311 98.632 109.471 98.632C110.095 98.632 110.743 98.752 111.415 98.968C111.415 102.256 111.439 104.632 111.487 106.672C110.767 107.248 109.855 107.68 108.871 107.68ZM111.703 109.048L113.527 108.952C113.407 106.288 113.359 102.568 113.359 97.288V92.056L111.415 92.224V97.048C111.079 97 110.719 96.976 110.359 96.976C106.783 96.976 103.711 99.424 103.711 103.72C103.711 107.2 105.583 109.288 108.127 109.288C109.567 109.288 110.743 108.616 111.583 107.824L111.703 109.048ZM126.507 109.264L126.699 107.608C121.011 107.464 119.259 106.408 119.067 103.624L127.107 103.432C127.539 99.544 125.907 96.952 122.691 96.952C119.643 96.952 117.146 99.712 117.146 103.288C117.146 107.104 119.139 109.24 126.507 109.264ZM122.355 98.56C124.323 98.56 125.259 99.976 125.283 102.232C123.627 102.28 120.411 102.376 119.067 102.424C119.211 99.904 120.411 98.56 122.355 98.56ZM153.281 109L153.449 107.512H149.609V92.248H144.185L144.017 93.64L147.641 93.808V107.512H143.825V109H153.281ZM159.732 94.744L160.284 95.608C161.916 94.816 164.508 93.256 165.924 91.984L164.364 90.472C163.212 91.84 161.124 93.784 159.732 94.744ZM167.484 109L167.628 107.512H163.212V97.24H157.02L156.876 98.608L161.268 98.8V107.512H156.852V109H167.484ZM177.44 113.104L179.384 112.936V97.576C178.328 97.168 177.344 96.976 176.144 96.976C172.784 96.976 169.688 99.472 169.688 103.72C169.688 107.176 171.536 109.312 174.104 109.312C175.472 109.312 176.6 108.688 177.44 107.944V113.104ZM174.824 107.68C172.952 107.68 171.608 106.192 171.608 103.24C171.608 100.24 173.264 98.632 175.424 98.632C176.096 98.632 176.72 98.752 177.44 99.016V106.672C176.696 107.248 175.784 107.68 174.824 107.68ZM190.995 109.048L192.795 108.928C192.675 106.216 192.627 102.376 192.627 97.24H190.683C190.683 101.368 190.731 104.44 190.779 106.552C189.891 107.2 188.907 107.632 187.779 107.632C186.315 107.632 185.451 106.864 185.451 104.56V97.168L183.507 97.312V105.208C183.507 108.112 184.875 109.288 186.963 109.288C188.643 109.288 189.891 108.52 190.875 107.704L190.995 109.048ZM202.702 95.344L202.918 92.08H200.854L200.71 95.344H202.702ZM207.07 109L207.214 107.512H202.798V97.24H196.606L196.462 98.608L200.854 98.8V107.512H196.438V109H207.07ZM214.434 107.68C212.538 107.68 211.194 106.216 211.194 103.216C211.194 100.24 212.874 98.632 215.034 98.632C215.658 98.632 216.306 98.752 216.978 98.968C216.978 102.256 217.002 104.632 217.05 106.672C216.33 107.248 215.418 107.68 214.434 107.68ZM217.266 109.048L219.09 108.952C218.97 106.288 218.922 102.568 218.922 97.288V92.056L216.978 92.224V97.048C216.642 97 216.282 96.976 215.922 96.976C212.346 96.976 209.274 99.424 209.274 103.72C209.274 107.2 211.146 109.288 213.69 109.288C215.13 109.288 216.306 108.616 217.146 107.824L217.266 109.048ZM227.461 109.336C230.485 109.336 233.005 106.792 233.005 102.904C233.005 99.136 230.941 96.928 228.013 96.928C224.989 96.928 222.445 99.52 222.445 103.336C222.445 107.128 224.557 109.336 227.461 109.336ZM227.773 107.728C225.781 107.728 224.413 106.048 224.413 102.976C224.413 100.096 225.757 98.512 227.677 98.512C229.693 98.512 231.061 100.216 231.061 103.264C231.061 106.168 229.717 107.728 227.773 107.728Z" fill="black"/>
</g>
<line y1="119.5" x2="360" y2="119.5" stroke="#3D1A1A" stroke-opacity="0.2"/>
<line x1="0.5" y1="80" x2="0.499998" y2="119" stroke="#3D1A1A" stroke-opacity="0.2"/>
<line x1="359.5" y1="80" x2="359.5" y2="119" stroke="#3D1A1A" stroke-opacity="0.2"/>
<path d="M0 5C0 2.23858 2.23858 0 5 0H355C357.761 0 360 2.23858 360 5V40H0V5Z" fill="#836B7F"/>
<path d="M22.656 30L23.328 26.584H15.964L18.652 12.64H14.564L11.204 30H22.656ZM31.1065 12.64L31.7785 14.292C34.0185 13.788 38.0505 12.36 40.2625 10.932L37.8265 7.964C35.9785 9.588 32.8985 11.688 31.1065 12.64ZM39.4785 28.488L39.1705 26.5C33.8505 27.34 33.6825 27.088 34.2985 24.764L36.6225 15.804H33.4025L27.4945 17.148L27.7745 19.108L32.1145 18.968L30.3225 25.492C29.0345 30.14 31.4705 31.988 39.4785 28.488ZM55.8811 33.388L55.5731 31.456C53.0811 31.876 53.0251 31.82 53.2211 30.784L56.0211 16.308C54.7891 15.804 52.9971 15.412 51.6251 15.412C45.6891 15.412 42.3011 20.536 42.3011 25.604C42.3011 28.824 43.8131 30.364 45.5771 30.364C46.9771 30.364 48.5451 29.412 50.0011 28.096L49.3011 31.876C48.6291 35.432 50.2811 36.244 55.8811 33.388ZM47.5931 26.752C46.7811 26.752 46.1371 26.08 46.1371 24.54C46.1371 21.936 47.5931 18.604 49.3571 18.604C49.8891 18.604 50.7571 18.772 51.6811 19.052L50.5331 25.24C49.4971 26.108 48.4051 26.752 47.5931 26.752ZM71.7516 28.712L71.4436 26.808C69.6236 27.256 69.5396 27.144 69.7636 26.052L71.7516 15.804H67.9716L66.1796 25.044C65.1996 26.136 64.1916 26.696 63.4356 26.696C62.5676 26.696 62.3716 26.024 62.6516 24.708L64.5836 15.636L60.8036 15.86L58.1996 19.5L59.7676 20.536L58.7876 25.24C58.0596 28.656 59.0676 30.392 61.2516 30.392C62.7356 30.392 64.2196 29.552 65.7036 27.9C65.6196 30.616 67.3276 31.372 71.7516 28.712ZM84.3181 13.62L85.5221 9.672L81.0421 9.896L80.1181 13.816L84.3181 13.62ZM86.5021 28.488L86.1941 26.5C80.8741 27.34 80.7061 27.088 81.3221 24.764L83.6461 15.804H80.4261L74.5181 17.148L74.7981 19.108L79.1381 18.968L77.3461 25.492C76.0581 30.14 78.4941 31.988 86.5021 28.488ZM94.4207 26.724C93.6927 26.724 93.1047 26.08 93.1047 24.512C93.1047 21.964 94.6727 18.632 96.3247 18.632C96.7447 18.632 97.5567 18.744 98.4247 19.052L97.2487 25.184C96.2407 26.08 95.1767 26.724 94.4207 26.724ZM103.101 28.656L102.821 26.808C100.721 27.256 100.637 27.228 100.833 26.136L103.913 10.232L100.077 10.512L99.1247 15.468C98.7887 15.44 98.4527 15.412 98.1447 15.412C92.5727 15.412 89.2407 20.648 89.2407 25.66C89.2407 28.824 90.6127 30.364 92.2927 30.364C93.7487 30.364 95.4847 29.16 97.0247 27.676C96.8567 30.504 98.2567 31.372 103.101 28.656ZM105.083 24.512C105.083 28.152 107.239 30.392 110.655 30.392C115.219 30.392 118.467 26.108 118.467 21.264C118.467 17.624 116.311 15.384 112.895 15.384C108.331 15.384 105.083 19.668 105.083 24.512ZM114.519 21.74C114.519 24.456 113.175 27.2 111.159 27.2C109.871 27.2 109.031 26.08 109.031 24.036C109.031 21.32 110.375 18.576 112.391 18.576C113.679 18.576 114.519 19.696 114.519 21.74ZM147.94 23.252L148.556 20.172H142.48L143.292 16.056H150.488L151.104 12.64H139.876L136.516 30H140.576L141.892 23.252H147.94ZM162.691 13.62L163.895 9.672L159.415 9.896L158.491 13.816L162.691 13.62ZM164.875 28.488L164.567 26.5C159.247 27.34 159.079 27.088 159.695 24.764L162.019 15.804H158.799L152.891 17.148L153.171 19.108L157.511 18.968L155.719 25.492C154.431 30.14 156.867 31.988 164.875 28.488ZM181.361 28.712L181.053 26.808C179.485 27.2 179.317 27.116 179.317 26.612C179.317 25.324 180.913 21.068 180.913 18.296C180.913 16.756 180.325 15.412 178.337 15.412C176.713 15.412 175.033 16.308 173.381 18.016L173.689 15.692L169.881 15.916C169.321 20.088 168.677 23.28 167.389 30H171.169L173.045 20.732C174.137 19.668 175.061 19.108 175.789 19.108C176.489 19.108 176.769 19.584 176.769 20.312C176.769 22.216 175.229 26.192 175.229 28.32C175.229 30.616 177.329 31.204 181.361 28.712ZM188.356 26.696C187.712 26.696 187.18 26.276 187.18 25.044C187.18 22.244 188.636 18.744 190.288 18.744C190.764 18.744 191.548 18.884 192.416 19.192C192.024 21.208 191.492 23.952 191.24 25.212C190.204 26.108 189.084 26.696 188.356 26.696ZM196.952 28.712L196.644 26.808C194.712 27.172 194.628 27.144 194.852 26.024L196.756 16.168C195.272 15.72 193.648 15.496 192.304 15.496C186.564 15.496 183.26 20.788 183.26 25.996C183.26 28.964 184.52 30.364 186.172 30.364C187.656 30.364 189.476 29.16 191.072 27.592C190.96 30.532 192.36 31.456 196.952 28.712ZM211.758 28.264L211.254 26.388C207.558 27.676 205.682 27.508 205.15 25.184C210.33 21.264 213.298 17.148 213.298 13.564C213.298 11.352 212.094 10.176 210.19 10.176C205.738 10.176 201.034 16.392 201.034 24.12C201.034 24.54 201.062 24.932 201.09 25.324L199.186 26.528L200.082 28.04L201.482 27.228C202.686 30.868 206.382 31.316 211.758 28.264ZM208.762 13.984C209.294 13.984 209.742 14.348 209.742 15.272C209.742 17.036 208.202 19.78 204.982 22.776C205.15 17.4 207.11 13.984 208.762 13.984Z" fill="#EEEEEE"/>
<rect width="360" height="66" transform="translate(0 120)" fill="#C3C4A2" fill-opacity="0.15"/>
<g opacity="0.7">
<path d="M11.92 140.312C11.92 143.912 13.912 146.576 21.04 146.096L21.256 144.464C15.496 144.728 13.84 143.144 13.84 140.048C13.84 137.552 15.016 135.896 21.088 135.92L20.944 134.072C14.104 134.216 11.92 137.072 11.92 140.312ZM29.5313 146.336C32.5553 146.336 35.0753 143.792 35.0753 139.904C35.0753 136.136 33.0113 133.928 30.0833 133.928C27.0593 133.928 24.5153 136.52 24.5153 140.336C24.5153 144.128 26.6273 146.336 29.5313 146.336ZM29.8433 144.728C27.8513 144.728 26.4833 143.048 26.4833 139.976C26.4833 137.096 27.8273 135.512 29.7473 135.512C31.7633 135.512 33.1313 137.216 33.1313 140.264C33.1313 143.168 31.7873 144.728 29.8433 144.728ZM43.3746 135.632C44.8626 135.632 45.7506 136.424 45.7506 138.68V146H47.6946V138.032C47.6946 135.152 46.3026 133.976 44.1906 133.976C42.5106 133.976 41.2386 134.72 40.2546 135.536L40.1346 134.192L38.3346 134.312C38.4546 137.024 38.5026 140.864 38.5026 146H40.4466C40.4466 141.896 40.3986 138.8 40.3506 136.664C41.2626 136.04 42.2466 135.632 43.3746 135.632ZM51.5059 140.312C51.5059 143.912 53.4979 146.576 60.6259 146.096L60.8419 144.464C55.0819 144.728 53.4259 143.144 53.4259 140.048C53.4259 137.552 54.6019 135.896 60.6739 135.92L60.5299 134.072C53.6899 134.216 51.5059 137.072 51.5059 140.312ZM73.7253 146.264L73.9173 144.608C68.2293 144.464 66.4773 143.408 66.2853 140.624L74.3253 140.432C74.7573 136.544 73.1253 133.952 69.9093 133.952C66.8613 133.952 64.3652 136.712 64.3652 140.288C64.3652 144.104 66.3573 146.24 73.7253 146.264ZM69.5733 135.56C71.5413 135.56 72.4773 136.976 72.5013 139.232C70.8453 139.28 67.6293 139.376 66.2853 139.424C66.4293 136.904 67.6293 135.56 69.5733 135.56ZM87.0166 146.192L87.2326 144.56C83.2966 144.488 82.1686 143.96 82.1686 141.92V135.752H86.9686V134.24H82.1686V130.808L80.2246 130.976V134.24H77.9926L77.8006 135.752H80.2246V142.232C80.2246 145.136 81.9286 146.264 87.0166 146.192ZM99.6119 146L99.7799 144.512H95.7959C95.7719 141.776 95.7239 139.472 95.6999 137.432C96.9959 136.592 98.6999 136.064 101.1 135.872L101.004 133.808C98.5799 134.096 96.7799 135.056 95.6279 136.256C95.6039 135.704 95.5079 134.48 95.4839 134.24H90.9239L90.7799 135.632L93.7559 135.8C93.8279 138.152 93.8519 140.912 93.8999 144.512H90.7799V146H99.6119ZM108.319 144.752C106.855 144.752 105.895 144.032 105.895 142.784C105.895 141.176 107.311 140.24 111.607 140.696C111.607 141.848 111.631 142.712 111.655 143.48C110.743 144.2 109.495 144.752 108.319 144.752ZM111.919 146.072L113.695 145.952C113.599 144.272 113.503 142.616 113.503 140.168C113.503 135.632 111.679 134.216 104.887 134.024L104.671 135.704C109.927 135.896 111.415 136.592 111.583 139.304C106.375 138.992 103.975 140.816 103.975 143.24C103.975 145.136 105.439 146.288 107.575 146.288C109.423 146.288 110.791 145.448 111.751 144.56C111.799 145.088 111.895 145.832 111.919 146.072ZM117.483 140.312C117.483 143.912 119.475 146.576 126.603 146.096L126.819 144.464C121.059 144.728 119.403 143.144 119.403 140.048C119.403 137.552 120.579 135.896 126.651 135.92L126.507 134.072C119.667 134.216 117.483 137.072 117.483 140.312ZM136.726 132.344L136.942 129.08H134.878L134.734 132.344H136.726ZM141.094 146L141.238 144.512H136.822V134.24H130.63L130.486 135.608L134.878 135.8V144.512H130.462V146H141.094ZM146.033 131.624L146.585 132.488C148.217 131.696 150.809 130.136 152.225 128.864L150.665 127.352C149.513 128.72 147.425 130.664 146.033 131.624ZM148.289 146.336C151.313 146.336 153.833 143.792 153.833 139.904C153.833 136.136 151.769 133.928 148.841 133.928C145.817 133.928 143.273 136.52 143.273 140.336C143.273 144.128 145.385 146.336 148.289 146.336ZM148.601 144.728C146.609 144.728 145.241 143.048 145.241 139.976C145.241 137.096 146.585 135.512 148.505 135.512C150.521 135.512 151.889 137.216 151.889 140.264C151.889 143.168 150.545 144.728 148.601 144.728ZM162.132 135.632C163.62 135.632 164.508 136.424 164.508 138.68V146H166.452V138.032C166.452 135.152 165.06 133.976 162.948 133.976C161.268 133.976 159.996 134.72 159.012 135.536L158.892 134.192L157.092 134.312C157.212 137.024 157.26 140.864 157.26 146H159.204C159.204 141.896 159.156 138.8 159.108 136.664C160.02 136.04 161.004 135.632 162.132 135.632ZM16.504 175.68C14.608 175.68 13.264 174.216 13.264 171.216C13.264 168.24 14.944 166.632 17.104 166.632C17.728 166.632 18.376 166.752 19.048 166.968C19.048 170.256 19.072 172.632 19.12 174.672C18.4 175.248 17.488 175.68 16.504 175.68ZM19.336 177.048L21.16 176.952C21.04 174.288 20.992 170.568 20.992 165.288V160.056L19.048 160.224V165.048C18.712 165 18.352 164.976 17.992 164.976C14.416 164.976 11.344 167.424 11.344 171.72C11.344 175.2 13.216 177.288 15.76 177.288C17.2 177.288 18.376 176.616 19.216 175.824L19.336 177.048ZM34.1393 177.264L34.3313 175.608C28.6433 175.464 26.8913 174.408 26.6993 171.624L34.7393 171.432C35.1713 167.544 33.5393 164.952 30.3233 164.952C27.2753 164.952 24.7793 167.712 24.7793 171.288C24.7793 175.104 26.7713 177.24 34.1393 177.264ZM29.9873 166.56C31.9553 166.56 32.8913 167.976 32.9153 170.232C31.2593 170.28 28.0433 170.376 26.6993 170.424C26.8433 167.904 28.0433 166.56 29.9873 166.56ZM56.5699 166.632C58.0579 166.632 58.9459 167.424 58.9459 169.68V177H60.8899V169.032C60.8899 166.152 59.4979 164.976 57.3859 164.976C55.7059 164.976 54.4339 165.72 53.4499 166.536L53.3299 165.192L51.5299 165.312C51.6499 168.024 51.6979 171.864 51.6979 177H53.6419C53.6419 172.896 53.5939 169.8 53.5459 167.664C54.4579 167.04 55.4419 166.632 56.5699 166.632ZM70.7493 163.344L70.9653 160.08H68.9013L68.7573 163.344H70.7493ZM75.1172 177L75.2613 175.512H70.8453V165.24H64.6533L64.5093 166.608L68.9013 166.8V175.512H64.4853V177H75.1172ZM77.8966 171.312C77.8966 174.912 79.8886 177.576 87.0166 177.096L87.2326 175.464C81.4726 175.728 79.8166 174.144 79.8166 171.048C79.8166 168.552 80.9926 166.896 87.0646 166.92L86.9206 165.072C80.0806 165.216 77.8966 168.072 77.8966 171.312ZM95.5079 177.336C98.5319 177.336 101.052 174.792 101.052 170.904C101.052 167.136 98.9879 164.928 96.0599 164.928C93.0359 164.928 90.4919 167.52 90.4919 171.336C90.4919 175.128 92.6039 177.336 95.5079 177.336ZM95.8199 175.728C93.8279 175.728 92.4599 174.048 92.4599 170.976C92.4599 168.096 93.8039 166.512 95.7239 166.512C97.7399 166.512 99.1079 168.216 99.1079 171.264C99.1079 174.168 97.7639 175.728 95.8199 175.728ZM113.407 177.192L113.623 175.56C109.687 175.488 108.559 174.96 108.559 172.92V166.752H113.359V165.24H108.559V161.808L106.615 161.976V165.24H104.383L104.191 166.752H106.615V173.232C106.615 176.136 108.319 177.264 113.407 177.192ZM123.531 163.344L123.747 160.08H121.683L121.539 163.344H123.531ZM127.898 177L128.043 175.512H123.627V165.24H117.435L117.291 166.608L121.683 166.8V175.512H117.267V177H127.898ZM135.742 166.632C137.23 166.632 138.118 167.424 138.118 169.68V177H140.062V169.032C140.062 166.152 138.67 164.976 136.558 164.976C134.878 164.976 133.606 165.72 132.622 166.536L132.502 165.192L130.702 165.312C130.822 168.024 130.87 171.864 130.87 177H132.814C132.814 172.896 132.766 169.8 132.718 167.664C133.63 167.04 134.614 166.632 135.742 166.632ZM147.905 175.752C146.441 175.752 145.481 175.032 145.481 173.784C145.481 172.176 146.897 171.24 151.193 171.696C151.193 172.848 151.217 173.712 151.241 174.48C150.329 175.2 149.081 175.752 147.905 175.752ZM151.505 177.072L153.281 176.952C153.185 175.272 153.089 173.616 153.089 171.168C153.089 166.632 151.265 165.216 144.473 165.024L144.257 166.704C149.513 166.896 151.001 167.592 151.169 170.304C145.961 169.992 143.561 171.816 143.561 174.24C143.561 176.136 145.025 177.288 147.161 177.288C149.009 177.288 150.377 176.448 151.337 175.56C151.385 176.088 151.481 176.832 151.505 177.072Z" fill="black"/>
</g>
<line y1="185.5" x2="360" y2="185.5" stroke="#3D1A1A" stroke-opacity="0.2"/>
<line x1="0.5" y1="120" x2="0.499997" y2="184.35" stroke="#3D1A1A" stroke-opacity="0.2"/>
<line x1="359.5" y1="120" x2="359.5" y2="184.35" stroke="#3D1A1A" stroke-opacity="0.2"/>
<rect x="322" y="43" width="32" height="33" rx="16" fill="#836B7F"/>
<path d="M329.94 68.5V55.936H334.71C335.934 55.936 336.87 56.284 337.518 56.98C338.166 57.676 338.49 58.624 338.49 59.824C338.49 61.024 338.166 61.972 337.518 62.668C336.87 63.364 335.934 63.712 334.71 63.712H332.298V68.5H329.94ZM332.298 61.786H334.224C334.86 61.786 335.316 61.66 335.592 61.408C335.868 61.144 336.006 60.73 336.006 60.166V59.482C336.006 58.918 335.868 58.51 335.592 58.258C335.316 57.994 334.86 57.862 334.224 57.862H332.298V61.786ZM344.279 62.992L342.965 64.72V68.5H340.607V55.936H342.965V61.588H343.073L344.531 59.5L347.177 55.936H349.841L345.899 61.228L350.021 68.5H347.357L344.279 62.992Z" fill="white"/>
<rect x="322" y="83" width="32" height="73" rx="16" fill="#D6CACD"/>
<path d="M331.974 95.936V103.766C331.974 104.234 331.986 104.654 332.01 105.026C332.046 105.398 332.124 105.716 332.244 105.98C332.376 106.232 332.568 106.43 332.82 106.574C333.084 106.718 333.444 106.79 333.9 106.79C334.356 106.79 334.71 106.718 334.962 106.574C335.226 106.43 335.418 106.232 335.538 105.98C335.67 105.716 335.748 105.398 335.772 105.026C335.808 104.654 335.826 104.234 335.826 103.766V95.936H338.184V103.406C338.184 104.294 338.13 105.068 338.022 105.728C337.914 106.388 337.704 106.94 337.392 107.384C337.08 107.828 336.642 108.164 336.078 108.392C335.526 108.608 334.8 108.716 333.9 108.716C333 108.716 332.268 108.608 331.704 108.392C331.152 108.164 330.72 107.828 330.408 107.384C330.096 106.94 329.886 106.388 329.778 105.728C329.67 105.068 329.616 104.294 329.616 103.406V95.936H331.974ZM344.279 102.992L342.965 104.72V108.5H340.607V95.936H342.965V101.588H343.073L344.531 99.5L347.177 95.936H349.841L345.899 101.228L350.021 108.5H347.357L344.279 102.992Z" fill="black"/>
<rect x="284" y="83" width="32" height="33" rx="16" fill="#C3C4A2"/>
<path d="M291.994 108.5V95.936H300.202V97.88H294.352V101.156H299.626V103.1H294.352V108.5H291.994ZM306.279 102.992L304.965 104.72V108.5H302.607V95.936H304.965V101.588H305.073L306.531 99.5L309.177 95.936H311.841L307.899 101.228L312.021 108.5H309.357L306.279 102.992Z" fill="black"/>
<rect x="284" y="123" width="32" height="33" rx="16" fill="#C3C4A2"/>
<path d="M291.994 148.5V135.936H300.202V137.88H294.352V141.156H299.626V143.1H294.352V148.5H291.994ZM306.279 142.992L304.965 144.72V148.5H302.607V135.936H304.965V141.588H305.073L306.531 139.5L309.177 135.936H311.841L307.899 141.228L312.021 148.5H309.357L306.279 142.992Z" fill="black"/>
</svg>
