<svg width="360" height="186" viewBox="0 0 360 186" fill="none" xmlns="http://www.w3.org/2000/svg">
<path d="M0 5C0 2.23858 2.23858 0 5 0H355C357.761 0 360 2.23858 360 5V40H0V5Z" fill="#836B7F"/>
<path d="M17.56 12.556L13.78 12.724L10.448 30H14.144L15.824 20.032H15.908L16.384 26.108H18.316L21.06 20.032H21.144L19.128 30H22.908L26.24 12.64H22.236L18.316 21.348H18.232L17.56 12.556ZM31.6105 26.696C30.9665 26.696 30.4345 26.276 30.4345 25.044C30.4345 22.244 31.8905 18.744 33.5425 18.744C34.0185 18.744 34.8025 18.884 35.6705 19.192C35.2785 21.208 34.7465 23.952 34.4945 25.212C33.4585 26.108 32.3385 26.696 31.6105 26.696ZM40.2065 28.712L39.8985 26.808C37.9665 27.172 37.8825 27.144 38.1065 26.024L40.0105 16.168C38.5265 15.72 36.9025 15.496 35.5585 15.496C29.8185 15.496 26.5145 20.788 26.5145 25.996C26.5145 28.964 27.7745 30.364 29.4265 30.364C30.9105 30.364 32.7305 29.16 34.3265 27.592C34.2145 30.532 35.6145 31.456 40.2065 28.712ZM55.5451 21.012C55.8811 16.98 54.5371 15.412 51.5411 15.412C46.6971 15.412 42.6651 19.78 42.6651 24.904C42.6651 29.328 46.1651 32.38 54.5091 28.656L54.2291 26.64C47.8451 27.564 46.5571 26.892 46.5571 24.092C46.5571 21.264 48.2371 18.716 50.4211 18.716C51.6251 18.716 52.0451 19.416 52.0171 21.068L55.5451 21.012ZM70.7716 28.32L70.4076 26.332C63.8556 27.536 62.1196 27.256 61.9516 24.82C68.1676 24.372 71.4436 22.384 71.4436 19.108C71.4436 16.812 69.7916 15.384 67.1316 15.384C62.1756 15.384 58.1996 20.312 58.1996 24.876C58.1996 29.496 62.3716 32.548 70.7716 28.32ZM66.0396 18.52C67.1036 18.52 67.7756 19.136 67.7756 20.004C67.7756 21.628 65.6756 22.496 62.1476 22.748C62.6516 20.508 64.1076 18.52 66.0396 18.52ZM86.8661 29.02L86.6701 27.06C83.1981 27.844 82.7221 27.536 87.3701 16.504L85.4941 15.692C84.3461 16.308 82.6101 16.896 80.9301 17.232C80.9581 17.064 80.9581 16.896 80.9581 16.728C80.9581 15.524 80.2301 14.824 79.1661 14.824C77.0941 14.824 75.0781 16.784 75.0781 18.492C75.0781 19.472 75.8061 20.06 76.9261 20.34C76.1141 21.712 74.9661 23.112 73.4261 24.82L74.7701 26.248C76.8421 24.232 78.5501 22.3 79.6421 20.508C80.5101 20.452 81.4061 20.284 82.2741 20.088C77.8781 29.86 79.7821 32.24 86.8661 29.02ZM94.3087 26.696C93.6647 26.696 93.1327 26.276 93.1327 25.044C93.1327 22.244 94.5887 18.744 96.2407 18.744C96.7167 18.744 97.5007 18.884 98.3687 19.192C97.9767 21.208 97.4447 23.952 97.1927 25.212C96.1567 26.108 95.0367 26.696 94.3087 26.696ZM102.905 28.712L102.597 26.808C100.665 27.172 100.581 27.144 100.805 26.024L102.709 16.168C101.225 15.72 99.6007 15.496 98.2567 15.496C92.5167 15.496 89.2127 20.788 89.2127 25.996C89.2127 28.964 90.4727 30.364 92.1247 30.364C93.6087 30.364 95.4287 29.16 97.0247 27.592C96.9127 30.532 98.3127 31.456 102.905 28.712ZM118.243 21.012C118.579 16.98 117.235 15.412 114.239 15.412C109.395 15.412 105.363 19.78 105.363 24.904C105.363 29.328 108.863 32.38 117.207 28.656L116.927 26.64C110.543 27.564 109.255 26.892 109.255 24.092C109.255 21.264 110.935 18.716 113.119 18.716C114.323 18.716 114.743 19.416 114.715 21.068L118.243 21.012ZM131.342 13.62L132.546 9.672L128.066 9.896L127.142 13.816L131.342 13.62ZM133.526 28.488L133.218 26.5C127.898 27.34 127.73 27.088 128.346 24.764L130.67 15.804H127.45L121.542 17.148L121.822 19.108L126.162 18.968L124.37 25.492C123.082 30.14 125.518 31.988 133.526 28.488ZM140.8 12.22L141.472 13.872C143.712 13.368 147.744 11.94 149.956 10.512L147.52 7.544C145.672 9.168 142.592 11.268 140.8 12.22ZM136.432 24.512C136.432 28.152 138.588 30.392 142.004 30.392C146.568 30.392 149.816 26.108 149.816 21.264C149.816 17.624 147.66 15.384 144.244 15.384C139.68 15.384 136.432 19.668 136.432 24.512ZM145.868 21.74C145.868 24.456 144.524 27.2 142.508 27.2C141.22 27.2 140.38 26.08 140.38 24.036C140.38 21.32 141.724 18.576 143.74 18.576C145.028 18.576 145.868 19.696 145.868 21.74ZM165.687 28.712L165.379 26.808C163.811 27.2 163.643 27.116 163.643 26.612C163.643 25.324 165.239 21.068 165.239 18.296C165.239 16.756 164.651 15.412 162.663 15.412C161.039 15.412 159.359 16.308 157.707 18.016L158.015 15.692L154.207 15.916C153.647 20.088 153.003 23.28 151.715 30H155.495L157.371 20.732C158.463 19.668 159.387 19.108 160.115 19.108C160.815 19.108 161.095 19.584 161.095 20.312C161.095 22.216 159.555 26.192 159.555 28.32C159.555 30.616 161.655 31.204 165.687 28.712Z" fill="#EEEEEE"/>
<rect width="360" height="40" transform="translate(0 40)" fill="#C3C4A2" fill-opacity="0.15"/>
<g opacity="0.7">
<path d="M16.984 58.632C18.472 58.632 19.36 59.424 19.36 61.68V69H21.304V61.032C21.304 58.152 19.912 56.976 17.8 56.976C16.12 56.976 14.848 57.72 13.864 58.536L13.744 57.192L11.944 57.312C12.064 60.024 12.112 63.864 12.112 69H14.056C14.056 64.896 14.008 61.8 13.96 59.664C14.872 59.04 15.856 58.632 16.984 58.632ZM29.5313 69.336C32.5553 69.336 35.0753 66.792 35.0753 62.904C35.0753 59.136 33.0113 56.928 30.0833 56.928C27.0593 56.928 24.5153 59.52 24.5153 63.336C24.5153 67.128 26.6273 69.336 29.5313 69.336ZM29.8433 67.728C27.8513 67.728 26.4833 66.048 26.4833 62.976C26.4833 60.096 27.8273 58.512 29.7473 58.512C31.7633 58.512 33.1313 60.216 33.1313 63.264C33.1313 66.168 31.7873 67.728 29.8433 67.728ZM41.2386 58.632C42.0306 58.632 42.3426 59.088 42.3426 60.288V69H43.8546V59.544C43.8546 59.472 43.8546 59.4 43.8546 59.328C44.3586 58.872 44.8866 58.632 45.4146 58.632C46.2306 58.632 46.5426 59.088 46.5426 60.312V69H48.3906V59.616C48.3906 57.84 47.6466 56.976 46.3266 56.976C45.2946 56.976 44.4066 57.552 43.7586 58.224C43.4706 57.432 42.8466 56.976 41.9586 56.976C40.9746 56.976 40.0866 57.552 39.4146 58.296L39.3186 57.192L37.6146 57.312C37.7106 60.024 37.7586 63.864 37.7586 69H39.5826C39.5826 64.872 39.5346 61.656 39.4866 59.52C40.0626 58.944 40.7106 58.632 41.2386 58.632ZM55.2019 69.288C58.4659 69.288 61.4419 66.744 61.4419 62.592C61.4419 59.16 59.5939 56.976 57.0739 56.976C55.6819 56.976 54.5539 57.576 53.6899 58.296V52.056L51.7459 52.224V68.688C52.8259 69.072 53.9779 69.288 55.2019 69.288ZM55.8739 67.608C55.1539 67.608 54.4339 67.464 53.6899 67.2V59.52C54.4579 58.944 55.3939 58.584 56.3059 58.584C58.1779 58.584 59.5219 60.144 59.5219 63.072C59.5219 66.072 57.9859 67.608 55.8739 67.608ZM73.2213 69L73.3893 67.512H69.4053C69.3813 64.776 69.3333 62.472 69.3093 60.432C70.6053 59.592 72.3093 59.064 74.7093 58.872L74.6133 56.808C72.1893 57.096 70.3893 58.056 69.2373 59.256C69.2133 58.704 69.1172 57.48 69.0933 57.24H64.5333L64.3893 58.632L67.3653 58.8C67.4373 61.152 67.4613 63.912 67.5093 67.512H64.3893V69H73.2213ZM86.9206 69.264L87.1126 67.608C81.4246 67.464 79.6726 66.408 79.4806 63.624L87.5206 63.432C87.9526 59.544 86.3206 56.952 83.1046 56.952C80.0566 56.952 77.5606 59.712 77.5606 63.288C77.5606 67.104 79.5526 69.24 86.9206 69.264ZM82.7686 58.56C84.7366 58.56 85.6726 59.976 85.6966 62.232C84.0406 62.28 80.8246 62.376 79.4806 62.424C79.6246 59.904 80.8246 58.56 82.7686 58.56ZM108.871 67.68C106.975 67.68 105.631 66.216 105.631 63.216C105.631 60.24 107.311 58.632 109.471 58.632C110.095 58.632 110.743 58.752 111.415 58.968C111.415 62.256 111.439 64.632 111.487 66.672C110.767 67.248 109.855 67.68 108.871 67.68ZM111.703 69.048L113.527 68.952C113.407 66.288 113.359 62.568 113.359 57.288V52.056L111.415 52.224V57.048C111.079 57 110.719 56.976 110.359 56.976C106.783 56.976 103.711 59.424 103.711 63.72C103.711 67.2 105.583 69.288 108.127 69.288C109.567 69.288 110.743 68.616 111.583 67.824L111.703 69.048ZM126.507 69.264L126.699 67.608C121.011 67.464 119.259 66.408 119.067 63.624L127.107 63.432C127.539 59.544 125.907 56.952 122.691 56.952C119.643 56.952 117.146 59.712 117.146 63.288C117.146 67.104 119.139 69.24 126.507 69.264ZM122.355 58.56C124.323 58.56 125.259 59.976 125.283 62.232C123.627 62.28 120.411 62.376 119.067 62.424C119.211 59.904 120.411 58.56 122.355 58.56ZM153.281 69L153.449 67.512H149.609V52.248H144.185L144.017 53.64L147.641 53.808V67.512H143.825V69H153.281ZM159.732 54.744L160.284 55.608C161.916 54.816 164.508 53.256 165.924 51.984L164.364 50.472C163.212 51.84 161.124 53.784 159.732 54.744ZM167.484 69L167.628 67.512H163.212V57.24H157.02L156.876 58.608L161.268 58.8V67.512H156.852V69H167.484ZM177.44 73.104L179.384 72.936V57.576C178.328 57.168 177.344 56.976 176.144 56.976C172.784 56.976 169.688 59.472 169.688 63.72C169.688 67.176 171.536 69.312 174.104 69.312C175.472 69.312 176.6 68.688 177.44 67.944V73.104ZM174.824 67.68C172.952 67.68 171.608 66.192 171.608 63.24C171.608 60.24 173.264 58.632 175.424 58.632C176.096 58.632 176.72 58.752 177.44 59.016V66.672C176.696 67.248 175.784 67.68 174.824 67.68ZM190.995 69.048L192.795 68.928C192.675 66.216 192.627 62.376 192.627 57.24H190.683C190.683 61.368 190.731 64.44 190.779 66.552C189.891 67.2 188.907 67.632 187.779 67.632C186.315 67.632 185.451 66.864 185.451 64.56V57.168L183.507 57.312V65.208C183.507 68.112 184.875 69.288 186.963 69.288C188.643 69.288 189.891 68.52 190.875 67.704L190.995 69.048ZM202.702 55.344L202.918 52.08H200.854L200.71 55.344H202.702ZM207.07 69L207.214 67.512H202.798V57.24H196.606L196.462 58.608L200.854 58.8V67.512H196.438V69H207.07ZM214.434 67.68C212.538 67.68 211.194 66.216 211.194 63.216C211.194 60.24 212.874 58.632 215.034 58.632C215.658 58.632 216.306 58.752 216.978 58.968C216.978 62.256 217.002 64.632 217.05 66.672C216.33 67.248 215.418 67.68 214.434 67.68ZM217.266 69.048L219.09 68.952C218.97 66.288 218.922 62.568 218.922 57.288V52.056L216.978 52.224V57.048C216.642 57 216.282 56.976 215.922 56.976C212.346 56.976 209.274 59.424 209.274 63.72C209.274 67.2 211.146 69.288 213.69 69.288C215.13 69.288 216.306 68.616 217.146 67.824L217.266 69.048ZM227.461 69.336C230.485 69.336 233.005 66.792 233.005 62.904C233.005 59.136 230.941 56.928 228.013 56.928C224.989 56.928 222.445 59.52 222.445 63.336C222.445 67.128 224.557 69.336 227.461 69.336ZM227.773 67.728C225.781 67.728 224.413 66.048 224.413 62.976C224.413 60.096 225.757 58.512 227.677 58.512C229.693 58.512 231.061 60.216 231.061 63.264C231.061 66.168 229.717 67.728 227.773 67.728Z" fill="black"/>
</g>
<line y1="79.5" x2="360" y2="79.5" stroke="#3D1A1A" stroke-opacity="0.2"/>
<line x1="0.5" y1="40" x2="0.499998" y2="79" stroke="#3D1A1A" stroke-opacity="0.2"/>
<line x1="359.5" y1="40" x2="359.5" y2="79" stroke="#3D1A1A" stroke-opacity="0.2"/>
<rect width="360" height="40" transform="translate(0 146)" fill="#C3C4A2" fill-opacity="0.15"/>
<g opacity="0.7">
<path d="M21.04 175.192L21.256 173.56C17.32 173.488 16.192 172.96 16.192 170.92V164.752H20.992V163.24H16.192V159.808L14.248 159.976V163.24H12.016L11.824 164.752H14.248V171.232C14.248 174.136 15.952 175.264 21.04 175.192ZM31.0913 175L31.2353 172.216H28.3793L28.2353 175H31.0913ZM54.4339 164.632C55.2259 164.632 55.5379 165.088 55.5379 166.288V175H57.0499V165.544C57.0499 165.472 57.0499 165.4 57.0499 165.328C57.5539 164.872 58.0819 164.632 58.6099 164.632C59.4259 164.632 59.7379 165.088 59.7379 166.312V175H61.5859V165.616C61.5859 163.84 60.8419 162.976 59.5219 162.976C58.4899 162.976 57.6019 163.552 56.9539 164.224C56.6659 163.432 56.0419 162.976 55.1539 162.976C54.1699 162.976 53.2819 163.552 52.6099 164.296L52.5139 163.192L50.8099 163.312C50.9059 166.024 50.9539 169.864 50.9539 175H52.7779C52.7779 170.872 52.7299 167.656 52.6819 165.52C53.2579 164.944 53.9059 164.632 54.4339 164.632ZM68.7333 173.752C67.2693 173.752 66.3092 173.032 66.3092 171.784C66.3092 170.176 67.7253 169.24 72.0213 169.696C72.0213 170.848 72.0453 171.712 72.0693 172.48C71.1573 173.2 69.9093 173.752 68.7333 173.752ZM72.3333 175.072L74.1093 174.952C74.0133 173.272 73.9173 171.616 73.9173 169.168C73.9173 164.632 72.0933 163.216 65.3013 163.024L65.0853 164.704C70.3413 164.896 71.8293 165.592 71.9973 168.304C66.7893 167.992 64.3893 169.816 64.3893 172.24C64.3893 174.136 65.8533 175.288 67.9893 175.288C69.8372 175.288 71.2053 174.448 72.1653 173.56C72.2133 174.088 72.3093 174.832 72.3333 175.072ZM77.8966 169.312C77.8966 172.912 79.8886 175.576 87.0166 175.096L87.2326 173.464C81.4726 173.728 79.8166 172.144 79.8166 169.048C79.8166 166.552 80.9926 164.896 87.0646 164.92L86.9206 163.072C80.0806 163.216 77.8966 166.072 77.8966 169.312ZM100.116 175.264L100.308 173.608C94.6199 173.464 92.8679 172.408 92.6759 169.624L100.716 169.432C101.148 165.544 99.5159 162.952 96.2999 162.952C93.2519 162.952 90.7559 165.712 90.7559 169.288C90.7559 173.104 92.7479 175.24 100.116 175.264ZM95.9639 164.56C97.9319 164.56 98.8679 165.976 98.8919 168.232C97.2359 168.28 94.0199 168.376 92.6759 168.424C92.8199 165.904 94.0199 164.56 95.9639 164.56ZM112.807 175L112.975 173.512H108.991C108.967 170.776 108.919 168.472 108.895 166.432C110.191 165.592 111.895 165.064 114.295 164.872L114.199 162.808C111.775 163.096 109.975 164.056 108.823 165.256C108.799 164.704 108.703 163.48 108.679 163.24H104.119L103.975 164.632L106.951 164.8C107.023 167.152 107.047 169.912 107.095 173.512H103.975V175H112.807ZM121.515 173.752C120.051 173.752 119.09 173.032 119.09 171.784C119.09 170.176 120.507 169.24 124.803 169.696C124.803 170.848 124.827 171.712 124.851 172.48C123.939 173.2 122.691 173.752 121.515 173.752ZM125.115 175.072L126.891 174.952C126.795 173.272 126.699 171.616 126.699 169.168C126.699 164.632 124.875 163.216 118.083 163.024L117.867 164.704C123.123 164.896 124.611 165.592 124.779 168.304C119.571 167.992 117.171 169.816 117.171 172.24C117.171 174.136 118.635 175.288 120.771 175.288C122.618 175.288 123.987 174.448 124.947 173.56C124.995 174.088 125.091 174.832 125.115 175.072ZM135.262 173.68C133.366 173.68 132.022 172.216 132.022 169.216C132.022 166.24 133.702 164.632 135.862 164.632C136.486 164.632 137.134 164.752 137.806 164.968C137.806 168.256 137.83 170.632 137.878 172.672C137.158 173.248 136.246 173.68 135.262 173.68ZM138.094 175.048L139.918 174.952C139.798 172.288 139.75 168.568 139.75 163.288V158.056L137.806 158.224V163.048C137.47 163 137.11 162.976 136.75 162.976C133.174 162.976 130.102 165.424 130.102 169.72C130.102 173.2 131.974 175.288 134.518 175.288C135.958 175.288 137.134 174.616 137.974 173.824L138.094 175.048ZM148.289 175.336C151.313 175.336 153.833 172.792 153.833 168.904C153.833 165.136 151.769 162.928 148.841 162.928C145.817 162.928 143.273 165.52 143.273 169.336C143.273 173.128 145.385 175.336 148.289 175.336ZM148.601 173.728C146.609 173.728 145.241 172.048 145.241 168.976C145.241 166.096 146.585 164.512 148.505 164.512C150.521 164.512 151.889 166.216 151.889 169.264C151.889 172.168 150.545 173.728 148.601 173.728Z" fill="black"/>
</g>
<line y1="185.5" x2="360" y2="185.5" stroke="#3D1A1A" stroke-opacity="0.2"/>
<line x1="0.5" y1="146" x2="0.499998" y2="185" stroke="#3D1A1A" stroke-opacity="0.2"/>
<line x1="359.5" y1="146" x2="359.5" y2="185" stroke="#3D1A1A" stroke-opacity="0.2"/>
<rect width="360" height="66" transform="translate(0 80)" fill="#C3C4A2" fill-opacity="0.15"/>
<g opacity="0.7">
<path d="M11.92 100.312C11.92 103.912 13.912 106.576 21.04 106.096L21.256 104.464C15.496 104.728 13.84 103.144 13.84 100.048C13.84 97.552 15.016 95.896 21.088 95.92L20.944 94.072C14.104 94.216 11.92 97.072 11.92 100.312ZM29.5313 106.336C32.5553 106.336 35.0753 103.792 35.0753 99.904C35.0753 96.136 33.0113 93.928 30.0833 93.928C27.0593 93.928 24.5153 96.52 24.5153 100.336C24.5153 104.128 26.6273 106.336 29.5313 106.336ZM29.8433 104.728C27.8513 104.728 26.4833 103.048 26.4833 99.976C26.4833 97.096 27.8273 95.512 29.7473 95.512C31.7633 95.512 33.1313 97.216 33.1313 100.264C33.1313 103.168 31.7873 104.728 29.8433 104.728ZM43.3746 95.632C44.8626 95.632 45.7506 96.424 45.7506 98.68V106H47.6946V98.032C47.6946 95.152 46.3026 93.976 44.1906 93.976C42.5106 93.976 41.2386 94.72 40.2546 95.536L40.1346 94.192L38.3346 94.312C38.4546 97.024 38.5026 100.864 38.5026 106H40.4466C40.4466 101.896 40.3986 98.8 40.3506 96.664C41.2626 96.04 42.2466 95.632 43.3746 95.632ZM51.5059 100.312C51.5059 103.912 53.4979 106.576 60.6259 106.096L60.8419 104.464C55.0819 104.728 53.4259 103.144 53.4259 100.048C53.4259 97.552 54.6019 95.896 60.6739 95.92L60.5299 94.072C53.6899 94.216 51.5059 97.072 51.5059 100.312ZM73.7253 106.264L73.9173 104.608C68.2293 104.464 66.4773 103.408 66.2853 100.624L74.3253 100.432C74.7573 96.544 73.1253 93.952 69.9093 93.952C66.8613 93.952 64.3652 96.712 64.3652 100.288C64.3652 104.104 66.3573 106.24 73.7253 106.264ZM69.5733 95.56C71.5413 95.56 72.4773 96.976 72.5013 99.232C70.8453 99.28 67.6293 99.376 66.2853 99.424C66.4293 96.904 67.6293 95.56 69.5733 95.56ZM87.0166 106.192L87.2326 104.56C83.2966 104.488 82.1686 103.96 82.1686 101.92V95.752H86.9686V94.24H82.1686V90.808L80.2246 90.976V94.24H77.9926L77.8006 95.752H80.2246V102.232C80.2246 105.136 81.9286 106.264 87.0166 106.192ZM99.6119 106L99.7799 104.512H95.7959C95.7719 101.776 95.7239 99.472 95.6999 97.432C96.9959 96.592 98.6999 96.064 101.1 95.872L101.004 93.808C98.5799 94.096 96.7799 95.056 95.6279 96.256C95.6039 95.704 95.5079 94.48 95.4839 94.24H90.9239L90.7799 95.632L93.7559 95.8C93.8279 98.152 93.8519 100.912 93.8999 104.512H90.7799V106H99.6119ZM108.319 104.752C106.855 104.752 105.895 104.032 105.895 102.784C105.895 101.176 107.311 100.24 111.607 100.696C111.607 101.848 111.631 102.712 111.655 103.48C110.743 104.2 109.495 104.752 108.319 104.752ZM111.919 106.072L113.695 105.952C113.599 104.272 113.503 102.616 113.503 100.168C113.503 95.632 111.679 94.216 104.887 94.024L104.671 95.704C109.927 95.896 111.415 96.592 111.583 99.304C106.375 98.992 103.975 100.816 103.975 103.24C103.975 105.136 105.439 106.288 107.575 106.288C109.423 106.288 110.791 105.448 111.751 104.56C111.799 105.088 111.895 105.832 111.919 106.072ZM117.483 100.312C117.483 103.912 119.475 106.576 126.603 106.096L126.819 104.464C121.059 104.728 119.403 103.144 119.403 100.048C119.403 97.552 120.579 95.896 126.651 95.92L126.507 94.072C119.667 94.216 117.483 97.072 117.483 100.312ZM136.726 92.344L136.942 89.08H134.878L134.734 92.344H136.726ZM141.094 106L141.238 104.512H136.822V94.24H130.63L130.486 95.608L134.878 95.8V104.512H130.462V106H141.094ZM146.033 91.624L146.585 92.488C148.217 91.696 150.809 90.136 152.225 88.864L150.665 87.352C149.513 88.72 147.425 90.664 146.033 91.624ZM148.289 106.336C151.313 106.336 153.833 103.792 153.833 99.904C153.833 96.136 151.769 93.928 148.841 93.928C145.817 93.928 143.273 96.52 143.273 100.336C143.273 104.128 145.385 106.336 148.289 106.336ZM148.601 104.728C146.609 104.728 145.241 103.048 145.241 99.976C145.241 97.096 146.585 95.512 148.505 95.512C150.521 95.512 151.889 97.216 151.889 100.264C151.889 103.168 150.545 104.728 148.601 104.728ZM162.132 95.632C163.62 95.632 164.508 96.424 164.508 98.68V106H166.452V98.032C166.452 95.152 165.06 93.976 162.948 93.976C161.268 93.976 159.996 94.72 159.012 95.536L158.892 94.192L157.092 94.312C157.212 97.024 157.26 100.864 157.26 106H159.204C159.204 101.896 159.156 98.8 159.108 96.664C160.02 96.04 161.004 95.632 162.132 95.632ZM16.504 135.68C14.608 135.68 13.264 134.216 13.264 131.216C13.264 128.24 14.944 126.632 17.104 126.632C17.728 126.632 18.376 126.752 19.048 126.968C19.048 130.256 19.072 132.632 19.12 134.672C18.4 135.248 17.488 135.68 16.504 135.68ZM19.336 137.048L21.16 136.952C21.04 134.288 20.992 130.568 20.992 125.288V120.056L19.048 120.224V125.048C18.712 125 18.352 124.976 17.992 124.976C14.416 124.976 11.344 127.424 11.344 131.72C11.344 135.2 13.216 137.288 15.76 137.288C17.2 137.288 18.376 136.616 19.216 135.824L19.336 137.048ZM34.1393 137.264L34.3313 135.608C28.6433 135.464 26.8913 134.408 26.6993 131.624L34.7393 131.432C35.1713 127.544 33.5393 124.952 30.3233 124.952C27.2753 124.952 24.7793 127.712 24.7793 131.288C24.7793 135.104 26.7713 137.24 34.1393 137.264ZM29.9873 126.56C31.9553 126.56 32.8913 127.976 32.9153 130.232C31.2593 130.28 28.0433 130.376 26.6993 130.424C26.8433 127.904 28.0433 126.56 29.9873 126.56ZM56.5699 126.632C58.0579 126.632 58.9459 127.424 58.9459 129.68V137H60.8899V129.032C60.8899 126.152 59.4979 124.976 57.3859 124.976C55.7059 124.976 54.4339 125.72 53.4499 126.536L53.3299 125.192L51.5299 125.312C51.6499 128.024 51.6979 131.864 51.6979 137H53.6419C53.6419 132.896 53.5939 129.8 53.5459 127.664C54.4579 127.04 55.4419 126.632 56.5699 126.632ZM70.7493 123.344L70.9653 120.08H68.9013L68.7573 123.344H70.7493ZM75.1172 137L75.2613 135.512H70.8453V125.24H64.6533L64.5093 126.608L68.9013 126.8V135.512H64.4853V137H75.1172ZM77.8966 131.312C77.8966 134.912 79.8886 137.576 87.0166 137.096L87.2326 135.464C81.4726 135.728 79.8166 134.144 79.8166 131.048C79.8166 128.552 80.9926 126.896 87.0646 126.92L86.9206 125.072C80.0806 125.216 77.8966 128.072 77.8966 131.312ZM95.5079 137.336C98.5319 137.336 101.052 134.792 101.052 130.904C101.052 127.136 98.9879 124.928 96.0599 124.928C93.0359 124.928 90.4919 127.52 90.4919 131.336C90.4919 135.128 92.6039 137.336 95.5079 137.336ZM95.8199 135.728C93.8279 135.728 92.4599 134.048 92.4599 130.976C92.4599 128.096 93.8039 126.512 95.7239 126.512C97.7399 126.512 99.1079 128.216 99.1079 131.264C99.1079 134.168 97.7639 135.728 95.8199 135.728ZM113.407 137.192L113.623 135.56C109.687 135.488 108.559 134.96 108.559 132.92V126.752H113.359V125.24H108.559V121.808L106.615 121.976V125.24H104.383L104.191 126.752H106.615V133.232C106.615 136.136 108.319 137.264 113.407 137.192ZM123.531 123.344L123.747 120.08H121.683L121.539 123.344H123.531ZM127.898 137L128.043 135.512H123.627V125.24H117.435L117.291 126.608L121.683 126.8V135.512H117.267V137H127.898ZM135.742 126.632C137.23 126.632 138.118 127.424 138.118 129.68V137H140.062V129.032C140.062 126.152 138.67 124.976 136.558 124.976C134.878 124.976 133.606 125.72 132.622 126.536L132.502 125.192L130.702 125.312C130.822 128.024 130.87 131.864 130.87 137H132.814C132.814 132.896 132.766 129.8 132.718 127.664C133.63 127.04 134.614 126.632 135.742 126.632ZM147.905 135.752C146.441 135.752 145.481 135.032 145.481 133.784C145.481 132.176 146.897 131.24 151.193 131.696C151.193 132.848 151.217 133.712 151.241 134.48C150.329 135.2 149.081 135.752 147.905 135.752ZM151.505 137.072L153.281 136.952C153.185 135.272 153.089 133.616 153.089 131.168C153.089 126.632 151.265 125.216 144.473 125.024L144.257 126.704C149.513 126.896 151.001 127.592 151.169 130.304C145.961 129.992 143.561 131.816 143.561 134.24C143.561 136.136 145.025 137.288 147.161 137.288C149.009 137.288 150.377 136.448 151.337 135.56C151.385 136.088 151.481 136.832 151.505 137.072Z" fill="black"/>
</g>
<line y1="145.5" x2="360" y2="145.5" stroke="#3D1A1A" stroke-opacity="0.2"/>
<line x1="0.5" y1="80" x2="0.499997" y2="144.35" stroke="#3D1A1A" stroke-opacity="0.2"/>
<line x1="359.5" y1="80" x2="359.5" y2="144.35" stroke="#3D1A1A" stroke-opacity="0.2"/>
<rect x="322" y="43" width="32" height="33" rx="16" fill="#836B7F"/>
<path d="M329.94 68.5V55.936H334.71C335.934 55.936 336.87 56.284 337.518 56.98C338.166 57.676 338.49 58.624 338.49 59.824C338.49 61.024 338.166 61.972 337.518 62.668C336.87 63.364 335.934 63.712 334.71 63.712H332.298V68.5H329.94ZM332.298 61.786H334.224C334.86 61.786 335.316 61.66 335.592 61.408C335.868 61.144 336.006 60.73 336.006 60.166V59.482C336.006 58.918 335.868 58.51 335.592 58.258C335.316 57.994 334.86 57.862 334.224 57.862H332.298V61.786ZM344.279 62.992L342.965 64.72V68.5H340.607V55.936H342.965V61.588H343.073L344.531 59.5L347.177 55.936H349.841L345.899 61.228L350.021 68.5H347.357L344.279 62.992Z" fill="white"/>
<rect x="322" y="83" width="32" height="33" rx="16" fill="#836B7F"/>
<path d="M329.94 108.5V95.936H334.71C335.934 95.936 336.87 96.284 337.518 96.98C338.166 97.676 338.49 98.624 338.49 99.824C338.49 101.024 338.166 101.972 337.518 102.668C336.87 103.364 335.934 103.712 334.71 103.712H332.298V108.5H329.94ZM332.298 101.786H334.224C334.86 101.786 335.316 101.66 335.592 101.408C335.868 101.144 336.006 100.73 336.006 100.166V99.482C336.006 98.918 335.868 98.51 335.592 98.258C335.316 97.994 334.86 97.862 334.224 97.862H332.298V101.786ZM344.279 102.992L342.965 104.72V108.5H340.607V95.936H342.965V101.588H343.073L344.531 99.5L347.177 95.936H349.841L345.899 101.228L350.021 108.5H347.357L344.279 102.992Z" fill="white"/>
<rect x="322" y="149" width="32" height="33" rx="16" fill="#9DA076"/>
<path d="M331.902 165.482H331.722V174.5H329.706V161.936H332.604L335.898 170.954H336.078V161.936H338.094V174.5H335.196L331.902 165.482ZM342.695 165.482H342.515V174.5H340.499V161.936H343.397L346.691 170.954H346.871V161.936H348.887V174.5H345.989L342.695 165.482Z" fill="white"/>
<rect x="284" y="43" width="32" height="33" rx="16" fill="#C3C4A2"/>
<path d="M291.994 68.5V55.936H300.202V57.88H294.352V61.156H299.626V63.1H294.352V68.5H291.994ZM306.279 62.992L304.965 64.72V68.5H302.607V55.936H304.965V61.588H305.073L306.531 59.5L309.177 55.936H311.841L307.899 61.228L312.021 68.5H309.357L306.279 62.992Z" fill="black"/>
</svg>
