<svg width="360" height="120" viewBox="0 0 360 120" fill="none" xmlns="http://www.w3.org/2000/svg">
<rect width="360" height="40" transform="translate(0 40)" fill="#C3C4A2" fill-opacity="0.15"/>
<g opacity="0.7">
<path d="M14.848 58.632C14.272 58.632 13.688 58.928 13.096 59.52C13.16 62.368 13.192 65.528 13.192 69H11.368C11.368 63.912 11.32 60.016 11.224 57.312L12.928 57.192L13.024 58.296C13.824 57.416 14.672 56.976 15.568 56.976C16.464 56.976 17.064 57.392 17.368 58.224C18.168 57.392 19.024 56.976 19.936 56.976C21.312 56.976 22 57.856 22 59.616V69H20.152V60.312C20.152 59.704 20.064 59.272 19.888 59.016C19.728 58.76 19.44 58.632 19.024 58.632C18.496 58.632 17.976 58.864 17.464 59.328V59.544V69H15.952V60.288C15.952 59.696 15.864 59.272 15.688 59.016C15.528 58.76 15.248 58.632 14.848 58.632ZM29.5313 69.336C28.0433 69.336 26.8353 68.8 25.9073 67.728C24.9793 66.656 24.5153 65.192 24.5153 63.336C24.5153 61.464 25.0513 59.928 26.1233 58.728C27.2113 57.528 28.5313 56.928 30.0833 56.928C31.5713 56.928 32.7713 57.464 33.6833 58.536C34.6113 59.592 35.0753 61.048 35.0753 62.904C35.0753 64.808 34.5393 66.36 33.4673 67.56C32.3953 68.744 31.0833 69.336 29.5313 69.336ZM29.8433 67.728C30.8353 67.728 31.6273 67.344 32.2193 66.576C32.8273 65.792 33.1313 64.688 33.1313 63.264C33.1313 61.76 32.8193 60.592 32.1953 59.76C31.5873 58.928 30.7713 58.512 29.7473 58.512C28.7713 58.512 27.9793 58.904 27.3713 59.688C26.7793 60.472 26.4833 61.568 26.4833 62.976C26.4833 64.48 26.7873 65.648 27.3953 66.48C28.0033 67.312 28.8193 67.728 29.8433 67.728ZM47.7186 69H38.2626V67.512H42.0786V53.808L38.4546 53.64L38.6226 52.248H44.0466V67.512H47.8866L47.7186 69ZM53.9059 54.576C54.5939 54.096 55.3939 53.44 56.3059 52.608C57.2179 51.76 57.9619 50.992 58.5379 50.304L60.0979 51.816C59.4419 52.408 58.5619 53.056 57.4579 53.76C56.3539 54.448 55.3539 55.008 54.4579 55.44L53.9059 54.576ZM60.5299 69.264C58.7219 69.264 57.2019 69.136 55.9699 68.88C54.7379 68.608 53.7699 68.208 53.0659 67.68C52.3779 67.152 51.8899 66.536 51.6019 65.832C51.3139 65.128 51.1699 64.28 51.1699 63.288C51.1699 61.512 51.7059 60.016 52.7779 58.8C53.8659 57.568 55.1779 56.952 56.7139 56.952C58.2979 56.952 59.4819 57.544 60.2659 58.728C61.0659 59.896 61.3539 61.464 61.1299 63.432L53.0899 63.624C53.1859 65.032 53.7779 66.032 54.8659 66.624C55.9699 67.216 57.9219 67.544 60.7219 67.608L60.5299 69.264ZM56.3779 58.56C55.4019 58.56 54.6259 58.896 54.0499 59.568C53.4739 60.224 53.1539 61.176 53.0899 62.424C54.2579 62.376 56.3299 62.312 59.3059 62.232C59.2899 61.08 59.0339 60.184 58.5379 59.544C58.0579 58.888 57.3379 58.56 56.3779 58.56ZM64.7013 63.312C64.7013 62.464 64.8533 61.688 65.1573 60.984C65.4773 60.28 65.9653 59.632 66.6213 59.04C67.2933 58.448 68.2293 57.984 69.4293 57.648C70.6453 57.296 72.0773 57.104 73.7253 57.072L73.8693 58.92C72.3973 58.92 71.1653 59.016 70.1733 59.208C69.1973 59.384 68.4533 59.664 67.9413 60.048C67.4453 60.432 67.1013 60.864 66.9093 61.344C66.7173 61.808 66.6213 62.376 66.6213 63.048C66.6213 64.68 67.1653 65.856 68.2533 66.576C69.3413 67.296 71.2693 67.592 74.0373 67.464L73.8213 69.096C72.0933 69.208 70.6213 69.152 69.4053 68.928C68.1893 68.688 67.2453 68.288 66.5733 67.728C65.9013 67.168 65.4213 66.536 65.1333 65.832C64.8453 65.112 64.7013 64.272 64.7013 63.312ZM85.4326 69.048L85.3126 67.704C84.0326 68.76 82.7286 69.288 81.4006 69.288C79.0966 69.288 77.9446 67.928 77.9446 65.208V57.312L79.8886 57.168V64.56C79.8886 65.664 80.0806 66.456 80.4646 66.936C80.8646 67.4 81.4486 67.632 82.2166 67.632C83.2246 67.632 84.2246 67.272 85.2166 66.552C85.1526 63.736 85.1206 60.632 85.1206 57.24H87.0646C87.0646 62.504 87.1206 66.4 87.2326 68.928L85.4326 69.048ZM100.5 69H91.0439V67.512H94.8599V53.808L91.2359 53.64L91.4039 52.248H96.8279V67.512H100.668L100.5 69ZM108.319 67.752C109.471 67.752 110.583 67.328 111.655 66.48C111.623 65.456 111.607 64.528 111.607 63.696C107.799 63.296 105.895 63.992 105.895 65.784C105.895 66.408 106.111 66.896 106.543 67.248C106.991 67.584 107.583 67.752 108.319 67.752ZM111.919 69.072C111.919 69.04 111.895 68.832 111.847 68.448C111.799 68.064 111.767 67.768 111.751 67.56C110.503 68.712 109.111 69.288 107.575 69.288C106.487 69.288 105.615 69.016 104.959 68.472C104.303 67.928 103.975 67.184 103.975 66.24C103.975 64.96 104.623 63.952 105.919 63.216C107.215 62.464 109.103 62.16 111.583 62.304C111.503 60.96 110.991 60.048 110.047 59.568C109.119 59.088 107.327 58.8 104.671 58.704L104.887 57.024C107.191 57.088 108.951 57.32 110.167 57.72C111.383 58.12 112.239 58.744 112.735 59.592C113.247 60.424 113.503 61.616 113.503 63.168C113.503 64.784 113.567 66.712 113.695 68.952L111.919 69.072Z" fill="black"/>
</g>
<line y1="79.5" x2="360" y2="79.5" stroke="#3D1A1A" stroke-opacity="0.2"/>
<line x1="0.5" y1="40" x2="0.499998" y2="79" stroke="#3D1A1A" stroke-opacity="0.2"/>
<line x1="359.5" y1="40" x2="359.5" y2="79" stroke="#3D1A1A" stroke-opacity="0.2"/>
<rect width="360" height="40" transform="translate(0 80)" fill="#C3C4A2" fill-opacity="0.15"/>
<g opacity="0.7">
<path d="M11.92 103.312C11.92 102.464 12.072 101.688 12.376 100.984C12.696 100.28 13.184 99.632 13.84 99.04C14.512 98.448 15.448 97.984 16.648 97.648C17.864 97.296 19.296 97.104 20.944 97.072L21.088 98.92C19.616 98.92 18.384 99.016 17.392 99.208C16.416 99.384 15.672 99.664 15.16 100.048C14.664 100.432 14.32 100.864 14.128 101.344C13.936 101.808 13.84 102.376 13.84 103.048C13.84 104.68 14.384 105.856 15.472 106.576C16.56 107.296 18.488 107.592 21.256 107.464L21.04 109.096C19.312 109.208 17.84 109.152 16.624 108.928C15.408 108.688 14.464 108.288 13.792 107.728C13.12 107.168 12.64 106.536 12.352 105.832C12.064 105.112 11.92 104.272 11.92 103.312ZM29.5313 109.336C28.0433 109.336 26.8353 108.8 25.9073 107.728C24.9793 106.656 24.5153 105.192 24.5153 103.336C24.5153 101.464 25.0513 99.928 26.1233 98.728C27.2113 97.528 28.5313 96.928 30.0833 96.928C31.5713 96.928 32.7713 97.464 33.6833 98.536C34.6113 99.592 35.0753 101.048 35.0753 102.904C35.0753 104.808 34.5393 106.36 33.4673 107.56C32.3953 108.744 31.0833 109.336 29.5313 109.336ZM29.8433 107.728C30.8353 107.728 31.6273 107.344 32.2193 106.576C32.8273 105.792 33.1313 104.688 33.1313 103.264C33.1313 101.76 32.8193 100.592 32.1953 99.76C31.5873 98.928 30.7713 98.512 29.7473 98.512C28.7713 98.512 27.9793 98.904 27.3713 99.688C26.7793 100.472 26.4833 101.568 26.4833 102.976C26.4833 104.48 26.7873 105.648 27.3953 106.48C28.0033 107.312 28.8193 107.728 29.8433 107.728ZM42.8946 107.68C43.8066 107.68 44.6786 107.344 45.5106 106.672C45.4626 104.624 45.4386 102.056 45.4386 98.968C44.7346 98.744 44.0866 98.632 43.4946 98.632C42.3746 98.632 41.4546 99.04 40.7346 99.856C40.0146 100.656 39.6546 101.776 39.6546 103.216C39.6546 104.672 39.9506 105.784 40.5426 106.552C41.1346 107.304 41.9186 107.68 42.8946 107.68ZM45.7266 109.048L45.6066 107.824C44.5666 108.8 43.4146 109.288 42.1506 109.288C40.8546 109.288 39.7906 108.792 38.9586 107.8C38.1426 106.792 37.7346 105.432 37.7346 103.72C37.7346 101.656 38.3746 100.016 39.6546 98.8C40.9346 97.584 42.5106 96.976 44.3826 96.976C44.7506 96.976 45.1026 97 45.4386 97.048V92.224L47.3826 92.056V97.288C47.3826 102.584 47.4386 106.472 47.5506 108.952L45.7266 109.048ZM57.4819 109H54.6259L54.7699 106.216H57.6259L57.4819 109ZM81.5926 109.288C80.4086 109.288 79.2566 109.088 78.1366 108.688V92.224L80.0806 92.056V98.296C81.1366 97.416 82.2646 96.976 83.4646 96.976C84.7446 96.976 85.7926 97.488 86.6086 98.512C87.4246 99.536 87.8326 100.896 87.8326 102.592C87.8326 104.592 87.2166 106.208 85.9846 107.44C84.7686 108.672 83.3046 109.288 81.5926 109.288ZM82.2646 107.608C83.3526 107.608 84.2326 107.216 84.9046 106.432C85.5766 105.648 85.9126 104.528 85.9126 103.072C85.9126 101.648 85.6166 100.544 85.0246 99.76C84.4326 98.976 83.6566 98.584 82.6966 98.584C81.7846 98.584 80.9126 98.896 80.0806 99.52V107.2C80.8486 107.472 81.5766 107.608 82.2646 107.608ZM95.1239 107.752C96.2759 107.752 97.3879 107.328 98.4599 106.48C98.4279 105.456 98.4119 104.528 98.4119 103.696C94.6039 103.296 92.6999 103.992 92.6999 105.784C92.6999 106.408 92.9159 106.896 93.3479 107.248C93.7959 107.584 94.3879 107.752 95.1239 107.752ZM98.7239 109.072C98.7239 109.04 98.6999 108.832 98.6519 108.448C98.6039 108.064 98.5719 107.768 98.5559 107.56C97.3079 108.712 95.9159 109.288 94.3799 109.288C93.2919 109.288 92.4199 109.016 91.7639 108.472C91.1079 107.928 90.7799 107.184 90.7799 106.24C90.7799 104.96 91.4279 103.952 92.7239 103.216C94.0199 102.464 95.9079 102.16 98.3879 102.304C98.3079 100.96 97.7959 100.048 96.8519 99.568C95.9239 99.088 94.1319 98.8 91.4759 98.704L91.6919 97.024C93.9959 97.088 95.7559 97.32 96.9719 97.72C98.1879 98.12 99.0439 98.744 99.5399 99.592C100.052 100.424 100.308 101.616 100.308 103.168C100.308 104.784 100.372 106.712 100.5 108.952L98.7239 109.072ZM112.855 97.144L112.927 98.872C108.847 98.504 106.807 98.952 106.807 100.216C106.807 100.568 107.031 100.904 107.479 101.224C107.943 101.544 108.495 101.848 109.135 102.136C109.791 102.408 110.439 102.704 111.079 103.024C111.735 103.328 112.287 103.712 112.735 104.176C113.199 104.624 113.431 105.128 113.431 105.688C113.431 106.792 112.743 107.68 111.367 108.352C109.991 109.008 107.783 109.256 104.743 109.096L104.815 107.368C109.215 107.72 111.415 107.216 111.415 105.856C111.415 105.472 111.191 105.12 110.743 104.8C110.295 104.464 109.743 104.168 109.087 103.912C108.447 103.64 107.799 103.36 107.143 103.072C106.503 102.768 105.959 102.4 105.511 101.968C105.063 101.52 104.839 101.024 104.839 100.48C104.839 99.408 105.479 98.536 106.759 97.864C108.055 97.176 110.087 96.936 112.855 97.144ZM126.507 109.264C124.699 109.264 123.179 109.136 121.947 108.88C120.715 108.608 119.747 108.208 119.043 107.68C118.355 107.152 117.867 106.536 117.579 105.832C117.291 105.128 117.146 104.28 117.146 103.288C117.146 101.512 117.683 100.016 118.755 98.8C119.843 97.568 121.155 96.952 122.691 96.952C124.275 96.952 125.459 97.544 126.243 98.728C127.043 99.896 127.331 101.464 127.107 103.432L119.067 103.624C119.163 105.032 119.755 106.032 120.843 106.624C121.947 107.216 123.899 107.544 126.699 107.608L126.507 109.264ZM122.355 98.56C121.379 98.56 120.603 98.896 120.027 99.568C119.451 100.224 119.131 101.176 119.067 102.424C120.235 102.376 122.307 102.312 125.283 102.232C125.267 101.08 125.011 100.184 124.515 99.544C124.035 98.888 123.315 98.56 122.355 98.56Z" fill="black"/>
</g>
<line y1="119.5" x2="360" y2="119.5" stroke="#3D1A1A" stroke-opacity="0.2"/>
<line x1="0.5" y1="80" x2="0.499998" y2="119" stroke="#3D1A1A" stroke-opacity="0.2"/>
<line x1="359.5" y1="80" x2="359.5" y2="119" stroke="#3D1A1A" stroke-opacity="0.2"/>
<path d="M0 5C0 2.23858 2.23858 0 5 0H355C357.761 0 360 2.23858 360 5V40H0V5Z" fill="#836B7F"/>
<path d="M17.56 12.556L18.232 21.348H18.316L22.236 12.64H26.24L22.908 30H19.128L21.144 20.032H21.06L18.316 26.108H16.384L15.908 20.032H15.824L14.144 30H10.448L13.78 12.724L17.56 12.556ZM26.7105 24.512C26.7105 22.0293 27.4479 19.892 28.9225 18.1C30.4159 16.2893 32.2825 15.384 34.5225 15.384C36.2399 15.384 37.5932 15.916 38.5825 16.98C39.5905 18.0253 40.0945 19.4533 40.0945 21.264C40.0945 23.7467 39.3479 25.8933 37.8545 27.704C36.3799 29.496 34.5225 30.392 32.2825 30.392C30.5652 30.392 29.2025 29.8693 28.1945 28.824C27.2052 27.76 26.7105 26.3227 26.7105 24.512ZM36.1465 21.74C36.1465 20.732 35.9505 19.9573 35.5585 19.416C35.1852 18.856 34.6719 18.576 34.0185 18.576C33.0479 18.576 32.2452 19.136 31.6105 20.256C30.9759 21.3573 30.6585 22.6173 30.6585 24.036C30.6585 25.044 30.8452 25.828 31.2185 26.388C31.6105 26.9293 32.1332 27.2 32.7865 27.2C33.7572 27.2 34.5599 26.6493 35.1945 25.548C35.8292 24.428 36.1465 23.1587 36.1465 21.74ZM55.0131 28.264C52.3251 29.776 50.0851 30.4387 48.2931 30.252C46.5197 30.0653 45.3344 29.0573 44.7371 27.228L43.3371 28.04L42.4411 26.528L44.3451 25.324C44.3077 24.8013 44.2891 24.4 44.2891 24.12C44.2891 21.6373 44.7371 19.3133 45.6331 17.148C46.5477 14.964 47.7051 13.256 49.1051 12.024C50.5237 10.792 51.9704 10.176 53.4451 10.176C54.4157 10.176 55.1717 10.4747 55.7131 11.072C56.2731 11.6507 56.5531 12.4813 56.5531 13.564C56.5531 15.3373 55.8437 17.2227 54.4251 19.22C53.0251 21.2173 51.0184 23.2053 48.4051 25.184C48.6664 26.3227 49.2824 26.976 50.2531 27.144C51.2424 27.312 52.6611 27.06 54.5091 26.388L55.0131 28.264ZM52.0171 13.984C51.1397 13.984 50.3091 14.8147 49.5251 16.476C48.7411 18.1187 48.3117 20.2187 48.2371 22.776C49.7864 21.3387 50.9624 19.9573 51.7651 18.632C52.5864 17.3067 52.9971 16.1867 52.9971 15.272C52.9971 14.4133 52.6704 13.984 52.0171 13.984ZM62.7916 12.22C63.7249 11.7347 64.8543 11.0347 66.1796 10.12C67.5049 9.18667 68.6156 8.328 69.5116 7.544L71.9476 10.512C70.9209 11.184 69.5583 11.8467 67.8596 12.5C66.1609 13.1347 64.6956 13.592 63.4636 13.872L62.7916 12.22ZM70.7716 28.32C68.7556 29.328 66.9263 29.9533 65.2836 30.196C63.6409 30.4573 62.3156 30.364 61.3076 29.916C60.2996 29.468 59.5249 28.8147 58.9836 27.956C58.4609 27.0787 58.1996 26.052 58.1996 24.876C58.1996 23.364 58.5916 21.88 59.3756 20.424C60.1596 18.968 61.2516 17.764 62.6516 16.812C64.0516 15.86 65.5449 15.384 67.1316 15.384C68.4569 15.384 69.5023 15.72 70.2676 16.392C71.0516 17.0453 71.4436 17.9507 71.4436 19.108C71.4436 20.7507 70.6316 22.0573 69.0076 23.028C67.4023 23.9987 65.0503 24.596 61.9516 24.82C62.0076 25.66 62.2876 26.248 62.7916 26.584C63.3143 26.9013 64.1449 27.0413 65.2836 27.004C66.4409 26.9667 68.1489 26.7427 70.4076 26.332L70.7716 28.32ZM66.0396 18.52C65.1249 18.52 64.3129 18.9307 63.6036 19.752C62.8943 20.5547 62.4089 21.5533 62.1476 22.748C65.8996 22.4867 67.7756 21.572 67.7756 20.004C67.7756 19.556 67.6169 19.2013 67.2996 18.94C66.9823 18.66 66.5623 18.52 66.0396 18.52ZM86.8941 21.012L83.3661 21.068C83.3848 20.228 83.2728 19.6307 83.0301 19.276C82.7875 18.9027 82.3675 18.716 81.7701 18.716C80.6875 18.716 79.7728 19.2573 79.0261 20.34C78.2795 21.404 77.9061 22.6547 77.9061 24.092C77.9061 25.5293 78.3821 26.4253 79.3341 26.78C80.3048 27.116 82.3861 27.0693 85.5781 26.64L85.8581 28.656C84.2341 29.384 82.7501 29.8693 81.4061 30.112C80.0808 30.3733 78.9701 30.4107 78.0741 30.224C77.1781 30.0373 76.4128 29.7013 75.7781 29.216C75.1621 28.712 74.7141 28.096 74.4341 27.368C74.1541 26.64 74.0141 25.8187 74.0141 24.904C74.0141 22.328 74.8915 20.1067 76.6461 18.24C78.4008 16.3547 80.4821 15.412 82.8901 15.412C84.4208 15.412 85.5128 15.8507 86.1661 16.728C86.8195 17.6053 87.0621 19.0333 86.8941 21.012ZM103.101 28.712C98.9753 31.1947 96.9593 30.924 97.0527 27.9C95.5593 29.5613 94.0753 30.392 92.6007 30.392C91.4807 30.392 90.6967 29.9533 90.2487 29.076C89.8193 28.1987 89.782 26.92 90.1367 25.24L91.1167 20.536L89.5487 19.5L92.1527 15.86L95.9327 15.636L94.0007 24.708C93.7207 26.0333 93.982 26.696 94.7847 26.696C95.6247 26.696 96.5393 26.1453 97.5287 25.044L99.3207 15.804H103.101L101.113 26.052C101.001 26.612 101.019 26.9293 101.169 27.004C101.337 27.0787 101.878 27.0133 102.793 26.808L103.101 28.712ZM117.711 28.264C115.023 29.776 112.783 30.4387 110.991 30.252C109.218 30.0653 108.033 29.0573 107.435 27.228L106.035 28.04L105.139 26.528L107.043 25.324C107.006 24.8013 106.987 24.4 106.987 24.12C106.987 21.6373 107.435 19.3133 108.331 17.148C109.246 14.964 110.403 13.256 111.803 12.024C113.222 10.792 114.669 10.176 116.143 10.176C117.114 10.176 117.87 10.4747 118.411 11.072C118.971 11.6507 119.251 12.4813 119.251 13.564C119.251 15.3373 118.542 17.2227 117.123 19.22C115.723 21.2173 113.717 23.2053 111.103 25.184C111.365 26.3227 111.981 26.976 112.951 27.144C113.941 27.312 115.359 27.06 117.207 26.388L117.711 28.264ZM114.715 13.984C113.838 13.984 113.007 14.8147 112.223 16.476C111.439 18.1187 111.01 20.2187 110.935 22.776C112.485 21.3387 113.661 19.9573 114.463 18.632C115.285 17.3067 115.695 16.1867 115.695 15.272C115.695 14.4133 115.369 13.984 114.715 13.984ZM124.482 25.044C124.482 26.1453 124.874 26.696 125.658 26.696C126.442 26.696 127.403 26.2013 128.542 25.212C128.672 24.5587 129.064 22.552 129.718 19.192C128.878 18.8933 128.168 18.744 127.59 18.744C126.787 18.744 126.068 19.4347 125.434 20.816C124.799 22.1787 124.482 23.588 124.482 25.044ZM134.254 28.712C132.76 29.608 131.566 30.1307 130.67 30.28C129.774 30.4293 129.158 30.28 128.822 29.832C128.486 29.3653 128.336 28.6187 128.374 27.592C126.488 29.44 124.855 30.364 123.474 30.364C122.615 30.364 121.915 29.9907 121.374 29.244C120.832 28.4973 120.562 27.4147 120.562 25.996C120.562 24.2227 120.907 22.552 121.598 20.984C122.288 19.3973 123.334 18.0907 124.734 17.064C126.152 16.0187 127.776 15.496 129.606 15.496C131.08 15.496 132.564 15.72 134.058 16.168L132.154 26.024C132.042 26.584 132.07 26.9013 132.238 26.976C132.406 27.0507 132.975 26.9947 133.946 26.808L134.254 28.712ZM148.976 25.548C148.976 26.22 148.799 26.8267 148.444 27.368C148.108 27.9093 147.558 28.4133 146.792 28.88C146.027 29.3467 144.935 29.7013 143.516 29.944C142.116 30.1867 140.436 30.2987 138.476 30.28L138.56 26.78C141.006 26.9107 142.704 26.9013 143.656 26.752C144.627 26.584 145.112 26.248 145.112 25.744C145.112 25.5573 145.066 25.352 144.972 25.128C144.879 24.904 144.72 24.6613 144.496 24.4C144.291 24.1387 144.095 23.9053 143.908 23.7C143.722 23.4947 143.46 23.224 143.124 22.888C142.807 22.5333 142.555 22.2533 142.368 22.048C141.23 22.7947 139.746 23.616 137.916 24.512L137.104 22.776C138.878 21.6933 140.184 20.8253 141.024 20.172C140.707 19.5373 140.548 18.9493 140.548 18.408C140.548 17.3627 140.978 16.532 141.836 15.916C142.695 15.2813 143.684 14.964 144.804 14.964C146.092 14.964 146.848 15.3933 147.072 16.252C147.296 17.1107 146.755 18.24 145.448 19.64C145.579 19.808 146.018 20.34 146.764 21.236C147.53 22.1133 148.09 22.8787 148.444 23.532C148.799 24.1853 148.976 24.8573 148.976 25.548Z" fill="#EEEEEE"/>
<rect x="284" y="83" width="32" height="33" rx="16" fill="#C3C4A2"/>
<path d="M291.994 108.5V95.936H300.202V97.88H294.352V101.156H299.626V103.1H294.352V108.5H291.994ZM306.279 102.992L304.965 104.72V108.5H302.607V95.936H304.965V101.588H305.073L306.531 99.5L309.177 95.936H311.841L307.899 101.228L312.021 108.5H309.357L306.279 102.992Z" fill="black"/>
<rect x="322" y="43" width="32" height="33" rx="16" fill="#836B7F"/>
<path d="M329.94 68.5V55.936H334.71C335.934 55.936 336.87 56.284 337.518 56.98C338.166 57.676 338.49 58.624 338.49 59.824C338.49 61.024 338.166 61.972 337.518 62.668C336.87 63.364 335.934 63.712 334.71 63.712H332.298V68.5H329.94ZM332.298 61.786H334.224C334.86 61.786 335.316 61.66 335.592 61.408C335.868 61.144 336.006 60.73 336.006 60.166V59.482C336.006 58.918 335.868 58.51 335.592 58.258C335.316 57.994 334.86 57.862 334.224 57.862H332.298V61.786ZM344.279 62.992L342.965 64.72V68.5H340.607V55.936H342.965V61.588H343.073L344.531 59.5L347.177 55.936H349.841L345.899 61.228L350.021 68.5H347.357L344.279 62.992Z" fill="white"/>
<rect x="322" y="83" width="32" height="33" rx="16" fill="#836B7F"/>
<path d="M329.94 108.5V95.936H334.71C335.934 95.936 336.87 96.284 337.518 96.98C338.166 97.676 338.49 98.624 338.49 99.824C338.49 101.024 338.166 101.972 337.518 102.668C336.87 103.364 335.934 103.712 334.71 103.712H332.298V108.5H329.94ZM332.298 101.786H334.224C334.86 101.786 335.316 101.66 335.592 101.408C335.868 101.144 336.006 100.73 336.006 100.166V99.482C336.006 98.918 335.868 98.51 335.592 98.258C335.316 97.994 334.86 97.862 334.224 97.862H332.298V101.786ZM344.279 102.992L342.965 104.72V108.5H340.607V95.936H342.965V101.588H343.073L344.531 99.5L347.177 95.936H349.841L345.899 101.228L350.021 108.5H347.357L344.279 102.992Z" fill="white"/>
<rect x="322" y="43" width="32" height="33" rx="16" fill="#836B7F"/>
<path d="M329.94 68.5V55.936H334.71C335.934 55.936 336.87 56.284 337.518 56.98C338.166 57.676 338.49 58.624 338.49 59.824C338.49 61.024 338.166 61.972 337.518 62.668C336.87 63.364 335.934 63.712 334.71 63.712H332.298V68.5H329.94ZM332.298 61.786H334.224C334.86 61.786 335.316 61.66 335.592 61.408C335.868 61.144 336.006 60.73 336.006 60.166V59.482C336.006 58.918 335.868 58.51 335.592 58.258C335.316 57.994 334.86 57.862 334.224 57.862H332.298V61.786ZM344.279 62.992L342.965 64.72V68.5H340.607V55.936H342.965V61.588H343.073L344.531 59.5L347.177 55.936H349.841L345.899 61.228L350.021 68.5H347.357L344.279 62.992Z" fill="white"/>
<rect x="322" y="83" width="32" height="33" rx="16" fill="#836B7F"/>
<path d="M329.94 108.5V95.936H334.71C335.934 95.936 336.87 96.284 337.518 96.98C338.166 97.676 338.49 98.624 338.49 99.824C338.49 101.024 338.166 101.972 337.518 102.668C336.87 103.364 335.934 103.712 334.71 103.712H332.298V108.5H329.94ZM332.298 101.786H334.224C334.86 101.786 335.316 101.66 335.592 101.408C335.868 101.144 336.006 100.73 336.006 100.166V99.482C336.006 98.918 335.868 98.51 335.592 98.258C335.316 97.994 334.86 97.862 334.224 97.862H332.298V101.786ZM344.279 102.992L342.965 104.72V108.5H340.607V95.936H342.965V101.588H343.073L344.531 99.5L347.177 95.936H349.841L345.899 101.228L350.021 108.5H347.357L344.279 102.992Z" fill="white"/>
</svg>
