<svg width="360" height="159" viewBox="0 0 360 159" fill="none" xmlns="http://www.w3.org/2000/svg">
<rect width="360" height="40" transform="translate(0 79)" fill="#C3C4A2" fill-opacity="0.15"/>
<g opacity="0.7">
<path d="M16.744 106.176C17.912 103.2 19.08 99.888 20.248 96.24H22.216C21.032 99.84 19.568 103.792 17.824 108.096H15.376C13.808 104.192 12.368 100.264 11.056 96.312L13 96.192C14.184 99.824 15.368 103.152 16.552 106.176H16.744ZM29.5313 108.336C28.0433 108.336 26.8353 107.8 25.9073 106.728C24.9793 105.656 24.5153 104.192 24.5153 102.336C24.5153 100.464 25.0513 98.928 26.1233 97.728C27.2113 96.528 28.5313 95.928 30.0833 95.928C31.5713 95.928 32.7713 96.464 33.6833 97.536C34.6113 98.592 35.0753 100.048 35.0753 101.904C35.0753 103.808 34.5393 105.36 33.4673 106.56C32.3953 107.744 31.0833 108.336 29.5313 108.336ZM29.8433 106.728C30.8353 106.728 31.6273 106.344 32.2193 105.576C32.8273 104.792 33.1313 103.688 33.1313 102.264C33.1313 100.76 32.8193 99.592 32.1953 98.76C31.5873 97.928 30.7713 97.512 29.7473 97.512C28.7713 97.512 27.9793 97.904 27.3713 98.688C26.7793 99.472 26.4833 100.568 26.4833 101.976C26.4833 103.48 26.7873 104.648 27.3953 105.48C28.0033 106.312 28.8193 106.728 29.8433 106.728ZM47.7186 108H38.2626V106.512H42.0786V92.808L38.4546 92.64L38.6226 91.248H44.0466V106.512H47.8866L47.7186 108ZM59.0419 108.048L58.9219 106.704C57.6419 107.76 56.3379 108.288 55.0099 108.288C52.7059 108.288 51.5539 106.928 51.5539 104.208V96.312L53.4979 96.168V103.56C53.4979 104.664 53.6899 105.456 54.0739 105.936C54.4739 106.4 55.0579 106.632 55.8259 106.632C56.8339 106.632 57.8339 106.272 58.8259 105.552C58.7619 102.736 58.7299 99.632 58.7299 96.24H60.6739C60.6739 101.504 60.7299 105.4 60.8419 107.928L59.0419 108.048ZM67.6293 97.632C67.0533 97.632 66.4693 97.928 65.8773 98.52C65.9413 101.368 65.9733 104.528 65.9733 108H64.1493C64.1493 102.912 64.1013 99.016 64.0053 96.312L65.7093 96.192L65.8053 97.296C66.6053 96.416 67.4533 95.976 68.3493 95.976C69.2453 95.976 69.8453 96.392 70.1493 97.224C70.9493 96.392 71.8053 95.976 72.7173 95.976C74.0933 95.976 74.7812 96.856 74.7812 98.616V108H72.9333V99.312C72.9333 98.704 72.8453 98.272 72.6693 98.016C72.5093 97.76 72.2213 97.632 71.8053 97.632C71.2773 97.632 70.7573 97.864 70.2453 98.328V98.544V108H68.7333V99.288C68.7333 98.696 68.6453 98.272 68.4693 98.016C68.3093 97.76 68.0293 97.632 67.6293 97.632ZM86.9206 108.264C85.1126 108.264 83.5926 108.136 82.3606 107.88C81.1286 107.608 80.1606 107.208 79.4566 106.68C78.7686 106.152 78.2806 105.536 77.9926 104.832C77.7046 104.128 77.5606 103.28 77.5606 102.288C77.5606 100.512 78.0966 99.016 79.1686 97.8C80.2566 96.568 81.5686 95.952 83.1046 95.952C84.6886 95.952 85.8726 96.544 86.6566 97.728C87.4566 98.896 87.7446 100.464 87.5206 102.432L79.4806 102.624C79.5766 104.032 80.1686 105.032 81.2566 105.624C82.3606 106.216 84.3126 106.544 87.1126 106.608L86.9206 108.264ZM82.7686 97.56C81.7926 97.56 81.0166 97.896 80.4406 98.568C79.8646 99.224 79.5446 100.176 79.4806 101.424C80.6486 101.376 82.7206 101.312 85.6966 101.232C85.6806 100.08 85.4246 99.184 84.9286 98.544C84.4486 97.888 83.7286 97.56 82.7686 97.56ZM96.1559 97.632C95.1479 97.632 94.1399 97.976 93.1319 98.664C93.1959 101.512 93.2279 104.624 93.2279 108H91.2839C91.2839 102.736 91.2279 98.84 91.1159 96.312L92.9159 96.192L93.0359 97.536C94.2839 96.496 95.5959 95.976 96.9719 95.976C99.3079 95.976 100.476 97.328 100.476 100.032V108H98.5319V100.68C98.5319 99.592 98.3319 98.816 97.9319 98.352C97.5319 97.872 96.9399 97.632 96.1559 97.632Z" fill="black"/>
</g>
<line y1="118.5" x2="360" y2="118.5" stroke="#3D1A1A" stroke-opacity="0.2"/>
<line x1="0.5" y1="79" x2="0.499998" y2="118" stroke="#3D1A1A" stroke-opacity="0.2"/>
<line x1="359.5" y1="79" x2="359.5" y2="118" stroke="#3D1A1A" stroke-opacity="0.2"/>
<rect width="360" height="40" transform="translate(0 40)" fill="#C3C4A2" fill-opacity="0.15"/>
<g opacity="0.7">
<path d="M11.92 63.312C11.92 62.464 12.072 61.688 12.376 60.984C12.696 60.28 13.184 59.632 13.84 59.04C14.512 58.448 15.448 57.984 16.648 57.648C17.864 57.296 19.296 57.104 20.944 57.072L21.088 58.92C19.616 58.92 18.384 59.016 17.392 59.208C16.416 59.384 15.672 59.664 15.16 60.048C14.664 60.432 14.32 60.864 14.128 61.344C13.936 61.808 13.84 62.376 13.84 63.048C13.84 64.68 14.384 65.856 15.472 66.576C16.56 67.296 18.488 67.592 21.256 67.464L21.04 69.096C19.312 69.208 17.84 69.152 16.624 68.928C15.408 68.688 14.464 68.288 13.792 67.728C13.12 67.168 12.64 66.536 12.352 65.832C12.064 65.112 11.92 64.272 11.92 63.312ZM29.5313 69.336C28.0433 69.336 26.8353 68.8 25.9073 67.728C24.9793 66.656 24.5153 65.192 24.5153 63.336C24.5153 61.464 25.0513 59.928 26.1233 58.728C27.2113 57.528 28.5313 56.928 30.0833 56.928C31.5713 56.928 32.7713 57.464 33.6833 58.536C34.6113 59.592 35.0753 61.048 35.0753 62.904C35.0753 64.808 34.5393 66.36 33.4673 67.56C32.3953 68.744 31.0833 69.336 29.5313 69.336ZM29.8433 67.728C30.8353 67.728 31.6273 67.344 32.2193 66.576C32.8273 65.792 33.1313 64.688 33.1313 63.264C33.1313 61.76 32.8193 60.592 32.1953 59.76C31.5873 58.928 30.7713 58.512 29.7473 58.512C28.7713 58.512 27.9793 58.904 27.3713 59.688C26.7793 60.472 26.4833 61.568 26.4833 62.976C26.4833 64.48 26.7873 65.648 27.3953 66.48C28.0033 67.312 28.8193 67.728 29.8433 67.728ZM42.8946 67.68C43.8066 67.68 44.6786 67.344 45.5106 66.672C45.4626 64.624 45.4386 62.056 45.4386 58.968C44.7346 58.744 44.0866 58.632 43.4946 58.632C42.3746 58.632 41.4546 59.04 40.7346 59.856C40.0146 60.656 39.6546 61.776 39.6546 63.216C39.6546 64.672 39.9506 65.784 40.5426 66.552C41.1346 67.304 41.9186 67.68 42.8946 67.68ZM45.7266 69.048L45.6066 67.824C44.5666 68.8 43.4146 69.288 42.1506 69.288C40.8546 69.288 39.7906 68.792 38.9586 67.8C38.1426 66.792 37.7346 65.432 37.7346 63.72C37.7346 61.656 38.3746 60.016 39.6546 58.8C40.9346 57.584 42.5106 56.976 44.3826 56.976C44.7506 56.976 45.1026 57 45.4386 57.048V52.224L47.3826 52.056V57.288C47.3826 62.584 47.4386 66.472 47.5506 68.952L45.7266 69.048ZM57.4819 69H54.6259L54.7699 66.216H57.6259L57.4819 69ZM86.4166 69H77.5846V67.512H80.7046C80.6406 62.776 80.5926 59.872 80.5606 58.8L77.5846 58.632L77.7286 57.24H82.2886C82.3526 57.912 82.4006 58.584 82.4326 59.256C83.7446 57.896 85.5366 57.08 87.8086 56.808L87.9046 58.872C85.6326 59.048 83.8326 59.568 82.5046 60.432C82.5046 60.864 82.5126 61.896 82.5286 63.528C82.5606 65.144 82.5846 66.472 82.6006 67.512H86.5846L86.4166 69ZM100.116 69.264C98.3079 69.264 96.7879 69.136 95.5559 68.88C94.3239 68.608 93.3559 68.208 92.6519 67.68C91.9639 67.152 91.4759 66.536 91.1879 65.832C90.8999 65.128 90.7559 64.28 90.7559 63.288C90.7559 61.512 91.2919 60.016 92.3639 58.8C93.4519 57.568 94.7639 56.952 96.2999 56.952C97.8839 56.952 99.0679 57.544 99.8519 58.728C100.652 59.896 100.94 61.464 100.716 63.432L92.6759 63.624C92.7719 65.032 93.3639 66.032 94.4519 66.624C95.5559 67.216 97.5079 67.544 100.308 67.608L100.116 69.264ZM95.9639 58.56C94.9879 58.56 94.2119 58.896 93.6359 59.568C93.0599 60.224 92.7399 61.176 92.6759 62.424C93.8439 62.376 95.9159 62.312 98.8919 62.232C98.8759 61.08 98.6199 60.184 98.1239 59.544C97.6439 58.888 96.9239 58.56 95.9639 58.56ZM104.287 63.312C104.287 62.464 104.439 61.688 104.743 60.984C105.063 60.28 105.551 59.632 106.207 59.04C106.879 58.448 107.815 57.984 109.015 57.648C110.231 57.296 111.663 57.104 113.311 57.072L113.455 58.92C111.983 58.92 110.751 59.016 109.759 59.208C108.783 59.384 108.039 59.664 107.527 60.048C107.031 60.432 106.687 60.864 106.495 61.344C106.303 61.808 106.207 62.376 106.207 63.048C106.207 64.68 106.751 65.856 107.839 66.576C108.927 67.296 110.855 67.592 113.623 67.464L113.407 69.096C111.679 69.208 110.207 69.152 108.991 68.928C107.775 68.688 106.831 68.288 106.159 67.728C105.487 67.168 105.007 66.536 104.719 65.832C104.431 65.112 104.287 64.272 104.287 63.312ZM123.531 55.344H121.539L121.683 52.08H123.747L123.531 55.344ZM127.898 69H117.267V67.512H121.683V58.8L117.291 58.608L117.435 57.24H123.627V67.512H128.043L127.898 69ZM134.878 67.608C135.982 67.608 136.894 67.208 137.614 66.408C138.334 65.608 138.694 64.496 138.694 63.072C138.694 61.648 138.398 60.544 137.806 59.76C137.214 58.976 136.438 58.584 135.478 58.584C134.55 58.584 133.654 58.912 132.79 59.568C132.854 62.08 132.894 64.64 132.91 67.248C133.598 67.488 134.254 67.608 134.878 67.608ZM132.91 72.96L130.966 73.128V69.048C130.966 63.224 130.918 59.312 130.822 57.312L132.598 57.192L132.718 58.416C133.79 57.456 134.966 56.976 136.246 56.976C137.51 56.976 138.55 57.488 139.366 58.512C140.198 59.536 140.614 60.896 140.614 62.592C140.614 64.64 139.99 66.272 138.742 67.488C137.51 68.688 135.99 69.288 134.182 69.288C133.718 69.288 133.294 69.256 132.91 69.192V72.96ZM149.921 55.344H147.929L148.073 52.08H150.137L149.921 55.344ZM154.289 69H143.657V67.512H148.073V58.8L143.681 58.608L143.825 57.24H150.017V67.512H154.433L154.289 69ZM166.092 69.264C164.284 69.264 162.764 69.136 161.532 68.88C160.3 68.608 159.332 68.208 158.628 67.68C157.94 67.152 157.452 66.536 157.164 65.832C156.876 65.128 156.732 64.28 156.732 63.288C156.732 61.512 157.268 60.016 158.34 58.8C159.428 57.568 160.74 56.952 162.276 56.952C163.86 56.952 165.044 57.544 165.828 58.728C166.628 59.896 166.916 61.464 166.692 63.432L158.652 63.624C158.748 65.032 159.34 66.032 160.428 66.624C161.532 67.216 163.484 67.544 166.284 67.608L166.092 69.264ZM161.94 58.56C160.964 58.56 160.188 58.896 159.612 59.568C159.036 60.224 158.716 61.176 158.652 62.424C159.82 62.376 161.892 62.312 164.868 62.232C164.852 61.08 164.596 60.184 164.1 59.544C163.62 58.888 162.9 58.56 161.94 58.56ZM175.328 58.632C174.32 58.632 173.312 58.976 172.304 59.664C172.368 62.512 172.4 65.624 172.4 69H170.456C170.456 63.736 170.4 59.84 170.288 57.312L172.088 57.192L172.208 58.536C173.456 57.496 174.768 56.976 176.144 56.976C178.48 56.976 179.648 58.328 179.648 61.032V69H177.704V61.68C177.704 60.592 177.504 59.816 177.104 59.352C176.704 58.872 176.112 58.632 175.328 58.632ZM192.579 69.192C190.067 69.224 188.307 68.944 187.299 68.352C186.291 67.744 185.787 66.704 185.787 65.232V58.752H183.363L183.555 57.24H185.787V53.976L187.731 53.808V57.24H192.531V58.752H187.731V64.92C187.731 65.928 188.075 66.616 188.763 66.984C189.467 67.336 190.811 67.528 192.795 67.56L192.579 69.192ZM205.678 69.264C203.87 69.264 202.35 69.136 201.118 68.88C199.886 68.608 198.918 68.208 198.214 67.68C197.526 67.152 197.038 66.536 196.75 65.832C196.462 65.128 196.318 64.28 196.318 63.288C196.318 61.512 196.854 60.016 197.926 58.8C199.014 57.568 200.326 56.952 201.862 56.952C203.446 56.952 204.63 57.544 205.414 58.728C206.214 59.896 206.502 61.464 206.278 63.432L198.238 63.624C198.334 65.032 198.926 66.032 200.014 66.624C201.118 67.216 203.07 67.544 205.87 67.608L205.678 69.264ZM201.526 58.56C200.55 58.56 199.774 58.896 199.198 59.568C198.622 60.224 198.302 61.176 198.238 62.424C199.406 62.376 201.478 62.312 204.454 62.232C204.438 61.08 204.182 60.184 203.686 59.544C203.206 58.888 202.486 58.56 201.526 58.56Z" fill="black"/>
</g>
<line y1="79.5" x2="360" y2="79.5" stroke="#3D1A1A" stroke-opacity="0.2"/>
<line x1="0.5" y1="40" x2="0.499998" y2="79" stroke="#3D1A1A" stroke-opacity="0.2"/>
<line x1="359.5" y1="40" x2="359.5" y2="79" stroke="#3D1A1A" stroke-opacity="0.2"/>
<path d="M0 5C0 2.23858 2.23858 0 5 0H355C357.761 0 360 2.23858 360 5V40H0V5Z" fill="#836B7F"/>
<path d="M19.52 30.28L16.692 22.16V22.132C18.204 21.404 19.268 20.6853 19.884 19.976C20.5 19.2667 20.808 18.5107 20.808 17.708C20.808 16.1773 19.6693 15.552 17.392 15.832L14.676 30H10.7L14.032 12.752C16.104 12.5093 17.8307 12.4253 19.212 12.5C20.5933 12.556 21.704 12.808 22.544 13.256C23.384 13.6853 23.972 14.1987 24.308 14.796C24.6627 15.3933 24.84 16.084 24.84 16.868C24.84 19.0707 23.5613 21.0027 21.004 22.664L23.888 29.72L19.52 30.28ZM39.4225 28.32C37.4065 29.328 35.5772 29.9533 33.9345 30.196C32.2919 30.4573 30.9665 30.364 29.9585 29.916C28.9505 29.468 28.1759 28.8147 27.6345 27.956C27.1119 27.0787 26.8505 26.052 26.8505 24.876C26.8505 23.364 27.2425 21.88 28.0265 20.424C28.8105 18.968 29.9025 17.764 31.3025 16.812C32.7025 15.86 34.1959 15.384 35.7825 15.384C37.1079 15.384 38.1532 15.72 38.9185 16.392C39.7025 17.0453 40.0945 17.9507 40.0945 19.108C40.0945 20.7507 39.2825 22.0573 37.6585 23.028C36.0532 23.9987 33.7012 24.596 30.6025 24.82C30.6585 25.66 30.9385 26.248 31.4425 26.584C31.9652 26.9013 32.7959 27.0413 33.9345 27.004C35.0919 26.9667 36.7999 26.7427 39.0585 26.332L39.4225 28.32ZM34.6905 18.52C33.7759 18.52 32.9639 18.9307 32.2545 19.752C31.5452 20.5547 31.0599 21.5533 30.7985 22.748C34.5505 22.4867 36.4265 21.572 36.4265 20.004C36.4265 19.556 36.2679 19.2013 35.9505 18.94C35.6332 18.66 35.2132 18.52 34.6905 18.52ZM55.5451 21.012L52.0171 21.068C52.0357 20.228 51.9237 19.6307 51.6811 19.276C51.4384 18.9027 51.0184 18.716 50.4211 18.716C49.3384 18.716 48.4237 19.2573 47.6771 20.34C46.9304 21.404 46.5571 22.6547 46.5571 24.092C46.5571 25.5293 47.0331 26.4253 47.9851 26.78C48.9557 27.116 51.0371 27.0693 54.2291 26.64L54.5091 28.656C52.8851 29.384 51.4011 29.8693 50.0571 30.112C48.7317 30.3733 47.6211 30.4107 46.7251 30.224C45.8291 30.0373 45.0637 29.7013 44.4291 29.216C43.8131 28.712 43.3651 28.096 43.0851 27.368C42.8051 26.64 42.6651 25.8187 42.6651 24.904C42.6651 22.328 43.5424 20.1067 45.2971 18.24C47.0517 16.3547 49.1331 15.412 51.5411 15.412C53.0717 15.412 54.1637 15.8507 54.8171 16.728C55.4704 17.6053 55.7131 19.0333 55.5451 21.012ZM68.6436 13.62L64.4436 13.816L65.3676 9.896L69.8476 9.672L68.6436 13.62ZM70.8276 28.488C69.2596 29.1787 67.8783 29.6733 66.6836 29.972C65.4889 30.2707 64.5183 30.3733 63.7716 30.28C63.0249 30.1867 62.4369 29.944 62.0076 29.552C61.5969 29.16 61.3823 28.6187 61.3636 27.928C61.3449 27.2187 61.4476 26.4067 61.6716 25.492L63.4636 18.968L59.1236 19.108L58.8436 17.148L64.7516 15.804H67.9716L65.6476 24.764C65.3303 25.9587 65.3956 26.6493 65.8436 26.836C66.3103 27.004 67.8689 26.892 70.5196 26.5L70.8276 28.488ZM80.1181 27.172C80.9208 27.172 81.6581 26.528 82.3301 25.24C83.0021 23.9333 83.3381 22.6173 83.3381 21.292C83.3381 19.8173 82.8995 19.08 82.0221 19.08C81.2381 19.08 80.2675 19.5933 79.1101 20.62L77.9061 26.724C78.8021 27.0227 79.5395 27.172 80.1181 27.172ZM76.3661 34.648L72.5301 34.928C74.6021 24.0827 75.7501 17.7453 75.9741 15.916L79.7541 15.692L79.4181 18.044C81.2475 16.308 82.8248 15.44 84.1501 15.44C85.0461 15.44 85.7741 15.8507 86.3341 16.672C86.9128 17.4747 87.2021 18.632 87.2021 20.144C87.2021 21.8613 86.8568 23.4947 86.1661 25.044C85.4755 26.5747 84.4301 27.8533 83.0301 28.88C81.6488 29.888 80.0715 30.392 78.2981 30.392C78.0928 30.392 77.7288 30.3733 77.2061 30.336L76.3661 34.648ZM99.9927 13.62L95.7927 13.816L96.7167 9.896L101.197 9.672L99.9927 13.62ZM102.177 28.488C100.609 29.1787 99.2273 29.6733 98.0327 29.972C96.838 30.2707 95.8673 30.3733 95.1207 30.28C94.374 30.1867 93.786 29.944 93.3567 29.552C92.946 29.16 92.7313 28.6187 92.7127 27.928C92.694 27.2187 92.7967 26.4067 93.0207 25.492L94.8127 18.968L90.4727 19.108L90.1927 17.148L96.1007 15.804H99.3207L96.9967 24.764C96.6793 25.9587 96.7447 26.6493 97.1927 26.836C97.6593 27.004 99.218 26.892 101.869 26.5L102.177 28.488ZM117.795 28.32C115.779 29.328 113.95 29.9533 112.307 30.196C110.665 30.4573 109.339 30.364 108.331 29.916C107.323 29.468 106.549 28.8147 106.007 27.956C105.485 27.0787 105.223 26.052 105.223 24.876C105.223 23.364 105.615 21.88 106.399 20.424C107.183 18.968 108.275 17.764 109.675 16.812C111.075 15.86 112.569 15.384 114.155 15.384C115.481 15.384 116.526 15.72 117.291 16.392C118.075 17.0453 118.467 17.9507 118.467 19.108C118.467 20.7507 117.655 22.0573 116.031 23.028C114.426 23.9987 112.074 24.596 108.975 24.82C109.031 25.66 109.311 26.248 109.815 26.584C110.338 26.9013 111.169 27.0413 112.307 27.004C113.465 26.9667 115.173 26.7427 117.431 26.332L117.795 28.32ZM113.063 18.52C112.149 18.52 111.337 18.9307 110.627 19.752C109.918 20.5547 109.433 21.5533 109.171 22.748C112.923 22.4867 114.799 21.572 114.799 20.004C114.799 19.556 114.641 19.2013 114.323 18.94C114.006 18.66 113.586 18.52 113.063 18.52ZM134.338 28.712C133.348 29.3093 132.462 29.7387 131.678 30C130.894 30.28 130.25 30.3827 129.746 30.308C129.242 30.2333 128.859 30.028 128.598 29.692C128.336 29.356 128.206 28.8987 128.206 28.32C128.206 27.592 128.458 26.2293 128.962 24.232C129.484 22.2347 129.746 20.928 129.746 20.312C129.746 19.5093 129.419 19.108 128.766 19.108C128.056 19.108 127.142 19.6493 126.022 20.732L124.146 30H120.366C121.71 23.0187 122.54 18.324 122.858 15.916L126.666 15.692L126.358 18.016C128.038 16.28 129.69 15.412 131.314 15.412C133.031 15.412 133.89 16.3733 133.89 18.296C133.89 19.3413 133.619 20.9187 133.078 23.028C132.555 25.1187 132.294 26.3133 132.294 26.612C132.294 26.8733 132.387 27.0227 132.574 27.06C132.76 27.0787 133.246 26.9947 134.03 26.808L134.338 28.712ZM148.556 28.516C147.119 29.2813 145.812 29.8133 144.636 30.112C143.46 30.4293 142.49 30.5133 141.724 30.364C140.978 30.2147 140.343 29.916 139.82 29.468C139.316 29.0013 139.027 28.3853 138.952 27.62C138.878 26.836 138.924 25.968 139.092 25.016L140.436 18.912H137.888L138.616 15.916H140.268L142.9 11.996L145.812 11.772L144.916 15.916H149.704L149.144 18.912H144.272L142.984 24.792C142.686 25.9493 142.863 26.6587 143.516 26.92C144.17 27.1627 145.794 27.06 148.388 26.612L148.556 28.516ZM164.819 28.32C162.803 29.328 160.973 29.9533 159.331 30.196C157.688 30.4573 156.363 30.364 155.355 29.916C154.347 29.468 153.572 28.8147 153.031 27.956C152.508 27.0787 152.247 26.052 152.247 24.876C152.247 23.364 152.639 21.88 153.423 20.424C154.207 18.968 155.299 17.764 156.699 16.812C158.099 15.86 159.592 15.384 161.179 15.384C162.504 15.384 163.549 15.72 164.315 16.392C165.099 17.0453 165.491 17.9507 165.491 19.108C165.491 20.7507 164.679 22.0573 163.055 23.028C161.449 23.9987 159.097 24.596 155.999 24.82C156.055 25.66 156.335 26.248 156.839 26.584C157.361 26.9013 158.192 27.0413 159.331 27.004C160.488 26.9667 162.196 26.7427 164.455 26.332L164.819 28.32ZM160.087 18.52C159.172 18.52 158.36 18.9307 157.651 19.752C156.941 20.5547 156.456 21.5533 156.195 22.748C159.947 22.4867 161.823 21.572 161.823 20.004C161.823 19.556 161.664 19.2013 161.347 18.94C161.029 18.66 160.609 18.52 160.087 18.52Z" fill="#EEEEEE"/>
<rect width="360" height="40" transform="translate(0 119)" fill="#C3C4A2" fill-opacity="0.15"/>
<g opacity="0.7">
<path d="M21.04 148.192C18.528 148.224 16.768 147.944 15.76 147.352C14.752 146.744 14.248 145.704 14.248 144.232V137.752H11.824L12.016 136.24H14.248V132.976L16.192 132.808V136.24H20.992V137.752H16.192V143.92C16.192 144.928 16.536 145.616 17.224 145.984C17.928 146.336 19.272 146.528 21.256 146.56L21.04 148.192ZM31.1633 134.344H29.1713L29.3153 131.08H31.3793L31.1633 134.344ZM35.5313 148H24.8993V146.512H29.3153V137.8L24.9233 137.608L25.0673 136.24H31.2593V146.512H35.6753L35.5313 148ZM42.5106 146.608C43.6146 146.608 44.5266 146.208 45.2466 145.408C45.9666 144.608 46.3266 143.496 46.3266 142.072C46.3266 140.648 46.0306 139.544 45.4386 138.76C44.8466 137.976 44.0706 137.584 43.1106 137.584C42.1826 137.584 41.2866 137.912 40.4226 138.568C40.4866 141.08 40.5266 143.64 40.5426 146.248C41.2306 146.488 41.8866 146.608 42.5106 146.608ZM40.5426 151.96L38.5986 152.128V148.048C38.5986 142.224 38.5506 138.312 38.4546 136.312L40.2306 136.192L40.3506 137.416C41.4226 136.456 42.5986 135.976 43.8786 135.976C45.1426 135.976 46.1826 136.488 46.9986 137.512C47.8306 138.536 48.2466 139.896 48.2466 141.592C48.2466 143.64 47.6226 145.272 46.3746 146.488C45.1426 147.688 43.6226 148.288 41.8146 148.288C41.3506 148.288 40.9266 148.256 40.5426 148.192V151.96ZM55.9219 148.336C54.4339 148.336 53.2259 147.8 52.2979 146.728C51.3699 145.656 50.9059 144.192 50.9059 142.336C50.9059 140.464 51.4419 138.928 52.5139 137.728C53.6019 136.528 54.9219 135.928 56.4739 135.928C57.9619 135.928 59.1619 136.464 60.0739 137.536C61.0019 138.592 61.4659 140.048 61.4659 141.904C61.4659 143.808 60.9299 145.36 59.8579 146.56C58.7859 147.744 57.4739 148.336 55.9219 148.336ZM56.2339 146.728C57.2259 146.728 58.0179 146.344 58.6099 145.576C59.2179 144.792 59.5219 143.688 59.5219 142.264C59.5219 140.76 59.2099 139.592 58.5859 138.76C57.9779 137.928 57.1619 137.512 56.1379 137.512C55.1619 137.512 54.3699 137.904 53.7619 138.688C53.1699 139.472 52.8739 140.568 52.8739 141.976C52.8739 143.48 53.1779 144.648 53.7859 145.48C54.3939 146.312 55.2099 146.728 56.2339 146.728Z" fill="black"/>
</g>
<line y1="158.5" x2="360" y2="158.5" stroke="#3D1A1A" stroke-opacity="0.2"/>
<line x1="0.5" y1="119" x2="0.499998" y2="158" stroke="#3D1A1A" stroke-opacity="0.2"/>
<line x1="359.5" y1="119" x2="359.5" y2="158" stroke="#3D1A1A" stroke-opacity="0.2"/>
<rect x="322" y="82" width="32" height="73" rx="16" fill="#D6CACD"/>
<path d="M331.974 94.936V102.766C331.974 103.234 331.986 103.654 332.01 104.026C332.046 104.398 332.124 104.716 332.244 104.98C332.376 105.232 332.568 105.43 332.82 105.574C333.084 105.718 333.444 105.79 333.9 105.79C334.356 105.79 334.71 105.718 334.962 105.574C335.226 105.43 335.418 105.232 335.538 104.98C335.67 104.716 335.748 104.398 335.772 104.026C335.808 103.654 335.826 103.234 335.826 102.766V94.936H338.184V102.406C338.184 103.294 338.13 104.068 338.022 104.728C337.914 105.388 337.704 105.94 337.392 106.384C337.08 106.828 336.642 107.164 336.078 107.392C335.526 107.608 334.8 107.716 333.9 107.716C333 107.716 332.268 107.608 331.704 107.392C331.152 107.164 330.72 106.828 330.408 106.384C330.096 105.94 329.886 105.388 329.778 104.728C329.67 104.068 329.616 103.294 329.616 102.406V94.936H331.974ZM344.279 101.992L342.965 103.72V107.5H340.607V94.936H342.965V100.588H343.073L344.531 98.5L347.177 94.936H349.841L345.899 100.228L350.021 107.5H347.357L344.279 101.992Z" fill="black"/>
<rect x="284" y="82" width="32" height="33" rx="16" fill="#9DA076"/>
<path d="M293.902 98.482H293.722V107.5H291.706V94.936H294.604L297.898 103.954H298.078V94.936H300.094V107.5H297.196L293.902 98.482ZM304.695 98.482H304.515V107.5H302.499V94.936H305.397L308.691 103.954H308.871V94.936H310.887V107.5H307.989L304.695 98.482Z" fill="white"/>
<rect x="284" y="122" width="32" height="33" rx="16" fill="#9DA076"/>
<path d="M293.902 138.482H293.722V147.5H291.706V134.936H294.604L297.898 143.954H298.078V134.936H300.094V147.5H297.196L293.902 138.482ZM304.695 138.482H304.515V147.5H302.499V134.936H305.397L308.691 143.954H308.871V134.936H310.887V147.5H307.989L304.695 138.482Z" fill="white"/>
<rect x="322" y="43" width="32" height="33" rx="16" fill="#836B7F"/>
<path d="M329.94 68.5V55.936H334.71C335.934 55.936 336.87 56.284 337.518 56.98C338.166 57.676 338.49 58.624 338.49 59.824C338.49 61.024 338.166 61.972 337.518 62.668C336.87 63.364 335.934 63.712 334.71 63.712H332.298V68.5H329.94ZM332.298 61.786H334.224C334.86 61.786 335.316 61.66 335.592 61.408C335.868 61.144 336.006 60.73 336.006 60.166V59.482C336.006 58.918 335.868 58.51 335.592 58.258C335.316 57.994 334.86 57.862 334.224 57.862H332.298V61.786ZM344.279 62.992L342.965 64.72V68.5H340.607V55.936H342.965V61.588H343.073L344.531 59.5L347.177 55.936H349.841L345.899 61.228L350.021 68.5H347.357L344.279 62.992Z" fill="white"/>
</svg>
